<?xml version="1.0" encoding="utf-8" ?>
<svg baseProfile="full" height="300mm" version="1.1" viewBox="0,0,200,300" width="200mm" xmlns="http://www.w3.org/2000/svg" xmlns:ev="http://www.w3.org/2001/xml-events" xmlns:xlink="http://www.w3.org/1999/xlink"><defs /><rect fill="#222222" height="300" width="200" x="0" y="0" /><text fill="#FFFFFF" style="font-size:12px; font-family:Arial; font-weight:bold;" x="10" y="20">Over 10km Runs</text><text fill="#FFFFFF" style="font-size:4px; font-family:Arial" x="10" y="280">Runner</text><text fill="#FFFFFF" style="font-size:9px; font-family:Arial" x="10" y="290">Wangyp</text><text fill="#FFFFFF" style="font-size:4px; font-family:Arial" x="65" y="280">SPECIAL TRACKS</text><rect fill="yellow" height="2.6" width="2.6" x="65" y="283" /><text fill="#FFFFFF" style="font-size:3px; font-family:Arial" x="70" y="285.5">Over 20.0 km</text><rect fill="red" height="2.6" width="2.6" x="65" y="287" /><text fill="#FFFFFF" style="font-size:3px; font-family:Arial" x="70" y="289.5">Over 40.0 km</text><text fill="#FFFFFF" style="font-size:4px; font-family:Arial" x="120" y="280">STATISTICS</text><text fill="#FFFFFF" style="font-size:3px; font-family:Arial" x="120" y="285">Number: 19</text><text fill="#FFFFFF" style="font-size:3px; font-family:Arial" x="120" y="290">Weekly: 1.7</text><text fill="#FFFFFF" style="font-size:3px; font-family:Arial" x="141" y="285">Total: 220.5 km</text><text fill="#FFFFFF" style="font-size:3px; font-family:Arial" x="141" y="290">Avg: 11.6 km</text><text fill="#FFFFFF" style="font-size:3px; font-family:Arial" x="167" y="285">Min: 10.0 km</text><text fill="#FFFFFF" style="font-size:3px; font-family:Arial" x="167" y="290">Max: 21.3 km</text><polyline fill="none" points="32.36271186429076,40.19638399477117 19.526271186536178,40.99274823197629 13.89745762734674,53.0973839922226 12.730508474865928,60.74231979867909 24.05677966098301,65.99816946865758 44.44406779669225,64.80366130633047 48.42542372900061,63.52951723948354 52.54406779631972,58.67182378919097 52.2694915253669,47.124725477187894 50.21016949112527,43.3818360385485 43.55169491516426,38.92219951498555 19.732203389750794,40.99274823197629 14.03474576282315,52.53993780934252 12.25,59.388534571568016 14.721186440670863,61.777565731375944 24.262711864430457,66.0778032806702 48.15084745758213,63.92768748517847 52.681355932028964,58.75145835313015 52.13220338965766,47.04508971970063 50.34745762683451,43.46147217217367 45.81694915262051,39.79820156970527 42.72796610137448,38.842562915582675 19.594915254507214,41.072384610946756 13.828813559608534,53.17701912834309 12.318644067971036,59.70707248453982 24.19406779645942,65.91853564849589 48.35677966102958,63.688785362348426 52.681355932028964,58.592189217044506 52.063559321919456,46.56727500312263 46.64067796617746,40.35565690766089 43.345762711483985,39.08147268940229 19.80084745795466,41.152020981302485 13.966101695084944,53.17701912834309 12.455932203447446,59.70707248453982 14.240677966037765,61.45902866811957 24.05677966098301,65.8389018199523 48.35677966102958,63.76841941155726 52.54406779631972,58.990361996460706 52.33813559310511,47.36363270052243 50.21016949112527,43.541108297533356 44.03220338979736,39.24074583116453 19.594915254507214,41.31129369803239 13.828813559608534,53.49555959162535 12.455932203447446,59.78670694230823 24.125423728954047,66.15743708447553 48.42542372900061,63.52951723948354 52.75,58.35328545112861 51.99491525418125,46.726546608028 50.41610169457272,43.70038052363088 44.03220338979736,39.32038238970563 20.144067796645686,41.152020981302485 13.691525423899293,53.814099924115 12.455932203447446,59.30890007276321 13.966101695084944,61.37939438200556 23.095762711949646,65.67963413853431 26.390677966177464,66.0778032806702 46.57203389820643,64.48512548569124 50.82796610146761,61.53866294625914 52.75,57.716208382626064 52.20084745739587,46.56727500312263 49.45508474553935,42.90401906578336 43.48305084742606,39.32038238970563 19.594915254507214,41.390930043999106 13.966101695084944,52.938113695185166 12.455932203447446,60.42378231039038 24.262711864430457,65.91853564849589 47.944915254134685,64.00732150982367 52.61271186429076,58.990361996460706 52.063559321919456,46.48763918841723 46.64067796617746,40.59456621558638 43.345762711483985,39.32038238970563 20.144067796645686,41.072384610946756 14.17203389829956,52.46030260785483 12.455932203447446,59.86634139181115 24.262711864430457,65.99816946865758 47.25847457628697,64.40549151028972" stroke="#4DD2FF" stroke-linecap="round" stroke-linejoin="round" stroke-width="0.5"><title>2025-10-26 12.0km</title><desc>1761480636000</desc></polyline><polyline fill="none" points="96.2398305083625,60.02560732385609 97.75,57.23839786759345 96.92627118621022,45.69128059159266 91.0915254233405,39.95747574127745 87.52203389839269,39.001837479532696 64.66355932224542,41.072385558800306 58.69152542389929,53.25665270304307 57.52457627141848,59.62743515742477 69.81186440680176,65.83889768377412 86.69830508483574,64.88329130108468 93.83728813519701,63.21097729919711 97.68135593202896,58.59218656824669 97.2694915253669,46.88581793481717 95.41610169457272,43.62074483965989 89.44406779669225,39.08147404628107 64.7322033897508,40.833476447092835 58.7601694916375,52.619571580551565 57.52457627141848,59.94597290700767 70.22372881369665,65.91853149578674 90.26779661001638,64.40548766835127 93.63135593221523,63.21097729919711 97.68135593202896,58.51255200430751 97.20084745739587,47.124725182773545 95.2788135590963,43.46147262962768 88.48305084742606,38.92220090451883 64.45762711856514,41.31129459681688 58.89745762734674,52.38066602445906 57.38728813570924,59.38853175949771 58.348305084975436,60.901585370942485 70.15508474549279,65.91853149578674 90.88559322035871,64.48512162751285 93.90593220316805,63.21097729919711 97.61271186429076,58.43291743216105 96.85762711847201,45.5320088067092 90.47372881346382,39.79820277937688 84.02118644025177,38.92220090451883 64.59491525450721,41.072385558800306 58.211016949266195,54.530813379213214 57.25,59.22926278668456 58.41694915248081,60.981219689769205 70.22372881369665,65.99816529959207 85.80593220307492,64.96292521117721 93.56271186424419,63.37024545460008 97.61271186429076,58.67182112426963 96.99491525418125,45.930188207363244 90.33644067798741,39.47965675749583 83.4720338981133,38.92220090451883 64.52627118653618,41.15202191314893 58.966101695084944,52.5399364035693 57.66186440666206,60.26451052550692 69.60593220335431,65.91853149578674 93.08220338984393,63.6091476266738 97.75,58.59218656824669 97.13220338965766,46.6469106132281 91.02288135606796,40.03711220988771 87.86525423731655,39.08147404628107 64.86949152546003,41.15202191314893 59.03474576282315,52.38066602445906 57.59322033938952,60.02560732385609 70.22372881369665,66.07779909548117 92.46440677926876,64.00731774972519 97.33813559310511,59.786704048572574 97.06355932191946,46.08945991023211 91.22881355904974,40.19638512277743 86.97288135578856,39.001837479532696 71.0474576272536,40.435294430702925" stroke="#4DD2FF" stroke-linecap="round" stroke-linejoin="round" stroke-width="0.5"><title>2025-10-22 10.1km</title><desc>1761137801000</desc></polyline><polyline fill="none" points="122.08836065573269,55.39300298956368 128.99327868854743,56.988188845331024 130.56016393442405,57.50275946985494 128.72770491801202,59.50955946750037 126.558852459013,60.80623947024287 125.53196721311542,62.80268198023259 125.08049180326634,64.09931905395933 124.7795081967488,64.18164464674919 122.76114754096488,64.03757481465436 119.21131147540291,62.87471781664499 116.39622950821649,62.308720553832245 114.07688524591504,66.52789540048252 113.74934426229447,66.7439946604427 109.67721311474452,64.23309810763021 109.57098360653617,63.872923322524 110.10213114751969,62.072029834358545 111.21754098360543,60.06528153862746 112.19131147541339,56.75148546403943 113.38639344263356,56.62798782407481 114.28934426227352,56.73090253469127 118.18442622950533,58.68626180280262 118.47655737702735,58.37752342150634 119.63622950820718,55.053379471442895 119.49459016392939,54.76521315253194 119.06967213115422,54.64171304597403 104.54278688525665,51.34832029086101 102.59524590166984,50.87488611543813 102.3473770491837,50.66904446655826 102.25,48.82674273504381 102.43590163934277,46.397734090074664 103.38311475410592,43.11436113292439 103.79918032788555,42.23946289440937 104.99426229507662,40.458763871931296 106.70278688526014,38.523632812997676 107.20737704919884,38.25600533956458 109.44704918033676,39.62501521547529 109.56213114754064,39.8617593720337 107.59688524590456,42.95996788561024 106.96836065570824,45.162622189789545 107.44639344263123,43.5466609497671 107.93327868852066,42.4453219961797 109.68606557379826,39.90293221128377 115.1745901639224,41.838036419823766 118.90147540983162,42.55854432045453 119.36180327867623,42.486493765383784 120.17622950818622,42.87762472235772 120.22934426230495,45.67725401293865 120.34442622947972,45.94486150820012 120.64540983602637,46.006616981750994 123.40737704918138,45.625790950492956 125.46999999997206,45.72871704872523 127.30245901638409,46.212468283185444 129.17032786883647,47.17996369097091 127.18737704915111,46.20217572822003 125.0450819671969,45.69783923045179 123.44278688525083,45.66696140258864 120.48606557378662,46.099250120139914 119.17590163933346,46.10954268575733 117.56475409836276,46.027202131073864 115.26311475408147,45.615498334802396 114.51950819671038,48.5385583712341 114.64344262293889,48.79586587887752 129.32967213113443,52.326057649093855 141.84704918030184,55.135712552022596 142.679180327832,55.50621057119861 142.75,55.94874806293228 142.26311475411057,59.47868592807208 142.0772131147387,59.74625628483045 141.6434426229098,59.85945891135634 122.07065573771251,55.3621281721862" stroke="yellow" stroke-linecap="round" stroke-linejoin="round" stroke-width="0.5"><title>2025-10-12 21.3km</title><desc>1760225536000</desc></polyline><polyline fill="none" points="169.64249146776274,40.51329610613175 164.38993174070492,40.19257600500714 154.64505119458772,41.71599531255197 148.07935153599828,54.14377867814619 147.25,59.114836661552545 148.0102389077656,60.87875285779592 160.17406143341213,65.68941314902622 180.07849829364568,64.40657330147224 183.3267918091733,63.28408670669887 186.09129692870192,60.71839700470446 187.47354948846623,57.511273026582785 186.92064846423455,45.48444083420327 182.5665529014077,40.753836095449515 178.8344709901139,39.07005461398512 154.71416382258758,41.395275705261156 149.18515358353034,52.21948967530625 147.59556313976645,60.07697326235939 159.13737201387994,65.60923572012689 180.90784982941113,64.16604059556266 185.26194539270364,61.68053163046716 187.54266211623326,57.6716295380611 186.92064846423455,45.72497929277597 183.53412969317287,41.55563552532112 179.24914675811306,39.150234766770154 154.36860068282112,41.55563552532112 148.90870307176374,53.02127733605448 147.80290102376603,60.47786316293059 161.07252559741028,65.76959056936903 178.76535836188123,64.72728346084477 184.98549488047138,61.84088728623465 187.54266211623326,56.629311623983085 186.50597269670106,44.44210665777791 180.00938566587865,39.23041491146432 168.951365187997,39.551135407644324 154.43771331035532,41.79617519368185 148.42491467576474,53.98342144227354 147.8720136519987,60.63821906555677 159.4829351536464,65.76959056936903 176.208191126585,65.04799348860979 183.60324232140556,63.28408670669887 187.61177474423312,57.83198601694312 187.3353242322337,45.96551767725032 181.46075085364282,39.871855772216804 177.5904436861165,39.150234766770154 156.7184300343506,40.673656107333954 153.60836177505553,43.159231915778946 148.07935153599828,55.82752766716294 147.66467576799914,59.91661724454025 151.05119453952648,62.241776281560306 159.13737201387994,65.8497679818538 179.31825938564725,64.64710593328346 183.46501706494018,63.364264374016784 187.61177474423312,57.6716295380611 187.47354948846623,45.64479981485056 181.8063139936421,40.032215904968325 177.65955631434917,39.31059504800942 156.51109215035103,40.753836095449515 154.64505119458772,41.71599531255197 152.57167235505767,45.16372277424671 147.38822525576688,59.35537092277082 148.56313993176445,60.95893077191431 159.27559726964682,65.92994538601488 177.79778157011606,64.80746098002419 183.7414675769396,62.8030205295654 186.85153583646752,59.59590511000715 187.75,56.95002497674432 187.47354948846623,46.36641482019331 184.15614334517159,41.956534931843635 179.52559726964682,39.47095529589569 155.3361774745863,41.234915852197446 150.01450511952862,50.61591188528109 147.52645051223226,59.83643922308693 158.8609215018805,65.68941314902622 163.4914675769396,65.76959056936903" stroke="#4DD2FF" stroke-linecap="round" stroke-linejoin="round" stroke-width="0.5"><title>2025-10-08 10.1km</title><desc>1759925805000</desc></polyline><polyline fill="none" points="24.169965576613322,89.60492164239986 18.66308089485392,92.19275743077742 13.713855421636254,102.6248842497589 12.319707401329651,108.12393426150084 13.36531841661781,109.82216253766092 24.03055077488534,114.67422315705335 45.43072289181873,113.13774052722147 48.63726333924569,112.08646121178754 52.33175559411757,106.66830711113289 52.052925989730284,94.94232364196796 50.65877796895802,92.27362716227071 44.733648881316185,88.23013042245293 33.78958691912703,88.39187069050968 19.5692771084141,90.65623095660703 14.829173838254064,99.22839300951455 12.319707401329651,107.71959365601651 16.083907057065517,110.87344487436349 23.82142857136205,114.35075337887974 41.31798623059876,113.70381342369365 48.63726333924569,111.84385809395462 51.49526678188704,109.09435086749727 52.54087779694237,106.34483404603088 52.47117039607838,95.58927900280105 48.916092943400145,90.49449115345487 44.38511187606491,88.14926027611364 20.126936316955835,90.09014150028815 14.829173838254064,99.39013101963792 12.25,108.52827465924202 24.03055077488534,114.51248828467214 48.009896729839966,112.24819658242632 52.192340791923925,107.80046179384226 52.54087779694237,95.67014838568866 50.72848537005484,92.03101794311078 44.663941480452195,87.98751995805651 19.5692771084141,90.17101144738263 13.853270223597065,101.49272213003132 12.737951807444915,108.4474065961549 23.96084337355569,114.26988591341069 44.59423407912254,113.13774052722147 48.63726333924569,111.92472580820322 52.68029259913601,107.07264825608581 52.192340791923925,94.3762372653 49.125215146224946,90.49449115345487 44.87306368350983,87.90664978674613 20.266351119149476,89.68579163955292 14.48063683300279,100.19882057234645 12.25,108.04306615696987 15.665662650717422,111.0351804937236 24.86703958711587,114.51248828467214 48.14931153180078,112.57166722399415 52.75,106.66830711113289 51.42555938055739,92.75884537643287 46.824870912358165,88.71535112702986 43.89716006908566,87.74490941897966 21.172547332243994,89.7666616284987 18.314543889835477,92.11188769101864 14.132099827984348,101.33098455151776 12.459122203290462,108.85174682788784 19.70869191060774,112.97600533918012 25.633820998482406,114.75509058102034 44.52452667825855,113.3803432470886 49.40404475061223,111.35865163354902 52.75,106.26396575907711 52.47117039607838,96.39797245699447 51.146729776170105,92.59710600483231 46.33691910491325,88.6344810303417 43.54862306360155,87.90664978674613 21.381669535301626,89.4431816234137 18.314543889835477,92.19275743077742 12.877366609405726,105.21267727186205 12.528829604154453,109.33695483213523 24.588209982961416,114.75509058102034 40.20266781398095,113.54207835177658" stroke="#4DD2FF" stroke-linecap="round" stroke-linejoin="round" stroke-width="0.5"><title>2025-10-06 10.0km</title><desc>1759752637000</desc></polyline><polyline fill="none" points="73.72931034490466,89.05828751117224 65.0706896551419,90.03040039882762 57.529310344485566,106.96117448451696 58.36724137910642,109.95845071581425 69.39999999990687,114.7378676457447 88.95172413787805,113.44175744004315 93.28103448287584,111.98363091453211 97.4706896552816,107.04218210000545 96.91206896537915,94.89094687497709 95.5155172413215,91.81260424910579 89.6500000001397,87.6811255372595 64.86120689613745,90.03040039882762 59.484482758212835,100.15650510950945 57.3896551723592,108.25729533284903 58.646551723824814,109.7154287424637 69.46982758608647,114.49484714417486 89.16120689664967,113.36075048154453 94.25862068985589,111.5785952907172 97.4706896552816,106.8801668609376 96.70258620707318,93.99984892847715 93.56034482759424,90.27342843357474 89.3008620692417,87.76213513169205 65.1405172413215,89.94939103716752 61.439655172405764,95.29599106317619 57.25,108.01427283580415 60.04310344788246,110.60650894488208 70.37758620665409,114.8188744627987 89.02155172429048,113.52276439027628 94.11896551703103,111.74060956516769 97.5405172414612,106.8801668609376 97.05172413797118,95.37699987605447 95.65517241391353,92.37966826651245 89.7198275863193,87.92415429558605 65.3499999998603,89.54434410459362 58.85603448259644,101.20961254060967 57.45948275830597,108.50031775486423 69.5396551724989,114.57585398614174 89.9991379310377,113.76578519114992 94.25862068985589,112.06463801453356 97.75,107.20419730589492 97.12155172438361,95.5390174765489 95.79482758627273,92.46067737881094 89.9293103448581,87.92415429558605 68.56206896551885,89.05828751117224 64.51206896523945,90.1924190968275 59.13534482731484,100.88557963451603 57.3896551723592,108.82434753456619 69.8189655172173,114.65686082007596 88.53275862056762,113.76578519114992 93.97931034490466,112.06463801453356 97.6801724138204,107.04218210000545 97.05172413797118,95.29599106317619 94.67758620693348,91.40755827294197 89.51034482754767,87.84314471791731 65.00086206872948,89.78737228905084 59.20517241372727,100.64255486772163 57.31982758594677,108.7433401022572 69.60948275844567,114.7378676457447 89.85948275891133,113.68477826582966 94.11896551703103,111.90262380649801 97.75,106.47512861777795 96.91206896537915,94.4048935744213 95.09655172401108,91.56957668840187 89.7198275863193,87.84314471791731 64.65172413783148,89.78737228905084 58.71637931000441,101.85767795366701 57.529310344485566,109.0673697819584 68.42241379269399,114.57585398614174 79.03620689641684,114.33283343492076" stroke="#4DD2FF" stroke-linecap="round" stroke-linejoin="round" stroke-width="0.5"><title>2025-10-02 10.0km</title><desc>1759407705000</desc></polyline><polyline fill="none" points="125.0398305086419,88.90656076179584 110.35000000009313,90.73819822538644 103.07372881355695,105.55041186895687 102.93644067808054,108.25799024332082 110.07542372914031,113.03604667744366 115.22372881369665,114.86762717546662 134.23813559347764,113.75275260471972 139.5923728812486,110.48775357432896 141.30847457656637,106.5060288446839 141.78898305119947,94.79963978379965 138.7686440681573,90.73819822538644 132.79661016957834,87.55273898784071 110.89915254246444,89.78256182733458 103.00508474581875,103.71880937519018 102.59322033915669,108.01908664905932 114.05677966121584,114.78799333085772 127.37372881383635,113.59348467795644 132.4533898306545,114.38982398429653 138.97457627113909,111.44336446898524 141.72033898322843,105.55041186895687 141.92627118644305,94.40146017906955 136.22881355974823,88.74728773452807 133.2084745762404,87.79164888424566 109.93813559343107,90.41965289018117 104.99576271185651,99.49814368842635 102.38728813594207,108.73579721077112 114.60593220335431,114.9472610122175 134.92457627109252,113.43421671894612 138.7686440681573,111.68226700846571 142.1322033898905,107.62091382883955 141.85762711893767,95.35709088732256 137.46440677996725,90.10110742412508 133.07118644099683,88.03055870707612 110.00677966093644,90.26038017345127 102.93644067808054,104.43552390934201 102.86779661010951,109.53214150271378 114.53728813561611,114.86762717546662 133.75762711884454,113.43421671894612 138.83728813542984,111.36373027262744 142.0635593221523,106.2671247109538 142.47542372881435,95.51636255782796 136.16016949154437,89.38437964749755 132.0415254237596,88.11019529844634 109.52627118653618,90.81783453858225 104.24067796603777,100.77230933419196 102.38728813594207,108.4172592650284 114.53728813561611,114.78799333085772 133.96355932205915,113.43421671894612 138.08220338984393,112.0804377446766 142.0635593221523,107.38201003830181 142.40677966107614,96.07381314632948 137.67033898294903,90.18074380309554 133.96355932205915,88.34910502331331 110.14406779664569,90.41965289018117 104.17203389853239,101.17048566933954 102.38728813594207,108.33762475830736 114.39999999990687,114.86762717546662 134.44406779692508,113.27494872687384 138.63135593221523,111.92116947489558 142.1322033898905,107.93945210141828 142.26949152559973,95.11818332062103 137.53305084747262,90.57892557384912 133.41440677968785,88.58801467466401 110.14406779664569,90.49928923614789 105.20169491530396,98.781424593064 102.38728813594207,108.496893763775 114.19406779692508,114.54909174743807 137.8762711866293,112.0804377446766 142.26949152559973,107.14310617453884 142.47542372881435,95.83490580017678 138.08220338984393,90.57892557384912 133.07118644099683,88.34910502331331 109.66355932224542,90.73819822538644 104.03474576282315,101.80756738065975 102.52457627141848,108.97470058407634 114.67457627109252,114.70835947775049 135.2677966102492,113.11568070214707 138.35677966102958,112.00080361386063 142.3381355931051,107.14310617453884 142.2008474576287,95.19781918439548 140.14152542385273,92.41055908915587 133.96355932205915,88.26946845656494 110.21271186484955,90.34001653577434 104.51525423722342,100.37413279456086 102.25,108.496893763775 114.74322033906356,114.62872561666882 137.73898305092007,112.23970598191954 142.47542372881435,106.34675943019101 141.85762711893767,95.11818332062103 137.46440677996725,90.18074380309554 133.6203389831353,88.34910502331331 110.00677966093644,90.41965289018117 103.8288135593757,101.9668377264752 102.38728813594207,108.1783557200688 108.4279661020264,112.23970598191954 115.63559322059155,114.54909174743807 134.23813559347764,113.43421671894612 137.80762711865827,112.39897418644978 141.30847457656637,109.37287270987872 142.75,103.87807932886062 142.3381355931051,95.99417737242766 141.10254237311892,93.12728407006944 134.1008474577684,88.18983188149286 124.07881355960853,88.66765120864147 111.7915254237596,89.78256182733458 108.90847457619384,91.53456099098548 104.03474576282315,101.72793219523737 102.38728813594207,108.496893763775 103.48559322045185,110.24885066697607 107.46694915276021,111.92116947489558" stroke="#4DD2FF" stroke-linecap="round" stroke-linejoin="round" stroke-width="0.5"><title>2025-09-29 16.1km</title><desc>1759146700000</desc></polyline><polyline fill="none" points="169.20783132547513,90.45406450139126 163.77065404504538,88.99840477859834 156.79991394164972,89.56449499033624 154.4298623064533,90.93928381137084 149.89888123911805,99.18796635745093 147.25,108.73045214614831 159.93674698797986,115.03813354135491 180.15189328743145,113.50165169971297 183.21901893313043,112.28863760334207 187.40146299498156,105.98093419586075 186.91351118753664,94.2549410975189 184.12521514622495,90.5349344072747 178.26979345967993,87.3001317025628 155.05722891562618,89.48362498509232 148.92297762492672,101.29055789945414 147.3894148019608,108.40697994409129 155.40576592087746,113.25904902996263 160.42469879519194,114.876398751745 183.00989672983997,112.45037292409688 187.05292598973028,106.95135339157423 187.05292598973028,95.62972173362505 185.44965576613322,91.99059129104717 178.54862306360155,87.62361257069279 154.9875215147622,89.72623497643508 150.1080034421757,98.9453592801583 147.25,108.08350760943722 151.15361445769668,111.1564894283074 159.79733218578622,114.95726615079911 180.91867469903082,113.33991659502499 183.91609294340014,111.96516686212271 187.54087779694237,108.00263950490626 187.12263339105994,95.1445053126663 184.9617039586883,91.58624242630322 178.61833046469837,87.62361257069279 154.91781411343254,89.6453649874893 147.8076592083089,104.92964538489468 147.94707401050255,109.62000001693377 160.0064543893095,114.876398751745 180.22160068852827,113.50165169971297 183.42814113618806,112.36950526776491 187.40146299498156,106.70874870469561 187.33175559411757,95.54885235073743 185.3799483650364,91.7479819971486 179.3851118760649,87.70448276691604 154.77839931147173,90.21145473449724 150.31712564546615,98.3792758085765 147.3894148019608,108.00263950490626 149.271514630178,110.26694329216843 159.86703958711587,114.63379650498973 183.00989672983997,112.69297584297601 187.33175559411757,107.84090327098966 187.54087779694237,95.62972173362505 186.21643717749976,92.71841872436926 179.1759896732401,87.70448276691604 155.26635111914948,89.48362498509232 150.4565404476598,97.81319193053059 147.31970740132965,108.32611187291332 159.58820998296142,114.876398751745 179.94277108460665,113.66338677163003 183.70697074057534,112.28863760334207 186.84380378690548,109.05392421543365 187.61058519827202,106.0618025077274 187.19234079192393,94.74015806656098 186.35585197946057,92.79928839753848 181.40662650601007,88.59405437827809 177.43330464721657,87.46187215327518 158.47289156611077,89.07927483378444 154.36015490535647,90.37319458741695 149.271514630178,100.80534496461041 147.45912220329046,108.89218819746748 153.59337349398993,112.85471108078491 160.1458691910375,115.19986829749541 181.05808950099163,113.1781814568094 184.0555077455938,111.80343144189101 187.19234079192393,108.32611187291332 187.75,106.0618025077274 187.05292598973028,94.17407157382695 181.68545611039735,88.83666464331327 177.6424268502742,87.70448276691604 155.33605851978064,89.80710495670792 149.271514630178,100.9670826427755 147.59853700501844,105.98093419586075 147.8076592083089,109.37739615165628 160.56411359738559,115.1190009235288 181.61574870930053,113.09731387515785 187.12263339105994,108.81132017582422" stroke="#4DD2FF" stroke-linecap="round" stroke-linejoin="round" stroke-width="0.5"><title>2025-09-26 12.0km</title><desc>1758887292000</desc></polyline><polyline fill="none" points="32.918965517310426,137.32223342044745 24.469827586086467,137.56526190438308 20.280172413447872,138.78040320100263 15.322413792833686,147.6103737593512 12.529310344485566,157.5743503367412 24.33017241372727,163.73089087416884 44.85948275891133,162.3537741342443 48.630172414006665,160.89564790821169 52.12155172438361,154.57706979854265 52.400862069102004,143.80296737729805 47.722413792973384,138.3753563098726 43.043965517310426,136.26910912577296 20.3499999998603,138.69939383934252 14.833620689343661,148.33944948203862 12.459482758305967,157.4933429044322 24.26034482754767,163.4878704479197 45.34827586193569,162.19176024221815 49.25862068985589,160.4096052342793 52.400862069102004,154.25303878838895 52.4706896552816,143.88397621485638 50.515517241321504,140.88664368266473 44.161206896649674,136.59314752009232 20.000862068729475,138.9424218990025 15.112931034294888,147.8533990753349 12.459482758305967,157.25032055703923 24.469827586086467,163.4878704479197 45.69741379306652,162.11075328371953 48.700000000419095,160.81464081670856 52.4706896552816,155.79218490218045 52.400862069102004,143.96498504438205 47.792241379385814,138.3753563098726 43.88189655193128,136.67415709776105 20.140517241321504,138.2133374955738 13.08793103415519,152.71388967271196 12.529310344485566,157.8983799832058 25.16810344834812,163.5688772649737 44.37068965518847,162.27276719245128 48.490517241414636,161.05766206630506 52.61034482787363,155.14412374631502 52.400862069102004,143.7219585313578 50.7249999998603,140.96765281975968 44.58017241372727,136.67415709776105 19.72155172401108,138.78040320100263 15.043103447882459,147.77239064505557 12.319827585946769,157.25032055703923 25.23793103452772,163.40686362225097 44.7198275863193,162.11075328371953 48.90948275872506,160.65262660867302 52.4706896552816,154.90110067575006 52.4706896552816,143.6409496771521 48.630172414006665,139.18544988398207 44.021551724290475,136.7551666671643 20.280172413447872,138.6183844693005 18.53448275849223,140.15756107511697 14.97327586193569,147.9344074971741 12.459482758305967,156.60226059868 15.182758620707318,159.4375189881539 24.19051724113524,163.4878704479197 45.20862068980932,162.19176024221815 49.25862068985589,160.57161949202418 52.6801724138204,155.46815439075 52.5405172414612,143.96498504438205 50.515517241321504,140.96765281975968 44.091379310237244,136.7551666671643 19.79137931042351,138.9424218990025 14.833620689343661,148.09642431593966 12.459482758305967,157.8983799832058 24.818965517217293,163.32585678831674 45.906896551838145,162.0297463167226 48.90948275872506,160.81464081670856 52.4706896552816,156.68326812254963 52.12155172438361,143.6409496771521 51.07413793145679,141.53471654624445 45.906896551838145,137.32223342044745 42.83448275877163,136.59314752009232 20.62931034481153,138.3753563098726 18.394827586133033,140.5626070512808 14.763793103396893,148.09642431593966 12.25,156.27823041984811 13.08793103415519,158.2224094971316 22.933620689669624,162.92082249483792 46.04655172419734,161.86773235839792 51.56293103448115,157.8173725841334 52.75,151.98481799138244" stroke="#4DD2FF" stroke-linecap="round" stroke-linejoin="round" stroke-width="0.5"><title>2025-09-14 12.0km</title><desc>1757851744000</desc></polyline><polyline fill="none" points="78.52966101677157,137.1787426037481 64.52627118653618,139.16965289006475 59.30932203377597,149.28339824388968 57.25,157.2468844858813 69.39999999990687,163.1398116821074 85.32542372844182,162.34347278473433 92.05254237283953,161.30823099601548 96.10254237265326,157.2468844858813 97.75,144.10708835307742 96.65169491502456,141.95691870740848 91.84661016939208,137.9751073315274 88.68898305064067,136.86019648372894 64.86949152546003,138.77147124160547 60.133050847565755,147.53142030135496 57.59322033915669,157.48578781046672 69.05677966075018,163.06017782900017 88.20847457577474,162.0249369968078 93.49406779650599,160.43225609598449 97.06355932168663,154.93748189078178 97.06355932168663,143.3107299200492 89.10084745753556,136.7805599332787 64.800847457489,139.01038025517482 59.85847457614727,148.08886825770605 57.38728813570924,157.00798108795425 69.39999999990687,163.1398116821074 89.30677966098301,161.94530302926432 93.21949152532034,160.59152433322743 97.20084745739587,154.53930833481718 97.06355932168663,144.34599572385196 95.82796610146761,141.55873848946067 88.68898305064067,136.7009233747376 64.86949152546003,138.69183488725685 58.8288135593757,150.39829123875825 57.318644067738205,156.53017407137668 58.27966101677157,158.28213169367518 69.53728813561611,163.29907936352538 89.30677966098301,161.94530302926432 93.35677966079675,160.51189021853497 96.58305084705353,156.4505395400338 96.72033898276277,144.8238102440955 95.00423728814349,141.00128584110644 88.96355932205915,136.7805599332787 64.86949152546003,138.77147124160547 60.06440677959472,147.69069118693005 57.38728813570924,157.2468844858813 69.39999999990687,163.2194455267163 90.06186440656893,161.8656690538628 92.94491525413468,160.67115843942156 96.99491525394842,155.09675125603098 96.72033898276277,144.34599572385196 95.34745762683451,141.3198302607052 89.30677966098301,136.86019648372894 68.43898305064067,137.895470895397 64.25169491535053,139.01038025517482 58.8288135593757,150.3186560778413 57.52457627095282,157.48578781046672 68.71355932182632,163.06017782900017 87.72796610160731,162.1045709559694 92.80762711842544,160.91006070951698 96.85762711847201,155.97273218014743 96.65169491502456,143.94781673199032 94.38644067780115,140.44383279205067 88.1398305085022,136.62128680798924 64.86949152546003,138.77147124160547 58.8288135593757,150.07975054660346 57.38728813570924,157.32651893538423 69.33135593216866,163.37871319206897 91.77796610142104,161.38786502875155 95.82796610146761,157.88395985396346 97.13220338965766,154.7782124931109 96.2398305083625,143.23109403182752 90.67966101691127,137.576925069734 87.52203389815986,136.7805599332787 69.19406779645942,137.895470895397" stroke="#4DD2FF" stroke-linecap="round" stroke-linejoin="round" stroke-width="0.5"><title>2025-09-11 11.0km</title><desc>1757592695000</desc></polyline><polyline fill="none" points="124.34090909082443,136.58153957291506 123.43782161269337,137.46805911656702 109.96097770170309,138.51576274127 104.12564322468825,149.79863625211874 102.66680960543454,157.77714179770555 114.68481989717111,163.3378704462084 138.1650943395216,161.08134762651753 142.75,155.35942140611587 142.47212692978792,144.72136323724408 140.66595197259448,141.01412728091236 134.76114922808483,136.82331772951875 110.86406518006697,138.1933925440535 109.12735849060118,139.56346496753395 104.6119210976176,148.50917320000008 102.25,156.24591974751092 105.16766723850742,159.22777045948897 114.40694682695903,163.3378704462084 135.80317324167117,161.96783950761892 138.85977701540105,160.67839644075138 142.75,155.92355683009373 142.75,145.52728178096004 141.2911663807463,141.73945743218064 134.27487135515548,136.82331772951875 109.68310463125817,138.676947789907 104.47298456262797,148.91213063133182 102.38893653522246,156.72946387529373 103.56989708403125,158.34127548453398 114.82375643216074,163.41846042714315 134.69168096059002,162.1290197422495 138.72084048064426,160.8395769399358 142.6805317325052,155.92355683009373 142.47212692978792,144.4795875128475 140.38807890214957,140.85294271161547 134.20540308766067,136.74272501893574 110.44725557463244,138.1933925440535 104.95926243579015,148.10621556185652 102.52787307021208,157.29359831486363 115.44897084054537,163.41846042714315 135.247427101247,162.04842962912517 138.3734991424717,161.00075740600005 142.61106346501037,156.0847383053042 142.61106346501037,144.56017942924518 140.7354202400893,141.01412728091236 133.5801886790432,136.58153957291506 110.51672384236008,138.35457765916362 104.82032590080053,148.26739864208503 102.4584048029501,156.16532903036568 102.94468267587945,158.1800944727147 116.00471698096953,163.41846042714315 136.84519725572318,161.7260690939729 142.26372212683782,156.72946387529373 142.05531732412055,143.10952366801212 136.35891938232817,137.46805911656702 133.30231560906395,136.66213230020367 110.03044596896507,138.51576274127 103.15308747859672,152.86110251350328 102.80574614088982,157.93832289247075 114.89322469965555,163.25728045706637 135.1084905662574,161.96783950761892 139.13765008561313,160.27544504828984 142.6805317325052,155.03705812472617 142.26372212683782,144.56017942924518 141.15222984552383,141.5782730122446 134.83061749557965,136.90391043189447 124.68825042899698,136.90391043189447 111.48927958845161,138.1933925440535 109.54416809626855,139.24109520076308 103.0836192111019,153.1028756571468 102.94468267587945,158.0995039541158 115.2405660378281,163.3378704462084 136.21998284733854,161.80665924033383 141.43010291620158,157.77714179770555 142.75,153.5058307305444 141.9163807888981,143.10952366801212 136.63679245277308,137.79042961151572 132.46869639796205,136.74272501893574 115.79631217825226,137.87102221453097" stroke="#4DD2FF" stroke-linecap="round" stroke-linejoin="round" stroke-width="0.5"><title>2025-09-09 11.0km</title><desc>1757419935000</desc></polyline><polyline fill="none" points="169.96612349920906,136.25917274679523 167.1873927959241,137.46806340577314 154.9609777017031,138.59635967499344 148.91723842197098,150.20159861800494 147.3194682674948,157.53537644288735 159.1985420237761,163.74082725320477 178.85806174948812,162.45138696575304 183.58190394495614,161.0007641109405 187.194253859343,155.9235630137846 187.61106346501037,143.10952853644267 184.48499142355286,139.5634694720502 179.69168096059002,136.6621365066385 154.75257289898582,138.83813723589992 149.12564322468825,149.79864180699224 147.25,156.97124211885966 148.56989708403125,158.58305339736398 158.8512006860692,163.66023729735753 182.95668953703716,161.3231249769451 187.47212692978792,155.3594275319483 187.61106346501037,144.56018444657093 186.0132933105342,141.25590875052148 179.96955403103493,136.82332195265917 154.9609777017031,138.83813723589992 149.2645797599107,149.15391047979938 147.38893653522246,156.64887946628733 148.29202401358634,158.4218724182574 159.33747855923139,163.49905736086657 179.4138078901451,162.37079687730875 184.55445969104767,159.7919096846599 186.70797598641366,155.4400183398393 187.75,147.21971332043177 186.43010291620158,141.65886994596804 179.69168096059002,136.6621365066385 155.44725557463244,138.75754472363042 150.09819897077978,147.30030496395193 147.3194682674948,157.45478584989905 159.40694682695903,163.74082725320477 182.95668953703716,161.24253477278398 187.4026586622931,155.60119993094122 187.4026586622931,144.72136827098439 185.45754717011005,140.7723550433293 179.27487135515548,136.6621365066385 155.0999142366927,138.51576713792747 148.29202401358634,152.05519728414947 148.0141509436071,158.26069140643813 159.40694682695903,163.41846737993183 180.5253001714591,162.1290265628486 183.3734991424717,161.0007641109405 186.98584905662574,155.4400183398393 186.98584905662574,143.43189674802125 183.3734991424717,139.0799147223006 178.9275300174486,136.6621365066385 158.29545454564504,137.9516191482544 154.33576329331845,139.0799147223006 148.22255574632436,152.37756182288285 147.4584048029501,157.45478584989905 159.54588336194865,163.5796473332448 178.64965694677085,162.45138696575304 183.3734991424717,160.92017387365922 186.98584905662574,155.5206091394066 187.26372212683782,143.91544881736627 183.85977701540105,139.3216921344865 178.1633790738415,136.5815437711426 154.61363636376336,138.67695220350288 148.43096054904163,151.57165022811387 147.59734133793972,157.69655760360183 159.89322469965555,163.3378773907898 180.73370497417636,161.88725617405726 186.2911663807463,157.85773873142898 187.47212692978792,153.3446546451887 187.1247855918482,143.834856826521 186.22169811325148,141.65886994596804 181.7757289877627,137.9516191482544 178.5801886790432,136.6621365066385 158.5733276156243,137.9516191482544" stroke="#4DD2FF" stroke-linecap="round" stroke-linejoin="round" stroke-width="0.5"><title>2025-09-06 11.0km</title><desc>1757162103000</desc></polyline><polyline fill="none" points="32.988793103490025,185.9507177899941 21.187931034481153,186.84182204765966 19.162931034341455,188.05696259613615 13.367241379106417,200.3702812777483 12.25,206.04082395730074 23.14310344820842,212.03535334661137 31.73189655179158,212.19736702251248 45.48793103452772,210.90125668398105 50.16637931042351,208.39003684587078 52.75,203.93462714657653 52.05172413797118,191.37833721464267 46.53534482768737,186.03172730957158 43.53275862056762,185.05961252603447 33.47758620698005,185.30264133412857 19.79137931042351,187.32787849148735 14.06551724113524,198.26406933402177 12.25,205.71679404447787 24.469827586086467,212.27837384818122 44.999137931037694,211.14427753450582 48.90948275872506,209.84816546656657 52.6801724138204,203.04354218865046 52.19137931056321,191.9453997768578 50.515517241321504,189.3531104515423 43.67241379339248,185.1406221370562 19.58189655165188,187.32787849148735 14.344827586086467,197.94003622827586 12.25,206.1218314145808 23.981034482829273,212.35938066523522 48.35086206928827,210.17219368316 52.61034482787363,204.09664248558693 52.19137931056321,191.37833721464267 46.60517241386697,186.11273682070896 43.67241379339248,185.22163173969602 19.861206896137446,187.48989723960403 15.112931034294888,195.9958348008222 12.25,205.8788090175367 13.716379310004413,207.49895691825077 24.818965517217293,212.44038747396553 45.767241379246116,210.98226364247967 48.560344827594236,209.9291725330404 52.261206896509975,204.50168068695348 52.331034482922405,192.99851488298737 51.423275862354785,190.40622901683673 45.068965517450124,185.46466049802257 20.070689655141905,187.246869105089 15.112931034294888,195.9148263039533 12.389655172359198,206.3648537370027 23.911206896416843,212.03535334661137 43.53275862056762,210.98226364247967 48.490517241414636,209.76715839176904 52.61034482787363,205.47377152281115 52.331034482922405,193.32255001738667 50.515517241321504,189.67714708292624 43.951724137878045,185.30264133412857 19.79137931042351,187.32787849148735 14.274999999906868,198.1020527977962 12.389655172359198,206.04082395730074 23.701724137878045,212.27837384818122 48.21120689669624,210.09118664159905 52.61034482787363,204.66369590960676 52.4706896552816,192.917506078491 50.445689655374736,189.2721012730617 44.6500000001397,185.38365092035383 23.003448276082054,186.59879371360876 19.162931034341455,187.81393463601125 12.808620689669624,202.07144835975487 12.389655172359198,206.28384630469372 23.981034482829273,212.03535334661137 47.86206896556541,210.17219368316 52.331034482922405,205.06873382010963 52.19137931056321,192.51246193161933 50.515517241321504,189.59613793744938 44.021551724290475,185.30264133412857 20.62931034481153,186.76081261137733" stroke="#4DD2FF" stroke-linecap="round" stroke-linejoin="round" stroke-width="0.5"><title>2025-08-31 11.1km</title><desc>1756643837000</desc></polyline><polyline fill="none" points="79.25781249976717,184.35275446635205 75.95312499976717,186.06577037536772 63.92968750023283,187.37092287506675 58.234375,200.667041814595 57.74218750023283,206.21382321917918 69.6953125,212.49469071778003 89.38281249976717,211.02644042373868 94.79687499976717,208.1715015306254 97.328125,204.0929996065679 97.60937499976717,192.26522565813502 93.953125,187.61563873005798 89.38281249976717,185.00533239083597 64.98437499976717,187.1262069447548 59.921875,196.75164339598268 57.81249999976717,202.62473378976574 57.671875,206.54010327276774 69.34375,212.8209681926528 90.3671875,210.94487088330789 94.515625,208.98719940386945 97.6796875,203.0325856776908 97.39843749976717,191.77579673624132 93.17968749976717,186.79991892026737 88.46874999976717,184.67904349550372 64.703125,187.53406678687315 59.921875,196.4253593236208 57.39062499976717,206.29539324517827 69.9765625,212.73939883662388 93.109375,209.8028964396217 95.5703125,207.35580282041337 97.5390625,202.78787457029102 97.25781249976717,191.6942252201261 94.5859375,188.2682139755343 89.1015625,184.84218795987545 64.6328125,187.61563873005798 58.7265625,199.19876966823358 57.25,205.5612627104856 59.921875,208.57935057178838 70.18749999976717,213.14724553364795 93.46093749976717,209.9660357463872 97.39843749976717,203.92985909426352 97.5390625,191.6942252201261 95.49999999976717,189.08393227792112 89.03125,185.00533239083597 69.20312499976717,186.63677485793596 64.35156249976717,188.2682139755343 59.00781249976717,199.11719891405664 57.25,206.1322531849728 59.359375,208.1715015306254 69.62499999976717,212.8209681926528 93.17968749976717,210.2107446435257 97.25781249976717,203.5220076669939 97.25781249976717,191.77579673624132 92.26562499976717,186.39205870131264 88.609375,184.67904349550372 64.4921875,187.61563873005798 59.921875,196.58850137656555 57.39062499976717,205.6428328033653 59.2890625,208.0083618554636 69.5546875,212.73939883662388 91.07031249976717,211.1895794789889 93.953125,209.63975709944498 96.83593750023283,205.4796926091076 97.328125,191.77579673624132 94.515625,188.2682139755343 89.1015625,184.67904349550372 64.7734375,187.45249483530642 59.8515625,196.67007239011582 57.8828125,202.21688169287518 57.671875,206.21382321917918 70.1171875,212.73939883662388 92.125,210.94487088330789 96.48437499976717,206.7032432492124 97.75,202.54316338716308 97.60937499976717,192.26522565813502 91.703125,185.90262616216205 86.07812499976717,184.67904349550372 70.1171875,186.31048663228285" stroke="#4DD2FF" stroke-linecap="round" stroke-linejoin="round" stroke-width="0.5"><title>2025-08-29 11.0km</title><desc>1756472821000</desc></polyline><polyline fill="none" points="122.43088737223297,189.28898319712607 109.99061433481984,190.33132272341754 103.90870307176374,202.35821664106334 102.80290102376603,209.17337433126522 114.9667235496454,214.70563508576015 135.00938566587865,213.5029730371898 139.91638225293718,211.41835443343734 142.54266211623326,206.52749664196745 142.47354948846623,194.34030793810962 135.14761092164554,188.40700251155067 124.36604095599614,188.24664227990434 109.50682593858801,190.57186241645832 104.53071672352962,200.67446264030878 102.80290102376603,209.09319635125576 113.93003412964754,214.70563508576015 122.70733788399957,214.54528025293257 137.7047781571746,212.9417301142239 140.12372013693675,211.09764338546665 142.61177474423312,206.52749664196745 142.54266211623326,194.34030793810962 136.59897610964254,189.0484431089135 128.92747440282255,188.08628201537067 110.958191126585,189.68988317949697 108.60836177505553,192.0150990196853 105.1527303752955,199.15106303611537 102.733788395999,208.4517722139135 115.51962457341142,214.94616727315588 136.46075085364282,213.34261795738712 141.43686006846838,209.4139082223992 142.75,205.80589208065066 142.6808873724658,195.06192309164908 135.56228668964468,188.48718261503382 112.4786689421162,189.5295232112403 109.09215017058887,191.453840657603 105.1527303752955,199.15106303611537 102.52645051223226,208.05088186071953 104.04692832753062,210.13550945091993 113.58447098964825,214.54528025293257 120.35750853247009,214.70563508576015 137.15187713340856,213.18226284504635 142.0588737204671,208.6121282976237 142.12798634823412,194.66102586651687 136.46075085364282,188.96826306311414 125.74829351576045,188.16646215191577 112.20221843011677,189.3691632100381 109.43771331035532,190.49168252688833 105.1527303752955,199.47177898918744 102.733788395999,206.44731839041924 103.35580204753205,209.89497578219743 114.69027303764597,214.8659898856422 135.70051194541156,213.5029730371898 138.60324232140556,212.22013147792313 141.2295221844688,208.93284036626574 142.47354948846623,205.72571375477128 142.61177474423312,198.83034695131937 142.40443686023355,194.98174366290914 140.88395904470235,192.41599760286044 135.28583617741242,188.32682239980204 116.69453924917616,189.28898319712607 102.80290102376603,182.55383272690233 102.25,184.47816735884408 103.21757679176517,187.44484062783886 107.50255972682498,193.3781533629517 102.80290102376603,205.56535707850708 102.59556313976645,208.29141609725775 103.70136518776417,209.81479787582066 113.99914675788023,214.54528025293257 135.8387372016441,213.5029730371898 140.95307167293504,209.65444203926018 142.61177474423312,205.08428685250692 141.43686006846838,193.05743490811437 136.1843003416434,188.72772287612315 124.36604095599614,188.24664227990434 114.20648464164697,189.28898319712607 110.12883959058672,190.33132272341754 108.1245733788237,192.8970756311901 102.80290102376603,206.12660530145513 103.56313993176445,209.81479787582066 113.65358361788094,214.38492538710125 116.69453924917616,214.70563508576015 123.81313993176445,214.22457048861543 137.08276450517587,209.5742641086108 129.61860068282112,212.9417301142239 136.73720136540942,213.102085276274 141.16040955646895,209.4139082223992 142.47354948846623,205.56535707850708 142.1970989764668,196.98622690839693 141.36774744093418,193.4583329563029 139.0179180887062,190.97276174032595 134.11092150211334,188.16646215191577 118.28412969294004,189.12862314656377" stroke="#4DD2FF" stroke-linecap="round" stroke-linejoin="round" stroke-width="0.5"><title>2025-08-27 11.4km</title><desc>1756300085000</desc></polyline><polyline fill="none" points="184.16226575826295,207.19452309655026 187.19804088608362,204.39307183370693 186.99105621827766,192.38673814130016 181.74744463386014,186.70367573422845 177.9527257240843,185.34293633594643 154.7014480412472,187.66419623279944 149.31984667805955,198.06975913065253 147.25,205.59369503590278 151.04471891000867,208.6352655419032 159.04812606517226,212.15706920193043 180.57453151629306,210.7963742185966 183.6793015333824,209.43567686108872 187.06005110754631,204.2329886003863 187.12904599681497,191.98652383463923 180.98850085190497,186.14337156369584 178.09071550285444,185.2628927679616 155.32240204466507,187.10389275243506 150.07879046001472,195.98865765915252 147.25,205.67373651691014 152.8385860309936,209.43567686108872 160.29003407177515,212.31715080834692 182.8513628623914,209.9159232584061 186.922061329009,204.55315503414022 187.75,192.86699503840646 183.74829642265104,188.30454257462407 179.19463373092003,185.42297989560757 154.90843270905316,187.34402286465047 150.2167802383192,195.90861518407473 147.45698466803879,205.51365354651352 148.836882453179,207.19452309655026 160.01405451470055,212.31715080834692 179.05664395261556,211.11653795768507 183.127342419466,209.83588221255923 186.922061329009,204.4731134378817 187.40502555388957,192.86699503840646 184.02427597995847,188.7047587710549 177.814735945547,185.2628927679616 154.77044293028302,187.58415290294215 149.59582623513415,197.58950543805258 147.45698466803879,205.67373651691014 150.76873935293406,208.55522436485626 159.94505962519906,212.31715080834692 177.88373083504848,211.51674244663445 183.54131175484508,209.515717947972 186.99105621827766,203.03236330329673 187.26703577511944,192.78695224266266 182.71337308362126,187.58415290294215 177.4007666099351,185.2628927679616 154.63245315174572,187.50410956516862 149.38884156756103,197.98971686890582 147.31899488926865,205.91386091103777 159.25511073251255,212.23711000924231 182.78236797288992,210.39616935997037 187.54301533242688,204.9533628913341 187.19804088608362,192.62686662690248 185.05919931875542,189.34510425839107 178.09071550285444,185.18284919171128 154.77044293028302,187.18393613159424 148.07793867145665,201.75169428205118 147.45698466803879,205.59369503590278 148.4229131177999,207.27456441364484 160.29003407177515,212.31715080834692 180.29855195921846,211.036497035122 183.40332197630778,209.7558411587379 186.30110732559115,206.47415087610716 187.40502555388957,202.0718617347302 187.12904599681497,193.10712337610312 186.09412265755236,190.6257936549373 181.54045996582136,186.62363230611663 178.36669505946338,185.50302344717784 157.7372231686022,186.70367573422845" stroke="#4DD2FF" stroke-linecap="round" stroke-linejoin="round" stroke-width="0.5"><title>2025-08-21 10.0km</title><desc>1755782353000</desc></polyline><polyline fill="none" points="51.353448275942355,255.76291204919107 52.6801724138204,252.44160356890643 51.91206896537915,240.29035587108228 46.32586206891574,234.7817286149948 43.043965517310426,233.80961393134203 19.58189655165188,236.07787966384785 12.668965517310426,254.3857858387637 13.786206896184012,255.92492673918605 23.841379310237244,260.46132456470514 47.652586207026616,259.0031995358295 52.61034482787363,253.57571047509555 51.77241379325278,240.77640937111573 46.884482758818194,235.67283269012114 42.83448275877163,234.37668097572168 19.51206896523945,236.32090774865355 14.205172413727269,248.95826502441196 13.15775862056762,255.51988995145075 24.679310344625264,261.1903860687162 48.28103448287584,258.6791713857674 52.5405172414612,252.76563427987276 52.19137931056321,240.93842713790946 49.88706896570511,237.77907468512421 43.53275862056762,234.1336522923084 19.79137931042351,236.23989839554997 14.414655172033235,247.01406938396394 12.668965517310426,254.2237708325265 13.646551723824814,255.92492673918605 24.26034482754767,260.7043451408972 45.55775862094015,259.48924151126994 48.560344827594236,258.35514310275903 52.400862069102004,253.3326877038926 52.261206896509975,241.10044487169944 46.884482758818194,235.42980440566316 43.67241379339248,234.05264271463966 19.72155172401108,236.15888903388986 13.646551723824814,248.39120845723664 12.25,254.70981575158658 25.16810344834812,260.94736564246705 48.83965517231263,258.5171572608524 52.61034482787363,253.3326877038926 51.98189655179158,240.53338265855564 46.32586206891574,235.18677604658296 43.53275862056762,234.21466186171165 19.442241379292682,236.23989839554997 14.205172413727269,247.74314331042115 12.808620689669624,255.76291204919107 24.609482758445665,260.7853519828641 48.00172413792461,258.59816432732623 52.75,252.76563427987276 52.400862069102004,241.2624625718454 50.375862068962306,238.02210224582814 43.46293103462085,234.05264271463966 19.861206896137446,235.99687028577318 13.856034482596442,248.14818408957217 12.668965517310426,255.51988995145075 22.863793103257194,260.5423314316431 26.91379310330376,260.94736564246705 46.884482758818194,259.24622056103544 52.75,254.14276331709698 52.05172413797118,240.53338265855564 46.32586206891574,235.10576657706406 43.043965517310426,234.1336522923084 32.918965517310426,234.29567142290762 21.746551724150777,235.34879496088251 18.953448275802657,237.13100082369056" stroke="#4DD2FF" stroke-linecap="round" stroke-linejoin="round" stroke-width="0.5"><title>2025-07-22 10.0km</title><desc>1753187142000</desc></polyline><polyline fill="none" points="69.1718943445012,260.8676919201389 78.2985854735598,267.22059233812615 87.19710932485759,261.39710088726133 85.8281056554988,235.19122660462745 79.21125458739698,228.04412376135588 72.1380689619109,228.8382472775411 67.57472339645028,234.66181225841865 69.400061622262,258.220645460533 79.66758914291859,266.1617766888812 87.4252766026184,256.89712121128105 84.68726926483214,231.75003141211346 76.01691269036382,228.04412376135588 70.08456345740706,230.6912011981476 67.34655611775815,237.0441759598907 70.08456345740706,260.0735782675911 77.61408363841474,266.1617766888812 84.00276742968708,264.04414408514276 87.4252766026184,258.220645460533 85.8281056554988,234.13239780347794 78.98308730777353,227.77941586868837 67.57472339645028,233.86769053596072 68.9437270667404,256.89712121128105 77.38591636158526,266.42648064135574 85.8281056554988,262.45591849205084 85.8281056554988,235.45593373733573 80.80842553451657,228.04412376135588 68.71555978711694,232.54415378673002 69.85639617871493,257.69123584241606 76.47324724774808,264.83825651556253 86.51260749157518,256.89712121128105 85.599938377738,232.54415378673002 81.03659281227738,228.04412376135588 68.25922523066401,232.54415378673002 68.71555978711694,256.89712121128105 77.15774908289313,266.6911845677532 83.77460015099496,265.897072708467 87.4252766026184,260.0735782675911 86.51260749157518,234.66181225841865 81.4929273687303,228.04412376135588 71.90990168321878,228.5735394663643 67.11838883999735,236.7794689910952 69.400061622262,261.66180532891303 80.80842553451657,267.75 87.4252766026184,261.13239641697146 86.51260749157518,234.66181225841865 76.929581804201,227.51470794784836 67.34655611775815,235.19122660462745 69.400061622262,261.13239641697146 80.35209097806364,267.22059233812615 85.8281056554988,265.63236870081164 87.65344388224185,259.8088736627251 85.14360382128507,232.54415378673002 73.9634071867913,228.04412376135588 68.03105795290321,235.45593373733573 69.6282289000228,259.54416903015226 73.73523990809917,264.83825651556253 80.12392370030284,265.897072708467 87.4252766026184,256.63241628021933 84.91543654259294,233.60298324003816 80.12392370030284,228.5735394663643 73.05073807481676,228.5735394663643 67.57472339645028,236.51476199436001 69.85639617871493,260.33828284568153 74.19157446641475,265.36766466661356 80.80842553451657,266.1617766888812 87.19710932485759,259.2794643698726 84.68726926483214,232.01473889802583 72.59440351743251,228.8382472775411 67.34655611775815,236.7794689910952 69.85639617871493,260.0735782675911 80.35209097806364,266.1617766888812 87.4252766026184,256.3677113216836 85.37177109904587,233.07356856833212 74.64790902193636,228.04412376135588 67.80289067421108,234.66181225841865 70.08456345740706,260.8676919201389 78.2985854735598,266.42648064135574 84.68726926483214,264.30884825624526 87.4252766026184,258.4853502283804 85.37177109904587,232.27944635599852 73.27890535257757,228.30883162748069 67.34655611775815,237.83829670445994 70.99723257124424,262.9853271320462 81.03659281227738,266.42648064135574 87.4252766026184,259.2794643698726 85.14360382128507,232.80886119161732 77.38591636158526,227.77941586868837 67.80289067421108,235.45593373733573 70.31273073516786,261.66180532891303 78.75492003094405,266.42648064135574 87.65344388224185,257.9559406656772 85.599938377738,232.54415378673002 76.47324724774808,227.25 68.25922523066401,233.60298324003816 70.08456345740706,260.8676919201389 78.52675275225192,266.1617766888812 85.14360382128507,264.04414408514276 87.88161115907133,257.9559406656772 86.0562729332596,234.13239780347794 78.98308730777353,227.51470794784836 70.08456345740706,230.42649357696064 67.80289067421108,235.98534791986458 70.99723257124424,262.19121413095854 81.03659281227738,265.63236870081164 87.65344388224185,257.9559406656772 85.8281056554988,232.80886119161732 80.80842553451657,228.04412376135588 73.73523990809917,227.77941586868837 67.57472339645028,235.98534791986458 70.08456345740706,261.13239641697146 78.2985854735598,266.6911845677532 85.14360382128507,264.30884825624526 87.88161115907133,258.220645460533 86.0562729332596,234.13239780347794 81.94926192611456,228.30883162748069 74.87607629969716,227.25 67.80289067421108,234.66181225841865 69.6282289000228,259.54416903015226 80.12392370030284,266.6911845677532 87.4252766026184,260.33828284568153 85.8281056554988,233.33827591803856 74.64790902193636,227.51470794784836 67.80289067421108,234.66181225841865 69.85639617871493,261.66180532891303 81.4929273687303,266.6911845677532 87.88161115907133,259.8088736627251 86.28444021195173,234.66181225841865 78.070418195799,227.25 70.99723257124424,229.10295506194234 67.34655611775815,235.19122660462745 69.6282289000228,260.0735782675911 77.84225091710687,266.6911845677532 84.23093470744789,264.83825651556253 87.65344388224185,259.0147596837487 85.599938377738,233.86769053596072 81.03659281227738,228.30883162748069 74.19157446641475,227.51470794784836 67.80289067421108,235.19122660462745 69.6282289000228,260.0735782675911 73.73523990809917,265.63236870081164 80.58025825675577,266.6911845677532 87.4252766026184,259.54416903015226 84.68726926483214,231.4853238996584 76.24507996998727,227.51470794784836 68.03105795290321,234.9265194456093 69.85639617871493,259.8088736627251 78.070418195799,266.42648064135574 87.19710932485759,260.33828284568153 84.91543654259294,232.27944635599852 75.78874541260302,227.51470794784836 68.25922523066401,233.86769053596072 70.76906529162079,261.66180532891303 79.66758914291859,266.42648064135574 87.4252766026184,259.0147596837487 84.91543654259294,232.54415378673002 75.56057813484222,227.51470794784836 68.25922523066401,235.19122660462745 69.85639617871493,258.4853502283804 73.73523990809917,264.5735523994081 81.03659281227738,265.63236870081164 87.4252766026184,257.4265309923794 85.14360382128507,234.13239780347794 76.01691269036382,228.30883162748069 68.25922523066401,235.45593373733573 72.82257079612464,262.19121413095854 80.12392370030284,265.36766466661356" stroke="#4DD2FF" stroke-linecap="round" stroke-linejoin="round" stroke-width="0.5"><title>2025-05-09 10.0km</title><desc>1746796175000</desc></polyline><polyline fill="none" points="117.28623033501208,261.70133937173523 120.23314362484962,265.9091047986876 127.48708402831107,266.43507499154657 132.47416805569082,257.23058103141375 129.7539404053241,231.98379927757196 120.23314362484962,227.77597812912427 112.75251758191735,234.61368398508057 115.69943087082356,261.9643249132205 127.03371275402606,267.75 133.15422496944666,260.1234255542513 130.20731168054044,233.29874196904711 122.95337127614766,227.25 112.52583194430918,233.8247188567184 114.33931704610586,260.9123825840652 118.6463441606611,266.1720899087377 125.44691328983754,267.2240300779231 132.47416805569082,259.8604398232419 131.3407398685813,235.92862532730214 122.50000000093132,227.77597812912427 116.15280214697123,229.35391186969355 112.52583194430918,235.13966060290113 114.33931704610586,258.80849663028494 124.0867994632572,266.69806004688144 131.56742550618947,261.1753682063427 130.4339973181486,235.13966060290113 120.23314362484962,228.56494512129575 112.299146306701,237.7695420717355 115.24605959560722,261.1753682063427 123.18005691375583,266.96104507590644 129.7539404053241,264.3311935728416 132.0207967814058,258.0195389527362 129.07388349156827,231.7208106580656 120.23314362484962,228.03896715375595 112.75251758191735,234.35069563635625 115.24605959560722,261.43835380254313 123.40674255043268,266.43507499154657 132.0207967814058,257.4935670325067 129.98062604200095,234.08770725969225 119.09971543587744,228.56494512129575 112.299146306701,235.4026488715317 115.92611650936306,262.2273104272317 124.9935420146212,266.69806004688144 132.24748241901398,256.4416228684131 129.98062604200095,233.56173042650335 118.87302979733795,228.56494512129575 112.07246066909283,235.92862532730214 115.69943087082356,261.9643249132205 126.80702711548656,266.1720899087377 132.24748241901398,258.54551076493226 130.4339973181486,235.13966060290113 120.45982926152647,228.3019561516121 111.84577503055334,237.2435659938492 115.92611650936306,263.01626680931076 124.7668563760817,266.69806004688144 131.56742550618947,259.5974540649913 129.7539404053241,233.03575348411687 121.59325744956732,228.03896715375595 111.84577503055334,235.66563711268827 115.01937395799905,260.9123825840652 122.27331436239183,266.69806004688144 131.7941111428663,260.1234255542513 129.98062604200095,234.08770725969225 123.18005691375583,228.3019561516121 117.05954469647259,229.09092298080213 111.84577503055334,236.7175898081623 115.24605959560722,262.2273104272317 123.40674255043268,266.69806004688144 131.1140542300418,261.70133937173523 130.4339973181486,235.4026488715317 124.0867994632572,228.82793406466953 112.9792032185942,233.29874196904711 114.11263140849769,257.75655300565995 117.05954469647259,264.3311935728416 123.40674255043268,267.2240300779231 131.56742550618947,261.43835380254313 130.20731168054044,234.08770725969225 122.50000000093132,228.03896715375595 116.15280214697123,229.61690073180944 112.299146306701,235.13966060290113 114.33931704610586,259.0714824695606 119.77977234870195,266.1720899087377 126.12697020266205,267.48701505269855 132.0207967814058,260.1234255542513 130.66068295575678,235.66563711268827 120.9132005367428,228.03896715375595 112.299146306701,236.45460167434067 115.24605959560722,262.49029591470025 124.0867994632572,266.96104507590644 132.24748241901398,257.4935670325067 130.4339973181486,234.35069563635625 120.00645798631012,228.03896715375595 111.84577503055334,236.7175898081623 114.33931704610586,260.64939693408087 118.87302979733795,265.9091047986876 125.44691328983754,266.69806004688144 132.0207967814058,260.64939693408087 129.7539404053241,233.29874196904711 121.36657181195915,228.03896715375595 113.43257449474186,233.29874196904711 114.11263140849769,260.1234255542513 124.0867994632572,266.96104507590644 132.24748241901398,258.0195389527362 129.52725476771593,232.24678786983714 120.68651489913464,228.03896715375595 111.84577503055334,236.98057791404426 114.33931704610586,260.9123825840652 119.09971543587744,266.1720899087377 125.90028456505388,266.69806004688144 132.24748241901398,258.80849663028494 130.4339973181486,233.8247188567184 122.72668563760817,227.77597812912427 112.52583194430918,235.4026488715317 115.24605959560722,261.9643249132205 123.63342818897218,266.69806004688144 131.1140542300418,260.64939693408087 130.20731168054044,234.8766723072622 123.40674255043268,228.56494512129575 117.28623033501208,229.35391186969355 113.20588885713369,237.50655404571444 114.33931704610586,259.5974540649913 120.68651489913464,266.43507499154657 131.3407398685813,260.9123825840652 129.7539404053241,232.50977643532678 122.04662872571498,228.03896715375595 115.69943087082356,230.40586715680547 112.52583194430918,236.191613514442 114.33931704610586,261.70133937173523 125.67359892744571,266.96104507590644 131.7941111428663,260.1234255542513 130.20731168054044,234.35069563635625 120.45982926152647,228.3019561516121 112.52583194430918,236.7175898081623 115.24605959560722,261.70133937173523 122.95337127614766,266.69806004688144 132.24748241901398,258.80849663028494 129.7539404053241,232.50977643532678 121.81994308810681,228.03896715375595 112.299146306701,235.66563711268827 114.11263140849769,260.64939693408087 123.86011382658035,266.96104507590644 132.24748241901398,258.54551076493226 130.20731168054044,233.29874196904711 123.40674255043268,227.77597812912427 112.9792032185942,234.08770725969225 113.8859457699582,260.1234255542513 123.40674255043268,266.69806004688144 131.7941111428663,258.80849663028494 129.98062604200095,233.8247188567184 119.77977234870195,228.56494512129575 112.52583194430918,237.2435659938492 114.33931704610586,260.38641125755385 122.72668563760817,265.9091047986876 131.56742550618947,258.2825248730369 129.52725476771593,232.50977643532678 120.68651489913464,228.3019561516121 112.9792032185942,234.8766723072622 115.24605959560722,260.1234255542513 124.31348510179669,265.12014930765145 132.24748241901398,258.0195389527362 130.88736859243363,236.191613514442 123.40674255043268,228.03896715375595" stroke="#4DD2FF" stroke-linecap="round" stroke-linejoin="round" stroke-width="0.5"><title>2025-05-03 10.2km</title><desc>1746275352000</desc></polyline></svg>