<?xml version="1.0" encoding="utf-8" ?>
<svg baseProfile="full" height="300mm" version="1.1" viewBox="0,0,200,300" width="200mm" xmlns="http://www.w3.org/2000/svg" xmlns:ev="http://www.w3.org/2001/xml-events" xmlns:xlink="http://www.w3.org/1999/xlink"><defs /><rect fill="#222222" height="300" width="200" x="0" y="0" /><text fill="#FFFFFF" style="font-size:12px; font-family:Arial; font-weight:bold;" x="10" y="20">Over 10km Runs</text><text fill="#FFFFFF" style="font-size:4px; font-family:Arial" x="10" y="280">Runner</text><text fill="#FFFFFF" style="font-size:9px; font-family:Arial" x="10" y="290">Wangyp</text><text fill="#FFFFFF" style="font-size:4px; font-family:Arial" x="65" y="280">SPECIAL TRACKS</text><rect fill="yellow" height="2.6" width="2.6" x="65" y="283" /><text fill="#FFFFFF" style="font-size:3px; font-family:Arial" x="70" y="285.5">Over 20.0 km</text><rect fill="red" height="2.6" width="2.6" x="65" y="287" /><text fill="#FFFFFF" style="font-size:3px; font-family:Arial" x="70" y="289.5">Over 40.0 km</text><text fill="#FFFFFF" style="font-size:4px; font-family:Arial" x="120" y="280">STATISTICS</text><text fill="#FFFFFF" style="font-size:3px; font-family:Arial" x="120" y="285">Number: 24</text><text fill="#FFFFFF" style="font-size:3px; font-family:Arial" x="120" y="290">Weekly: 1.6</text><text fill="#FFFFFF" style="font-size:3px; font-family:Arial" x="141" y="285">Total: 305.4 km</text><text fill="#FFFFFF" style="font-size:3px; font-family:Arial" x="141" y="290">Avg: 12.7 km</text><text fill="#FFFFFF" style="font-size:3px; font-family:Arial" x="167" y="285">Min: 10.0 km</text><text fill="#FFFFFF" style="font-size:3px; font-family:Arial" x="167" y="290">Max: 21.3 km</text><polyline fill="none" points="23.24980753660202,58.8831706950441 23.451305819675326,63.55847233417444 29.697752577252686,67.06494226353243 35.944199334830046,65.42859030142426 39.16817185562104,60.28576219524257 36.95169074740261,37.61042704503052 30.30224742460996,32.0 21.03332642838359,38.077962008537725 22.645312688313425,60.7532925021369 29.899250860325992,67.53247117996216 38.966673573479056,61.22082271426916 37.55618559475988,38.77926427288912 29.49625429417938,32.70130413607694 21.4363229945302,38.31172945396975 22.44381440617144,61.454587783664465 24.660295514389873,65.66235493938439 30.906742272898555,67.76623560162261 38.76517529040575,62.857177699683234 37.153189030475914,39.01303164684214 29.49625429417938,32.46753611438908 21.03332642838359,39.01303164684214 21.637821276672184,60.7532925021369 30.70524398982525,68.0 38.966673573479056,61.454587783664465 36.750192465260625,38.077962008537725 27.884268034249544,32.70130413607694 21.03332642838359,39.01303164684214 23.048309254460037,62.155882850056514 27.481271469965577,66.5974132521078 33.52621994540095,66.83117776992731 38.76517529040575,60.98705762065947 36.54869418311864,37.61042704503052 28.085766316391528,32.46753611438908 21.03332642838359,39.94810090144165 22.645312688313425,61.92211785237305 31.511237120255828,67.53247117996216 38.966673573479056,60.51952736033127 36.750192465260625,38.077962008537725 29.093257729895413,32.23376806918532 21.234824711456895,37.84419453819282 22.242316124029458,60.51952736033127 30.100749141536653,67.29870673385449 38.36217872519046,61.454587783664465 36.95169074740261,38.77926427288912 29.899250860325992,32.46753611438908 21.4363229945302,38.077962008537725 23.24980753660202,62.155882850056514 31.10824055504054,67.76623560162261 38.76517529040575,61.688352830242366 36.95169074740261,38.31172945396975 29.49625429417938,32.23376806918532 21.03332642838359,39.01303164684214 22.84681097138673,61.688352830242366 29.899250860325992,67.29870673385449 38.966673573479056,60.7532925021369 37.153189030475914,38.54549687565304 29.697752577252686,32.23376806918532 24.660295514389873,33.40260805678554 21.03332642838359,38.77926427288912 22.645312688313425,61.688352830242366 31.511237120255828,67.53247117996216 38.563677007332444,61.22082271426916 36.347195900045335,37.61042704503052 28.89175944775343,32.23376806918532 21.234824711456895,39.01303164684214 22.645312688313425,60.98705762065947 29.697752577252686,67.29870673385449 35.54120277054608,66.12988414359279 38.76517529040575,61.22082271426916 36.95169074740261,39.01303164684214 30.70524398982525,32.46753611438908 21.637821276672184,37.84419453819282 22.645312688313425,60.28576219524257 29.899250860325992,67.29870673385449 38.36217872519046,61.454587783664465 36.54869418311864,37.84419453819282 31.10824055504054,32.70130413607694 21.234824711456895,39.01303164684214 22.84681097138673,60.51952736033127 30.100749141536653,67.29870673385449 38.563677007332444,62.155882850056514 37.153189030475914,38.31172945396975 30.906742272898555,32.46753611438908 24.0558006670326,34.33767961524427 21.4363229945302,38.77926427288912 22.44381440617144,60.7532925021369 29.697752577252686,67.76623560162261 38.76517529040575,61.454587783664465 36.750192465260625,37.14289198582992 29.899250860325992,32.46753611438908 21.234824711456895,39.2467989961151 23.048309254460037,61.688352830242366 31.712735403329134,67.53247117996216 38.563677007332444,61.92211785237305 36.750192465260625,37.61042704503052 30.100749141536653,32.46753611438908 21.637821276672184,38.31172945396975 22.84681097138673,60.98705762065947 30.100749141536653,67.53247117996216 38.160680442117155,62.857177699683234 36.750192465260625,38.31172945396975 30.30224742460996,32.70130413607694 21.637821276672184,38.31172945396975 22.645312688313425,61.22082271426916 30.100749141536653,67.53247117996216 38.76517529040575,62.155882850056514 37.75768387783319,39.71433362341486 30.906742272898555,32.46753611438908 24.458797231316566,34.33767961524427 21.03332642838359,39.71433362341486 23.048309254460037,60.98705762065947 29.697752577252686,67.53247117996216 38.563677007332444,63.090942601906136 37.153189030475914,39.01303164684214 29.697752577252686,32.93507213355042 21.4363229945302,38.54549687565304 22.84681097138673,62.155882850056514 31.10824055504054,67.29870673385449 38.76517529040575,60.98705762065947 36.750192465260625,38.31172945396975 29.697752577252686,32.70130413607694 21.4363229945302,38.54549687565304 23.048309254460037,61.454587783664465 31.511237120255828,67.29870673385449 38.76517529040575,61.22082271426916 36.95169074740261,38.77926427288912 29.49625429417938,33.16884010704234 21.4363229945302,38.77926427288912 23.652804102748632,63.090942601906136 31.914233684539795,67.29870673385449 38.563677007332444,60.98705762065947 36.95169074740261,38.77926427288912 28.287264599464834,32.93507213355042 21.4363229945302,39.480566321639344 23.048309254460037,63.090942601906136 31.309738837182522,67.53247117996216 38.36217872519046,61.454587783664465 36.95169074740261,39.01303164684214 28.287264599464834,33.16884010704234 21.03332642838359,40.649402590235695 23.451305819675326,63.090942601906136 30.906742272898555,67.53247117996216 38.966673573479056,61.22082271426916 36.95169074740261,38.77926427288912 29.49625429417938,32.93507213355042 21.637821276672184,39.01303164684214 23.048309254460037,61.92211785237305 26.473780057393014,66.5974132521078 31.712735403329134,67.29870673385449 38.563677007332444,62.155882850056514 37.35468731354922,39.2467989961151 29.899250860325992,32.93507213355042 21.4363229945302,38.77926427288912 22.645312688313425,61.454587783664465 30.503745707683265,67.53247117996216 38.563677007332444,61.92211785237305 37.153189030475914,38.54549687565304 28.690261164680123,32.93507213355042 21.234824711456895,39.01303164684214 22.44381440617144,61.454587783664465 30.906742272898555,67.53247117996216 38.966673573479056,60.7532925021369 36.95169074740261,37.84419453819282 29.49625429417938,32.70130413607694 21.637821276672184,38.077962008537725 22.84681097138673,61.92211785237305 32.317230249755085,67.29870673385449 38.966673573479056,60.7532925021369 36.54869418311864,37.61042704503052 28.085766316391528,32.93507213355042 21.03332642838359,40.41563538485207 22.84681097138673,61.92211785237305 30.906742272898555,67.53247117996216 38.966673573479056,62.155882850056514 37.153189030475914,39.2467989961151 29.29475601296872,33.16884010704234 21.4363229945302,39.71433362341486 22.645312688313425,61.92211785237305 30.100749141536653,67.53247117996216 38.76517529040575,61.92211785237305 36.95169074740261,38.31172945396975 30.100749141536653,33.16884010704234 24.660295514389873,34.57144744438119 21.03332642838359,40.18186815478839 22.645312688313425,61.454587783664465 30.30224742460996,67.53247117996216 38.76517529040575,61.22082271426916 36.54869418311864,37.61042704503052 29.49625429417938,32.93507213355042 21.234824711456895,39.480566321639344 22.84681097138673,62.38964782375842 30.906742272898555,67.29870673385449 38.76517529040575,61.454587783664465 36.750192465260625,37.61042704503052 28.085766316391528,32.93507213355042 21.234824711456895,39.2467989961151 23.048309254460037,61.688352830242366 30.30224742460996,67.53247117996216 38.966673573479056,61.688352830242366 36.95169074740261,38.77926427288912 29.49625429417938,32.93507213355042 21.4363229945302,39.01303164684214 23.048309254460037,62.155882850056514 31.10824055504054,67.76623560162261 38.76517529040575,60.98705762065947 36.750192465260625,37.84419453819282 28.085766316391528,33.16884010704234 21.4363229945302,39.2467989961151 22.84681097138673,62.38964782375842 31.914233684539795,67.06494226353243 38.563677007332444,61.688352830242366 37.153189030475914,39.71433362341486 29.093257729895413,33.16884010704234 21.234824711456895,39.01303164684214 22.44381440617144,60.51952736033127 30.503745707683265,67.53247117996216 38.563677007332444,60.98705762065947 37.153189030475914,38.77926427288912 29.899250860325992,33.16884010704234 21.03332642838359,40.18186815478839 22.84681097138673,62.38964782375842 31.10824055504054,67.29870673385449 38.76517529040575,60.98705762065947 36.750192465260625,38.31172945396975 28.89175944775343,33.16884010704234 21.234824711456895,40.18186815478839 23.24980753660202,62.857177699683234 32.1157319676131,67.06494226353243 38.36217872519046,61.22082271426916 36.750192465260625,38.077962008537725 28.287264599464834,33.16884010704234 21.03332642838359,40.18186815478839 23.24980753660202,62.38964782375842 30.906742272898555,67.53247117996216 38.563677007332444,61.454587783664465 36.95169074740261,38.54549687565304 28.287264599464834,33.16884010704234 21.234824711456895,39.2467989961151 23.048309254460037,62.857177699683234 32.1157319676131,67.06494226353243 38.76517529040575,60.28576219524257 37.153189030475914,39.01303164684214 28.690261164680123,32.93507213355042 21.03332642838359,39.94810090144165 22.44381440617144,61.454587783664465 30.100749141536653,67.29870673385449 38.36217872519046,61.454587783664465 36.750192465260625,38.077962008537725 30.906742272898555,32.93507213355042 21.234824711456895,38.77926427288912 22.040817841887474,60.28576219524257 30.30224742460996,67.29870673385449 37.75768387783319,62.38964782375842 36.95169074740261,39.480566321639344 31.511237120255828,33.16884010704234 21.4363229945302,37.84419453819282 22.242316124029458,60.98705762065947 29.697752577252686,67.29870673385449 37.95918215997517,62.62341277394444 36.750192465260625,39.01303164684214 29.899250860325992,32.93507213355042 21.637821276672184,37.84419453819282 21.83931955974549,60.28576219524257 28.89175944775343,67.29870673385449 38.36217872519046,61.688352830242366 36.750192465260625,39.2467989961151 29.697752577252686,33.16884010704234 24.861793796531856,34.10391176166013 21.03332642838359,39.71433362341486 22.242316124029458,60.98705762065947 30.906742272898555,67.53247117996216 38.36217872519046,60.7532925021369 36.750192465260625,38.54549687565304 28.690261164680123,33.16884010704234 20.831828145310283,39.01303164684214 22.44381440617144,61.688352830242366 31.309738837182522,67.53247117996216 38.36217872519046,61.92211785237305 36.54869418311864,38.077962008537725 30.70524398982525,33.16884010704234 21.03332642838359,39.01303164684214 22.44381440617144,61.22082271426916 29.49625429417938,67.06494226353243 37.55618559475988,63.32470748061314 36.95169074740261,39.2467989961151 30.503745707683265,33.40260805678554 24.660295514389873,34.33767961524427 21.03332642838359,39.480566321639344 22.44381440617144,60.7532925021369 30.906742272898555,67.29870673385449 38.160680442117155,60.98705762065947 36.54869418311864,39.01303164684214 30.70524398982525,33.16884010704234 25.063292079605162,34.10391176166013 21.03332642838359,39.2467989961151 22.645312688313425,61.454587783664465 31.511237120255828,67.29870673385449 38.160680442117155,61.92211785237305 36.95169074740261,39.480566321639344 29.697752577252686,33.16884010704234 24.458797231316566,34.10391176166013 21.03332642838359,39.480566321639344 22.040817841887474,59.11693600495346 28.89175944775343,67.29870673385449 37.95918215997517,62.62341277394444 35.13820620533079,36.675356830470264" stroke="yellow" stroke-linecap="round" stroke-linejoin="round" stroke-width="0.5"><title>2025-12-31 20.2km</title><desc>1767167529000</desc></polyline><polyline fill="none" points="64.19898490805645,43.31634539840161 63.22974017680099,43.22364770787317 61.915633087963215,43.362694164996356 59.63954152801307,43.729268926279474 59.30919969076058,43.733482410210854 59.06235084532818,43.60707770362569 58.88447447142971,43.611291200133564 58.688447447129874,43.78825766195223 58.66666666667152,44.05791937203685 58.84817317064153,44.24752419923607 58.98611811368028,44.26859134808183 59.22570669892593,44.1969629977757 59.4326241134695,43.93151566641973 61.14241538097849,43.649212649153924 62.4891936405329,43.34584007412195 63.19706900608435,43.26156951571102 66.78726765487227,43.70398801355623 67.65123861382017,43.7629767856306 68.02151188194694,43.87252713701673 69.62965950723446,43.9357291295637 72.65718799366732,44.239097336652776 73.34328257871675,44.13376140820401 74.34156835064641,43.60707770362569 74.41054082215123,43.61971819183236 76.00053779705195,46.5395664747557 76.14211287016224,47.12098328334832 76.13848274006159,47.352705074725236 76.0513596181554,47.69396569080709 75.87348324425693,48.04786258740569 74.13828106617439,50.14169003155985 73.87691170045582,50.68935360633259 73.90232261100027,50.91262973324774 75.1910187892936,51.16539369219754 76.60676952035283,51.531898664201435 80.059023226102,52.66930702328682 81.33682901415159,52.846234376193024 82.15360828208213,52.86308456047118 82.97401768006966,52.82517163612647 84.32079593963863,52.60611849790803 84.57853517528565,53.195874280550925 84.8253840207035,53.44441167647528 85.08312325636507,53.52866129926042 85.60223185775976,53.4949614709185 85.84182044299087,53.54972367789742 86.89455816612463,54.16895277461663 86.75298309299978,54.737624319088354 86.7420927027706,55.314712563915236 87.39551611711795,55.79912343338947 87.4245571577485,56.50677424338937 85.36990353265719,56.43937945430298 82.74168935498165,56.64998780244059 82.6545662330609,56.68789719023334 82.68723740377754,56.77635229213047 85.56230042687093,56.5404715964105 88.78948606768972,56.71738224540968 88.89475984001183,56.59944189754242 88.90565023025556,56.40989419924881 88.9129104904132,53.6044858117275 88.86934892945283,52.854659469190665 88.724143726271,51.97001525044834 88.78222580753209,51.8225726912824 90.82235891230812,51.53611134598759 92.78262915532105,51.0895646681638 92.86612214715569,51.203308151609235 92.87701253739942,52.05426790329511 92.98591643977852,52.74092056763402 93.54495647204749,54.70392548444943 93.66838089475641,55.52532668859567 93.70831232563069,56.35092362553041 93.71920271587442,55.81597240412157 93.60303855332313,54.79238486630129 92.95324526906188,52.40391456218276 92.89516318780079,51.8604865428606 92.90605357804452,51.14433008848209 93.0004369600938,51.06007556538316 93.50139491108712,50.98845908459043 94.5359819837904,50.97160812974835 94.61584484555351,51.14433008848209 94.66666666667152,51.670916934301204" stroke="yellow" stroke-linecap="round" stroke-linejoin="round" stroke-width="0.5"><title>2025-11-16 21.3km</title><desc>1763251484000</desc></polyline><polyline fill="none" points="115.57564627192914,57.94810921535827 117.38913155905902,63.79223716352135 122.22509232535958,66.59741325164214 131.69551549199969,61.454587783897296 130.28502693399787,38.077962008770555 124.24007597751915,32.46753611508757 117.18763319309801,33.87014388409443 114.36665607988834,38.54549687542021 115.37414790689945,60.519527359865606 124.64307270757854,67.29870673385449 132.50150895304978,60.519527359865606 130.6880236659199,38.077962008770555 123.23258415143937,32.46753611508757 114.56815444491804,38.779264273354784 115.97864300198853,60.98705762042664 124.03857761155814,67.29870673385449 132.3000105880201,61.92211785167456 130.6880236659199,37.61042704549618 124.24007597751915,32.46753611508757 114.76965281087905,38.31172945396975 115.97864300198853,60.75329250236973 124.44157434254885,67.29870673385449 132.50150895304978,61.688352830009535 130.6880236659199,38.077962008770555 124.24007597751915,32.46753611508757 117.18763319309801,34.3376796154771 114.36665607988834,39.246798996580765 116.38163973297924,61.92211785167456 125.65056453458965,67.29870673385449 132.3000105880201,60.98705762042664 130.48652529995888,38.31172945396975 124.24007597751915,32.46753611508757 118.39662338513881,33.63637598254718 114.76965281087905,38.779264273354784 115.77714463695884,60.98705762042664 124.44157434254885,67.29870673385449 132.3000105880201,61.92211785167456 130.48652529995888,38.31172945396975 122.42659069038928,32.23376806918532 114.56815444491804,39.01303164707497 115.97864300198853,61.688352830009535 123.63558088149875,67.06494226353243 132.09851222205907,61.688352830009535 130.08352856896818,37.61042704549618 121.82209559436888,32.46753611508757 114.56815444491804,38.779264273354784 116.38163973297924,62.15588284982368 125.85206289961934,67.06494226353243 132.09851222205907,61.22082271403633 130.6880236659199,38.779264273354784 122.02359396032989,32.23376806918532 114.56815444491804,38.54549687542021 116.18014136794955,61.92211785167456 124.64307270757854,67.29870673385449 131.89701385609806,61.454587783897296 130.28502693399787,38.077962008770555 122.02359396032989,32.46753611508757 114.56815444491804,38.54549687542021 115.97864300198853,61.92211785167456 124.24007597751915,67.53247117972933 132.3000105880201,61.454587783897296 130.08352856896818,37.844194538891315 121.62059722933918,32.46753611508757 114.36665607988834,39.246798996580765 115.57564627192914,60.98705762042664 124.03857761155814,67.53247117972933 132.09851222205907,61.454587783897296 130.6880236659199,38.779264273354784 122.62808905635029,32.46753611508757 114.76965281087905,38.779264273354784 115.77714463695884,61.688352830009535 125.65056453458965,67.53247117972933 132.09851222205907,61.454587783897296 130.48652529995888,38.54549687542021 121.62059722933918,32.23376806918532 114.36665607988834,39.246798996580765 115.57564627192914,60.98705762042664 124.44157434254885,67.53247117972933 132.3000105880201,60.98705762042664 130.28502693399787,37.844194538891315 122.82958742044866,32.701304137008265 114.56815444491804,38.54549687542021 115.77714463695884,61.92211785167456 124.64307270757854,67.53247117972933 132.3000105880201,60.98705762042664 130.48652529995888,38.54549687542021 122.82958742044866,32.701304137008265 114.56815444491804,39.01303164707497 116.18014136794955,62.15588284982368 124.24007597751915,67.53247117972933 132.09851222205907,60.519527359865606 130.28502693399787,38.077962008770555 121.41909886337817,32.93507213424891 114.36665607988834,39.48056632257067 116.38163973297924,62.15588284982368 123.83707924745977,67.53247117972933 132.3000105880201,61.22082271403633 130.48652529995888,38.31172945396975 122.22509232535958,32.701304137008265 114.36665607988834,39.48056632257067 115.97864300198853,61.688352830009535 125.44906616955996,67.53247117972933 132.3000105880201,60.05199700477533 130.48652529995888,39.246798996580765 122.62808905635029,32.701304137008265 117.59062992408872,34.10391176166013 114.36665607988834,39.48056632257067 115.97864300198853,61.688352830009535 123.83707924745977,67.29870673385449 132.09851222205907,61.22082271403633 130.08352856896818,37.844194538891315 120.81460376828909,32.46753611508757 114.36665607988834,39.71433362388052 115.77714463695884,61.688352830009535 124.44157434254885,67.53247117972933 132.50150895304978,61.22082271403633 130.28502693399787,38.077962008770555 120.81460376828909,33.168840107740834 114.56815444491804,40.18186815525405 116.58313809800893,63.32470747968182 126.45655799563974,67.06494226353243 132.50150895304978,60.285762194311246 130.28502693399787,37.844194538891315 120.6131054032594,32.93507213424891 114.36665607988834,39.71433362388052 115.97864300198853,61.688352830009535 124.03857761155814,67.29870673385449 132.50150895304978,60.285762194311246 130.28502693399787,38.31172945396975 121.41909886337817,32.93507213424891 114.16515771392733,40.18186815525405 116.38163973297924,62.62341277417727 125.04606943950057,67.53247117972933 132.09851222205907,61.454587783897296 130.48652529995888,39.01303164707497 121.62059722933918,32.701304137008265 114.16515771392733,39.71433362388052 115.77714463695884,60.98705762042664 124.64307270757854,68.0 132.50150895304978,61.22082271403633 130.6880236659199,39.01303164707497 121.82209559436888,32.93507213424891 114.16515771392733,40.18186815525405 115.37414790689945,60.75329250236973 123.43408251646906,67.29870673385449 132.09851222205907,62.15588284982368 130.28502693399787,39.48056632257067 121.82209559436888,32.46753611508757 114.56815444491804,39.71433362388052 115.37414790689945,60.519527359865606 124.03857761155814,67.76623560138978 131.89701385609806,62.389647824456915 130.28502693399787,39.246798996580765 122.82958742044866,32.93507213424891 117.79212828911841,34.10391176166013 114.36665607988834,39.48056632257067 115.57564627192914,60.75329250236973 123.63558088149875,67.76623560138978 131.89701385609806,61.92211785167456 130.48652529995888,38.779264273354784 122.82958742044866,32.93507213424891 115.17264954186976,37.14289198629558 115.97864300198853,61.22082271403633 124.24007597751915,67.53247117972933 132.50150895304978,61.454587783897296 130.6880236659199,39.01303164707497 122.22509232535958,32.701304137008265 114.56815444491804,38.779264273354784 115.97864300198853,61.454587783897296 123.43408251646906,67.53247117972933 128.87453837879002,66.59741325164214 132.3000105880201,61.454587783897296 130.28502693399787,38.31172945396975 121.21760049834847,32.0 114.56815444491804,37.844194538891315 116.58313809800893,61.454587783897296 125.24756780359894,67.76623560138978 132.50150895304978,60.285762194311246 130.08352856896818,38.077962008770555 125.24756780359894,32.93507213424891 120.6131054032594,33.168840107740834" stroke="#4DD2FF" stroke-linecap="round" stroke-linejoin="round" stroke-width="0.5"><title>2025-11-11 12.1km</title><desc>1762863504000</desc></polyline><polyline fill="none" points="164.72680284641683,59.294169479981065 163.71272647101432,64.23532058973797 171.2168916510418,68.0 177.50416518189013,66.82353834877722 180.54639430809766,60.00004886230454 177.70698045566678,37.64709621295333 175.0703818788752,33.88236695062369 167.5662166988477,32.47059188247658 161.0761278932914,38.58827756275423 162.90146536938846,62.58827140345238 171.8253374779597,67.52941541210748 178.7210568310693,59.52946263179183 176.4900888055563,37.411800815723836 167.5662166988477,32.94118366809562 161.0761278932914,40.23534399527125 163.50991119537503,62.11768570402637 171.2168916510418,67.29412308172323 179.53231793269515,60.235341941937804 177.30134990625083,38.82357284030877 173.04222912713885,33.41177535825409 167.36340142413974,32.94118366809562 161.48175844363868,38.82357284030877 163.71272647101432,62.58827140345238 173.44785967841744,67.05883072689176 179.1266873832792,60.47063499619253 176.4900888055563,36.94120994745754 166.75495559722185,32.94118366809562 161.48175844363868,39.29416332114488 163.50991119537503,62.58827140345238 172.6365985777229,67.29412308172323 178.7210568310693,59.76475575868972 177.09853463061154,37.64709621295333 167.97184724826366,32.94118366809562 161.48175844363868,38.35298226191662 163.50991119537503,62.11768570402637 171.2168916510418,67.29412308172323 178.9238721076399,60.941221033688635 176.4900888055563,36.00002792174928 166.95777087286115,32.70588778750971 161.48175844363868,39.0588680927176 163.71272647101432,63.058857006020844 172.02815275173634,67.29412308172323 179.32950265798718,60.235341941937804 177.09853463061154,37.411800815723836 168.17466252297163,32.70588778750971 161.2789431679994,40.23534399527125 163.71272647101432,63.2941497717984 172.4337833020836,67.29412308172323 179.1266873832792,60.00004886230454 177.30134990625083,38.35298226191662 168.17466252297163,32.70588778750971 161.48175844363868,39.29416332114488 163.50991119537503,63.058857006020844 173.44785967841744,66.82353834877722 178.9238721076399,59.76475575868972 176.89571935590357,36.94120994745754 167.5662166988477,32.47059188247658 160.87331261765212,40.0000488627702 162.90146536938846,61.4118069736287 166.75495559722185,66.1176610677503 172.4337833020836,67.05883072689176 178.7210568310693,60.70592802669853 176.89571935590357,37.88239158713259 168.58029307425022,32.47059188247658 161.2789431679994,39.29416332114488 163.10428064502776,61.17651401599869 172.23096802737564,67.29412308172323 178.9238721076399,60.941221033688635 177.50416518189013,39.0588680927176 168.58029307425022,32.47059188247658 161.2789431679994,39.52945852605626 163.10428064502776,61.88239281857386 171.01407637633383,67.29412308172323 179.1266873832792,60.70592802669853 176.89571935590357,37.176505394047126 168.17466252297163,32.47059188247658 161.2789431679994,37.88239158713259 162.90146536938846,61.647099908441305 171.41970692574978,67.05883072689176 178.9238721076399,59.76475575868972 177.50416518189013,37.88239158713259 167.5662166988477,32.47059188247658 161.0761278932914,40.0000488627702 163.10428064502776,62.82356421649456 172.4337833020836,66.82353834877722 178.9238721076399,60.47063499619253 177.50416518189013,37.88239158713259 167.76903197355568,32.70588778750971 161.2789431679994,39.764753706753254 163.10428064502776,62.352978565730155 171.41970692574978,67.05883072689176 179.1266873832792,59.76475575868972 176.89571935590357,36.94120994745754 166.95777087286115,32.47059188247658 161.0761278932914,39.0588680927176 163.10428064502776,62.11768570402637 171.6225222023204,66.82353834877722 179.1266873832792,60.00004886230454 176.69290408026427,36.47061898279935 168.78310834988952,32.47059188247658 161.0761278932914,40.0000488627702 163.50991119537503,63.058857006020844 172.02815275173634,66.82353834877722 179.1266873832792,60.00004886230454 177.50416518189013,38.11768693686463 167.76903197355568,32.47059188247658 161.2789431679994,38.35298226191662 163.10428064502776,62.82356421649456 171.8253374779597,66.58824594621547 179.1266873832792,60.235341941937804 177.30134990625083,37.88239158713259 168.9859236245975,32.47059188247658 161.2789431679994,38.82357284030877 163.10428064502776,62.11768570402637 172.4337833020836,66.58824594621547 179.32950265798718,58.823583104647696 177.09853463061154,36.94120994745754 167.36340142413974,32.23529595322907 161.0761278932914,39.52945852605626 163.10428064502776,61.88239281857386 170.81126110069454,66.82353834877722 179.73513320833445,59.76475575868972 177.70698045566678,38.58827756275423 169.39155417494476,32.0 160.87331261765212,38.11768693686463 162.90146536938846,62.58827140345238 172.23096802737564,67.05883072689176 179.1266873832792,60.00004886230454 176.89571935590357,36.70591447735205 166.95777087286115,32.94118366809562 159.65642096754164,42.35299909650348 163.10428064502776,62.58827140345238 173.04222912713885,67.05883072689176 179.53231793269515,58.58828988112509 177.09853463061154,37.176505394047126 167.5662166988477,32.0 160.26486679259688,39.52945852605626 162.69865009374917,61.17651401599869 172.6365985777229,66.58824594621547 179.32950265798718,58.823583104647696 176.69290408026427,36.94120994745754 166.3493250478059,32.70588778750971 159.45360569190234,43.29417851404287 162.90146536938846,61.88239281857386 172.4337833020836,67.05883072689176 179.53231793269515,59.52946263179183 177.30134990625083,37.64709621295333 169.18873889930546,32.0 163.10428064502776,34.58825415791944 159.8592362422496,43.529473308240995 162.4958348190412,59.76475575868972" stroke="#4DD2FF" stroke-linecap="round" stroke-linejoin="round" stroke-width="0.5"><title>2025-11-07 10.1km</title><desc>1762493397000</desc></polyline><polyline fill="none" points="18.08273307266063,83.23331233740464 13.859641901624855,85.62266865053243 12.0,86.85169948517432 14.896892364660744,96.06455918546271 15.28215682238806,96.73485831851576 17.519654249830637,98.09262730917544 27.484667627053568,103.75548984968191 34.804692323552445,105.15610850552912 35.2344103725045,105.14751582439203 40.59106812099344,106.09270546726475 40.872607532393886,106.04974253293767 40.954105783079285,105.92085359776684 41.15414694379433,100.38703503002034 40.90965219179634,99.10664296310279 39.968717843148625,97.31921728997258 39.53159086231608,97.43952598406031 38.85737806133693,98.1270009221189 37.783082938869484,98.68557015598344 37.25704877547105,98.65119677218172 37.00514509162167,98.41058269077621 36.708787816460244,97.78326415816264 36.06421074294485,97.55124104533024 35.49372298826347,97.09578639978281 33.960074089322006,96.48564516453189 32.91541469437652,96.28799282564432 30.50751183371176,95.07628786130226 30.03334019347676,93.61534367995046 30.040749125328148,92.94501958801266 30.381559991743416,92.36922409846011 31.20395143033238,91.57857309738029 35.67153735339525,89.66207285586279 35.87898744599079,89.70504419384088 36.175344721152214,90.19491588872188 38.07203128215042,93.76143924453208 38.4869314673997,93.85597153289564 41.0207861700037,92.86767415533541 41.33196130892611,92.62704346368264 41.48754887835821,92.28328413373674 40.20580366329523,88.17525098477927 40.26507511831005,87.70255642152915 47.70364272483857,84.43659382133774 48.0,84.10139571662148 46.747890512429876,79.90700856552576 45.814365095691755,77.9472638686857 43.53241407693713,73.90729453272797 43.88804280717159,74.59496265479538 43.96954105782788,75.05053967510321 46.00699732452631,78.61770800551312 45.98477052888484,78.9099512057146 33.24140769705991,84.70303238347697 31.781848116894253,85.17574387547938 31.678123070596484,85.39061185346509 31.826301708177198,88.54481033069897 29.240584482380655,88.1064955777183 28.618234204594046,88.91436804612022 28.551553817669628,89.36986717298714 28.847911092831055,90.04021987353917 28.662687795847887,90.36680001500645 28.388557316327933,90.37539421208203 28.158880428090924,90.17772745669208 28.01070179051021,89.87692932531354 27.98847499486874,89.39565006833436 27.706935583468294,89.06047180947644 28.04033751800307,88.19243982769694 27.869932084780885,86.93764502269187 28.025519654271193,85.80315682595392 27.936612471705303,85.43358538292523 27.34389792138245,84.93509108567378 27.195719283801736,84.59130018641736 27.59580160526093,83.5771088112233 27.59580160526093,83.13017312003649 27.3809425807558,83.02703377563739 26.817863757984014,83.12157817951083 25.958427659992594,82.82075470579002 25.491664951638086,83.36223618048825 25.343486314086476,84.20453373788041 25.53611854292103,84.96087534623803 25.321259518445004,85.37342243550665 24.78040749122738,85.85472480464523 23.980242848338094,85.68283141888969 23.30603004732984,84.21312856726581 23.194896069151582,83.4997547276871 23.424572957417695,81.54868921378511 23.691294505057158,81.09314754814113 23.402346161776222,80.28519963083818 18.07532414078014,83.28488189843483" stroke="yellow" stroke-linecap="round" stroke-linejoin="round" stroke-width="0.5"><title>2025-11-02 21.2km</title><desc>1762040409000</desc></polyline><polyline fill="none" points="76.54463276849128,79.06345243973192 65.13446327694692,79.77133176173083 60.131073446478695,90.53100799303502 59.09378531109542,97.32650648761773 69.16158192092553,101.99837286100956 87.28361581941135,100.93658782780403 90.82259887037799,99.80401532392716 94.48361581889912,95.4860655903467 94.23954802262597,85.22197820188012 92.40903954789974,81.89496536756633 86.49039548030123,77.93084401322994 65.31751412432641,79.77133176173083 60.25310734473169,90.03550027491292 58.66666666674428,96.12314184132265 60.86327683622949,98.24672509450465 69.34463276853785,102.0691584716551 90.57853107340634,100.1579444311792 94.60564971738495,95.55685186939081 94.11751412414014,85.15119086194318 92.53107344615273,81.96575304184807 88.50395480240695,78.7095125063206 85.75819209008478,77.8600559249171 65.19548022630624,79.84211965411669 60.07005649758503,90.60179478069767 58.727683616103604,96.40628665289842 69.28361581917852,101.92758724308806 90.76158192101866,99.94558698870242 94.60564971738495,95.41527930396842 94.05649717524648,84.7264666693518 89.23615819239058,79.20502836228115 86.30734463268891,78.07242016831879 65.37853107368574,79.91290753887733 60.19209039560519,90.60179478069767 58.84971751412377,96.40628665289842 60.43615819211118,97.9635810382897 69.16158192092553,101.85680161765777 90.76158192101866,100.01637281023432 94.48361581889912,95.76921066344948 94.30056497175246,85.43434017820982 92.40903954789974,82.03654070885386 86.91751412441954,78.213996294362 65.19548022630624,80.05448328709463 60.07005649758503,90.8849418591708 58.84971751412377,96.47707283758791 69.22259887028486,102.1399440750829 90.82259887037799,99.80401532392716 94.66666666674428,95.202920400945 93.99548022611998,84.86804142926121 92.59209039527923,82.17811602097936 86.91751412441954,78.28478434635326 65.68361581931822,79.91290753887733 59.948022599099204,91.16808882140322 58.84971751412377,96.05235562019516 60.19209039560519,97.8927950062207 68.30734463292174,101.71523034531856 71.23615819215775,102.0691584716551 89.17514124303125,100.65344487613766 92.95819209027104,98.03436706325738 94.66666666674428,94.63662967341952 94.17853107326664,84.7264666693518 91.73785310727544,81.4702391694882 86.42937853117473,78.28478434635326 65.19548022630624,80.12527115020202 60.19209039560519,90.389434395649 58.84971751412377,97.04336205363506 69.34463276853785,101.92758724308806 90.39548022602685,100.22873023094144 94.54463276825845,95.76921066344948 94.05649717524648,84.65567927854136 89.23615819239058,79.41739219159354 86.30734463268891,78.28478434635326 65.68361581931822,79.84211965411669 60.37514124321751,89.96471342915902 58.84971751412377,96.54785901494324 69.34463276853785,101.99837286100956 89.78531073452905,100.58265912020579" stroke="#4DD2FF" stroke-linecap="round" stroke-linejoin="round" stroke-width="0.5"><title>2025-10-26 12.0km</title><desc>1761480636000</desc></polyline><polyline fill="none" points="139.9909604517743,96.689428732323 141.33333333325572,94.21190921560628 140.6011299432721,83.94780497031752 135.41468926519156,78.85108954779571 132.2418079096824,78.00163331517251 111.92316384171136,79.84212049667258 106.61468926561065,90.67258018051507 105.57740112999454,96.33549791772384 116.49943502806127,101.85679794114549 131.50960451969877,101.0073700454086 137.85536723118275,99.52086871035863 141.2723163838964,95.41527694952674 140.9062146891374,85.00961594207911 139.25875706179067,82.10732874635141 133.9502824859228,78.07242137449794 111.98418079083785,79.62975684186677 106.67570621473715,90.1062858493533 105.57740112999454,96.61864258395508 116.86553672305308,101.92758355179103 134.68248587544076,100.58265570516232 137.6723163840361,99.52086871035863 141.2723163838964,95.34449067048263 140.8451977397781,85.22197794023668 139.1367231637705,81.965753448545 133.09604519768618,77.93084524845472 111.74011299409904,80.05448408605298 106.79774011299014,89.89392535504885 105.45536723150872,96.12313934176927 106.30960451997817,97.4680758852628 116.80451977369376,101.92758355179103 135.2316384180449,100.65344144665869 137.91638418054208,99.52086871035863 141.2112994347699,95.27370438410435 140.5401129941456,83.80623005039524 134.86553672305308,78.70951358164893 129.1299435023684,77.93084524845472 111.86214689281769,79.84212049667258 106.18757062149234,91.80516744818306 105.33333333325572,95.98156692145858 106.37062146887183,97.53886194649385 116.86553672305308,101.99836915521882 130.71638418035582,101.07815574324923 137.61129943467677,99.66244040406309 141.2112994347699,95.48606322158594 140.66214689263143,84.16016729542753 134.7435028248001,78.42636156221852 128.64180790935643,77.93084524845472 111.80112994345836,79.91290836723056 106.85875706211664,90.03549902536906 105.69943502824754,96.901787133771 116.31638418068178,101.92758355179103 137.18418079102412,99.87479789037025 141.33333333325572,95.41527694952674 140.7841807906516,84.7972538783797 135.3536723162979,78.92187751986785 132.54689265531488,78.07242137449794 112.10621468932368,79.91290836723056 106.91977401124313,89.89392535504885 105.63841807935387,96.689428732323 116.86553672305308,102.06915475154528 136.63502824818715,100.22872688859934 140.9672316382639,96.47707026539138 140.72316384175792,84.3017421424156 135.53672316367738,79.06345344241709 131.75367231620476,78.00163331517251 117.5977401130367,79.27581727172947" stroke="#4DD2FF" stroke-linecap="round" stroke-linejoin="round" stroke-width="0.5"><title>2025-10-22 10.1km</title><desc>1761137801000</desc></polyline><polyline fill="none" points="169.6340983606351,92.57155821294145 175.77180327870883,93.98950119584333 177.1645901639422,94.44689730653045 175.5357377049222,96.23071952666214 173.60786885247217,97.3833239735468 172.69508196722018,99.15793953798129 172.29377049178584,100.31050582573516 172.02622950822115,100.38368413043645 170.23213114755345,100.25562205746974 167.07672131145955,99.22197139256605 164.5744262295193,98.71886271451513 162.5127868852869,102.46924035598204 162.221639344265,102.66132858705532 158.6019672131224,100.42942054010928 158.50754098361358,100.109265175568 158.9796721311577,98.5084709638686 159.97114754098584,96.72469470099895 160.83672131149797,93.7790981902508 161.899016393465,93.66932251027902 162.70163934424636,93.76080225305486 166.16393442623666,95.49889938026172 166.4236065573641,95.22446526355634 167.45442622952396,92.26967064128257 167.32852459017886,92.01352280224819 166.95081967214355,91.90374492975388 154.03803278689156,88.97628470298514 152.30688524595462,88.55545432482904 152.08655737707159,88.37248397026269 152.0,86.73488243114843 152.16524590164772,84.57576363561384 153.00721311476082,81.65720989592955 153.37704918035888,80.87952257280267 154.4393442622968,79.29667899727065 155.95803278690437,77.5765625004351 156.40655737707857,77.3386714129374 158.39737704917206,78.55556908041763 158.49967213114724,78.76600833069097 156.7527868852485,81.5199714538685 156.19409836063278,83.47788639092323 156.61901639346615,82.04147639978328 157.05180327870767,81.06250844104216 158.60983606561786,78.80260641002678 163.48852459015325,80.52269903983688 166.80131147542852,81.1631505070618 167.210491803271,81.09910556922114 167.93442622950533,81.44677753097494 167.9816393442743,83.93533690038021 168.08393442622037,84.17321022949909 168.35147540981416,84.22810398376896 170.80655737704365,83.88959195598727 172.63999999998487,83.98108182108263 174.26885245900485,84.41108291838464 175.9291803278611,85.27107883641293 174.16655737702968,84.40193398063275 172.26229508197866,83.95363487150462 170.83803278687992,83.92618791340647 168.20983606559457,84.31044455122901 167.04524590165238,84.31959349844692 165.6131147541164,84.24640189428465 163.5672131147585,83.88044296426233 162.9062295081967,86.47871855220001 163.01639344260911,86.70743633677193 176.0708196721098,89.84538457696908 187.19737704916042,92.34285560179705 187.93704918029835,92.67218717439391 188.0,93.06555383370869 187.5672131147585,96.20327638050367 187.40196721311077,96.4411166976206 187.01639344260911,96.54174125453574 169.61836065576063,92.5441139308241" stroke="yellow" stroke-linecap="round" stroke-linejoin="round" stroke-width="0.5"><title>2025-10-12 21.3km</title><desc>1760225536000</desc></polyline><polyline fill="none" points="31.904436860466376,119.34515209431993 27.23549488070421,119.06006755994167 18.57337883976288,120.41421805560822 12.737201365409419,131.4611366027384 12.0,135.87985481024953 12.675767918117344,137.44778031797614 23.488054607529193,141.72392279910855 41.18088737200014,140.5836207123939 44.06825938611291,139.5858548503602 46.525597270112485,137.30524178192718 47.754266211995855,134.45446491247276 47.26279863505624,123.76394740812248 43.39249146799557,119.55896541813854 40.07508532470092,118.06227076798677 18.634812286822125,120.12913396017393 13.720136518822983,129.75065748911584 12.30716723552905,136.73508734430652 22.566552901407704,141.6526539734332 41.91808873740956,140.36981386266416 45.788395904703066,138.1604725603829 47.8156996590551,134.59700403379975 47.26279863505624,123.97775937133702 44.252559727290645,120.2716760225012 40.443686007289216,118.133542014868 18.327645051293075,120.2716760225012 13.474402730353177,130.46335763199022 12.491467576706782,137.09143392258557 24.286689419997856,141.79519161721691 40.01365187740885,140.86869640962686 45.54266211623326,138.3030109211104 47.8156996590551,133.67049922130536 46.89419795270078,122.83742814022116 41.11945392540656,118.20481325458968 31.290102389408275,118.48989814013476 18.38907849811949,120.48548906098586 13.044368600705639,131.31859683757648 12.552901023998857,137.23397250269772 22.873720136703923,141.79519161721691 37.74061433481984,141.15377198986243 44.31399317458272,139.5858548503602 47.87713310611434,134.73954312613932 47.63139931764454,124.19157126860227 42.409556314349174,118.77498290862422 38.96928327670321,118.133542014868 20.416382252704352,119.48769431759138 17.65187713340856,121.69709503621561 12.737201365409419,132.9578023707727 12.368600682821125,136.5925486618071 15.378839590819553,138.65935669466853 22.566552901407704,141.86646042828215 40.50511945411563,140.79742749623256 44.19112627999857,139.65712388796965 47.87713310611434,134.59700403379975 47.754266211995855,123.90648872428574 42.716723549878225,118.91752524883486 39.03071672399528,118.27608448709361 20.23208191152662,119.55896541813854 18.57337883976288,120.41421805560822 16.73037542682141,123.47886468819343 12.122866894118488,136.09366304246942 13.167235495056957,137.51904957502848 22.68941979552619,141.93772923201323 39.15358361811377,140.9399653155706 44.43686006846838,139.158240470686 47.201365187997,136.30747120885644 48.0,133.95557775709312 47.754266211995855,124.54792428459041 44.8054607512895,120.62803105049534 40.68941979552619,118.41862692969153 19.187713310820982,119.98659186856821 14.457337883999571,128.32525500911288 12.245733788702637,136.5212793094106 22.320819112705067,141.72392279910855 26.436860068468377,141.79519161721691" stroke="#4DD2FF" stroke-linecap="round" stroke-linejoin="round" stroke-width="0.5"><title>2025-10-08 10.1km</title><desc>1759925805000</desc></polyline><polyline fill="none" points="69.26219162368216,119.64881923765643 64.36718301777728,121.94911771622719 59.9678714859765,131.2221193331061 58.72862880118191,136.11016378796194 59.65806081471965,137.6197000334505 69.13826735527255,141.93264280626317 88.16064257035032,140.56688046862837 91.01090074609965,139.6324099660269 94.29489386128262,134.81627298763487 94.04704532423057,124.39317657065112 92.80780263920315,122.02100192196667 87.54102122783661,118.42678259772947 77.81296615023166,118.57055172487162 65.1726907629054,120.58331640582765 60.95926563395187,128.20301600848325 58.72862880118191,135.75074991642032 62.07458405056968,138.55417322163703 68.95238095219247,141.64511411450803 84.50487664947286,141.0700563765713 91.01090074609965,139.41676275013015 93.55134825059213,136.97275632666424 94.48078026389703,134.5287413742626 94.41881812969223,124.96824800246395 91.25874928291887,120.43954769195989 87.23121055634692,118.35489802318625 65.66838783724234,120.08012577804038 60.95926563395187,128.34678312850883 58.66666666674428,136.46957747486886 69.13826735527255,141.78887847519945 90.45324153755791,139.7761747399345 94.170969592873,135.82263270561816 94.48078026389703,125.04013189836405 92.86976477340795,121.80534928274574 87.4790590936318,118.21112885157345 65.1726907629054,120.15201017545769 60.09179575415328,130.21575300447876 59.10040160664357,136.39769475208595 69.07630522083491,141.57323192298645 87.41709695919417,140.56688046862837 91.01090074609965,139.48864516284084 94.60470453253947,135.1756873387494 94.170969592873,123.88998868025374 91.44463568553329,120.43954769195989 87.66494549647905,118.13924425485311 65.79231210588478,119.7207036796026 60.64945496269502,129.06561828649137 58.66666666674428,136.0382810283918 61.70281124510802,138.69793821661733 69.88181296619587,141.78887847519945 90.57716580596752,140.06370419904124 94.66666666674428,134.81627298763487 93.48938611615449,122.45230700128013 89.39988525537774,118.85808989068028 86.79747561691329,117.9954750391189 66.59781985078007,119.7925881142146 64.05737234652042,121.87723350309534 60.33964429143816,130.07198626798345 58.85255306935869,136.75710829143645 65.29661503154784,140.42311585706193 70.56339644314721,142.0045249608811 87.35513482498936,140.78252733073896 91.69248422258534,138.98546811868437 94.66666666674428,134.45685845252592 94.41881812969223,125.68708662840072 93.24153757886961,122.30853867094265 88.96615031547844,118.78620536031667 86.4876649454236,118.13924425485311 66.78370625362732,119.50505033193622 64.05737234652042,121.94911771622719 59.22432587505318,133.52237979718484 58.9145152035635,137.18840429524425 69.63396442914382,142.0045249608811 83.51348250126466,140.92629186820704" stroke="#4DD2FF" stroke-linecap="round" stroke-linejoin="round" stroke-width="0.5"><title>2025-10-06 10.0km</title><desc>1759752637000</desc></polyline><polyline fill="none" points="119.98160919523798,119.16292223212076 112.28505747113377,120.02702257671626 105.58160919486545,135.07659954176052 106.32643678132445,137.7408450806979 116.13333333306946,141.98921568511287 133.512643677881,140.83711772446986 137.3609195400495,139.54100525740068 141.08505747118033,135.14860631112242 140.58850574679673,124.34750833333237 139.34712643641979,121.61120377696352 134.1333333333023,117.93877825530944 112.09885057411157,120.02702257671626 107.31954022939317,129.0280045417603 105.45747126406059,136.2287069624872 106.574712643167,137.52482554886956 116.19540229835548,141.7731974615017 133.69885057467036,140.76511153916363 138.2298850575462,139.18097359174863 141.08505747118033,135.00459276529728 140.40229885047302,123.5554212697316 137.6091954021249,120.24304749647854 133.82298850570805,118.01078678370686 112.34712643641979,119.95501425524708 109.05747126415372,124.70754761167336 105.33333333325572,136.01268696517218 107.81609195331112,138.31689683988225 117.00229885010049,142.06122174469056 133.57471264339983,140.90912390244193 138.10574712604284,139.32498628011672 141.14712643646635,135.00459276529728 140.71264367806725,124.77955544536235 139.4712643676903,122.11526068137027 134.1954022985883,118.15480381826637 112.53333333297633,119.59497253742302 106.76091953972355,129.96410003612982 105.51954022957943,136.44472689321265 116.25747126410715,141.8452035432565 134.4436781606637,141.12514239212032 138.2298850575462,139.61301156849368 141.33333333325572,135.29261982743628 140.7747126435861,124.92357109021395 139.595402298728,122.18726878112648 134.38160919537768,118.15480381826637 115.3885057468433,119.16292223212076 111.78850574675016,120.17103919718647 107.00919540179893,129.67607078619767 105.45747126406059,136.73275336407823 116.50574712618254,141.91720961785177 133.1402298847679,141.12514239212032 137.98160919523798,139.61301156849368 141.27126436773688,135.14860631112242 140.71264367806725,124.70754761167336 138.60229885042645,121.25116290926235 134.00919540203176,118.08279530482832 112.22298850538209,119.81099759030621 107.07126436755061,129.4600487712887 105.39540229830891,136.66074675758136 116.319540229626,141.98921568511287 134.31954022985883,141.05313623626716 138.10574712604284,139.46899893908994 141.33333333325572,134.64455877133878 140.58850574679673,123.91546095506055 138.9747126433067,121.3951792785665 134.1954022985883,118.08279530482832 111.91264367778786,119.81099759030621 106.63678160868585,130.5401581810438 105.58160919486545,136.94877313950565 115.26436781557277,141.8452035432565 124.69885057443753,141.62918527546572" stroke="#4DD2FF" stroke-linecap="round" stroke-linejoin="round" stroke-width="0.5"><title>2025-10-02 10.0km</title><desc>1759407705000</desc></polyline><polyline fill="none" points="172.25762711884454,119.02805401047226 159.20000000018626,120.65617620025296 152.7322033897508,133.82258832792286 152.61016949173063,136.2293246606714 158.95593220344745,140.47648593544727 163.53220338979736,142.1045574892778 180.43389830528758,141.11355787079083 185.19322033878416,138.21133651043056 186.71864406811073,134.67202563968021 187.1457627119962,124.26634647441097 184.46101694949903,120.65617620025296 179.15254237293266,117.82465687801596 159.68813559319824,119.806721624278 152.67118644085713,132.19449722231366 152.30508474586532,136.01696591021027 162.49491525441408,142.03377184958663 174.33220338984393,140.97198638034752 178.84745762730017,141.67984354152577 184.6440677966457,139.0607684168499 187.08474576263689,133.82258832792286 187.2677966102492,123.91240904800361 182.2033898306545,118.88647798617603 179.51864406792447,118.03702123038238 158.83389830519445,120.37302479124628 154.4406779659912,128.4427943896735 152.12203389848582,136.6540419650264 162.98305084742606,142.17534312192583 181.04406779655255,140.83041486120783 184.46101694949903,139.27312622970203 187.4508474576287,135.66303451446583 187.2067796611227,124.76185856643133 183.3016949153971,120.08987326582428 179.39661016967148,118.2493855173816 158.89491525432095,120.23144904302899 152.61016949173063,132.83157680829754 152.5491525423713,137.36190355790313 162.92203389829956,142.1045574892778 180.00677966116928,140.83041486120783 184.52203389815986,138.98998246452538 187.38983050873503,134.45966640970437 187.75593220326118,124.90343338472303 182.142372881528,119.45278190885438 178.48135593230836,118.3201735985931 158.46779661020264,120.72696403425653 153.7694915253669,129.5753860747791 152.12203389848582,136.37089712440502 162.92203389829956,142.03377184958663 180.18983050854877,140.83041486120783 183.85084745753556,139.62705577298766 187.38983050873503,135.45067558955634 187.69491525436752,125.39894501894014 183.48474576254375,120.16066115826834 180.18983050854877,118.53253779845545 159.01694915257394,120.37302479124628 153.7084745762404,129.92932059487794 152.12203389848582,136.3001108961762 162.80000000004657,142.1045574892778 180.61694915266708,140.68884331273148 184.33898305078037,139.48548397765262 187.4508474576287,135.94617964565987 187.57288135611452,124.54949628491886 183.3627118645236,120.5146005100687 179.70169491530396,118.7449019330088 159.01694915257394,120.44381265429547 154.62372881360352,127.80571074935142 152.12203389848582,136.4416833455325 162.61694915266708,141.82141488656634 183.6677966103889,139.62705577298766 187.57288135611452,135.23831659951247 187.75593220326118,125.18658293341286 183.85084745753556,120.5146005100687 179.39661016967148,118.53253779845545 158.58983050868846,120.65617620025296 153.5864406779874,130.4956154493848 152.24406779673882,136.8664005191531 163.04406779655255,141.96298620238667 181.34915254241787,140.5472717351513 184.09491525427438,139.55626987892902 187.6338983050082,135.23831659951247 187.5118644067552,124.62028371938504 185.6813559322618,122.1427191902767 180.18983050854877,118.46174973913003 159.07796610193327,120.3022369206301 154.01355932210572,129.22145137289772 152.0,136.4416833455325 163.10508474591188,141.89220054808538 183.54576271190308,139.7686275394517 187.75593220326118,134.53045282675885 187.2067796611227,124.54949628491886 183.3016949153971,120.16066115826834 179.88474576268345,118.53253779845545 158.89491525432095,120.37302479124628 153.4033898303751,130.6371890901355 152.12203389848582,136.15853841777425 157.49152542394586,139.7686275394517 163.89830508478917,141.82141488656634 180.43389830528758,140.83041486120783 183.60677966102958,139.9101992767537 186.71864406811073,137.2203312976053 188.0,132.3360705145169 187.6338983050082,125.32815766433487 186.5355932204984,122.77980806224514 180.31186440680176,118.39096167241223 171.40338983060792,118.81568996317219 160.48135593230836,119.806721624278 157.91864406783134,121.36405421415111 153.5864406779874,130.42482861789176 152.12203389848582,136.4416833455325 153.0983050847426,137.99897837056778 156.63728813594207,139.48548397765262" stroke="#4DD2FF" stroke-linecap="round" stroke-linejoin="round" stroke-width="0.5"><title>2025-09-29 16.1km</title><desc>1759146700000</desc></polyline><polyline fill="none" points="31.518072289181873,160.40361289010616 26.68502581771463,159.10969313647365 20.4888123923447,159.6128844358027 18.382099827984348,160.8349189434084 14.3545611014124,168.16708120662952 12.0,176.64929079654394 23.277108433656394,182.2561187033425 41.24612736632116,180.89035706635332 43.97246127366088,179.81212231400423 47.690189328743145,174.20527484075865 47.25645438884385,163.78216986445477 44.77796901878901,160.47549725085264 39.57314974186011,157.60011706891237 18.939759036060423,159.540999986697 13.48709122184664,170.03605146612972 12.12392426840961,176.36175995023223 19.249569707317278,180.6747102487716 23.71084337332286,182.11235444591148 43.78657487081364,179.9558870436158 47.38037865748629,175.0678696813411 47.38037865748629,165.00419709651032 45.955249569844455,161.769414480892 39.820998278679326,157.88765561836772 18.877796901855618,159.75665331236087 14.540447504026815,167.95143047120655 12.0,176.0742289861082 15.46987951779738,178.80576838064007 23.153184165013954,182.1842365784687 41.92771084327251,180.74659252888523 44.592082616174594,179.52459276630543 47.814113597152755,176.00234622653807 47.442340791923925,164.57289361121366 45.52151462994516,161.40999326779274 39.88296041311696,157.88765561836772 18.815834767417982,159.68476887774887 12.49569707387127,173.2707958976389 12.61962134251371,177.4400000150199 23.33907056809403,182.11235444591148 41.3080895007588,180.89035706635332 44.15834767650813,179.8840046824189 47.690189328743145,174.8522210707888 47.62822719453834,164.93231320061022 45.89328743540682,161.55376177519793 40.564543889602646,157.95954023726517 18.691910499008372,160.18795976391993 14.72633390687406,167.44824516313383 12.12392426840961,176.00234622653807 13.796901893336326,178.01506070414325 23.21514629945159,181.89670800440945 43.78657487081364,180.17153408256127 47.62822719453834,175.85858068533707 47.814113597152755,165.00419709651032 46.63683304656297,162.4163721994264 40.37865748722106,157.95954023726517 19.1256454391405,159.540999986697 14.850258175516501,166.94505949376617 12.061962134437636,176.289877220348 22.96729776239954,182.11235444591148 41.06024096393958,181.03412157471757 44.40619621379301,179.81212231400423 47.194492254871875,176.9368215248105 47.87607573159039,174.27715778461425 47.50430292612873,164.21347383689135 46.76075731497258,162.48825635330286 42.3614457831718,158.75027055846294 38.829604130703956,157.74388635839568 21.97590361419134,159.1815776299918 18.320137693546712,160.33172852208372 13.796901893336326,169.6047510796343 12.185886402614415,176.79305617546197 17.638554216828197,180.31529873842373 23.46299483650364,182.39988293108763 42.05163511191495,180.6028279615566 44.716006884817034,179.38082794827642 47.50430292612873,176.289877220348 48.0,174.27715778461425 47.38037865748629,163.71028584335 42.60929432022385,158.96592412731843 39.0154905335512,157.95954023726517 19.187607572879642,159.82853773923125 13.796901893336326,169.74851790466346 12.309810671024024,174.20527484075865 12.49569707387127,177.2243521347409 23.8347676419653,182.32800082088215 42.54733218578622,180.53094566677464 47.442340791923925,176.72117348958272" stroke="#4DD2FF" stroke-linecap="round" stroke-linejoin="round" stroke-width="0.5"><title>2025-09-26 12.0km</title><desc>1758887292000</desc></polyline><polyline fill="none" points="77.03908045985736,158.7308741515153 69.52873563184403,158.94689947052393 65.80459770094603,160.0270250675385 61.39770114910789,167.87588778609643 58.914942528354004,176.73275585490046 69.40459770103917,182.20523633260746 87.65287356334738,180.98113256378565 91.0045977011323,179.6850203628419 94.10804597707465,174.068506487587 94.35632183915004,164.49152655759826 90.19770114915445,159.66698338655988 86.03908045985736,157.79476366739254 65.86666666646488,159.9550167460693 60.96321839047596,168.5239550950937 58.85287356306799,176.6607492484036 69.34252873552032,181.9892181759351 88.08735632174648,180.8371202152921 91.56321839103475,179.25298243045108 94.35632183915004,173.78047892299946 94.41839080466889,164.56353441323154 92.68045976990834,161.8992388289771 87.03218390815891,158.08279779565055 65.55632183887064,160.1710416880087 61.21149425255135,168.09191028913483 58.85287356306799,176.44472938403487 69.52873563184403,181.9892181759351 88.39770114934072,180.76511402998585 91.06666666688398,179.6130140593159 94.41839080466889,175.14860880194465 94.35632183915004,164.63554226164706 90.25977011490613,159.66698338655988 86.78390804608352,158.1548063090886 65.68045976990834,159.52296666271286 59.41149425250478,172.4123463757569 58.914942528354004,177.02078220731346 70.14942528726533,182.06122423551278 87.21839080448262,180.90912639326416 90.8804597700946,179.82903294777498 94.54252873570658,174.5725544411107 94.35632183915004,164.4195186945144 92.86666666646488,161.97124695085222 87.40459770103917,158.1548063090886 65.30804597679526,160.0270250675385 61.14942528679967,168.01990279561142 58.72873563179746,176.44472938403487 70.21149425278418,181.917212108674 87.52873563207686,180.76511402998585 91.25287356320769,179.46900142991217 94.41839080466889,174.356533934013 94.41839080466889,164.3475108241546 91.0045977011323,160.38706656353315 86.90804597688839,158.2268148152507 65.80459770094603,159.88300841714954 64.25287356297486,161.25116540008457 61.08735632174648,168.16391777526587 58.85287356306799,175.86867608770262 61.273563218303025,178.38890576723497 69.28045977000147,181.9892181759351 87.96321839070879,180.8371202152921 91.56321839103475,179.39699510397622 94.60459770122543,174.86058168066666 94.4804597699549,164.63554226164706 92.68045976990834,161.97124695085222 86.97011494240724,158.2268148152507 65.37011494254693,160.1710416880087 60.96321839047596,168.30793272529263 58.85287356306799,177.02078220731346 69.8390804596711,181.84520603407873 88.58390804589726,180.6931078370544 91.25287356320769,179.6130140593159 94.41839080466889,175.9406827755738 94.10804597707465,164.3475108241546 93.17701149452478,162.47530359664233 88.58390804589726,158.7308741515153 85.85287356330082,158.08279779565055 66.11494252854027,159.66698338655988 64.12873563216999,161.61120626778575 60.90114942518994,168.30793272529263 58.66666666674428,175.58064926206134 59.41149425250478,177.30880844185594 68.16321839066222,181.4851755509735 88.70804597716779,180.5490954296547 93.61149425292388,176.94877563032787 94.66666666674428,171.76428265904542" stroke="#4DD2FF" stroke-linecap="round" stroke-linejoin="round" stroke-width="0.5"><title>2025-09-14 12.0km</title><desc>1757851744000</desc></polyline><polyline fill="none" points="124.24858757061884,158.60332675883546 111.80112994345836,160.37302479112986 107.16384180798195,169.3630206612288 105.33333333325572,176.4416750985547 116.13333333330229,181.67983260628534 130.28926553647034,180.97197580861393 136.268926553661,180.05176088534063 139.8689265535213,176.4416750985547 141.33333333325572,164.76185631385306 140.3570621467661,162.85059440654004 136.0858757062815,159.31120651686797 133.27909604506567,158.32017465220997 112.10621468955651,160.0190855480614 107.89604519796558,167.80570693453774 105.63841807935387,176.65403360925848 115.82824858743697,181.6090469590854 132.85197740094736,180.68883288599318 137.5502824857831,179.27311652968638 140.7231638415251,174.38887279178016 140.7231638415251,164.05398215114838 133.64519774005748,158.24938660732005 112.04519774019718,160.23144911573036 107.65197740099393,168.3012162290397 105.45536723174155,176.22931652260013 116.13333333330229,181.67983260628534 133.8282485876698,180.61804713710444 137.3062146892771,179.41468829615042 140.84519774001092,174.03494074207265 140.7231638415251,164.97421842115 139.62485875701532,162.49665643507615 133.27909604506567,158.1785985553288 112.10621468955651,159.94829767750343 106.73672316386364,170.3540366566158 105.39435028238222,175.80459917453118 106.24858757061884,177.36189483880298 116.25536723178811,181.82140387862455 133.8282485876698,180.61804713710444 137.42824858729728,179.34390241641086 140.29604519763961,175.73381292441627 140.4180790958926,165.3989424391766 138.89265536726452,162.00114296982065 133.52316384203732,158.24938660732005 112.10621468955651,160.0190855480614 107.83502824860625,167.9472810549778 105.45536723174155,176.4416750985547 116.13333333330229,181.7506182459765 134.49943502806127,180.54726138117258 137.06214689277112,179.4854741683812 140.6621468923986,174.53044556087116 140.4180790958926,164.97421842115 139.197740112897,162.28429356502602 133.8282485876698,158.32017465220997 115.27909604506567,159.24041857366683 111.55706214695238,160.23144911573036 106.73672316386364,170.28324984689243 105.57740112999454,176.65403360925848 115.52316384180449,181.6090469590854 132.42485875706188,180.75961862748954 136.9401129942853,179.697831741767 140.54011299437843,175.30909527122276 140.3570621467661,164.62028153950814 138.34350282489322,161.50562914845068 132.7909604520537,158.10781049600337 112.10621468955651,160.0190855480614 106.73672316386364,170.0708893747069 105.45536723174155,176.51246127591003 116.07231638417579,181.89218950405484 136.02485875692219,180.122546692146 139.62485875701532,177.00796431460185 140.78418079088442,174.24729999387637 139.99096045200713,163.98319469491253 135.0485875706654,158.95726672862656 132.24180790944956,158.24938660732005 115.9502824859228,159.24041857366683" stroke="#4DD2FF" stroke-linecap="round" stroke-linejoin="round" stroke-width="0.5"><title>2025-09-11 11.0km</title><desc>1757592695000</desc></polyline><polyline fill="none" points="171.63636363646947,158.07247962034307 170.83361921133474,158.86049699247815 158.85420240159146,159.79178910329938 153.66723842197098,169.82101000187686 152.37049742718227,176.91301493125502 163.053173241904,181.8558848410612 183.92452830192633,179.85008677910082 188.0,174.7639301387244 187.75300171528943,165.30787843308644 186.1475128645543,162.01255758304615 180.8987993139308,158.2873935372918 159.6569468267262,159.50523781689117 158.11320754722692,160.723079971096 154.09948542015627,168.67482062219642 152.0,175.551928664383 154.59348198981024,178.20246263063746 162.80617495742626,181.8558848410612 181.82504288153723,180.63807956228266 184.54202401358634,179.4919079472893 188.0,175.26538384892046 188.0,166.02425047190627 186.7032590052113,162.65729549527168 180.4665523157455,158.2873935372918 158.60720411664806,159.93506470212014 153.9759862779174,169.0330050055636 152.1234991424717,175.9817456668825 153.17324185254984,177.41446709731827 163.17667238414288,181.92752037965693 180.83704974292777,180.78135088196723 184.4185248715803,179.63517950213281 187.93825042899698,175.26538384892046 187.75300171528943,165.09296667808667 185.90051457984373,161.86928241030546 180.40480274450965,158.21575557236793 159.28644939954393,159.50523781689117 154.40823327633552,168.31663605495123 152.24699828471057,176.4831985020428 163.7324185250327,181.92752037965693 181.33104631234892,180.70971522590844 184.10977701563388,179.77845102752326 187.87650085776113,175.40865627134917 187.87650085776113,165.16460393706802 186.20926243555732,162.01255758304615 179.84905660361983,158.07247962034307 159.3481989710126,159.6485134747927 154.28473413409665,168.4599099040497 152.18524871394038,175.48029247141676 152.61749571189284,177.27119508682517 164.226415094221,181.92752037965693 182.75128644960932,180.4231725279824 187.5677530018147,175.9817456668825 187.38250428810716,163.87513214931823 182.31903945095837,158.86049699247815 179.6020583191421,158.1441176001681 158.91595197236165,159.79178910329938 152.80274442536756,172.54320223419927 152.49399656965397,177.05628701549722 163.23842195537873,181.7842492951313 181.20754717011005,180.63807956228266 184.7890222982969,179.13372893177439 187.93825042899698,174.47738499974366 187.5677530018147,165.16460393706802 186.5797598627396,162.51402045530267 180.96054888516665,158.3590314949979 171.9451114924159,158.3590314949979 160.2126929673832,159.50523781689117 158.4837049744092,160.43652906734496 152.74099485436454,172.75811169523513 152.61749571189284,177.19955907028634 163.54716981132515,181.8558848410612 182.1955403087195,180.49480821361067 186.826758147683,176.91301493125502 188.0,173.11629398271907 187.25900514563546,163.87513214931823 182.56603773590177,159.1470485435566 178.86106346477754,158.21575557236793 164.0411663807463,159.21868641290348" stroke="#4DD2FF" stroke-linecap="round" stroke-linejoin="round" stroke-width="0.5"><title>2025-09-09 11.0km</title><desc>1757419935000</desc></polyline><polyline fill="none" points="32.19210977712646,197.78593133046525 29.72212692978792,198.86050080507994 18.854202401591465,199.8634308221517 13.481989708263427,210.17919877154054 12.06174957100302,216.69811239361297 22.620926243485883,222.21406866947655 40.09605488856323,221.06789952504914 44.29502572887577,219.77845698746387 47.50600343057886,215.2653893455863 47.87650085776113,203.87513647676678 45.097770154476166,200.7230839750846 40.837049742927775,198.1441213391954 18.668953688116744,200.07834420964355 13.667238421970978,209.82101493951632 12.0,216.19665966113098 13.173241852549836,217.62938079761807 22.312178387772292,222.14243315317435 43.73927958845161,220.06499997951323 47.75300171528943,214.76393558393465 47.87650085776113,205.164608396939 46.45626072050072,202.22747444483684 41.084048027638346,198.28739729122026 18.854202401591465,200.07834420964355 13.79073756444268,209.24792042648187 12.123499142471701,215.91011508111842 12.926243567606434,217.4861088161706 22.744425385957584,221.99916209850926 40.59005145798437,220.99626389087643 45.159519725479186,218.70391971967183 47.073756432393566,214.83557185757672 48.0,207.52863406256074 46.826758147682995,202.585662174155 40.837049742927775,198.1441213391954 19.286449399543926,200.00670642097248 14.531732418574393,207.60027107904898 12.06174957100302,216.62647631095024 22.806174957426265,222.21406866947655 43.73927958845161,219.99336424242938 47.69125214428641,214.97884438297478 47.69125214428641,205.30788290750934 45.96226415107958,201.79764892731328 40.4665523157455,198.1441213391954 18.977701543830335,199.79179301147815 12.926243567606434,211.82684203033568 12.679245283128694,217.3428368056775 22.806174957426265,221.92752655991353 41.57804459682666,220.78135694476077 44.10977701563388,219.77845698746387 47.32075471710414,214.83557185757672 47.32075471710414,204.1616859982023 44.10977701563388,200.29325753089506 40.15780446003191,198.1441213391954 21.81818181835115,199.2903281317558 18.298456260934472,200.29325753089506 12.864493996836245,212.1133882869617 12.185248713940382,216.62647631095024 22.929674099432305,222.07079762947978 39.91080617508851,221.06789952504914 44.10977701563388,219.70682122098515 47.32075471710414,214.90720812388463 47.56775300181471,204.59151005983585 44.54202401358634,200.5081707861973 39.47855917667039,198.07248335209442 18.545454545645043,199.93506862525828 13.049742710310966,211.39702242490603 12.308747855946422,216.8413845364703 23.238421955378726,221.85589101398364 41.76329331053421,220.566449932463 46.703259005211294,216.98465665010735 47.75300171528943,212.97302635124652 47.44425385957584,204.5198727346724 46.641509434208274,202.585662174155 42.68953687814064,199.2903281317558 39.84905660361983,198.1441213391954 22.06518010282889,199.2903281317558" stroke="#4DD2FF" stroke-linecap="round" stroke-linejoin="round" stroke-width="0.5"><title>2025-09-06 11.0km</title><desc>1757162103000</desc></polyline><polyline fill="none" points="77.10114942514338,198.62286025780486 66.61149425292388,199.41495293122716 64.81149425264448,200.4950778632192 59.659770114813,211.44025002466515 58.66666666674428,216.48073240648955 68.34942528721876,221.8092029747786 75.98390804603696,221.95321513112867 88.21149425278418,220.80111705244053 92.37011494254693,218.56892164080637 94.66666666674428,214.60855746356538 94.0459770115558,203.44741085742135 89.14252873579971,198.6948687196127 86.47356321825646,197.83076668984722 77.5356321837753,198.04679229698377 65.37011494254693,199.84700310358312 60.28045977000147,209.56806163024157 58.66666666674428,216.192705817346 69.52873563184403,222.02522119838977 87.77701149415225,221.01713558624033 91.25287356320769,219.86503597022966 94.60459770122543,213.81648194545414 94.1701149425935,203.95146646833746 92.68045976990834,201.64720929024043 86.59770114952698,197.90277523291297 65.18390804599039,199.84700310358312 60.52873563184403,209.28003220289247 58.66666666674428,216.55273903516354 69.09425287367776,222.09722725796746 90.75632183928974,220.15306105167838 94.54252873570658,214.75257109833183 94.1701149425935,203.44741085742135 89.20459770108573,198.76687717397 86.59770114952698,197.97478376858635 65.43218390760012,199.99101976852398 61.21149425255135,207.55185315629933 58.66666666674428,216.33671912667342 59.970114942174405,217.7768505939748 69.8390804596711,222.16923331021098 88.45977011485957,220.87312323774677 90.94252873561345,219.93704225157853 94.23218390811235,215.11260505503742 94.2942528736312,204.88756878487766 93.48735632188618,202.58331468165852 87.83908045990393,198.19080933154328 65.61839080462232,199.77499476011144 61.21149425255135,207.4798456034623 58.79080459754914,216.76875887735514 69.03218390792608,221.8092029747786 86.47356321825646,220.87312323774677 90.8804597700946,219.7930296815466 94.54252873570658,215.97668579802848 94.2942528736312,205.1756000154419 92.68045976990834,201.93524185143178 86.84597701136954,198.04679229698377 65.37011494254693,199.84700310358312 60.46666666655801,209.42404693138087 58.79080459754914,216.48073240648955 68.84597701136954,222.02522119838977 90.63218390801921,220.08105479250662 94.54252873570658,215.25661858631065 94.41839080466889,204.81556095863925 92.61839080485515,201.57520113157807 87.46666666679084,198.11880081810523 68.2252873564139,199.19892774539767 64.81149425264448,200.27905300975544 59.16321839066222,212.95239854202373 58.79080459754914,216.69675227085827 69.09425287367776,221.8092029747786 90.32183908042498,220.15306105167838 94.2942528736312,215.61665228451602 94.1701149425935,204.4555217169691 92.68045976990834,201.8632337221643 86.90804597688839,198.04679229698377 66.11494252854027,199.34294454340125" stroke="#4DD2FF" stroke-linecap="round" stroke-linejoin="round" stroke-width="0.5"><title>2025-08-31 11.1km</title><desc>1756643837000</desc></polyline><polyline fill="none" points="124.89583333302289,197.20244841452222 121.95833333302289,198.72512922255555 111.27083333325572,199.88526477786945 106.20833333302289,211.70403716852888 105.77083333325572,216.6345095281722 116.39583333325572,222.21750286023598 133.8958333330229,220.91239148780005 138.7083333330229,218.3746680272161 140.9583333330229,214.74933298362885 141.2083333330229,204.23575614055153 137.95833333325572,200.10278998228023 133.8958333330229,197.78251768072369 112.20833333302289,199.66773950646166 107.70833333302289,208.2236830186448 105.83333333302289,213.4442078131251 105.70833333325572,216.9245362424408 116.08333333302289,222.5075272823451 134.77083333325572,220.83988522959407 138.4583333330229,219.09973280347185 141.27083333325572,213.80674282461405 141.0208333330229,203.80070821003756 137.2708333330229,199.37770570692373 133.0833333330229,197.4924831071403 111.95833333325572,200.03028158837697 107.70833333302289,207.93365273211384 105.45833333302289,216.70701621792978 116.64583333302289,222.4350211881101 137.2083333330229,219.82479683525162 139.39583333325572,217.64960250706645 141.1458333330229,213.5892218402587 140.8958333330229,203.72820019570645 138.52083333325572,200.68285686714808 133.6458333330229,197.63750040880404 111.89583333302289,200.10278998228023 106.64583333302289,210.39890637178905 105.33333333325572,216.0544557426474 107.70833333302289,218.7372005082434 116.83333333279006,222.79755158547778 137.5208333330229,219.96980955236359 141.0208333330229,214.60431919491384 141.1458333330229,203.72820019570645 139.3333333330229,201.40793980262242 133.58333333325572,197.78251768072369 115.95833333302289,199.23268876265502 111.64583333279006,200.68285686714808 106.89583333302289,210.32639903470408 105.33333333325572,216.56200283108046 107.20833333325572,218.3746680272161 116.33333333302289,222.5075272823451 137.2708333330229,220.18732857203577 140.8958333330229,214.24178459285758 140.8958333330229,203.80070821003756 136.4583333330229,199.01516329008155 133.2083333330229,197.4924831071403 111.77083333325572,200.10278998228023 107.70833333302289,208.07866789028049 105.45833333302289,216.1269624918932 107.14583333325572,218.22965498262784 116.27083333302289,222.4350211881101 135.3958333330229,221.0574039813364 137.95833333325572,219.67978408839554 140.52083333325572,215.9819489858928 140.9583333330229,203.80070821003756 138.4583333330229,200.68285686714808 133.6458333330229,197.4924831071403 112.02083333325572,199.9577731869649 107.64583333302289,208.151175457926 105.89583333325572,213.0816726158955 105.70833333325572,216.6345095281722 116.77083333325572,222.4350211881101 136.3333333330229,220.83988522959407 140.2083333330229,217.06954955484252 141.33333333325572,213.37170078861527 141.2083333330229,204.23575614055153 135.9583333330229,198.58011214411817 130.9583333330229,197.4924831071403 116.77083333325572,198.94265478424495" stroke="#4DD2FF" stroke-linecap="round" stroke-linejoin="round" stroke-width="0.5"><title>2025-08-29 11.0km</title><desc>1756472821000</desc></polyline><polyline fill="none" points="169.9385665531736,201.59020728629548 158.88054607529193,202.51673130964627 153.47440273035318,213.2073036809452 152.49146757670678,219.26522162777837 163.30375426635146,224.18278674286557 181.11945392540656,223.11375381081598 185.48122866940685,221.26075949636288 187.8156996590551,216.91333034838317 187.75426621199585,206.0802737227059 181.24232081929222,200.80622445471818 171.65870307199657,200.66368202655576 158.45051194541156,202.73054437019164 154.02730375435203,211.71063345804578 152.49146757670678,219.19395231216913 162.3822525597643,224.18278674286557 170.18430034141056,224.04024911369197 183.51535836211406,222.61487121263053 185.66552901058458,220.97568300925195 187.87713310611434,216.91333034838317 187.8156996590551,206.0802737227059 182.5324232087005,201.3763938745251 175.7133105804678,200.5211395691731 159.74061433481984,201.9465628261678 157.65187713340856,204.01342135079904 154.58020477811806,210.35650047648232 152.43003412988037,218.62379752343986 163.79522184305824,224.39659313170705 182.40955631434917,222.97121596208308 186.8327645054087,219.47902953100856 188.0,216.27190407167654 187.93856655340642,206.7217094147345 181.61092150211334,200.87749565776903 161.0921501708217,201.8040206321748 158.08191126282327,203.51452502893517 154.58020477811806,210.35650047648232 152.24573378870264,218.26745054282947 153.59726962447166,220.1204528452363 162.07508532423526,224.04024911369197 168.09556313999929,224.18278674286557 183.02389078540727,222.82867808442097 187.38566552940756,218.7663362644962 187.4470989764668,206.36535632575396 182.40955631434917,201.30512272269698 172.88737201411277,200.59241080167703 160.8464163823519,201.66147840890335 158.3890784981195,202.6592733571888 154.58020477811806,210.6415813236963 152.43003412988037,216.84206079144496 152.98293515341356,219.90664513973752 163.05802047811449,224.32532434276072 181.733788395999,223.11375381081598 184.31399317458272,221.97345020255307 186.64846416399814,219.05141365888994 187.75426621199585,216.20063444867264 187.87713310611434,210.07141951227095 187.69283276470378,206.6504388114554 186.34129692870192,204.36977564694826 181.3651877134107,200.73495324427495 164.83959044376388,201.59020728629548 152.49146757670678,195.60340686829295 152.0,197.31392654118827 152.8600682595279,199.95096944691613 156.66894197952934,205.2250252114609 152.49146757670678,216.05809518083697 152.30716723552905,218.48125875310507 153.29010238917544,219.8353758896119 162.44368600705639,224.04024911369197 181.85665529035032,223.11375381081598 186.402730375994,219.69283736817306 187.87713310611434,215.6304772022413 186.8327645054087,204.93994214053964 182.1638225261122,201.09130922320765 171.65870307199657,200.66368202655576 162.62798634823412,201.59020728629548 159.00341296941042,202.51673130964627 157.2218430035282,204.79740056104492 152.49146757670678,216.55698249017587 153.16723549505696,219.8353758896119 162.13651877152734,223.8977114551817 164.83959044376388,224.18278674286557 171.16723549505696,223.75517376762582 182.9624573381152,219.6215680965106 176.32764505129308,222.61487121263053 182.65529010258615,222.75740913441405 186.5870307169389,219.47902953100856 187.75426621199585,216.05809518083697 187.50853242375888,208.43220169632696 186.7713310585823,205.29629596113227 184.68259385670535,203.0868993247277 180.3208191129379,200.59241080167703 166.25255972705781,201.44766501913546" stroke="#4DD2FF" stroke-linecap="round" stroke-linejoin="round" stroke-width="0.5"><title>2025-08-27 11.4km</title><desc>1756300085000</desc></polyline><polyline fill="none" points="44.81090289633721,257.50624275242444 47.50936967646703,255.01606385211926 47.32538330508396,244.34376723668538 42.66439522989094,239.29215620819014 39.29131175484508,238.08261007635156 18.623509369790554,240.1459522069199 13.83986371383071,249.39534144941717 12.0,256.0832844763645 15.373083475511521,258.7869027038687 22.487223168835044,261.9173948460957 41.62180579220876,260.7078881942434 44.381601362954825,259.4983794320724 47.386712095700204,254.87376764474902 47.44804088608362,243.9880211863201 41.9897785349749,238.79410805657972 39.41396933584474,238.01146023819456 19.175468484172598,239.64790466881823 14.51448040874675,247.54547347477637 12.0,256.15443245944334 16.967632027575746,259.4983794320724 23.59114139713347,262.059689607413 43.64565587765537,259.92526511853794 47.26405451470055,255.15836003032746 48.0,244.7706622563419 44.44293015333824,240.71514895517612 40.39522998291068,238.1537599071744 18.807495741406456,239.8613536574412 14.637137989513576,247.47432460804703 12.183986371615902,256.01213648577686 13.410562180681154,257.50624275242444 23.345826235366985,262.059689607413 40.27257240214385,260.9924781845766 43.890971039421856,259.8541175221908 47.26405451470055,255.08721194474492 47.6933560478501,244.7706622563419 44.688245315570384,241.07089668535627 39.168654173845425,238.01146023819456 18.684838160406798,240.07480258034775 14.085178875597194,248.96844927826896 12.183986371615902,256.15443245944334 15.127768313745037,258.7157549909316 23.28449744475074,262.059689607413 39.22998296446167,261.3482155081001 44.25894378195517,259.56952706479933 47.32538330508396,253.8065451584407 47.570698466850445,244.69951310456963 43.522998296655715,240.07480258034775 38.80068143107928,238.01146023819456 18.56218057917431,240.00365294679068 13.901192504446954,249.3241927723284 12.061328790383413,256.36787636531517 22.671209539985284,261.98854223039234 43.58432708703913,260.3521505421959 47.81601362884976,255.5141003478202 47.50936967646703,244.55721477943007 45.60817717225291,241.64009267406072 39.41396933584474,237.94031039258698 18.684838160406798,239.71905433916254 12.735945485765114,252.66817269509193 12.183986371615902,256.0832844763645 13.042589438147843,257.5773905898677 23.59114139713347,262.059689607413 41.37649063044228,260.9213306978345 44.13628620118834,259.7829699188587 46.712095400551334,256.8659118898213 47.6933560478501,252.95276598638156 47.44804088608362,244.98410966765368 46.52810902893543,242.77848324883962 42.48040885850787,239.2210064943065 39.659284497378394,238.22490973077947 21.321976149920374,239.29215620819014" stroke="#4DD2FF" stroke-linecap="round" stroke-linejoin="round" stroke-width="0.5"><title>2025-08-21 10.0km</title><desc>1755782353000</desc></polyline><polyline fill="none" points="93.42528735636733,257.3448107103468 94.60459770122543,254.39253650570754 93.92183908028528,243.5914274409297 88.95632183877751,238.69486987998243 86.03908045985736,237.83076793892542 65.18390804599039,239.84700414561667 59.03908045985736,256.12069852335844 60.03218390769325,257.4888237681589 68.97011494240724,261.52117739082314 90.13563218410127,260.22506625403184 94.54252873570658,255.4006315334118 93.79770114948042,244.02347499650205 89.45287356339395,239.48696239118 85.85287356330082,238.3348275339231 65.12183908023871,240.0630291099078 60.404597701039165,251.29623557726154 59.47356321825646,257.1287910679239 69.71494252840057,262.1692320610746 90.69425287353806,259.9370412317803 94.4804597699549,254.68056380434427 94.1701149425935,244.1674907892011 92.12183908047155,241.35917749785585 86.47356321825646,238.11880203755572 65.37011494254693,239.9910207960056 60.590804597362876,249.5680616745958 59.03908045985736,255.97668518446153 59.90804597665556,257.4888237681589 69.34252873552032,261.73719568079105 88.27356321853586,260.65710356552154 90.94252873561345,259.649016091309 94.35632183915004,255.1846112923231 94.23218390811235,244.31150655262172 89.45287356339395,239.2709372494137 86.59770114952698,238.04679352411767 65.30804597679526,239.91901247453643 59.90804597665556,250.7921852952568 58.66666666674428,256.408725112502 70.14942528726533,261.9532139044022 91.19080459745601,259.7930286762421 94.54252873570658,255.1846112923231 93.98390804603696,243.80745125201065 88.95632183877751,239.05491204134887 86.47356321825646,238.19081054371782 65.05977011471987,239.9910207960056 60.404597701039165,250.21612738701515 59.16321839066222,257.3448107103468 69.65287356311455,261.80920176254585 90.44597701146267,259.865034957591 94.66666666674428,254.68056380434427 94.35632183915004,244.4555222860654 92.55632183910348,241.57520199625287 86.41149425297044,238.04679352411767 65.43218390760012,239.77499580959557 60.0942528732121,250.57616363512352 59.03908045985736,257.1287910679239 68.10114942491055,261.59318349475507 71.70114942523651,261.9532139044022 89.45287356339395,260.4410849431297 94.66666666674428,255.90467850404093 94.0459770115558,243.80745125201065 88.95632183877751,238.98290362401167 86.03908045985736,238.11880203755572 77.03908045985736,238.26281904254574 67.10804597684182,239.19892885407899 64.62528735608794,240.7831118432223" stroke="#4DD2FF" stroke-linecap="round" stroke-linejoin="round" stroke-width="0.5"><title>2025-07-22 10.0km</title><desc>1753187142000</desc></polyline><polyline fill="none" points="115.93057275097817,261.88239281787537 124.04318708833307,267.5294154116418 131.95298606716096,262.35297856642865 130.73609391693026,239.05886809295043 124.85444852244109,232.70588778774254 118.56717241089791,233.41177535778843 114.51086524222046,238.58827756298706 116.13338810950518,259.529462631559 125.26007923856378,266.5882459457498 132.15580142568797,258.35299663222395 129.72201712522656,236.0000279219821 122.01503350399435,232.70588778774254 116.74183418508619,235.05884550954215 114.30804988369346,240.70593418669887 116.74183418508619,261.17651401576586 123.43474101275206,266.5882459457498 129.11357104964554,264.70590585353784 132.15580142568797,259.529462631559 130.73609391693026,238.11768693639897 124.65163316391408,232.4705918834079 114.51086524222046,237.88239158736542 115.72775739338249,258.35299663222395 123.23192565515637,266.8235383478459 130.73609391693026,263.2941497708671 130.73609391693026,239.2941633220762 126.2741560311988,232.70588778774254 115.52494203392416,236.70591447711922 116.53901882562786,259.0588763044216 122.42066422104836,265.4117835694924 131.34453999251127,258.35299663222395 130.53327855840325,236.70591447711922 126.4769713897258,232.70588778774254 115.11931131687015,236.70591447711922 115.52494203392416,258.35299663222395 123.02911029662937,267.05883072689176 128.91075569018722,266.35295351874083 132.15580142568797,261.17651401576586 131.34453999251127,238.58827756298706 126.88260210584849,232.70588778774254 118.3643570523709,233.1764795256313 114.10523452516645,240.47063910332508 116.13338810950518,262.5882714034524 126.2741560311988,268.0 132.15580142568797,262.11768570402637 131.34453999251127,238.58827756298706 122.82629493810236,232.23529595369473 114.30804988369346,239.05886809295043 116.13338810950518,262.11768570402637 125.86852531414479,267.5294154116418 130.73609391693026,266.11766106728464 132.3586167851463,260.94122103368863 130.12764784228057,236.70591447711922 120.18969527818263,232.70588778774254 114.91649595834315,239.2941633220762 116.33620346803218,260.70592802669853 119.98687991965562,265.4117835694924 125.66570995654911,266.35295351874083 132.15580142568797,258.11770336003974 129.92483248282224,237.647096213419 125.66570995654911,233.1764795256313 119.37843384500593,233.1764795256313 114.51086524222046,240.2353439948056 116.53901882562786,261.41180697386153 120.39251063764095,265.8823685925454 126.2741560311988,266.5882459457498 131.95298606716096,260.47063499549404 129.72201712522656,236.23532346496359 118.97280312795192,233.41177535778843 114.30804988369346,240.47063910332508 116.53901882562786,261.17651401576586 125.86852531414479,266.5882459457498 132.15580142568797,257.88241006364115 130.33046320080757,237.17650539404713 120.79814135376364,232.70588778774254 114.71368059981614,238.58827756298706 116.74183418508619,261.88239281787537 124.04318708833307,266.8235383478459 129.72201712522656,264.9411984500475 132.15580142568797,259.7647557586897 130.33046320080757,236.470618983265 119.58124920260161,232.9411836687941 114.30804988369346,241.4118192929309 117.55309561919421,263.76473522838205 126.4769713897258,266.8235383478459 132.15580142568797,260.47063499549404 130.12764784228057,236.9412099479232 123.23192565515637,232.4705918834079 114.71368059981614,239.2941633220762 116.9446495436132,262.5882714034524 124.4488178063184,266.8235383478459 132.3586167851463,259.29416948067956 130.53327855840325,236.70591447711922 122.42066422104836,232.0 115.11931131687015,237.647096213419 116.74183418508619,261.88239281787537 124.24600244686007,266.5882459457498 130.12764784228057,264.70590585353784 132.56143214181066,259.29416948067956 130.93890927452594,238.11768693639897 124.65163316391408,232.23529595369473 116.74183418508619,234.82354984618723 114.71368059981614,239.76475370652042 117.55309561919421,263.05885700532235 126.4769713897258,266.11766106728464 132.3586167851463,259.29416948067956 130.73609391693026,236.9412099479232 126.2741560311988,232.70588778774254 119.98687991965562,232.4705918834079 114.51086524222046,239.76475370652042 116.74183418508619,262.11768570402637 124.04318708833307,267.05883072689176 130.12764784228057,264.9411984500475 132.56143214181066,259.529462631559 130.93890927452594,238.11768693639897 127.28823282383382,232.9411836687941 121.00095671229064,232.0 114.71368059981614,238.58827756298706 116.33620346803218,260.70592802669853 125.66570995654911,267.05883072689176 132.15580142568797,261.41180697386153 130.73609391693026,237.41180081595667 120.79814135376364,232.23529595369473 114.71368059981614,238.58827756298706 116.53901882562786,262.5882714034524 126.88260210584849,267.05883072689176 132.56143214181066,260.94122103368863 131.14172463398427,238.58827756298706 123.84037173073739,232.0 117.55309561919421,233.647071165964 114.30804988369346,239.05886809295043 116.33620346803218,261.17651401576586 123.63755637221038,267.05883072689176 129.31638640817255,265.4117835694924 132.3586167851463,260.2353419410065 130.53327855840325,237.88239158736542 126.4769713897258,232.9411836687941 120.39251063764095,232.23529595369473 114.71368059981614,239.05886809295043 116.33620346803218,261.17651401576586 119.98687991965562,266.11766106728464 126.07134067360312,267.05883072689176 132.15580142568797,260.70592802669853 129.72201712522656,235.7647323552519 122.21784886252135,232.23529595369473 114.91649595834315,238.82357284030877 116.53901882562786,260.94122103368863 123.84037173073739,266.8235383478459 131.95298606716096,261.41180697386153 129.92483248282224,236.470618983265 121.81221814546734,232.23529595369473 115.11931131687015,237.88239158736542 117.3502802606672,262.5882714034524 125.26007923856378,266.8235383478459 132.15580142568797,260.2353419410065 129.92483248282224,236.70591447711922 121.60940278694034,232.23529595369473 115.11931131687015,239.05886809295043 116.53901882562786,259.7647557586897 119.98687991965562,265.1764910216443 126.4769713897258,266.11766106728464 132.15580142568797,258.82358310418203 130.12764784228057,238.11768693639897 122.01503350399435,232.9411836687941 115.11931131687015,239.2941633220762 119.17561848647892,263.05885700532235 125.66570995654911,265.8823685925454" stroke="#4DD2FF" stroke-linecap="round" stroke-linejoin="round" stroke-width="0.5"><title>2025-05-09 10.0km</title><desc>1746796175000</desc></polyline><polyline fill="none" points="165.3655380755663,262.6234127751086 167.98501655552536,266.3636487098411 174.43296358082443,266.83117777016014 178.86592716071755,258.649405361386 176.44794702716172,236.2078215801157 167.98501655552536,232.46753611485474 161.33557118475437,238.54549687565304 163.9550496628508,262.85717770061456 174.02996689267457,268.0 179.47042219527066,261.22082271496765 176.8509437162429,237.3766595281195 170.40299669001251,232.0 161.13407283928245,237.84419453935698 162.74605959653854,261.9221178526059 166.57452814280987,266.5974132521078 172.61947847995907,267.5324711804278 178.86592716071755,260.98705762065947 177.8584354389459,239.71433362434618 170.00000000093132,232.46753611485474 164.35804635379463,233.87014388432726 161.13407283928245,239.01303164707497 162.74605959653854,260.05199700477533 171.41048841178417,267.06494226376526 178.05993378348649,262.1558828500565 177.0524420607835,239.01303164707497 167.98501655552536,233.16884010774083 160.93257449474186,241.3507040636614 163.55205297470093,262.1558828500565 170.6044950345531,267.29870673432015 176.44794702716172,264.96106095355935 178.46293047256768,259.3507012913469 175.8434519926086,235.97405391838402 167.98501655552536,232.70130413677543 161.33557118475437,238.3117294544354 163.55205297470093,262.3896478244569 170.80599337816238,266.83117777016014 178.46293047256768,258.88317069550976 176.649445370771,238.07796200853772 166.97752483189106,233.16884010774083 160.93257449474186,239.24679899704643 164.15654800832272,263.09094260213897 172.21648179087788,267.06494226376526 178.66442881710827,257.9481092165224 176.649445370771,237.610427045729 166.77602648735046,233.16884010774083 160.73107615020126,239.71433362434618 163.9550496628508,262.85717770061456 173.82846854720265,266.5974132521078 178.66442881710827,259.818231791025 177.0524420607835,239.01303164707497 168.18651490006596,232.93507213471457 160.52957780566067,240.88316977233626 164.15654800832272,263.792237163987 172.01498344633728,267.06494226376526 178.05993378348649,260.7532925021369 176.44794702716172,237.14289198582992 169.19400662183762,232.70130413677543 160.52957780566067,239.48056632233784 163.350554629229,261.9221178526059 169.7985016554594,267.06494226376526 178.26143212709576,261.22082271496765 176.649445370771,238.07796200853772 170.6044950345531,232.93507213471457 165.1640397310257,233.63637598301284 160.52957780566067,240.4156353850849 163.55205297470093,263.09094260213897 170.80599337816238,267.06494226376526 177.65693709347397,262.6234127751086 177.0524420607835,239.24679899704643 171.41048841178417,233.40260805748403 161.53706952836365,237.3766595281195 162.54456125199795,259.1169360051863 165.1640397310257,264.96106095355935 170.80599337816238,267.5324711804278 178.05993378348649,262.3896478244569 176.8509437162429,238.07796200853772 170.00000000093132,232.70130413677543 164.35804635379463,234.10391176166013 160.93257449474186,239.01303164707497 162.74605959653854,260.28576219524257 167.58201986551285,266.5974132521078 173.22397351358086,267.7662356023211 178.46293047256768,261.22082271496765 177.2539404053241,239.48056632233784 168.58951158821583,232.70130413677543 160.93257449474186,240.18186815502122 163.55205297470093,263.3247074796818 171.41048841178417,267.29870673432015 178.66442881710827,258.88317069550976 177.0524420607835,238.3117294544354 167.78351821005344,232.70130413677543 160.52957780566067,240.4156353850849 162.74605959653854,261.68835283024237 166.77602648735046,266.3636487098411 172.61947847995907,267.06494226376526 178.46293047256768,261.68835283024237 176.44794702716172,237.3766595281195 168.99250827729702,232.70130413677543 161.94006621744484,237.3766595281195 162.54456125199795,261.22082271496765 171.41048841178417,267.29870673432015 178.66442881710827,259.3507012913469 176.24644868262112,236.441589217633 168.38801324367523,232.70130413677543 160.52957780566067,240.64940259046853 162.74605959653854,261.9221178526059 166.97752483189106,266.5974132521078 173.02247516904026,267.06494226376526 178.66442881710827,260.05199700477533 177.0524420607835,237.84419453935698 170.2014983445406,232.46753611485474 161.13407283928245,239.24679899704643 163.55205297470093,262.85717770061456 171.0074917236343,267.06494226376526 177.65693709347397,261.68835283024237 176.8509437162429,238.77926427312195 170.80599337816238,233.16884010774083 165.3655380755663,233.87014388432726 161.73856787290424,241.11693692952394 162.74605959653854,260.7532925021369 168.38801324367523,266.83117777016014 177.8584354389459,261.9221178526059 176.44794702716172,236.6753568314016 169.59700331185013,232.70130413677543 163.9550496628508,234.80521525046788 161.13407283928245,239.9481009019073 162.74605959653854,262.6234127751086 172.82097682449967,267.29870673432015 178.26143212709576,261.22082271496765 176.8509437162429,238.3117294544354 168.18651490006596,232.93507213471457 161.13407283928245,240.4156353850849 163.55205297470093,262.6234127751086 170.40299669001251,267.06494226376526 178.66442881710827,260.05199700477533 176.44794702716172,236.6753568314016 169.39550496730953,232.70130413677543 160.93257449474186,239.48056632233784 162.54456125199795,261.68835283024237 171.2089900681749,267.29870673432015 178.66442881710827,259.818231791025 176.8509437162429,237.3766595281195 170.80599337816238,232.46753611485474 161.53706952836365,238.07796200853772 162.34306290652603,261.22082271496765 170.80599337816238,267.06494226376526 178.26143212709576,260.05199700477533 176.649445370771,237.84419453935698 167.58201986551285,233.16884010774083 161.13407283928245,240.88316977233626 162.74605959653854,261.45458778436296 170.2014983445406,266.3636487098411 178.05993378348649,259.58446655375883 176.24644868262112,236.6753568314016 168.38801324367523,232.93507213471457 161.53706952836365,238.77926427312195 163.55205297470093,261.22082271496765 171.6119867572561,265.6623549400829 178.66442881710827,259.3507012913469 177.45543874893337,239.9481009019073 170.80599337816238,232.70130413677543" stroke="#4DD2FF" stroke-linecap="round" stroke-linejoin="round" stroke-width="0.5"><title>2025-05-03 10.2km</title><desc>1746275352000</desc></polyline></svg>