<?xml version="1.0" encoding="utf-8" ?>
<svg baseProfile="full" height="300mm" version="1.1" viewBox="0,0,200,300" width="200mm" xmlns="http://www.w3.org/2000/svg" xmlns:ev="http://www.w3.org/2001/xml-events" xmlns:xlink="http://www.w3.org/1999/xlink"><defs /><rect fill="#222222" height="300" width="200" x="0" y="0" /><text fill="#FFFFFF" style="font-size:12px; font-family:Arial; font-weight:bold;" x="10" y="20">Over 10km Runs</text><text fill="#FFFFFF" style="font-size:4px; font-family:Arial" x="10" y="280">Runner</text><text fill="#FFFFFF" style="font-size:9px; font-family:Arial" x="10" y="290">Wangyp</text><text fill="#FFFFFF" style="font-size:4px; font-family:Arial" x="65" y="280">SPECIAL TRACKS</text><rect fill="yellow" height="2.6" width="2.6" x="65" y="283" /><text fill="#FFFFFF" style="font-size:3px; font-family:Arial" x="70" y="285.5">Over 20.0 km</text><rect fill="red" height="2.6" width="2.6" x="65" y="287" /><text fill="#FFFFFF" style="font-size:3px; font-family:Arial" x="70" y="289.5">Over 40.0 km</text><text fill="#FFFFFF" style="font-size:4px; font-family:Arial" x="120" y="280">STATISTICS</text><text fill="#FFFFFF" style="font-size:3px; font-family:Arial" x="120" y="285">Number: 23</text><text fill="#FFFFFF" style="font-size:3px; font-family:Arial" x="120" y="290">Weekly: 1.6</text><text fill="#FFFFFF" style="font-size:3px; font-family:Arial" x="141" y="285">Total: 285.2 km</text><text fill="#FFFFFF" style="font-size:3px; font-family:Arial" x="141" y="290">Avg: 12.4 km</text><text fill="#FFFFFF" style="font-size:3px; font-family:Arial" x="167" y="285">Min: 10.0 km</text><text fill="#FFFFFF" style="font-size:3px; font-family:Arial" x="167" y="290">Max: 21.3 km</text><polyline fill="none" points="17.532318241384928,43.31634539840161 16.56307351012947,43.22364770787317 15.248966421291698,43.362694164996356 12.972874861341552,43.729268926279474 12.642533024089062,43.733482410210854 12.395684178656666,43.60707770362569 12.217807804758195,43.611291200133564 12.021780780458357,43.78825766195223 12.0,44.05791937203685 12.181506503970013,44.24752419923607 12.31945144700876,44.26859134808183 12.559040032254416,44.1969629977757 12.765957446797984,43.93151566641973 14.475748714306974,43.649212649153924 15.822526973861386,43.34584007412195 16.53040233941283,43.26156951571102 20.12060098820075,43.70398801355623 20.984571947148652,43.7629767856306 21.354845215275418,43.87252713701673 22.962992840562947,43.9357291295637 25.990521326995804,44.239097336652776 26.676615912045236,44.13376140820401 27.674901683974895,43.60707770362569 27.743874155479716,43.61971819183236 29.33387113038043,46.5395664747557 29.47544620349072,47.12098328334832 29.471816073390073,47.352705074725236 29.384692951483885,47.69396569080709 29.206816577585414,48.04786258740569 27.47161439950287,50.14169003155985 27.210245033784304,50.68935360633259 27.235655944328755,50.91262973324774 28.524352122622076,51.16539369219754 29.94010285368131,51.531898664201435 33.39235655943048,52.66930702328682 34.67016234748007,52.846234376193024 35.486941615410615,52.86308456047118 36.30735101339815,52.82517163612647 37.65412927296711,52.60611849790803 37.911868508614134,53.195874280550925 38.15871735403198,53.44441167647528 38.41645658969355,53.52866129926042 38.935565191088244,53.4949614709185 39.17515377631935,53.54972367789742 40.22789149945311,54.16895277461663 40.08631642632827,54.737624319088354 40.07542603609909,55.314712563915236 40.72884945044643,55.79912343338947 40.75789049107698,56.50677424338937 38.70323686598567,56.43937945430298 36.07502268831013,56.64998780244059 35.98789956638939,56.68789719023334 36.02057073710603,56.77635229213047 38.895633760199416,56.5404715964105 42.122819401018205,56.71738224540968 42.22809317334031,56.59944189754242 42.23898356358404,56.40989419924881 42.24624382374168,53.6044858117275 42.20268226278131,52.854659469190665 42.05747705959948,51.97001525044834 42.11555914086057,51.8225726912824 44.1556922456366,51.53611134598759 46.11596248864953,51.0895646681638 46.199455480484175,51.203308151609235 46.210345870727906,52.05426790329511 46.319249773107,52.74092056763402 46.87828980537597,54.70392548444943 47.00171422808489,55.52532668859567 47.04164565895917,56.35092362553041 47.0525360492029,55.81597240412157 46.936371886651614,54.79238486630129 46.286578602390364,52.40391456218276 46.22849652112927,51.8604865428606 46.239386911373,51.14433008848209 46.333770293422276,51.06007556538316 46.8347282444156,50.98845908459043 47.86931531711889,50.97160812974835 47.94917817888199,51.14433008848209 48.0,51.670916934301204" stroke="yellow" stroke-linecap="round" stroke-linejoin="round" stroke-width="0.5"><title>2025-11-16 21.3km</title><desc>1763251484000</desc></polyline><polyline fill="none" points="68.90897960588336,57.94810921535827 70.72246489301324,63.79223716352135 75.5584256593138,66.59741325164214 85.0288488259539,61.454587783897296 83.61836026795208,38.077962008770555 77.57340931147337,32.46753611508757 70.52096652705222,33.87014388409443 67.69998941384256,38.54549687542021 68.70748124085367,60.519527359865606 77.97640604153275,67.29870673385449 85.834842287004,60.519527359865606 84.02135699987411,38.077962008770555 76.56591748539358,32.46753611508757 67.90148777887225,38.779264273354784 69.31197633594275,60.98705762042664 77.37191094551235,67.29870673385449 85.6333439219743,61.92211785167456 84.02135699987411,37.61042704549618 77.57340931147337,32.46753611508757 68.10298614483327,38.31172945396975 69.31197633594275,60.75329250236973 77.77490767650306,67.29870673385449 85.834842287004,61.688352830009535 84.02135699987411,38.077962008770555 77.57340931147337,32.46753611508757 70.52096652705222,34.3376796154771 67.69998941384256,39.246798996580765 69.71497306693345,61.92211785167456 78.98389786854386,67.29870673385449 85.6333439219743,60.98705762042664 83.8198586339131,38.31172945396975 77.57340931147337,32.46753611508757 71.72995671909302,33.63637598254718 68.10298614483327,38.779264273354784 69.11047797091305,60.98705762042664 77.77490767650306,67.29870673385449 85.6333439219743,61.92211785167456 83.8198586339131,38.31172945396975 75.75992402434349,32.23376806918532 67.90148777887225,39.01303164707497 69.31197633594275,61.688352830009535 76.96891421545297,67.06494226353243 85.43184555601329,61.688352830009535 83.41686190292239,37.61042704549618 75.15542892832309,32.46753611508757 67.90148777887225,38.779264273354784 69.71497306693345,62.15588284982368 79.18539623357356,67.06494226353243 85.43184555601329,61.22082271403633 84.02135699987411,38.779264273354784 75.3569272942841,32.23376806918532 67.90148777887225,38.54549687542021 69.51347470190376,61.92211785167456 77.97640604153275,67.29870673385449 85.23034719005227,61.454587783897296 83.61836026795208,38.077962008770555 75.3569272942841,32.46753611508757 67.90148777887225,38.54549687542021 69.31197633594275,61.92211785167456 77.57340931147337,67.53247117972933 85.6333439219743,61.454587783897296 83.41686190292239,37.844194538891315 74.9539305632934,32.46753611508757 67.69998941384256,39.246798996580765 68.90897960588336,60.98705762042664 77.37191094551235,67.53247117972933 85.43184555601329,61.454587783897296 84.02135699987411,38.779264273354784 75.9614223903045,32.46753611508757 68.10298614483327,38.779264273354784 69.11047797091305,61.688352830009535 78.98389786854386,67.53247117972933 85.43184555601329,61.454587783897296 83.8198586339131,38.54549687542021 74.9539305632934,32.23376806918532 67.69998941384256,39.246798996580765 68.90897960588336,60.98705762042664 77.77490767650306,67.53247117972933 85.6333439219743,60.98705762042664 83.61836026795208,37.844194538891315 76.16292075440288,32.701304137008265 67.90148777887225,38.54549687542021 69.11047797091305,61.92211785167456 77.97640604153275,67.53247117972933 85.6333439219743,60.98705762042664 83.8198586339131,38.54549687542021 76.16292075440288,32.701304137008265 67.90148777887225,39.01303164707497 69.51347470190376,62.15588284982368 77.57340931147337,67.53247117972933 85.43184555601329,60.519527359865606 83.61836026795208,38.077962008770555 74.75243219733238,32.93507213424891 67.69998941384256,39.48056632257067 69.71497306693345,62.15588284982368 77.17041258141398,67.53247117972933 85.6333439219743,61.22082271403633 83.8198586339131,38.31172945396975 75.5584256593138,32.701304137008265 67.69998941384256,39.48056632257067 69.31197633594275,61.688352830009535 78.78239950351417,67.53247117972933 85.6333439219743,60.05199700477533 83.8198586339131,39.246798996580765 75.9614223903045,32.701304137008265 70.92396325804293,34.10391176166013 67.69998941384256,39.48056632257067 69.31197633594275,61.688352830009535 77.17041258141398,67.29870673385449 85.43184555601329,61.22082271403633 83.41686190292239,37.844194538891315 74.1479371022433,32.46753611508757 67.69998941384256,39.71433362388052 69.11047797091305,61.688352830009535 77.77490767650306,67.53247117972933 85.834842287004,61.22082271403633 83.61836026795208,38.077962008770555 74.1479371022433,33.168840107740834 67.90148777887225,40.18186815525405 69.91647143196315,63.32470747968182 79.78989132959396,67.06494226353243 85.834842287004,60.285762194311246 83.61836026795208,37.844194538891315 73.94643873721361,32.93507213424891 67.69998941384256,39.71433362388052 69.31197633594275,61.688352830009535 77.37191094551235,67.29870673385449 85.834842287004,60.285762194311246 83.61836026795208,38.31172945396975 74.75243219733238,32.93507213424891 67.49849104788154,40.18186815525405 69.71497306693345,62.62341277417727 78.37940277345479,67.53247117972933 85.43184555601329,61.454587783897296 83.8198586339131,39.01303164707497 74.9539305632934,32.701304137008265 67.49849104788154,39.71433362388052 69.11047797091305,60.98705762042664 77.97640604153275,68.0 85.834842287004,61.22082271403633 84.02135699987411,39.01303164707497 75.15542892832309,32.93507213424891 67.49849104788154,40.18186815525405 68.70748124085367,60.75329250236973 76.76741585042328,67.29870673385449 85.43184555601329,62.15588284982368 83.61836026795208,39.48056632257067 75.15542892832309,32.46753611508757 67.90148777887225,39.71433362388052 68.70748124085367,60.519527359865606 77.37191094551235,67.76623560138978 85.23034719005227,62.389647824456915 83.61836026795208,39.246798996580765 76.16292075440288,32.93507213424891 71.12546162307262,34.10391176166013 67.69998941384256,39.48056632257067 68.90897960588336,60.75329250236973 76.96891421545297,67.76623560138978 85.23034719005227,61.92211785167456 83.8198586339131,38.779264273354784 76.16292075440288,32.93507213424891 68.50598287582397,37.14289198629558 69.31197633594275,61.22082271403633 77.57340931147337,67.53247117972933 85.834842287004,61.454587783897296 84.02135699987411,39.01303164707497 75.5584256593138,32.701304137008265 67.90148777887225,38.779264273354784 69.31197633594275,61.454587783897296 76.76741585042328,67.53247117972933 82.20787171274424,66.59741325164214 85.6333439219743,61.454587783897296 83.61836026795208,38.31172945396975 74.55093383230269,32.0 67.90148777887225,37.844194538891315 69.91647143196315,61.454587783897296 78.58090113755316,67.76623560138978 85.834842287004,60.285762194311246 83.41686190292239,38.077962008770555 78.58090113755316,32.93507213424891 73.94643873721361,33.168840107740834" stroke="#4DD2FF" stroke-linecap="round" stroke-linejoin="round" stroke-width="0.5"><title>2025-11-11 12.1km</title><desc>1762863504000</desc></polyline><polyline fill="none" points="118.06013617943972,59.294169479981065 117.04605980403721,64.23532058973797 124.5502249840647,68.0 130.83749851491302,66.82353834877722 133.87972764112055,60.00004886230454 131.04031378868967,37.64709621295333 128.4037152118981,33.88236695062369 120.8995500318706,32.47059188247658 114.4094612263143,38.58827756275423 116.23479870241135,62.58827140345238 125.15867081098258,67.52941541210748 132.05439016409218,59.52946263179183 129.8234221385792,37.411800815723836 120.8995500318706,32.94118366809562 114.4094612263143,40.23534399527125 116.84324452839792,62.11768570402637 124.5502249840647,67.29412308172323 132.86565126571804,60.235341941937804 130.63468323927373,38.82357284030877 126.37556246016175,33.41177535825409 120.69673475716263,32.94118366809562 114.81509177666157,38.82357284030877 117.04605980403721,62.58827140345238 126.78119301144034,67.05883072689176 132.4600207163021,60.47063499619253 129.8234221385792,36.94120994745754 120.08828893024474,32.94118366809562 114.81509177666157,39.29416332114488 116.84324452839792,62.58827140345238 125.9699319107458,67.29412308172323 132.05439016409218,59.76475575868972 130.43186796363443,37.64709621295333 121.30518058128655,32.94118366809562 114.81509177666157,38.35298226191662 116.84324452839792,62.11768570402637 124.5502249840647,67.29412308172323 132.2572054406628,60.941221033688635 129.8234221385792,36.00002792174928 120.29110420588404,32.70588778750971 114.81509177666157,39.0588680927176 117.04605980403721,63.058857006020844 125.36148608475924,67.29412308172323 132.66283599101007,60.235341941937804 130.43186796363443,37.411800815723836 121.50799585599452,32.70588778750971 114.61227650102228,40.23534399527125 117.04605980403721,63.2941497717984 125.7671166351065,67.29412308172323 132.4600207163021,60.00004886230454 130.63468323927373,38.35298226191662 121.50799585599452,32.70588778750971 114.81509177666157,39.29416332114488 116.84324452839792,63.058857006020844 126.78119301144034,66.82353834877722 132.2572054406628,59.76475575868972 130.22905268892646,36.94120994745754 120.8995500318706,32.47059188247658 114.20664595067501,40.0000488627702 116.23479870241135,61.4118069736287 120.08828893024474,66.1176610677503 125.7671166351065,67.05883072689176 132.05439016409218,60.70592802669853 130.22905268892646,37.88239158713259 121.91362640727311,32.47059188247658 114.61227650102228,39.29416332114488 116.43761397805065,61.17651401599869 125.56430136039853,67.29412308172323 132.2572054406628,60.941221033688635 130.83749851491302,39.0588680927176 121.91362640727311,32.47059188247658 114.61227650102228,39.52945852605626 116.43761397805065,61.88239281857386 124.34740970935673,67.29412308172323 132.4600207163021,60.70592802669853 130.22905268892646,37.176505394047126 121.50799585599452,32.47059188247658 114.61227650102228,37.88239158713259 116.23479870241135,61.647099908441305 124.75304025877267,67.05883072689176 132.2572054406628,59.76475575868972 130.83749851491302,37.88239158713259 120.8995500318706,32.47059188247658 114.4094612263143,40.0000488627702 116.43761397805065,62.82356421649456 125.7671166351065,66.82353834877722 132.2572054406628,60.47063499619253 130.83749851491302,37.88239158713259 121.10236530657858,32.70588778750971 114.61227650102228,39.764753706753254 116.43761397805065,62.352978565730155 124.75304025877267,67.05883072689176 132.4600207163021,59.76475575868972 130.22905268892646,36.94120994745754 120.29110420588404,32.47059188247658 114.4094612263143,39.0588680927176 116.43761397805065,62.11768570402637 124.95585553534329,66.82353834877722 132.4600207163021,60.00004886230454 130.02623741328716,36.47061898279935 122.11644168291241,32.47059188247658 114.4094612263143,40.0000488627702 116.84324452839792,63.058857006020844 125.36148608475924,66.82353834877722 132.4600207163021,60.00004886230454 130.83749851491302,38.11768693686463 121.10236530657858,32.47059188247658 114.61227650102228,38.35298226191662 116.43761397805065,62.82356421649456 125.15867081098258,66.58824594621547 132.4600207163021,60.235341941937804 130.63468323927373,37.88239158713259 122.31925695762038,32.47059188247658 114.61227650102228,38.82357284030877 116.43761397805065,62.11768570402637 125.7671166351065,66.58824594621547 132.66283599101007,58.823583104647696 130.43186796363443,36.94120994745754 120.69673475716263,32.23529595322907 114.4094612263143,39.52945852605626 116.43761397805065,61.88239281857386 124.14459443371743,66.82353834877722 133.06846654135734,59.76475575868972 131.04031378868967,38.58827756275423 122.72488750796765,32.0 114.20664595067501,38.11768693686463 116.23479870241135,62.58827140345238 125.56430136039853,67.05883072689176 132.4600207163021,60.00004886230454 130.22905268892646,36.70591447735205 120.29110420588404,32.94118366809562 112.98975430056453,42.35299909650348 116.43761397805065,62.58827140345238 126.37556246016175,67.05883072689176 132.86565126571804,58.58828988112509 130.43186796363443,37.176505394047126 120.8995500318706,32.0 113.59820012561977,39.52945852605626 116.03198342677206,61.17651401599869 125.9699319107458,66.58824594621547 132.66283599101007,58.823583104647696 130.02623741328716,36.94120994745754 119.6826583808288,32.70588778750971 112.78693902492523,43.29417851404287 116.23479870241135,61.88239281857386 125.7671166351065,67.05883072689176 132.86565126571804,59.52946263179183 130.63468323927373,37.64709621295333 122.52207223232836,32.0 116.43761397805065,34.58825415791944 113.1925695752725,43.529473308240995 115.82916815206409,59.76475575868972" stroke="#4DD2FF" stroke-linecap="round" stroke-linejoin="round" stroke-width="0.5"><title>2025-11-07 10.1km</title><desc>1762493397000</desc></polyline><polyline fill="none" points="158.08273307266063,43.23331233740464 153.85964190162485,45.62266865053243 152.0,46.85169948517432 154.89689236466074,56.06455918546271 155.28215682238806,56.73485831851576 157.51965424983064,58.09262730917544 167.48466762705357,63.75548984968191 174.80469232355244,65.15610850552912 175.2344103725045,65.14751582439203 180.59106812099344,66.09270546726475 180.87260753239389,66.04974253293767 180.95410578307929,65.92085359776684 181.15414694379433,60.38703503002034 180.90965219179634,59.106642963102786 179.96871784314862,57.319217289972585 179.53159086231608,57.43952598406031 178.85737806133693,58.127000922118896 177.78308293886948,58.68557015598344 177.25704877547105,58.65119677218172 177.00514509162167,58.41058269077621 176.70878781646024,57.78326415816264 176.06421074294485,57.551241045330244 175.49372298826347,57.09578639978281 173.960074089322,56.48564516453189 172.91541469437652,56.287992825644324 170.50751183371176,55.07628786130226 170.03334019347676,53.615343679950456 170.04074912532815,52.945019588012656 170.38155999174342,52.36922409846011 171.20395143033238,51.578573097380286 175.67153735339525,49.66207285586279 175.8789874459908,49.70504419384088 176.17534472115221,50.19491588872188 178.07203128215042,53.761439244532085 178.4869314673997,53.85597153289564 181.0207861700037,52.86767415533541 181.3319613089261,52.62704346368264 181.4875488783582,52.28328413373674 180.20580366329523,48.17525098477927 180.26507511831005,47.70255642152915 187.70364272483857,44.43659382133774 188.0,44.10139571662148 186.74789051242988,39.90700856552576 185.81436509569176,37.947263868685695 183.53241407693713,33.907294532727974 183.8880428071716,34.59496265479538 183.96954105782788,35.05053967510321 186.0069973245263,38.61770800551312 185.98477052888484,38.909951205714606 173.2414076970599,44.703032383476966 171.78184811689425,45.175743875479384 171.67812307059648,45.39061185346509 171.8263017081772,48.544810330698965 169.24058448238065,48.106495577718306 168.61823420459405,48.91436804612022 168.55155381766963,49.36986717298714 168.84791109283105,50.04021987353917 168.6626877958479,50.36680001500645 168.38855731632793,50.37539421208203 168.15888042809092,50.17772745669208 168.0107017905102,49.87692932531354 167.98847499486874,49.39565006833436 167.7069355834683,49.06047180947644 168.04033751800307,48.192439827696944 167.86993208478088,46.93764502269187 168.0255196542712,45.80315682595392 167.9366124717053,45.43358538292523 167.34389792138245,44.935091085673776 167.19571928380174,44.59130018641736 167.59580160526093,43.5771088112233 167.59580160526093,43.13017312003649 167.3809425807558,43.02703377563739 166.81786375798401,43.121578179510834 165.9584276599926,42.82075470579002 165.49166495163809,43.36223618048825 165.34348631408648,44.20453373788041 165.53611854292103,44.960875346238026 165.321259518445,45.373422435506654 164.78040749122738,45.85472480464523 163.9802428483381,45.68283141888969 163.30603004732984,44.21312856726581 163.19489606915158,43.499754727687105 163.4245729574177,41.54868921378511 163.69129450505716,41.09314754814113 163.40234616177622,40.28519963083818 158.07532414078014,43.28488189843483" stroke="yellow" stroke-linecap="round" stroke-linejoin="round" stroke-width="0.5"><title>2025-11-02 21.2km</title><desc>1762040409000</desc></polyline><polyline fill="none" points="29.877966101747006,79.06345243973192 18.46779661020264,79.77133176173083 13.464406779734418,90.53100799303502 12.42711864435114,97.32650648761773 22.49491525418125,101.99837286100956 40.616949152667075,100.93658782780403 44.15593220363371,99.80401532392716 47.81694915215485,95.4860655903467 47.57288135588169,85.22197820188012 45.74237288115546,81.89496536756633 39.823728813556954,77.93084401322994 18.65084745758213,79.77133176173083 13.586440677987412,90.03550027491292 12.0,96.12314184132265 14.196610169485211,98.24672509450465 22.677966101793572,102.0691584716551 43.91186440666206,100.1579444311792 47.93898305064067,95.55685186939081 47.45084745739587,85.15119086194318 45.864406779408455,81.96575304184807 41.837288135662675,78.7095125063206 39.0915254233405,77.8600559249171 18.528813559561968,79.84211965411669 13.403389830840752,90.60179478069767 12.061016949359328,96.40628665289842 22.616949152434245,101.92758724308806 44.09491525427438,99.94558698870242 47.93898305064067,95.41527930396842 47.3898305085022,84.7264666693518 42.5694915256463,79.20502836228115 39.64067796594463,78.07242016831879 18.71186440694146,79.91290753887733 13.525423728860915,90.60179478069767 12.18305084737949,96.40628665289842 13.769491525366902,97.9635810382897 22.49491525418125,101.85680161765777 44.09491525427438,100.01637281023432 47.81694915215485,95.76921066344948 47.63389830500819,85.43434017820982 45.74237288115546,82.03654070885386 40.25084745767526,78.213996294362 18.528813559561968,80.05448328709463 13.403389830840752,90.8849418591708 12.18305084737949,96.47707283758791 22.55593220354058,102.1399440750829 44.15593220363371,99.80401532392716 48.0,95.202920400945 47.3288135593757,84.86804142926121 45.92542372853495,82.17811602097936 40.25084745767526,78.28478434635326 19.016949152573943,79.91290753887733 13.281355932354927,91.16808882140322 12.18305084737949,96.05235562019516 13.525423728860915,97.8927950062207 21.640677966177464,101.71523034531856 24.56949152541347,102.0691584716551 42.50847457628697,100.65344487613766 46.291525423526764,98.03436706325738 48.0,94.63662967341952 47.51186440652236,84.7264666693518 45.071186440531164,81.4702391694882 39.76271186443046,78.28478434635326 18.528813559561968,80.12527115020202 13.525423728860915,90.389434395649 12.18305084737949,97.04336205363506 22.677966101793572,101.92758724308806 43.72881355928257,100.22873023094144 47.877966101514176,95.76921066344948 47.3898305085022,84.65567927854136 42.5694915256463,79.41739219159354 39.64067796594463,78.28478434635326 19.016949152573943,79.84211965411669 13.708474576473236,89.96471342915902 12.18305084737949,96.54785901494324 22.677966101793572,101.99837286100956 43.11864406778477,100.58265912020579" stroke="#4DD2FF" stroke-linecap="round" stroke-linejoin="round" stroke-width="0.5"><title>2025-10-26 12.0km</title><desc>1761480636000</desc></polyline><polyline fill="none" points="93.32429378526285,96.689428732323 94.66666666674428,94.21190921560628 93.93446327676065,83.94780497031752 88.74802259868011,78.85108954779571 85.57514124317095,78.00163331517251 65.25649717519991,79.84212049667258 59.948022599099204,90.67258018051507 58.910734463483095,96.33549791772384 69.83276836154982,101.85679794114549 84.84293785318732,101.0073700454086 91.18870056467131,99.52086871035863 94.60564971738495,95.41527694952674 94.23954802262597,85.00961594207911 92.59209039527923,82.10732874635141 87.28361581941135,78.07242137449794 65.31751412432641,79.62975684186677 60.0090395482257,90.1062858493533 58.910734463483095,96.61864258395508 70.19887005654164,101.92758355179103 88.01581920892932,100.58265570516232 91.00564971752465,99.52086871035863 94.60564971738495,95.34449067048263 94.17853107326664,85.22197794023668 92.47005649725907,81.965753448545 86.42937853117473,77.93084524845472 65.07344632758759,80.05448408605298 60.131073446478695,89.89392535504885 58.78870056499727,96.12313934176927 59.64293785346672,97.4680758852628 70.13785310718231,101.92758355179103 88.56497175153345,100.65344144665869 91.24971751403064,99.52086871035863 94.54463276825845,95.27370438410435 93.87344632763416,83.80623005039524 88.19887005654164,78.70951358164893 82.46327683585696,77.93084524845472 65.19548022630624,79.84212049667258 59.520903954980895,91.80516744818306 58.66666666674428,95.98156692145858 59.703954802360386,97.53886194649385 70.19887005654164,101.99836915521882 84.04971751384437,101.07815574324923 90.94463276816532,99.66244040406309 94.54463276825845,95.48606322158594 93.99548022611998,84.16016729542753 88.07683615828864,78.42636156221852 81.97514124284498,77.93084524845472 65.13446327694692,79.91290836723056 60.19209039560519,90.03549902536906 59.03276836173609,96.901787133771 69.64971751417033,101.92758355179103 90.51751412451267,99.87479789037025 94.66666666674428,95.41527694952674 94.11751412414014,84.7972538783797 88.68700564978644,78.92187751986785 85.88022598880343,78.07242137449794 65.43954802281223,79.91290836723056 60.25310734473169,89.89392535504885 58.97175141284242,96.689428732323 70.19887005654164,102.06915475154528 89.96836158167571,100.22872688859934 94.30056497175246,96.47707026539138 94.05649717524648,84.3017421424156 88.87005649716593,79.06345344241709 85.08700564969331,78.00163331517251 70.93107344652526,79.27581727172947" stroke="#4DD2FF" stroke-linecap="round" stroke-linejoin="round" stroke-width="0.5"><title>2025-10-22 10.1km</title><desc>1761137801000</desc></polyline><polyline fill="none" points="122.96743169397814,92.57155821294145 129.10513661205187,93.98950119584333 130.49792349728523,94.44689730653045 128.86907103826525,96.23071952666214 126.9412021858152,97.3833239735468 126.02841530056321,99.15793953798129 125.62710382512887,100.31050582573516 125.35956284156418,100.38368413043645 123.56546448089648,100.25562205746974 120.41005464480259,99.22197139256605 117.90775956286234,98.71886271451513 115.84612021862995,102.46924035598204 115.55497267760802,102.66132858705532 111.93530054646544,100.42942054010928 111.84087431695662,100.109265175568 112.31300546450075,98.5084709638686 113.30448087432887,96.72469470099895 114.170054644841,93.7790981902508 115.23234972680802,93.66932251027902 116.0349726775894,93.76080225305486 119.4972677595797,95.49889938026172 119.75693989070714,95.22446526355634 120.787759562867,92.26967064128257 120.6618579235219,92.01352280224819 120.28415300548659,91.90374492975388 107.3713661202346,88.97628470298514 105.64021857929765,88.55545432482904 105.41989071041462,88.37248397026269 105.33333333334303,86.73488243114843 105.49857923499076,84.57576363561384 106.34054644810385,81.65720989592955 106.71038251370192,80.87952257280267 107.77267759563983,79.29667899727065 109.2913661202474,77.5765625004351 109.7398907104216,77.3386714129374 111.7307103825151,78.55556908041763 111.83300546449027,78.76600833069097 110.08612021859153,81.5199714538685 109.52743169397581,83.47788639092323 109.95234972680919,82.04147639978328 110.3851366120507,81.06250844104216 111.94316939896089,78.80260641002678 116.82185792349628,80.52269903983688 120.13464480877155,81.1631505070618 120.54382513661403,81.09910556922114 121.26775956284837,81.44677753097494 121.31497267761733,83.93533690038021 121.4172677595634,84.17321022949909 121.68480874315719,84.22810398376896 124.13989071038668,83.88959195598727 125.9733333333279,83.98108182108263 127.60218579234788,84.41108291838464 129.26251366120414,85.27107883641293 127.49989071037271,84.40193398063275 125.5956284153217,83.95363487150462 124.17136612022296,83.92618791340647 121.54316939893761,84.31044455122901 120.37857923499541,84.31959349844692 118.94644808745943,84.24640189428465 116.90054644810152,83.88044296426233 116.23956284153974,86.47871855220001 116.34972677595215,86.70743633677193 129.40415300545283,89.84538457696908 140.53071038250346,92.34285560179705 141.27038251364138,92.67218717439391 141.33333333334303,93.06555383370869 140.90054644810152,96.20327638050367 140.7353005464538,96.4411166976206 140.34972677595215,96.54174125453574 122.95169398910366,92.5441139308241" stroke="yellow" stroke-linecap="round" stroke-linejoin="round" stroke-width="0.5"><title>2025-10-12 21.3km</title><desc>1760225536000</desc></polyline><polyline fill="none" points="171.90443686046638,79.34515209431993 167.2354948807042,79.06006755994167 158.57337883976288,80.41421805560822 152.73720136540942,91.4611366027384 152.0,95.87985481024953 152.67576791811734,97.44778031797614 163.4880546075292,101.72392279910855 181.18088737200014,100.5836207123939 184.0682593861129,99.58585485036019 186.52559727011248,97.30524178192718 187.75426621199585,94.45446491247276 187.26279863505624,83.76394740812248 183.39249146799557,79.55896541813854 180.07508532470092,78.06227076798677 158.63481228682213,80.12913396017393 153.72013651882298,89.75065748911584 152.30716723552905,96.73508734430652 162.5665529014077,101.65265397343319 181.91808873740956,100.36981386266416 185.78839590470307,98.16047256038291 187.8156996590551,94.59700403379975 187.26279863505624,83.97775937133702 184.25255972729065,80.2716760225012 180.44368600728922,78.133542014868 158.32764505129308,80.2716760225012 153.47440273035318,90.46335763199022 152.49146757670678,97.09143392258557 164.28668941999786,101.79519161721691 180.01365187740885,100.86869640962686 185.54266211623326,98.3030109211104 187.8156996590551,93.67049922130536 186.89419795270078,82.83742814022116 181.11945392540656,78.20481325458968 171.29010238940828,78.48989814013476 158.3890784981195,80.48548906098586 153.04436860070564,91.31859683757648 152.55290102399886,97.23397250269772 162.87372013670392,101.79519161721691 177.74061433481984,101.15377198986243 184.31399317458272,99.58585485036019 187.87713310611434,94.73954312613932 187.63139931764454,84.19157126860227 182.40955631434917,78.77498290862422 178.9692832767032,78.133542014868 160.41638225270435,79.48769431759138 157.65187713340856,81.69709503621561 152.73720136540942,92.9578023707727 152.36860068282112,96.59254866180709 155.37883959081955,98.65935669466853 162.5665529014077,101.86646042828215 180.50511945411563,100.79742749623256 184.19112627999857,99.65712388796965 187.87713310611434,94.59700403379975 187.75426621199585,83.90648872428574 182.71672354987822,78.91752524883486 179.03071672399528,78.27608448709361 160.23208191152662,79.55896541813854 158.57337883976288,80.41421805560822 156.7303754268214,83.47886468819343 152.1228668941185,96.09366304246942 153.16723549505696,97.51904957502848 162.6894197955262,101.93772923201323 179.15358361811377,100.93996531557059 184.43686006846838,99.158240470686 187.201365187997,96.30747120885644 188.0,93.95557775709312 187.75426621199585,84.54792428459041 184.8054607512895,80.62803105049534 180.6894197955262,78.41862692969153 159.18771331082098,79.98659186856821 154.45733788399957,88.32525500911288 152.24573378870264,96.5212793094106 162.32081911270507,101.72392279910855 166.43686006846838,101.79519161721691" stroke="#4DD2FF" stroke-linecap="round" stroke-linejoin="round" stroke-width="0.5"><title>2025-10-08 10.1km</title><desc>1759925805000</desc></polyline><polyline fill="none" points="22.59552495693788,119.64881923765643 17.700516351033002,121.94911771622719 13.301204819232225,131.2221193331061 12.061962134437636,136.11016378796194 12.99139414797537,137.6197000334505 22.47160068852827,141.93264280626317 41.49397590360604,140.56688046862837 44.344234079355374,139.6324099660269 47.62822719453834,134.81627298763487 47.38037865748629,124.39317657065112 46.14113597245887,122.02100192196667 40.87435456109233,118.42678259772947 31.146299483487383,118.57055172487162 18.506024096161127,120.58331640582765 14.292598967207596,128.20301600848325 12.061962134437636,135.75074991642032 15.407917383825406,138.55417322163703 22.285714285448194,141.64511411450803 37.838209982728586,141.0700563765713 44.344234079355374,139.41676275013015 46.88468158384785,136.97275632666424 47.814113597152755,134.5287413742626 47.75215146294795,124.96824800246395 44.592082616174594,120.43954769195989 40.564543889602646,118.35489802318625 19.001721170498058,120.08012577804038 14.292598967207596,128.34678312850883 12.0,136.46957747486886 22.47160068852827,141.78887847519945 43.78657487081364,139.7761747399345 47.50430292612873,135.82263270561816 47.814113597152755,125.04013189836405 46.203098106663674,121.80534928274574 40.81239242688753,118.21112885157345 18.506024096161127,120.15201017545769 13.425129087409005,130.21575300447876 12.433734939899296,136.39769475208595 22.409638554090634,141.57323192298645 40.75043029244989,140.56688046862837 44.344234079355374,139.48864516284084 47.938037865795195,135.1756873387494 47.50430292612873,123.88998868025374 44.77796901878901,120.43954769195989 40.99827882973477,118.13924425485311 19.1256454391405,119.7207036796026 13.98278829595074,129.06561828649137 12.0,136.0382810283918 15.036144578363746,138.69793821661733 23.21514629945159,141.78887847519945 43.91049913922325,140.06370419904124 48.0,134.81627298763487 46.822719449410215,122.45230700128013 42.73321858863346,118.85808989068028 40.13080895016901,117.9954750391189 19.931153184035793,119.7925881142146 17.390705679776147,121.87723350309534 13.672977624693885,130.07198626798345 12.185886402614415,136.75710829143645 18.629948364803568,140.42311585706193 23.896729776402935,142.0045249608811 40.68846815824509,140.78252733073896 45.02581755584106,138.98546811868437 48.0,134.45685845252592 47.75215146294795,125.68708662840072 46.574870912125334,122.30853867094265 42.29948364873417,118.78620536031667 39.820998278679326,118.13924425485311 20.11703958688304,119.50505033193622 17.390705679776147,121.94911771622719 12.557659208308905,133.52237979718484 12.24784853681922,137.18840429524425 22.96729776239954,142.0045249608811 36.846815834520385,140.92629186820704" stroke="#4DD2FF" stroke-linecap="round" stroke-linejoin="round" stroke-width="0.5"><title>2025-10-06 10.0km</title><desc>1759752637000</desc></polyline><polyline fill="none" points="73.31494252872653,119.16292223212076 65.61839080462232,120.02702257671626 58.914942528354004,135.07659954176052 59.659770114813,137.7408450806979 69.46666666655801,141.98921568511287 86.84597701136954,140.83711772446986 90.69425287353806,139.54100525740068 94.41839080466889,135.14860631112242 93.92183908028528,124.34750833333237 92.68045976990834,121.61120377696352 87.46666666679084,117.93877825530944 65.43218390760012,120.02702257671626 60.65287356288172,129.0280045417603 58.79080459754914,136.2287069624872 59.90804597665556,137.52482554886956 69.52873563184403,141.7731974615017 87.03218390815891,140.76511153916363 91.56321839103475,139.18097359174863 94.41839080466889,135.00459276529728 93.73563218396157,123.5554212697316 90.94252873561345,120.24304749647854 87.15632183919661,118.01078678370686 65.68045976990834,119.95501425524708 62.39080459764227,124.70754761167336 58.66666666674428,136.01268696517218 61.14942528679967,138.31689683988225 70.33563218358904,142.06122174469056 86.90804597688839,140.90912390244193 91.4390804595314,139.32498628011672 94.4804597699549,135.00459276529728 94.0459770115558,124.77955544536235 92.80459770117886,122.11526068137027 87.52873563207686,118.15480381826637 65.86666666646488,119.59497253742302 60.0942528732121,129.96410003612982 58.85287356306799,136.44472689321265 69.5908045975957,141.8452035432565 87.77701149415225,141.12514239212032 91.56321839103475,139.61301156849368 94.66666666674428,135.29261982743628 94.10804597707465,124.92357109021395 92.92873563221656,122.18726878112648 87.71494252886623,118.15480381826637 68.72183908033185,119.16292223212076 65.12183908023871,120.17103919718647 60.34252873528749,129.67607078619767 58.79080459754914,136.73275336407823 69.8390804596711,141.91720961785177 86.47356321825646,141.12514239212032 91.31494252872653,139.61301156849368 94.60459770122543,135.14860631112242 94.0459770115558,124.70754761167336 91.935632183915,121.25116290926235 87.34252873552032,118.08279530482832 65.55632183887064,119.81099759030621 60.404597701039165,129.4600487712887 58.72873563179746,136.66074675758136 69.65287356311455,141.98921568511287 87.65287356334738,141.05313623626716 91.4390804595314,139.46899893908994 94.66666666674428,134.64455877133878 93.92183908028528,123.91546095506055 92.30804597679526,121.3951792785665 87.52873563207686,118.08279530482832 65.24597701127641,119.81099759030621 59.970114942174405,130.5401581810438 58.914942528354004,136.94877313950565 68.59770114906132,141.8452035432565 78.03218390792608,141.62918527546572" stroke="#4DD2FF" stroke-linecap="round" stroke-linejoin="round" stroke-width="0.5"><title>2025-10-02 10.0km</title><desc>1759407705000</desc></polyline><polyline fill="none" points="125.59096045210026,119.02805401047226 112.53333333344199,120.65617620025296 106.06553672300652,133.82258832792286 105.94350282498635,136.2293246606714 112.28926553670317,140.47648593544727 116.86553672305308,142.1045574892778 133.7672316385433,141.11355787079083 138.52655367203988,138.21133651043056 140.05197740136646,134.67202563968021 140.47909604525194,124.26634647441097 137.79435028275475,120.65617620025296 132.48587570618838,117.82465687801596 113.02146892645396,119.806721624278 106.00451977411285,132.19449722231366 105.63841807912104,136.01696591021027 115.8282485876698,142.03377184958663 127.66553672309965,140.97198638034752 132.1807909605559,141.67984354152577 137.9774011299014,139.0607684168499 140.4180790958926,133.82258832792286 140.60112994350493,123.91240904800361 135.5367231639102,118.88647798617603 132.8519774011802,118.03702123038238 112.16723163845018,120.37302479124628 107.77401129924692,128.4427943896735 105.45536723174155,136.6540419650264 116.31638418068178,142.17534312192583 134.37740112980828,140.83041486120783 137.79435028275475,139.27312622970203 140.78418079088442,135.66303451446583 140.54011299437843,124.76185856643133 136.63502824865282,120.08987326582428 132.7299435029272,118.2493855173816 112.22824858757667,120.23144904302899 105.94350282498635,132.83157680829754 105.88248587562703,137.36190355790313 116.25536723155528,142.1045574892778 133.340112994425,140.83041486120783 137.85536723141558,138.98998246452538 140.72316384199075,134.45966640970437 141.0892655365169,124.90343338472303 135.4757062147837,119.45278190885438 131.81468926556408,118.3201735985931 111.80112994345836,120.72696403425653 107.10282485862263,129.5753860747791 105.45536723174155,136.37089712440502 116.25536723155528,142.03377184958663 133.5231638418045,140.83041486120783 137.1841807907913,139.62705577298766 140.72316384199075,135.45067558955634 141.02824858762324,125.39894501894014 136.81807909579948,120.16066115826834 133.5231638418045,118.53253779845545 112.35028248582967,120.37302479124628 107.04180790949613,129.92932059487794 105.45536723174155,136.3001108961762 116.13333333330229,142.1045574892778 133.9502824859228,140.68884331273148 137.6723163840361,139.48548397765262 140.78418079088442,135.94617964565987 140.90621468937024,124.54949628491886 136.6960451977793,120.5146005100687 133.03502824855968,118.7449019330088 112.35028248582967,120.44381265429547 107.95706214685924,127.80571074935142 105.45536723174155,136.4416833455325 115.9502824859228,141.82141488656634 137.00112994364463,139.62705577298766 140.90621468937024,135.23831659951247 141.0892655365169,125.18658293341286 137.1841807907913,120.5146005100687 132.7299435029272,118.53253779845545 111.92316384194419,120.65617620025296 106.91977401124313,130.4956154493848 105.57740112999454,136.8664005191531 116.37740112980828,141.96298620238667 134.6824858756736,140.5472717351513 137.4282485875301,139.55626987892902 140.9672316382639,135.23831659951247 140.84519774001092,124.62028371938504 139.01468926551752,122.1427191902767 133.5231638418045,118.46174973913003 112.411299435189,120.3022369206301 107.34689265536144,129.22145137289772 105.33333333325572,136.4416833455325 116.4384180791676,141.89220054808538 136.8790960451588,139.7686275394517 141.0892655365169,134.53045282675885 140.54011299437843,124.54949628491886 136.63502824865282,120.16066115826834 133.21807909593917,118.53253779845545 112.22824858757667,120.37302479124628 106.73672316363081,130.6371890901355 105.45536723174155,136.15853841777425 110.82485875720158,139.7686275394517 117.2316384180449,141.82141488656634 133.7672316385433,140.83041486120783 136.9401129942853,139.9101992767537 140.05197740136646,137.2203312976053 141.33333333325572,132.3360705145169 140.9672316382639,125.32815766433487 139.86892655375414,122.77980806224514 133.64519774005748,118.39096167241223 124.73672316386364,118.81568996317219 113.81468926556408,119.806721624278 111.25197740108706,121.36405421415111 106.91977401124313,130.42482861789176 105.45536723174155,136.4416833455325 106.43163841799833,137.99897837056778 109.9706214691978,139.48548397765262" stroke="#4DD2FF" stroke-linecap="round" stroke-linejoin="round" stroke-width="0.5"><title>2025-09-29 16.1km</title><desc>1759146700000</desc></polyline><polyline fill="none" points="171.51807228918187,120.40361289010616 166.68502581771463,119.10969313647365 160.4888123923447,119.6128844358027 158.38209982798435,120.83491894340841 154.3545611014124,128.16708120662952 152.0,136.64929079654394 163.2771084336564,142.2561187033425 181.24612736632116,140.89035706635332 183.97246127366088,139.81212231400423 187.69018932874314,134.20527484075865 187.25645438884385,123.78216986445477 184.777969018789,120.47549725085264 179.5731497418601,117.60011706891237 158.93975903606042,119.54099998669699 153.48709122184664,130.03605146612972 152.1239242684096,136.36175995023223 159.24956970731728,140.6747102487716 163.71084337332286,142.11235444591148 183.78657487081364,139.9558870436158 187.3803786574863,135.0678696813411 187.3803786574863,125.00419709651032 185.95524956984445,121.76941448089201 179.82099827867933,117.88765561836772 158.87779690185562,119.75665331236087 154.54044750402682,127.95143047120655 152.0,136.0742289861082 155.46987951779738,138.80576838064007 163.15318416501395,142.1842365784687 181.9277108432725,140.74659252888523 184.5920826161746,139.52459276630543 187.81411359715275,136.00234622653807 187.44234079192393,124.57289361121366 185.52151462994516,121.40999326779274 179.88296041311696,117.88765561836772 158.81583476741798,119.68476887774887 152.49569707387127,133.2707958976389 152.6196213425137,137.4400000150199 163.33907056809403,142.11235444591148 181.3080895007588,140.89035706635332 184.15834767650813,139.8840046824189 187.69018932874314,134.8522210707888 187.62822719453834,124.93231320061022 185.89328743540682,121.55376177519793 180.56454388960265,117.95954023726517 158.69191049900837,120.18795976391993 154.72633390687406,127.44824516313383 152.1239242684096,136.00234622653807 153.79690189333633,138.01506070414325 163.2151462994516,141.89670800440945 183.78657487081364,140.17153408256127 187.62822719453834,135.85858068533707 187.81411359715275,125.00419709651032 186.63683304656297,122.4163721994264 180.37865748722106,117.95954023726517 159.1256454391405,119.54099998669699 154.8502581755165,126.94505949376617 152.06196213443764,136.289877220348 162.96729776239954,142.11235444591148 181.06024096393958,141.03412157471757 184.406196213793,139.81212231400423 187.19449225487188,136.9368215248105 187.8760757315904,134.27715778461425 187.50430292612873,124.21347383689135 186.76075731497258,122.48825635330286 182.3614457831718,118.75027055846294 178.82960413070396,117.74388635839568 161.97590361419134,119.1815776299918 158.3201376935467,120.33172852208372 153.79690189333633,129.6047510796343 152.18588640261441,136.79305617546197 157.6385542168282,140.31529873842373 163.46299483650364,142.39988293108763 182.05163511191495,140.6028279615566 184.71600688481703,139.38082794827642 187.50430292612873,136.289877220348 188.0,134.27715778461425 187.3803786574863,123.71028584335 182.60929432022385,118.96592412731843 179.0154905335512,117.95954023726517 159.18760757287964,119.82853773923125 153.79690189333633,129.74851790466346 152.30981067102402,134.20527484075865 152.49569707387127,137.2243521347409 163.8347676419653,142.32800082088215 182.54733218578622,140.53094566677464 187.44234079192393,136.72117348958272" stroke="#4DD2FF" stroke-linecap="round" stroke-linejoin="round" stroke-width="0.5"><title>2025-09-26 12.0km</title><desc>1758887292000</desc></polyline><polyline fill="none" points="30.372413793113083,158.7308741515153 22.862068965099752,158.94689947052393 19.137931034201756,160.0270250675385 14.731034482363611,167.87588778609643 12.248275861609727,176.73275585490046 22.73793103429489,182.20523633260746 40.98620689660311,180.98113256378565 44.33793103438802,179.6850203628419 47.441379310330376,174.068506487587 47.689655172405764,164.49152655759826 43.53103448241018,159.66698338655988 39.37241379311308,157.79476366739254 19.199999999720603,159.9550167460693 14.296551723731682,168.5239550950937 12.18620689632371,176.6607492484036 22.67586206877604,181.9892181759351 41.42068965500221,180.8371202152921 44.896551724290475,179.25298243045108 47.689655172405764,173.78047892299946 47.75172413792461,164.56353441323154 46.01379310316406,161.8992388289771 40.365517241414636,158.08279779565055 18.889655172126368,160.1710416880087 14.54482758580707,168.09191028913483 12.18620689632371,176.44472938403487 22.862068965099752,181.9892181759351 41.73103448259644,180.76511402998585 44.4000000001397,179.6130140593159 47.75172413792461,175.14860880194465 47.689655172405764,164.63554226164706 43.593103448161855,159.66698338655988 40.11724137933925,158.1548063090886 19.013793103164062,159.52296666271286 12.744827585760504,172.4123463757569 12.248275861609727,177.02078220731346 23.482758620521054,182.06122423551278 40.55172413773835,180.90912639326416 44.213793103350326,179.82903294777498 47.875862068962306,174.5725544411107 47.689655172405764,164.4195186945144 46.1999999997206,161.97124695085222 40.73793103429489,158.1548063090886 18.64137931005098,160.0270250675385 14.482758620055392,168.01990279561142 12.062068965053186,176.44472938403487 23.5448275860399,181.917212108674 40.86206896533258,180.76511402998585 44.58620689646341,179.46900142991217 47.75172413792461,174.356533934013 47.75172413792461,164.3475108241546 44.33793103438802,160.38706656353315 40.24137931014411,158.2268148152507 19.137931034201756,159.88300841714954 17.58620689623058,161.25116540008457 14.420689655002207,168.16391777526587 12.18620689632371,175.86867608770262 14.606896551558748,178.38890576723497 22.613793103257194,181.9892181759351 41.29655172396451,180.8371202152921 44.896551724290475,179.39699510397622 47.93793103448115,174.86058168066666 47.81379310321063,164.63554226164706 46.01379310316406,161.97124695085222 40.30344827566296,158.2268148152507 18.703448275802657,160.1710416880087 14.296551723731682,168.30793272529263 12.18620689632371,177.02078220731346 23.172413792926818,181.84520603407873 41.91724137915298,180.6931078370544 44.58620689646341,179.6130140593159 47.75172413792461,175.9406827755738 47.441379310330376,164.3475108241546 46.5103448277805,162.47530359664233 41.91724137915298,158.7308741515153 39.18620689655654,158.08279779565055 19.44827586179599,159.66698338655988 17.462068965425715,161.61120626778575 14.234482758445665,168.30793272529263 12.0,175.58064926206134 12.744827585760504,177.30880844185594 21.496551723917946,181.4851755509735 42.04137931042351,180.5490954296547 46.9448275861796,176.94877563032787 48.0,171.76428265904542" stroke="#4DD2FF" stroke-linecap="round" stroke-linejoin="round" stroke-width="0.5"><title>2025-09-14 12.0km</title><desc>1757851744000</desc></polyline><polyline fill="none" points="77.58192090410739,158.60332675883546 65.13446327694692,160.37302479112986 60.49717514147051,169.3630206612288 58.66666666674428,176.4416750985547 69.46666666679084,181.67983260628534 83.62259886995889,180.97197580861393 89.60225988714956,180.05176088534063 93.20225988700986,176.4416750985547 94.66666666674428,164.76185631385306 93.69039548025467,162.85059440654004 89.41920903977007,159.31120651686797 86.61242937855422,158.32017465220997 65.43954802304506,160.0190855480614 61.22937853145413,167.80570693453774 58.97175141284242,176.65403360925848 69.16158192092553,181.6090469590854 86.18531073443592,180.68883288599318 90.88361581927165,179.27311652968638 94.05649717501365,174.38887279178016 94.05649717501365,164.05398215114838 86.97853107354604,158.24938660732005 65.37853107368574,160.23144911573036 60.98531073448248,168.3012162290397 58.7887005652301,176.22931652260013 69.46666666679084,181.67983260628534 87.16158192115836,180.61804713710444 90.63954802276567,179.41468829615042 94.17853107349947,174.03494074207265 94.05649717501365,164.97421842115 92.95819209050387,162.49665643507615 86.61242937855422,158.1785985553288 65.43954802304506,159.94829767750343 60.0700564973522,170.3540366566158 58.727683615870774,175.80459917453118 59.58192090410739,177.36189483880298 69.58870056527667,181.82140387862455 87.16158192115836,180.61804713710444 90.76158192078583,179.34390241641086 93.62937853112817,175.73381292441627 93.75141242938116,165.3989424391766 92.22598870075308,162.00114296982065 86.85649717552587,158.24938660732005 65.43954802304506,160.0190855480614 61.1683615820948,167.9472810549778 58.7887005652301,176.4416750985547 69.46666666679084,181.7506182459765 87.83276836154982,180.54726138117258 90.39548022625968,179.4854741683812 93.99548022588715,174.53044556087116 93.75141242938116,164.97421842115 92.53107344638556,162.28429356502602 87.16158192115836,158.32017465220997 68.61242937855422,159.24041857366683 64.89039548044093,160.23144911573036 60.0700564973522,170.28324984689243 58.910734463483095,176.65403360925848 68.85649717529304,181.6090469590854 85.75819209055044,180.75961862748954 90.27344632777385,179.697831741767 93.87344632786699,175.30909527122276 93.69039548025467,164.62028153950814 91.67683615838178,161.50562914845068 86.12429378554225,158.10781049600337 65.43954802304506,160.0190855480614 60.0700564973522,170.0708893747069 58.7887005652301,176.51246127591003 69.40564971766435,181.89218950405484 89.35819209041074,180.122546692146 92.95819209050387,177.00796431460185 94.11751412437297,174.24729999387637 93.32429378549568,163.98319469491253 88.38192090415396,158.95726672862656 85.57514124293812,158.24938660732005 69.28361581941135,159.24041857366683" stroke="#4DD2FF" stroke-linecap="round" stroke-linejoin="round" stroke-width="0.5"><title>2025-09-11 11.0km</title><desc>1757592695000</desc></polyline><polyline fill="none" points="124.96969696972519,158.07247962034307 124.16695254459046,158.86049699247815 112.18753573484719,159.79178910329938 107.0005717552267,169.82101000187686 105.703830760438,176.91301493125502 116.38650657515973,181.8558848410612 137.25786163518205,179.85008677910082 141.33333333325572,174.7639301387244 141.08633504854515,165.30787843308644 139.48084619781002,162.01255758304615 134.23213264718652,158.2873935372918 112.99028015998192,159.50523781689117 111.44654088048264,160.723079971096 107.432818753412,168.67482062219642 105.33333333325572,175.551928664383 107.92681532306597,178.20246263063746 116.13950829068199,181.8558848410612 135.15837621479295,180.63807956228266 137.87535734684207,179.4919079472893 141.33333333325572,175.26538384892046 141.33333333325572,166.02425047190627 140.03659233846702,162.65729549527168 133.79988564900123,158.2873935372918 111.94053744990379,159.93506470212014 107.30931961117312,169.0330050055636 105.45683247572742,175.9817456668825 106.50657518580556,177.41446709731827 116.5100057173986,181.92752037965693 134.1703830761835,180.78135088196723 137.75185820483603,179.63517950213281 141.2715837622527,175.26538384892046 141.08633504854515,165.09296667808667 139.23384791309945,161.86928241030546 133.73813607776538,158.21575557236793 112.61978273279965,159.50523781689117 107.74156660959125,168.31663605495123 105.5803316179663,176.4831985020428 117.06575185828842,181.92752037965693 134.66437964560464,180.70971522590844 137.4431103488896,179.77845102752326 141.20983419101685,175.40865627134917 141.20983419101685,165.16460393706802 139.54259576881304,162.01255758304615 133.18238993687555,158.07247962034307 112.68153230426833,159.6485134747927 107.61806746735238,168.4599099040497 105.5185820471961,175.48029247141676 105.95082904514857,177.27119508682517 117.55974842747673,181.92752037965693 136.08461978286505,180.4231725279824 140.90108633507043,175.9817456668825 140.71583762136288,163.87513214931823 135.6523727842141,158.86049699247815 132.9353916523978,158.1441176001681 112.24928530561738,159.79178910329938 106.13607775862329,172.54320223419927 105.8273299029097,177.05628701549722 116.57175528863445,181.7842492951313 134.54088050336577,180.63807956228266 138.12235563155264,179.13372893177439 141.2715837622527,174.47738499974366 140.90108633507043,165.16460393706802 139.91309319599532,162.51402045530267 134.29388221842237,158.3590314949979 125.27844482567161,158.3590314949979 113.54602630063891,159.50523781689117 111.81703830766492,160.43652906734496 106.07432818762027,172.75811169523513 105.95082904514857,177.19955907028634 116.88050314458087,181.8558848410612 135.52887364197522,180.49480821361067 140.16009148093872,176.91301493125502 141.33333333325572,173.11629398271907 140.59233847889118,163.87513214931823 135.8993710691575,159.1470485435566 132.19439679803327,158.21575557236793 117.37449971400201,159.21868641290348" stroke="#4DD2FF" stroke-linecap="round" stroke-linejoin="round" stroke-width="0.5"><title>2025-09-09 11.0km</title><desc>1757419935000</desc></polyline><polyline fill="none" points="172.19210977712646,157.78593133046525 169.72212692978792,158.86050080507994 158.85420240159146,159.8634308221517 153.48198970826343,170.17919877154054 152.06174957100302,176.69811239361297 162.62092624348588,182.21406866947655 180.09605488856323,181.06789952504914 184.29502572887577,179.77845698746387 187.50600343057886,175.2653893455863 187.87650085776113,163.87513647676678 185.09777015447617,160.7230839750846 180.83704974292777,158.1441213391954 158.66895368811674,160.07834420964355 153.66723842197098,169.82101493951632 152.0,176.19665966113098 153.17324185254984,177.62938079761807 162.3121783877723,182.14243315317435 183.7392795884516,180.06499997951323 187.75300171528943,174.76393558393465 187.87650085776113,165.164608396939 186.45626072050072,162.22747444483684 181.08404802763835,158.28739729122026 158.85420240159146,160.07834420964355 153.79073756444268,169.24792042648187 152.1234991424717,175.91011508111842 152.92624356760643,177.4861088161706 162.74442538595758,181.99916209850926 180.59005145798437,180.99626389087643 185.15951972547919,178.70391971967183 187.07375643239357,174.83557185757672 188.0,167.52863406256074 186.826758147683,162.585662174155 180.83704974292777,158.1441213391954 159.28644939954393,160.00670642097248 154.5317324185744,167.60027107904898 152.06174957100302,176.62647631095024 162.80617495742626,182.21406866947655 183.7392795884516,179.99336424242938 187.6912521442864,174.97884438297478 187.6912521442864,165.30788290750934 185.96226415107958,161.79764892731328 180.4665523157455,158.1441213391954 158.97770154383034,159.79179301147815 152.92624356760643,171.82684203033568 152.6792452831287,177.3428368056775 162.80617495742626,181.92752655991353 181.57804459682666,180.78135694476077 184.10977701563388,179.77845698746387 187.32075471710414,174.83557185757672 187.32075471710414,164.1616859982023 184.10977701563388,160.29325753089506 180.1578044600319,158.1441213391954 161.81818181835115,159.2903281317558 158.29845626093447,160.29325753089506 152.86449399683625,172.1133882869617 152.18524871394038,176.62647631095024 162.9296740994323,182.07079762947978 179.9108061750885,181.06789952504914 184.10977701563388,179.70682122098515 187.32075471710414,174.90720812388463 187.5677530018147,164.59151005983585 184.54202401358634,160.5081707861973 179.4785591766704,158.07248335209442 158.54545454564504,159.93506862525828 153.04974271031097,171.39702242490603 152.30874785594642,176.8413845364703 163.23842195537873,181.85589101398364 181.7632933105342,180.566449932463 186.7032590052113,176.98465665010735 187.75300171528943,172.97302635124652 187.44425385957584,164.5198727346724 186.64150943420827,162.585662174155 182.68953687814064,159.2903281317558 179.84905660361983,158.1441213391954 162.0651801028289,159.2903281317558" stroke="#4DD2FF" stroke-linecap="round" stroke-linejoin="round" stroke-width="0.5"><title>2025-09-06 11.0km</title><desc>1757162103000</desc></polyline><polyline fill="none" points="30.4344827583991,198.62286025780486 19.9448275861796,199.41495293122716 18.144827585900202,200.4950778632192 12.993103448068723,211.44025002466515 12.0,216.48073240648955 21.682758620474488,221.8092029747786 29.317241379292682,221.95321513112867 41.5448275860399,220.80111705244053 45.70344827580266,218.56892164080637 48.0,214.60855746356538 47.37931034481153,203.44741085742135 42.47586206905544,198.6948687196127 39.80689655151218,197.83076668984722 30.86896551703103,198.04679229698377 18.703448275802657,199.84700310358312 13.613793103257194,209.56806163024157 12.0,216.192705817346 22.862068965099752,222.02522119838977 41.11034482740797,221.01713558624033 44.58620689646341,219.86503597022966 47.93793103448115,213.81648194545414 47.50344827584922,203.95146646833746 46.01379310316406,201.64720929024043 39.93103448278271,197.90277523291297 18.517241379246116,199.84700310358312 13.862068965099752,209.28003220289247 12.0,216.55273903516354 22.427586206933483,222.09722725796746 44.08965517254546,220.15306105167838 47.875862068962306,214.75257109833183 47.50344827584922,203.44741085742135 42.537931034341455,198.76687717397 39.93103448278271,197.97478376858635 18.765517240855843,199.99101976852398 14.54482758580707,207.55185315629933 12.0,216.33671912667342 13.303448275430128,217.7768505939748 23.172413792926818,222.16923331021098 41.79310344811529,220.87312323774677 44.27586206886917,219.93704225157853 47.56551724136807,215.11260505503742 47.62758620688692,204.88756878487766 46.820689655141905,202.58331468165852 41.17241379315965,198.19080933154328 18.951724137878045,199.77499476011144 14.54482758580707,207.4798456034623 12.124137930804864,216.76875887735514 22.365517241181806,221.8092029747786 39.80689655151218,220.87312323774677 44.213793103350326,219.7930296815466 47.875862068962306,215.97668579802848 47.62758620688692,205.1756000154419 46.01379310316406,201.93524185143178 40.179310344625264,198.04679229698377 18.703448275802657,199.84700310358312 13.799999999813735,209.42404693138087 12.124137930804864,216.48073240648955 22.179310344625264,222.02522119838977 43.96551724127494,220.08105479250662 47.875862068962306,215.25661858631065 47.75172413792461,204.81556095863925 45.951724138110876,201.57520113157807 40.800000000046566,198.11880081810523 21.558620689669624,199.19892774539767 18.144827585900202,200.27905300975544 12.496551723917946,212.95239854202373 12.124137930804864,216.69675227085827 22.427586206933483,221.8092029747786 43.6551724136807,220.15306105167838 47.62758620688692,215.61665228451602 47.50344827584922,204.4555217169691 46.01379310316406,201.8632337221643 40.24137931014411,198.04679229698377 19.44827586179599,199.34294454340125" stroke="#4DD2FF" stroke-linecap="round" stroke-linejoin="round" stroke-width="0.5"><title>2025-08-31 11.1km</title><desc>1756643837000</desc></polyline><polyline fill="none" points="78.22916666651145,197.20244841452222 75.29166666651145,198.72512922255555 64.60416666674428,199.88526477786945 59.541666666511446,211.70403716852888 59.10416666674428,216.6345095281722 69.72916666674428,222.21750286023598 87.22916666651145,220.91239148780005 92.04166666651145,218.3746680272161 94.29166666651145,214.74933298362885 94.54166666651145,204.23575614055153 91.29166666674428,200.10278998228023 87.22916666651145,197.78251768072369 65.54166666651145,199.66773950646166 61.041666666511446,208.2236830186448 59.166666666511446,213.4442078131251 59.04166666674428,216.9245362424408 69.41666666651145,222.5075272823451 88.10416666674428,220.83988522959407 91.79166666651145,219.09973280347185 94.60416666674428,213.80674282461405 94.35416666651145,203.80070821003756 90.60416666651145,199.37770570692373 86.41666666651145,197.4924831071403 65.29166666674428,200.03028158837697 61.041666666511446,207.93365273211384 58.791666666511446,216.70701621792978 69.97916666651145,222.4350211881101 90.54166666651145,219.82479683525162 92.72916666674428,217.64960250706645 94.47916666651145,213.5892218402587 94.22916666651145,203.72820019570645 91.85416666674428,200.68285686714808 86.97916666651145,197.63750040880404 65.22916666651145,200.10278998228023 59.979166666511446,210.39890637178905 58.66666666674428,216.0544557426474 61.041666666511446,218.7372005082434 70.16666666627862,222.79755158547778 90.85416666651145,219.96980955236359 94.35416666651145,214.60431919491384 94.47916666651145,203.72820019570645 92.66666666651145,201.40793980262242 86.91666666674428,197.78251768072369 69.29166666651145,199.23268876265502 64.97916666627862,200.68285686714808 60.229166666511446,210.32639903470408 58.66666666674428,216.56200283108046 60.54166666674428,218.3746680272161 69.66666666651145,222.5075272823451 90.60416666651145,220.18732857203577 94.22916666651145,214.24178459285758 94.22916666651145,203.80070821003756 89.79166666651145,199.01516329008155 86.54166666651145,197.4924831071403 65.10416666674428,200.10278998228023 61.041666666511446,208.07866789028049 58.791666666511446,216.1269624918932 60.47916666674428,218.22965498262784 69.60416666651145,222.4350211881101 88.72916666651145,221.0574039813364 91.29166666674428,219.67978408839554 93.85416666674428,215.9819489858928 94.29166666651145,203.80070821003756 91.79166666651145,200.68285686714808 86.97916666651145,197.4924831071403 65.35416666674428,199.9577731869649 60.979166666511446,208.151175457926 59.22916666674428,213.0816726158955 59.04166666674428,216.6345095281722 70.10416666674428,222.4350211881101 89.66666666651145,220.83988522959407 93.54166666651145,217.06954955484252 94.66666666674428,213.37170078861527 94.54166666651145,204.23575614055153 89.29166666651145,198.58011214411817 84.29166666651145,197.4924831071403 70.10416666674428,198.94265478424495" stroke="#4DD2FF" stroke-linecap="round" stroke-linejoin="round" stroke-width="0.5"><title>2025-08-29 11.0km</title><desc>1756472821000</desc></polyline><polyline fill="none" points="123.27189988642931,201.59020728629548 112.21387940854765,202.51673130964627 106.8077360636089,213.2073036809452 105.8248009099625,219.26522162777837 116.63708759960718,224.18278674286557 134.45278725866228,223.11375381081598 138.81456200266257,221.26075949636288 141.14903299231082,216.91333034838317 141.08759954525158,206.0802737227059 134.57565415254794,200.80622445471818 124.99203640525229,200.66368202655576 111.78384527866729,202.73054437019164 107.36063708760776,211.71063345804578 105.8248009099625,219.19395231216913 115.71558589302003,224.18278674286557 123.51763367466629,224.04024911369197 136.84869169536978,222.61487121263053 138.9988623438403,220.97568300925195 141.21046643937007,216.91333034838317 141.14903299231082,206.0802737227059 135.86575654195622,201.3763938745251 129.04664391372353,200.5211395691731 113.07394766807556,201.9465628261678 110.98521046666428,204.01342135079904 107.91353811137378,210.35650047648232 105.76336746313609,218.62379752343986 117.12855517631397,224.39659313170705 135.7428896476049,222.97121596208308 140.16609783866443,219.47902953100856 141.33333333325572,216.27190407167654 141.27189988666214,206.7217094147345 134.94425483536907,200.87749565776903 114.42548350407742,201.8040206321748 111.41524459607899,203.51452502893517 107.91353811137378,210.35650047648232 105.57906712195836,218.26745054282947 106.93060295772739,220.1204528452363 115.40841865749098,224.04024911369197 121.42889647325501,224.18278674286557 136.357224118663,222.82867808442097 140.71899886266328,218.7663362644962 140.78043230972253,206.36535632575396 135.7428896476049,201.30512272269698 126.2207053473685,200.59241080167703 114.17974971560761,201.66147840890335 111.72241183137521,202.6592733571888 107.91353811137378,210.6415813236963 105.76336746313609,216.84206079144496 106.31626848666929,219.90664513973752 116.39135381137021,224.32532434276072 135.06712172925472,223.11375381081598 137.64732650783844,221.97345020255307 139.98179749725387,219.05141365888994 141.08759954525158,216.20063444867264 141.21046643937007,210.07141951227095 141.0261660979595,206.6504388114554 139.67463026195765,204.36977564694826 134.69852104666643,200.73495324427495 118.1729237770196,201.59020728629548 105.8248009099625,195.60340686829295 105.33333333325572,197.31392654118827 106.19340159278363,199.95096944691613 110.00227531278506,205.2250252114609 105.8248009099625,216.05809518083697 105.64050056878477,218.48125875310507 106.62343572243117,219.8353758896119 115.77701934031211,224.04024911369197 135.18998862360604,223.11375381081598 139.73606370924972,219.69283736817306 141.21046643937007,215.6304772022413 140.16609783866443,204.93994214053964 135.49715585936792,201.09130922320765 124.99203640525229,200.66368202655576 115.96131968148984,201.59020728629548 112.33674630266614,202.51673130964627 110.55517633678392,204.79740056104492 105.8248009099625,216.55698249017587 106.50056882831268,219.8353758896119 115.46985210478306,223.8977114551817 118.1729237770196,224.18278674286557 124.50056882831268,223.75517376762582 136.29579067137092,219.6215680965106 129.6609783845488,222.61487121263053 135.98862343584187,222.75740913441405 139.92036405019462,219.47902953100856 141.08759954525158,216.05809518083697 140.8418657570146,208.43220169632696 140.104664391838,205.29629596113227 138.01592718996108,203.0868993247277 133.65415244619362,200.59241080167703 119.58589306031354,201.44766501913546" stroke="#4DD2FF" stroke-linecap="round" stroke-linejoin="round" stroke-width="0.5"><title>2025-08-27 11.4km</title><desc>1756300085000</desc></polyline><polyline fill="none" points="184.8109028963372,217.50624275242444 187.50936967646703,215.01606385211926 187.32538330508396,204.34376723668538 182.66439522989094,199.29215620819014 179.29131175484508,198.08261007635156 158.62350936979055,200.1459522069199 153.8398637138307,209.39534144941717 152.0,216.0832844763645 155.37308347551152,218.7869027038687 162.48722316883504,221.9173948460957 181.62180579220876,220.70788819424342 184.38160136295483,219.4983794320724 187.3867120957002,214.87376764474902 187.44804088608362,203.9880211863201 181.9897785349749,198.79410805657972 179.41396933584474,198.01146023819456 159.1754684841726,199.64790466881823 154.51448040874675,207.54547347477637 152.0,216.15443245944334 156.96763202757575,219.4983794320724 163.59114139713347,222.05968960741302 183.64565587765537,219.92526511853794 187.26405451470055,215.15836003032746 188.0,204.7706622563419 184.44293015333824,200.71514895517612 180.39522998291068,198.1537599071744 158.80749574140646,199.8613536574412 154.63713798951358,207.47432460804703 152.1839863716159,216.01213648577686 153.41056218068115,217.50624275242444 163.34582623536699,222.05968960741302 180.27257240214385,220.9924781845766 183.89097103942186,219.8541175221908 187.26405451470055,215.08721194474492 187.6933560478501,204.7706622563419 184.68824531557038,201.07089668535627 179.16865417384543,198.01146023819456 158.6848381604068,200.07480258034775 154.0851788755972,208.96844927826896 152.1839863716159,216.15443245944334 155.12776831374504,218.7157549909316 163.28449744475074,222.05968960741302 179.22998296446167,221.3482155081001 184.25894378195517,219.56952706479933 187.32538330508396,213.8065451584407 187.57069846685044,204.69951310456963 183.52299829665571,200.07480258034775 178.80068143107928,198.01146023819456 158.5621805791743,200.00365294679068 153.90119250444695,209.3241927723284 152.0613287903834,216.36787636531517 162.67120953998528,221.98854223039234 183.58432708703913,220.3521505421959 187.81601362884976,215.5141003478202 187.50936967646703,204.55721477943007 185.6081771722529,201.64009267406072 179.41396933584474,197.94031039258698 158.6848381604068,199.71905433916254 152.73594548576511,212.66817269509193 152.1839863716159,216.0832844763645 153.04258943814784,217.57739058986772 163.59114139713347,222.05968960741302 181.37649063044228,220.9213306978345 184.13628620118834,219.78296991885873 186.71209540055133,216.8659118898213 187.6933560478501,212.95276598638156 187.44804088608362,204.98410966765368 186.52810902893543,202.77848324883962 182.48040885850787,199.2210064943065 179.6592844973784,198.22490973077947 161.32197614992037,199.29215620819014" stroke="#4DD2FF" stroke-linecap="round" stroke-linejoin="round" stroke-width="0.5"><title>2025-08-21 10.0km</title><desc>1755782353000</desc></polyline><polyline fill="none" points="46.75862068962306,257.3448107103468 47.93793103448115,254.39253650570754 47.255172413541004,243.5914274409297 42.289655172033235,238.69486987998243 39.37241379311308,237.83076793892542 18.517241379246116,239.84700414561667 12.372413793113083,256.12069852335844 13.365517240948975,257.4888237681589 22.30344827566296,261.52117739082314 43.46896551735699,260.22506625403184 47.875862068962306,255.4006315334118 47.13103448273614,244.02347499650205 42.786206896649674,239.48696239118 39.18620689655654,238.3348275339231 18.455172413494438,240.0630291099078 13.737931034294888,251.29623557726154 12.806896551512182,257.1287910679239 23.048275861656293,262.1692320610746 44.027586206793785,259.9370412317803 47.81379310321063,254.68056380434427 47.50344827584922,244.1674907892011 45.45517241372727,241.35917749785585 39.80689655151218,238.11880203755572 18.703448275802657,239.9910207960056 13.924137930618599,249.5680616745958 12.372413793113083,255.97668518446153 13.24137930991128,257.4888237681589 22.67586206877604,261.73719568079105 41.60689655179158,260.65710356552154 44.27586206886917,259.649016091309 47.689655172405764,255.1846112923231 47.56551724136807,244.31150655262172 42.786206896649674,239.2709372494137 39.93103448278271,238.04679352411767 18.64137931005098,239.91901247453643 13.24137930991128,250.7921852952568 12.0,256.408725112502 23.482758620521054,261.9532139044022 44.52413793071173,259.7930286762421 47.875862068962306,255.1846112923231 47.31724137929268,243.80745125201065 42.289655172033235,239.05491204134887 39.80689655151218,238.19081054371782 18.39310344797559,239.9910207960056 13.737931034294888,250.21612738701515 12.496551723917946,257.3448107103468 22.986206896370277,261.80920176254585 43.7793103447184,259.865034957591 48.0,254.68056380434427 47.689655172405764,244.4555222860654 45.8896551723592,241.57520199625287 39.744827586226165,238.04679352411767 18.765517240855843,239.77499580959557 13.427586206467822,250.57616363512352 12.372413793113083,257.1287910679239 21.43448275816627,261.59318349475507 25.03448275849223,261.9532139044022 42.786206896649674,260.4410849431297 48.0,255.90467850404093 47.37931034481153,243.80745125201065 42.289655172033235,238.98290362401167 39.37241379311308,238.11880203755572 30.372413793113083,238.26281904254574 20.441379310097545,239.19892885407899 17.95862068934366,240.7831118432223" stroke="#4DD2FF" stroke-linecap="round" stroke-linejoin="round" stroke-width="0.5"><title>2025-07-22 10.0km</title><desc>1753187142000</desc></polyline><polyline fill="none" points="69.26390608400106,261.88239281787537 77.37652042135596,267.5294154116418 85.28631940018386,262.35297856642865 84.06942724995315,239.05886809295043 78.18778185546398,232.70588778774254 71.9005057439208,233.41177535778843 67.84419857524335,238.58827756298706 69.46672144252807,259.529462631559 78.59341257158667,266.5882459457498 85.48913475871086,258.35299663222395 83.05535045824945,236.0000279219821 75.34836683701724,232.70588778774254 70.07516751810908,235.05884550954215 67.64138321671635,240.70593418669887 70.07516751810908,261.17651401576586 76.76807434577495,266.5882459457498 82.44690438266844,264.70590585353784 85.48913475871086,259.529462631559 84.06942724995315,238.11768693639897 77.98496649693698,232.4705918834079 67.84419857524335,237.88239158736542 69.06109072640538,258.35299663222395 76.56525898817927,266.8235383478459 84.06942724995315,263.2941497708671 84.06942724995315,239.2941633220762 79.60748936422169,232.70588778774254 68.85827536694705,236.70591447711922 69.87235215865076,259.0588763044216 75.75399755407125,265.4117835694924 84.67787332553416,258.35299663222395 83.86661189142615,236.70591447711922 79.8103047227487,232.70588778774254 68.45264464989305,236.70591447711922 68.85827536694705,258.35299663222395 76.36244362965226,267.05883072689176 82.24408902321011,266.35295351874083 85.48913475871086,261.17651401576586 84.67787332553416,238.58827756298706 80.21593543887138,232.70588778774254 71.6976903853938,233.1764795256313 67.43856785818934,240.47063910332508 69.46672144252807,262.5882714034524 79.60748936422169,268.0 85.48913475871086,262.11768570402637 84.67787332553416,238.58827756298706 76.15962827112526,232.23529595369473 67.64138321671635,239.05886809295043 69.46672144252807,262.11768570402637 79.20185864716768,267.5294154116418 84.06942724995315,266.11766106728464 85.69195011816919,260.94122103368863 83.46098117530346,236.70591447711922 73.52302861120552,232.70588778774254 68.24982929136604,239.2941633220762 69.66953680105507,260.70592802669853 73.32021325267851,265.4117835694924 78.999043289572,266.35295351874083 85.48913475871086,258.11770336003974 83.25816581584513,237.647096213419 78.999043289572,233.1764795256313 72.71176717802882,233.1764795256313 67.84419857524335,240.2353439948056 69.87235215865076,261.41180697386153 73.72584397066385,265.8823685925454 79.60748936422169,266.5882459457498 85.28631940018386,260.47063499549404 83.05535045824945,236.23532346496359 72.30613646097481,233.41177535778843 67.64138321671635,240.47063910332508 69.87235215865076,261.17651401576586 79.20185864716768,266.5882459457498 85.48913475871086,257.88241006364115 83.66379653383046,237.17650539404713 74.13147468678653,232.70588778774254 68.04701393283904,238.58827756298706 70.07516751810908,261.88239281787537 77.37652042135596,266.8235383478459 83.05535045824945,264.9411984500475 85.48913475871086,259.7647557586897 83.66379653383046,236.470618983265 72.9145825356245,232.9411836687941 67.64138321671635,241.4118192929309 70.8864289522171,263.76473522838205 79.8103047227487,266.8235383478459 85.48913475871086,260.47063499549404 83.46098117530346,236.9412099479232 76.56525898817927,232.4705918834079 68.04701393283904,239.2941633220762 70.27798287663609,262.5882714034524 77.7821511393413,266.8235383478459 85.69195011816919,259.29416948067956 83.86661189142615,236.70591447711922 75.75399755407125,232.0 68.45264464989305,237.647096213419 70.07516751810908,261.88239281787537 77.57933577988297,266.5882459457498 83.46098117530346,264.70590585353784 85.89476547483355,259.29416948067956 84.27224260754883,238.11768693639897 77.98496649693698,232.23529595369473 70.07516751810908,234.82354984618723 68.04701393283904,239.76475370652042 70.8864289522171,263.05885700532235 79.8103047227487,266.11766106728464 85.69195011816919,259.29416948067956 84.06942724995315,236.9412099479232 79.60748936422169,232.70588778774254 73.32021325267851,232.4705918834079 67.84419857524335,239.76475370652042 70.07516751810908,262.11768570402637 77.37652042135596,267.05883072689176 83.46098117530346,264.9411984500475 85.89476547483355,259.529462631559 84.27224260754883,238.11768693639897 80.62156615685672,232.9411836687941 74.33429004531354,232.0 68.04701393283904,238.58827756298706 69.66953680105507,260.70592802669853 78.999043289572,267.05883072689176 85.48913475871086,261.41180697386153 84.06942724995315,237.41180081595667 74.13147468678653,232.23529595369473 68.04701393283904,238.58827756298706 69.87235215865076,262.5882714034524 80.21593543887138,267.05883072689176 85.89476547483355,260.94122103368863 84.47505796700716,238.58827756298706 77.17370506376028,232.0 70.8864289522171,233.647071165964 67.64138321671635,239.05886809295043 69.66953680105507,261.17651401576586 76.97088970523328,267.05883072689176 82.64971974119544,265.4117835694924 85.69195011816919,260.2353419410065 83.86661189142615,237.88239158736542 79.8103047227487,232.9411836687941 73.72584397066385,232.23529595369473 68.04701393283904,239.05886809295043 69.66953680105507,261.17651401576586 73.32021325267851,266.11766106728464 79.40467400662601,267.05883072689176 85.48913475871086,260.70592802669853 83.05535045824945,235.7647323552519 75.55118219554424,232.23529595369473 68.24982929136604,238.82357284030877 69.87235215865076,260.94122103368863 77.17370506376028,266.8235383478459 85.28631940018386,261.41180697386153 83.25816581584513,236.470618983265 75.14555147849023,232.23529595369473 68.45264464989305,237.88239158736542 70.6836135936901,262.5882714034524 78.59341257158667,266.8235383478459 85.48913475871086,260.2353419410065 83.25816581584513,236.70591447711922 74.94273611996323,232.23529595369473 68.45264464989305,239.05886809295043 69.87235215865076,259.7647557586897 73.32021325267851,265.1764910216443 79.8103047227487,266.11766106728464 85.48913475871086,258.82358310418203 83.46098117530346,238.11768693639897 75.34836683701724,232.9411836687941 68.45264464989305,239.2941633220762 72.50895181950182,263.05885700532235 78.999043289572,265.8823685925454" stroke="#4DD2FF" stroke-linecap="round" stroke-linejoin="round" stroke-width="0.5"><title>2025-05-09 10.0km</title><desc>1746796175000</desc></polyline><polyline fill="none" points="118.69887140858918,262.6234127751086 121.31834988854825,266.3636487098411 127.76629691384733,266.83117777016014 132.19926049374044,258.649405361386 129.7812803601846,236.2078215801157 121.31834988854825,232.46753611485474 114.66890451777726,238.54549687565304 117.28838299587369,262.85717770061456 127.36330022569746,268.0 132.80375552829355,261.22082271496765 130.1842770492658,237.3766595281195 123.7363300230354,232.0 114.46740617230535,237.84419453935698 116.07939292956144,261.9221178526059 119.90786147583276,266.5974132521078 125.95281181298196,267.5324711804278 132.19926049374044,260.98705762065947 131.19176877196878,239.71433362434618 123.33333333395422,232.46753611485474 117.69137968681753,233.87014388432726 114.46740617230535,239.01303164707497 116.07939292956144,260.05199700477533 124.74382174480706,267.06494226376526 131.39326711650938,262.1558828500565 130.3857753938064,239.01303164707497 121.31834988854825,233.16884010774083 114.26590782776475,241.3507040636614 116.88538630772382,262.1558828500565 123.937828367576,267.29870673432015 129.7812803601846,264.96106095355935 131.79626380559057,259.3507012913469 129.1767853256315,235.97405391838402 121.31834988854825,232.70130413677543 114.66890451777726,238.3117294544354 116.88538630772382,262.3896478244569 124.13932671118528,266.83117777016014 131.79626380559057,258.88317069550976 129.98277870379388,238.07796200853772 120.31085816491395,233.16884010774083 114.26590782776475,239.24679899704643 117.48988134134561,263.09094260213897 125.54981512390077,267.06494226376526 131.99776215013117,257.9481092165224 129.98277870379388,237.610427045729 120.10935982037336,233.16884010774083 114.06440948322415,239.71433362434618 117.28838299587369,262.85717770061456 127.16180188022554,266.5974132521078 131.99776215013117,259.818231791025 130.3857753938064,239.01303164707497 121.51984823308885,232.93507213471457 113.86291113868356,240.88316977233626 117.48988134134561,263.792237163987 125.34831677936018,267.06494226376526 131.39326711650938,260.7532925021369 129.7812803601846,237.14289198582992 122.52733995486051,232.70130413677543 113.86291113868356,239.48056632233784 116.6838879622519,261.9221178526059 123.1318349884823,267.06494226376526 131.59476546011865,261.22082271496765 129.98277870379388,238.07796200853772 123.937828367576,232.93507213471457 118.49737306404859,233.63637598301284 113.86291113868356,240.4156353850849 116.88538630772382,263.09094260213897 124.13932671118528,267.06494226376526 130.99027042649686,262.6234127751086 130.3857753938064,239.24679899704643 124.74382174480706,233.40260805748403 114.87040286138654,237.3766595281195 115.87789458502084,259.1169360051863 118.49737306404859,264.96106095355935 124.13932671118528,267.5324711804278 131.39326711650938,262.3896478244569 130.1842770492658,238.07796200853772 123.33333333395422,232.70130413677543 117.69137968681753,234.10391176166013 114.26590782776475,239.01303164707497 116.07939292956144,260.28576219524257 120.91535319853574,266.5974132521078 126.55730684660375,267.7662356023211 131.79626380559057,261.22082271496765 130.587273738347,239.48056632233784 121.92284492123872,232.70130413677543 114.26590782776475,240.18186815502122 116.88538630772382,263.3247074796818 124.74382174480706,267.29870673432015 131.99776215013117,258.88317069550976 130.3857753938064,238.3117294544354 121.11685154307634,232.70130413677543 113.86291113868356,240.4156353850849 116.07939292956144,261.68835283024237 120.10935982037336,266.3636487098411 125.95281181298196,267.06494226376526 131.79626380559057,261.68835283024237 129.7812803601846,237.3766595281195 122.32584161031991,232.70130413677543 115.27339955046773,237.3766595281195 115.87789458502084,261.22082271496765 124.74382174480706,267.29870673432015 131.99776215013117,259.3507012913469 129.579782015644,236.441589217633 121.72134657669812,232.70130413677543 113.86291113868356,240.64940259046853 116.07939292956144,261.9221178526059 120.31085816491395,266.5974132521078 126.35580850206316,267.06494226376526 131.99776215013117,260.05199700477533 130.3857753938064,237.84419453935698 123.53483167756349,232.46753611485474 114.46740617230535,239.24679899704643 116.88538630772382,262.85717770061456 124.3408250566572,267.06494226376526 130.99027042649686,261.68835283024237 130.1842770492658,238.77926427312195 124.13932671118528,233.16884010774083 118.69887140858918,233.87014388432726 115.07190120592713,241.11693692952394 116.07939292956144,260.7532925021369 121.72134657669812,266.83117777016014 131.19176877196878,261.9221178526059 129.7812803601846,236.6753568314016 122.93033664487302,232.70130413677543 117.28838299587369,234.80521525046788 114.46740617230535,239.9481009019073 116.07939292956144,262.6234127751086 126.15431015752256,267.29870673432015 131.59476546011865,261.22082271496765 130.1842770492658,238.3117294544354 121.51984823308885,232.93507213471457 114.46740617230535,240.4156353850849 116.88538630772382,262.6234127751086 123.7363300230354,267.06494226376526 131.99776215013117,260.05199700477533 129.7812803601846,236.6753568314016 122.72883830033243,232.70130413677543 114.26590782776475,239.48056632233784 115.87789458502084,261.68835283024237 124.54232340119779,267.29870673432015 131.99776215013117,259.818231791025 130.1842770492658,237.3766595281195 124.13932671118528,232.46753611485474 114.87040286138654,238.07796200853772 115.67639623954892,261.22082271496765 124.13932671118528,267.06494226376526 131.59476546011865,260.05199700477533 129.98277870379388,237.84419453935698 120.91535319853574,233.16884010774083 114.46740617230535,240.88316977233626 116.07939292956144,261.45458778436296 123.53483167756349,266.3636487098411 131.39326711650938,259.58446655375883 129.579782015644,236.6753568314016 121.72134657669812,232.93507213471457 114.87040286138654,238.77926427312195 116.88538630772382,261.22082271496765 124.94532009027898,265.6623549400829 131.99776215013117,259.3507012913469 130.78877208195627,239.9481009019073 124.13932671118528,232.70130413677543" stroke="#4DD2FF" stroke-linecap="round" stroke-linejoin="round" stroke-width="0.5"><title>2025-05-03 10.2km</title><desc>1746275352000</desc></polyline></svg>