<?xml version="1.0" encoding="utf-8" ?>
<svg baseProfile="full" height="300mm" version="1.1" viewBox="0,0,200,300" width="200mm" xmlns="http://www.w3.org/2000/svg" xmlns:ev="http://www.w3.org/2001/xml-events" xmlns:xlink="http://www.w3.org/1999/xlink"><defs /><rect fill="#222222" height="300" width="200" x="0" y="0" /><text fill="#FFFFFF" style="font-size:12px; font-family:Arial; font-weight:bold;" x="10" y="20">Over 10km Runs</text><text fill="#FFFFFF" style="font-size:4px; font-family:Arial" x="10" y="280">Runner</text><text fill="#FFFFFF" style="font-size:9px; font-family:Arial" x="10" y="290">Wangyp</text><text fill="#FFFFFF" style="font-size:4px; font-family:Arial" x="65" y="280">SPECIAL TRACKS</text><rect fill="yellow" height="2.6" width="2.6" x="65" y="283" /><text fill="#FFFFFF" style="font-size:3px; font-family:Arial" x="70" y="285.5">Over 20.0 km</text><rect fill="red" height="2.6" width="2.6" x="65" y="287" /><text fill="#FFFFFF" style="font-size:3px; font-family:Arial" x="70" y="289.5">Over 40.0 km</text><text fill="#FFFFFF" style="font-size:4px; font-family:Arial" x="120" y="280">STATISTICS</text><text fill="#FFFFFF" style="font-size:3px; font-family:Arial" x="120" y="285">Number: 22</text><text fill="#FFFFFF" style="font-size:3px; font-family:Arial" x="120" y="290">Weekly: 1.6</text><text fill="#FFFFFF" style="font-size:3px; font-family:Arial" x="141" y="285">Total: 263.8 km</text><text fill="#FFFFFF" style="font-size:3px; font-family:Arial" x="141" y="290">Avg: 12.0 km</text><text fill="#FFFFFF" style="font-size:3px; font-family:Arial" x="167" y="285">Min: 10.0 km</text><text fill="#FFFFFF" style="font-size:3px; font-family:Arial" x="167" y="290">Max: 21.3 km</text><polyline fill="none" points="22.242312938906252,57.94810921535827 24.05579822603613,63.79223716352135 28.89175899233669,66.59741325164214 38.36218215897679,61.454587783897296 36.95169360097498,38.077962008770555 30.906742644496262,32.46753611508757 23.854299860075116,33.87014388409443 21.03332274686545,38.54549687542021 22.04081457387656,60.519527359865606 31.309739374555647,67.29870673385449 39.16817562002689,60.519527359865606 37.35469033289701,38.077962008770555 29.899250818416476,32.46753611508757 21.234821111895144,38.779264273354784 22.645309668965638,60.98705762042664 30.705244278535247,67.29870673385449 38.966677254997194,61.92211785167456 37.35469033289701,37.61042704549618 30.906742644496262,32.46753611508757 21.43631947785616,38.31172945396975 22.645309668965638,60.75329250236973 31.108241009525955,67.29870673385449 39.16817562002689,61.688352830009535 37.35469033289701,38.077962008770555 30.906742644496262,32.46753611508757 23.854299860075116,34.3376796154771 21.03332274686545,39.246798996580765 23.048306399956346,61.92211785167456 32.317231201566756,67.29870673385449 38.966677254997194,60.98705762042664 37.15319196693599,38.31172945396975 30.906742644496262,32.46753611508757 25.063290052115917,33.63637598254718 21.43631947785616,38.779264273354784 22.443811303935945,60.98705762042664 31.108241009525955,67.29870673385449 38.966677254997194,61.92211785167456 37.15319196693599,38.31172945396975 29.093257357366383,32.23376806918532 21.234821111895144,39.01303164707497 22.645309668965638,61.688352830009535 30.30224754847586,67.06494226353243 38.76517888903618,61.688352830009535 36.750195235945284,37.61042704549618 28.488762261345983,32.46753611508757 21.234821111895144,38.779264273354784 23.048306399956346,62.15588284982368 32.51872956659645,67.06494226353243 38.76517888903618,61.22082271403633 37.35469033289701,38.779264273354784 28.690260627306998,32.23376806918532 21.234821111895144,38.54549687542021 22.846808034926653,61.92211785167456 31.309739374555647,67.29870673385449 38.56368052307516,61.454587783897296 36.95169360097498,38.077962008770555 28.690260627306998,32.46753611508757 21.234821111895144,38.54549687542021 22.645309668965638,61.92211785167456 30.906742644496262,67.53247117972933 38.966677254997194,61.454587783897296 36.750195235945284,37.844194538891315 28.28726389631629,32.46753611508757 21.03332274686545,39.246798996580765 22.242312938906252,60.98705762042664 30.705244278535247,67.53247117972933 38.76517888903618,61.454587783897296 37.35469033289701,38.779264273354784 29.2947557233274,32.46753611508757 21.43631947785616,38.779264273354784 22.443811303935945,61.688352830009535 32.317231201566756,67.53247117972933 38.76517888903618,61.454587783897296 37.15319196693599,38.54549687542021 28.28726389631629,32.23376806918532 21.03332274686545,39.246798996580765 22.242312938906252,60.98705762042664 31.108241009525955,67.53247117972933 38.966677254997194,60.98705762042664 36.95169360097498,37.844194538891315 29.49625408742577,32.701304137008265 21.234821111895144,38.54549687542021 22.443811303935945,61.92211785167456 31.309739374555647,67.53247117972933 38.966677254997194,60.98705762042664 37.15319196693599,38.54549687542021 29.49625408742577,32.701304137008265 21.234821111895144,39.01303164707497 22.846808034926653,62.15588284982368 30.906742644496262,67.53247117972933 38.76517888903618,60.519527359865606 36.95169360097498,38.077962008770555 28.085765530355275,32.93507213424891 21.03332274686545,39.48056632257067 23.048306399956346,62.15588284982368 30.503745914436877,67.53247117972933 38.966677254997194,61.22082271403633 37.15319196693599,38.31172945396975 28.89175899233669,32.701304137008265 21.03332274686545,39.48056632257067 22.645309668965638,61.688352830009535 32.11573283653706,67.53247117972933 38.966677254997194,60.05199700477533 37.15319196693599,39.246798996580765 29.2947557233274,32.701304137008265 24.257296591065824,34.10391176166013 21.03332274686545,39.48056632257067 22.645309668965638,61.688352830009535 30.503745914436877,67.29870673385449 38.76517888903618,61.22082271403633 36.750195235945284,37.844194538891315 27.481270435266197,32.46753611508757 21.03332274686545,39.71433362388052 22.443811303935945,61.688352830009535 31.108241009525955,67.53247117972933 39.16817562002689,61.22082271403633 36.95169360097498,38.077962008770555 27.481270435266197,33.168840107740834 21.234821111895144,40.18186815525405 23.249804764986038,63.32470747968182 33.12322466261685,67.06494226353243 39.16817562002689,60.285762194311246 36.95169360097498,37.844194538891315 27.279772070236504,32.93507213424891 21.03332274686545,39.71433362388052 22.645309668965638,61.688352830009535 30.705244278535247,67.29870673385449 39.16817562002689,60.285762194311246 36.95169360097498,38.31172945396975 28.085765530355275,32.93507213424891 20.831824380904436,40.18186815525405 23.048306399956346,62.62341277417727 31.712736106477678,67.53247117972933 38.76517888903618,61.454587783897296 37.15319196693599,39.01303164707497 28.28726389631629,32.701304137008265 20.831824380904436,39.71433362388052 22.443811303935945,60.98705762042664 31.309739374555647,68.0 39.16817562002689,61.22082271403633 37.35469033289701,39.01303164707497 28.488762261345983,32.93507213424891 20.831824380904436,40.18186815525405 22.04081457387656,60.75329250236973 30.10074918344617,67.29870673385449 38.76517888903618,62.15588284982368 36.95169360097498,39.48056632257067 28.488762261345983,32.46753611508757 21.234821111895144,39.71433362388052 22.04081457387656,60.519527359865606 30.705244278535247,67.76623560138978 38.56368052307516,62.389647824456915 36.95169360097498,39.246798996580765 29.49625408742577,32.93507213424891 24.458794956095517,34.10391176166013 21.03332274686545,39.48056632257067 22.242312938906252,60.75329250236973 30.30224754847586,67.76623560138978 38.56368052307516,61.92211785167456 37.15319196693599,38.779264273354784 29.49625408742577,32.93507213424891 21.839316208846867,37.14289198629558 22.645309668965638,61.22082271403633 30.906742644496262,67.53247117972933 39.16817562002689,61.454587783897296 37.35469033289701,39.01303164707497 28.89175899233669,32.701304137008265 21.234821111895144,38.779264273354784 22.645309668965638,61.454587783897296 30.10074918344617,67.53247117972933 35.54120504576713,66.59741325164214 38.966677254997194,61.454587783897296 36.95169360097498,38.31172945396975 27.884267165325582,32.0 21.234821111895144,37.844194538891315 23.249804764986038,61.454587783897296 31.914234470576048,67.76623560138978 39.16817562002689,60.285762194311246 36.750195235945284,38.077962008770555 31.914234470576048,32.93507213424891 27.279772070236504,33.168840107740834" stroke="#4DD2FF" stroke-linecap="round" stroke-linejoin="round" stroke-width="0.5"><title>2025-11-11 12.1km</title><desc>1762863504000</desc></polyline><polyline fill="none" points="71.39346951339394,59.294169479981065 70.37939313799143,64.23532058973797 77.88355831801891,68.0 84.17083184886724,66.82353834877722 87.21306097507477,60.00004886230454 84.37364712264389,37.64709621295333 81.7370485458523,33.88236695062369 74.23288336582482,32.47059188247658 67.74279456026852,38.58827756275423 69.56813203636557,62.58827140345238 78.4920041449368,67.52941541210748 85.3877234980464,59.52946263179183 83.1567554725334,37.411800815723836 74.23288336582482,32.94118366809562 67.74279456026852,40.23534399527125 70.17657786235213,62.11768570402637 77.88355831801891,67.29412308172323 86.19898459967226,60.235341941937804 83.96801657322794,38.82357284030877 79.70889579411596,33.41177535825409 74.03006809111685,32.94118366809562 68.14842511061579,38.82357284030877 70.37939313799143,62.58827140345238 80.11452634539455,67.05883072689176 85.79335405025631,60.47063499619253 83.1567554725334,36.94120994745754 73.42162226419896,32.94118366809562 68.14842511061579,39.29416332114488 70.17657786235213,62.58827140345238 79.30326524470001,67.29412308172323 85.3877234980464,59.76475575868972 83.76520129758865,37.64709621295333 74.63851391524076,32.94118366809562 68.14842511061579,38.35298226191662 70.17657786235213,62.11768570402637 77.88355831801891,67.29412308172323 85.59053877461702,60.941221033688635 83.1567554725334,36.00002792174928 73.62443753983825,32.70588778750971 68.14842511061579,39.0588680927176 70.37939313799143,63.058857006020844 78.69481941871345,67.29412308172323 85.99616932496428,60.235341941937804 83.76520129758865,37.411800815723836 74.84132918994874,32.70588778750971 67.9456098349765,40.23534399527125 70.37939313799143,63.2941497717984 79.10044996906072,67.29412308172323 85.79335405025631,60.00004886230454 83.96801657322794,38.35298226191662 74.84132918994874,32.70588778750971 68.14842511061579,39.29416332114488 70.17657786235213,63.058857006020844 80.11452634539455,66.82353834877722 85.59053877461702,59.76475575868972 83.56238602288067,36.94120994745754 74.23288336582482,32.47059188247658 67.53997928462923,40.0000488627702 69.56813203636557,61.4118069736287 73.42162226419896,66.1176610677503 79.10044996906072,67.05883072689176 85.3877234980464,60.70592802669853 83.56238602288067,37.88239158713259 75.24695974122733,32.47059188247658 67.9456098349765,39.29416332114488 69.77094731200486,61.17651401599869 78.89763469435275,67.29412308172323 85.59053877461702,60.941221033688635 84.17083184886724,39.0588680927176 75.24695974122733,32.47059188247658 67.9456098349765,39.52945852605626 69.77094731200486,61.88239281857386 77.68074304331094,67.29412308172323 85.79335405025631,60.70592802669853 83.56238602288067,37.176505394047126 74.84132918994874,32.47059188247658 67.9456098349765,37.88239158713259 69.56813203636557,61.647099908441305 78.08637359272689,67.05883072689176 85.59053877461702,59.76475575868972 84.17083184886724,37.88239158713259 74.23288336582482,32.47059188247658 67.74279456026852,40.0000488627702 69.77094731200486,62.82356421649456 79.10044996906072,66.82353834877722 85.59053877461702,60.47063499619253 84.17083184886724,37.88239158713259 74.43569864053279,32.70588778750971 67.9456098349765,39.764753706753254 69.77094731200486,62.352978565730155 78.08637359272689,67.05883072689176 85.79335405025631,59.76475575868972 83.56238602288067,36.94120994745754 73.62443753983825,32.47059188247658 67.74279456026852,39.0588680927176 69.77094731200486,62.11768570402637 78.2891888692975,66.82353834877722 85.79335405025631,60.00004886230454 83.35957074724138,36.47061898279935 75.44977501686662,32.47059188247658 67.74279456026852,40.0000488627702 70.17657786235213,63.058857006020844 78.69481941871345,66.82353834877722 85.79335405025631,60.00004886230454 84.17083184886724,38.11768693686463 74.43569864053279,32.47059188247658 67.9456098349765,38.35298226191662 69.77094731200486,62.82356421649456 78.4920041449368,66.58824594621547 85.79335405025631,60.235341941937804 83.96801657322794,37.88239158713259 75.6525902915746,32.47059188247658 67.9456098349765,38.82357284030877 69.77094731200486,62.11768570402637 79.10044996906072,66.58824594621547 85.99616932496428,58.823583104647696 83.76520129758865,36.94120994745754 74.03006809111685,32.23529595322907 67.74279456026852,39.52945852605626 69.77094731200486,61.88239281857386 77.47792776767164,66.82353834877722 86.40179987531155,59.76475575868972 84.37364712264389,38.58827756275423 76.05822084192187,32.0 67.53997928462923,38.11768693686463 69.56813203636557,62.58827140345238 78.89763469435275,67.05883072689176 85.79335405025631,60.00004886230454 83.56238602288067,36.70591447735205 73.62443753983825,32.94118366809562 66.32308763451874,42.35299909650348 69.77094731200486,62.58827140345238 79.70889579411596,67.05883072689176 86.19898459967226,58.58828988112509 83.76520129758865,37.176505394047126 74.23288336582482,32.0 66.93153345957398,39.52945852605626 69.36531676072627,61.17651401599869 79.30326524470001,66.58824594621547 85.99616932496428,58.823583104647696 83.35957074724138,36.94120994745754 73.01599171478301,32.70588778750971 66.12027235887945,43.29417851404287 69.56813203636557,61.88239281857386 79.10044996906072,67.05883072689176 86.19898459967226,59.52946263179183 83.96801657322794,37.64709621295333 75.85540556628257,32.0 69.77094731200486,34.58825415791944 66.52590290922672,43.529473308240995 69.1625014860183,59.76475575868972" stroke="#4DD2FF" stroke-linecap="round" stroke-linejoin="round" stroke-width="0.5"><title>2025-11-07 10.1km</title><desc>1762493397000</desc></polyline><polyline fill="none" points="111.41606640600367,43.23331233740464 107.19297523496789,45.62266865053243 105.33333333334303,46.85169948517432 108.23022569800378,56.06455918546271 108.6154901557311,56.73485831851576 110.85298758317367,58.09262730917544 120.8180009603966,63.75548984968191 128.13802565689548,65.15610850552912 128.56774370584753,65.14751582439203 133.92440145433648,66.09270546726475 134.20594086573692,66.04974253293767 134.28743911642232,65.92085359776684 134.48748027713737,60.38703503002034 134.24298552513937,59.106642963102786 133.30205117649166,57.319217289972585 132.8649241956591,57.43952598406031 132.19071139467997,58.127000922118896 131.11641627221252,58.68557015598344 130.59038210881408,58.65119677218172 130.3384784249647,58.41058269077621 130.04212114980328,57.78326415816264 129.3975440762879,57.551241045330244 128.8270563216065,57.09578639978281 127.29340742266504,56.48564516453189 126.24874802771956,56.287992825644324 123.8408451670548,55.07628786130226 123.3666735268198,53.615343679950456 123.37408245867118,52.945019588012656 123.71489332508645,52.36922409846011 124.53728476367542,51.578573097380286 129.0048706867383,49.66207285586279 129.21232077933382,49.70504419384088 129.50867805449525,50.19491588872188 131.40536461549345,53.761439244532085 131.82026480074273,53.85597153289564 134.35411950334674,52.86767415533541 134.66529464226915,52.62704346368264 134.82088221170125,52.28328413373674 133.53913699663826,48.17525098477927 133.59840845165309,47.70255642152915 141.0369760581816,44.43659382133774 141.33333333334303,44.10139571662148 140.0812238457729,39.90700856552576 139.1476984290348,37.947263868685695 136.86574741028016,33.907294532727974 137.22137614051462,34.59496265479538 137.30287439117092,35.05053967510321 139.34033065786934,38.61770800551312 139.31810386222787,38.909951205714606 126.57474103040295,44.703032383476966 125.11518145023729,45.175743875479384 125.01145640393952,45.39061185346509 125.15963504152023,48.544810330698965 122.57391781572369,48.106495577718306 121.95156753793708,48.91436804612022 121.88488715101266,49.36986717298714 122.18124442617409,50.04021987353917 121.99602112919092,50.36680001500645 121.72189064967097,50.37539421208203 121.49221376143396,50.17772745669208 121.34403512385325,49.87692932531354 121.32180832821177,49.39565006833436 121.04026891681133,49.06047180947644 121.3736708513461,48.192439827696944 121.20326541812392,46.93764502269187 121.35885298761423,45.80315682595392 121.26994580504834,45.43358538292523 120.67723125472548,44.935091085673776 120.52905261714477,44.59130018641736 120.92913493860397,43.5771088112233 120.92913493860397,43.13017312003649 120.71427591409883,43.02703377563739 120.15119709132705,43.121578179510834 119.29176099333563,42.82075470579002 118.82499828498112,43.36223618048825 118.67681964742951,44.20453373788041 118.86945187626407,44.960875346238026 118.65459285178804,45.373422435506654 118.11374082457041,45.85472480464523 117.31357618168113,45.68283141888969 116.63936338067288,44.21312856726581 116.52822940249462,43.499754727687105 116.75790629076073,41.54868921378511 117.02462783840019,41.09314754814113 116.73567949511926,40.28519963083818 111.40865747412317,43.28488189843483" stroke="yellow" stroke-linecap="round" stroke-linejoin="round" stroke-width="0.5"><title>2025-11-02 21.2km</title><desc>1762040409000</desc></polyline><polyline fill="none" points="169.877966101747,39.06345243973192 158.46779661020264,39.771331761730835 153.46440677973442,50.53100799303502 152.42711864435114,57.326506487617735 162.49491525418125,61.99837286100956 180.61694915266708,60.93658782780403 184.1559322036337,59.80401532392716 187.81694915215485,55.4860655903467 187.5728813558817,45.22197820188012 185.74237288115546,41.89496536756633 179.82372881355695,37.930844013229944 158.65084745758213,39.771331761730835 153.5864406779874,50.03550027491292 152.0,56.12314184132265 154.1966101694852,58.246725094504654 162.67796610179357,62.0691584716551 183.91186440666206,60.1579444311792 187.93898305064067,55.55685186939081 187.45084745739587,45.15119086194318 185.86440677940845,41.965753041848075 181.83728813566267,38.70951250632061 179.0915254233405,37.860055924917106 158.52881355956197,39.842119654116686 153.40338983084075,50.601794780697674 152.06101694935933,56.406286652898416 162.61694915243424,61.927587243088055 184.09491525427438,59.945586988702416 187.93898305064067,55.41527930396842 187.3898305085022,44.726466669351794 182.5694915256463,39.205028362281155 179.64067796594463,38.072420168318786 158.71186440694146,39.912907538877334 153.52542372886091,50.601794780697674 152.1830508473795,56.406286652898416 153.7694915253669,57.9635810382897 162.49491525418125,61.856801617657766 184.09491525427438,60.016372810234316 187.81694915215485,55.769210663449485 187.6338983050082,45.43434017820982 185.74237288115546,42.03654070885386 180.25084745767526,38.213996294362005 158.52881355956197,40.05448328709463 153.40338983084075,50.884941859170794 152.1830508473795,56.47707283758791 162.55593220354058,62.139944075082894 184.1559322036337,59.80401532392716 188.0,55.202920400945004 187.3288135593757,44.86804142926121 185.92542372853495,42.17811602097936 180.25084745767526,38.28478434635326 159.01694915257394,39.912907538877334 153.28135593235493,51.16808882140322 152.1830508473795,56.05235562019516 153.52542372886091,57.892795006220695 161.64067796617746,61.71523034531856 164.56949152541347,62.0691584716551 182.50847457628697,60.653444876137655 186.29152542352676,58.03436706325738 188.0,54.63662967341952 187.51186440652236,44.726466669351794 185.07118644053116,41.470239169488195 179.76271186443046,38.28478434635326 158.52881355956197,40.125271150202025 153.52542372886091,50.389434395649005 152.1830508473795,57.043362053635065 162.67796610179357,61.927587243088055 183.72881355928257,60.22873023094144 187.87796610151418,55.769210663449485 187.3898305085022,44.655679278541356 182.5694915256463,39.417392191593535 179.64067796594463,38.28478434635326 159.01694915257394,39.842119654116686 153.70847457647324,49.96471342915902 152.1830508473795,56.54785901494324 162.67796610179357,61.99837286100956 183.11864406778477,60.58265912020579" stroke="#4DD2FF" stroke-linecap="round" stroke-linejoin="round" stroke-width="0.5"><title>2025-10-26 12.0km</title><desc>1761480636000</desc></polyline><polyline fill="none" points="46.657627118518576,96.689428732323 48.0,94.21190921560628 47.267796610016376,83.94780497031752 42.08135593193583,78.85108954779571 38.90847457642667,78.00163331517251 18.589830508455634,79.84212049667258 13.281355932354927,90.67258018051507 12.244067796738818,96.33549791772384 23.166101694805548,101.85679794114549 38.176271186443046,101.0073700454086 44.52203389792703,99.52086871035863 47.93898305064067,95.41527694952674 47.57288135588169,85.00961594207911 45.92542372853495,82.10732874635141 40.616949152667075,78.07242137449794 18.65084745758213,79.62975684186677 13.342372881481424,90.1062858493533 12.244067796738818,96.61864258395508 23.53220338979736,101.92758355179103 41.34915254218504,100.58265570516232 44.33898305078037,99.52086871035863 47.93898305064067,95.34449067048263 47.51186440652236,85.22197794023668 45.80338983051479,81.965753448545 39.76271186443046,77.93084524845472 18.406779660843313,80.05448408605298 13.464406779734418,89.89392535504885 12.122033898252994,96.12313934176927 12.976271186722443,97.4680758852628 23.471186440438032,101.92758355179103 41.89830508478917,100.65344144665869 44.58305084728636,99.52086871035863 47.877966101514176,95.27370438410435 47.20677966088988,83.80623005039524 41.53220338979736,78.70951358164893 35.79661016911268,77.93084524845472 18.528813559561968,79.84212049667258 12.854237288236618,91.80516744818306 12.0,95.98156692145858 13.037288135616109,97.53886194649385 23.53220338979736,101.99836915521882 37.383050847100094,101.07815574324923 44.27796610142104,99.66244040406309 47.877966101514176,95.48606322158594 47.3288135593757,84.16016729542753 41.410169491544366,78.42636156221852 35.30847457610071,77.93084524845472 18.46779661020264,79.91290836723056 13.525423728860915,90.03549902536906 12.366101694991812,96.901787133771 22.983050847426057,101.92758355179103 43.850847457768396,99.87479789037025 48.0,95.41527694952674 47.45084745739587,84.7972538783797 42.020338983042166,78.92187751986785 39.213559322059155,78.07242137449794 18.772881356067955,79.91290836723056 13.586440677987412,89.89392535504885 12.305084746098146,96.689428732323 23.53220338979736,102.06915475154528 43.30169491493143,100.22872688859934 47.63389830500819,96.47707026539138 47.3898305085022,84.3017421424156 42.203389830421656,79.06345344241709 38.42033898294903,78.00163331517251 24.264406779780984,79.27581727172947" stroke="#4DD2FF" stroke-linecap="round" stroke-linejoin="round" stroke-width="0.5"><title>2025-10-22 10.1km</title><desc>1761137801000</desc></polyline><polyline fill="none" points="76.30076502729207,92.57155821294145 82.4384699453658,93.98950119584333 83.83125683059916,94.44689730653045 82.20240437157918,96.23071952666214 80.27453551912913,97.3833239735468 79.36174863387714,99.15793953798129 78.9604371584428,100.31050582573516 78.69289617487811,100.38368413043645 76.89879781421041,100.25562205746974 73.74338797811652,99.22197139256605 71.24109289617627,98.71886271451513 69.17945355194388,102.46924035598204 68.88830601092195,102.66132858705532 65.26863387977937,100.42942054010928 65.17420765027055,100.109265175568 65.64633879781468,98.5084709638686 66.6378142076428,96.72469470099895 67.50338797815493,93.7790981902508 68.56568306012196,93.66932251027902 69.36830601090332,93.76080225305486 72.83060109289363,95.49889938026172 73.09027322402108,95.22446526355634 74.12109289618093,92.26967064128257 73.99519125683582,92.01352280224819 73.61748633880052,91.90374492975388 60.70469945354853,88.97628470298514 58.97355191261158,88.55545432482904 58.75322404372855,88.37248397026269 58.666666666656965,86.73488243114843 58.83191256830469,84.57576363561384 59.67387978141778,81.65720989592955 60.04371584701585,80.87952257280267 61.106010928953765,79.29667899727065 62.624699453561334,77.5765625004351 63.073224043735536,77.3386714129374 65.06404371582903,78.55556908041763 65.1663387978042,78.76600833069097 63.41945355190546,81.5199714538685 62.860765027289744,83.47788639092323 63.28568306012312,82.04147639978328 63.71846994536463,81.06250844104216 65.27650273227482,78.80260641002678 70.15519125681021,80.52269903983688 73.46797814208549,81.1631505070618 73.87715846992796,81.09910556922114 74.6010928961623,81.44677753097494 74.64830601093126,83.93533690038021 74.75060109287733,84.17321022949909 75.01814207647112,84.22810398376896 77.47322404370061,83.88959195598727 79.30666666664183,83.98108182108263 80.93551912566181,84.41108291838464 82.59584699451807,85.27107883641293 80.83322404368664,84.40193398063275 78.92896174863563,83.95363487150462 77.50469945353689,83.92618791340647 74.87650273225154,84.31044455122901 73.71191256830934,84.31959349844692 72.27978142077336,84.24640189428465 70.23387978141545,83.88044296426233 69.57289617485367,86.47871855220001 69.68306010926608,86.70743633677193 82.73748633876676,89.84538457696908 93.86404371581739,92.34285560179705 94.60371584695531,92.67218717439391 94.66666666665697,93.06555383370869 94.23387978141545,96.20327638050367 94.06863387976773,96.4411166976206 93.68306010926608,96.54174125453574 76.28502732241759,92.5441139308241" stroke="yellow" stroke-linecap="round" stroke-linejoin="round" stroke-width="0.5"><title>2025-10-12 21.3km</title><desc>1760225536000</desc></polyline><polyline fill="none" points="125.2377701937221,79.34515209431993 120.56882821395993,79.06006755994167 111.9067121730186,80.41421805560822 106.07053469866514,91.4611366027384 105.33333333325572,95.87985481024953 106.00910125137307,97.44778031797614 116.82138794078492,101.72392279910855 134.51422070525587,100.5836207123939 137.40159271936864,99.58585485036019 139.8589306033682,97.30524178192718 141.08759954525158,94.45446491247276 140.59613196831197,83.76394740812248 136.7258248012513,79.55896541813854 133.40841865795664,78.06227076798677 111.96814562007785,80.12913396017393 107.0534698520787,89.75065748911584 105.64050056878477,96.73508734430652 115.89988623466343,101.65265397343319 135.25142207066528,100.36981386266416 139.1217292379588,98.16047256038291 141.14903299231082,94.59700403379975 140.59613196831197,83.97775937133702 137.58589306054637,80.2716760225012 133.77701934054494,78.133542014868 111.6609783845488,80.2716760225012 106.8077360636089,90.46335763199022 105.8248009099625,97.09143392258557 117.62002275325358,101.79519161721691 133.34698521066457,100.86869640962686 138.87599544948898,98.3030109211104 141.14903299231082,93.67049922130536 140.2275312859565,82.83742814022116 134.45278725866228,78.20481325458968 124.623435722664,78.48989814013476 111.72241183137521,80.48548906098586 106.37770193396136,91.31859683757648 105.88623435725458,97.23397250269772 116.20705346995965,101.79519161721691 131.07394766807556,101.15377198986243 137.64732650783844,99.58585485036019 141.21046643937007,94.73954312613932 140.96473265090026,84.19157126860227 135.7428896476049,78.77498290862422 132.30261660995893,78.133542014868 113.74971558596008,79.48769431759138 110.98521046666428,81.69709503621561 106.07053469866514,92.9578023707727 105.70193401607685,96.59254866180709 108.71217292407528,98.65935669466853 115.89988623466343,101.86646042828215 133.83845278737135,100.79742749623256 137.5244596132543,99.65712388796965 141.21046643937007,94.59700403379975 141.08759954525158,83.90648872428574 136.05005688313395,78.91752524883486 132.364050057251,78.27608448709361 113.56541524478234,79.55896541813854 111.9067121730186,80.41421805560822 110.06370876007713,83.47886468819343 105.45620022737421,96.09366304246942 106.50056882831268,97.51904957502848 116.02275312878191,101.93772923201323 132.4869169513695,100.93996531557059 137.7701934017241,99.158240470686 140.53469852125272,96.30747120885644 141.33333333325572,93.95557775709312 141.08759954525158,84.54792428459041 138.13879408454522,80.62803105049534 134.02275312878191,78.41862692969153 112.5210466440767,79.98659186856821 107.7906712172553,88.32525500911288 105.57906712195836,96.5212793094106 115.65415244596079,101.72392279910855 119.7701934017241,101.79519161721691" stroke="#4DD2FF" stroke-linecap="round" stroke-linejoin="round" stroke-width="0.5"><title>2025-10-08 10.1km</title><desc>1759925805000</desc></polyline><polyline fill="none" points="162.59552495693788,79.64881923765643 157.700516351033,81.94911771622719 153.30120481923223,91.2221193331061 152.06196213443764,96.11016378796194 152.99139414797537,97.6197000334505 162.47160068852827,101.93264280626317 181.49397590360604,100.56688046862837 184.34423407935537,99.6324099660269 187.62822719453834,94.81627298763487 187.3803786574863,84.39317657065112 186.14113597245887,82.02100192196667 180.87435456109233,78.42678259772947 171.14629948348738,78.57055172487162 158.50602409616113,80.58331640582765 154.2925989672076,88.20301600848325 152.06196213443764,95.75074991642032 155.4079173838254,98.55417322163703 162.2857142854482,101.64511411450803 177.83820998272859,101.0700563765713 184.34423407935537,99.41676275013015 186.88468158384785,96.97275632666424 187.81411359715275,94.52874137426261 187.75215146294795,84.96824800246395 184.5920826161746,80.43954769195989 180.56454388960265,78.35489802318625 159.00172117049806,80.08012577804038 154.2925989672076,88.34678312850883 152.0,96.46957747486886 162.47160068852827,101.78887847519945 183.78657487081364,99.7761747399345 187.50430292612873,95.82263270561816 187.81411359715275,85.04013189836405 186.20309810666367,81.80534928274574 180.81239242688753,78.21112885157345 158.50602409616113,80.15201017545769 153.425129087409,90.21575300447876 152.4337349398993,96.39769475208595 162.40963855409063,101.57323192298645 180.7504302924499,100.56688046862837 184.34423407935537,99.48864516284084 187.9380378657952,95.17568733874941 187.50430292612873,83.88998868025374 184.777969018789,80.43954769195989 180.99827882973477,78.13924425485311 159.1256454391405,79.7207036796026 153.98278829595074,89.06561828649137 152.0,96.0382810283918 155.03614457836375,98.69793821661733 163.2151462994516,101.78887847519945 183.91049913922325,100.06370419904124 188.0,94.81627298763487 186.82271944941022,82.45230700128013 182.73321858863346,78.85808989068028 180.130808950169,77.9954750391189 159.9311531840358,79.7925881142146 157.39070567977615,81.87723350309534 153.67297762469389,90.07198626798345 152.18588640261441,96.75710829143645 158.62994836480357,100.42311585706193 163.89672977640294,102.0045249608811 180.6884681582451,100.78252733073896 185.02581755584106,98.98546811868437 188.0,94.45685845252592 187.75215146294795,85.68708662840072 186.57487091212533,82.30853867094265 182.29948364873417,78.78620536031667 179.82099827867933,78.13924425485311 160.11703958688304,79.50505033193622 157.39070567977615,81.94911771622719 152.5576592083089,93.52237979718484 152.24784853681922,97.18840429524425 162.96729776239954,102.0045249608811 176.84681583452038,100.92629186820704" stroke="#4DD2FF" stroke-linecap="round" stroke-linejoin="round" stroke-width="0.5"><title>2025-10-06 10.0km</title><desc>1759752637000</desc></polyline><polyline fill="none" points="26.648275861982256,119.16292223212076 18.951724137878045,120.02702257671626 12.248275861609727,135.07659954176052 12.993103448068723,137.7408450806979 22.799999999813735,141.98921568511287 40.179310344625264,140.83711772446986 44.027586206793785,139.54100525740068 47.75172413792461,135.14860631112242 47.255172413541004,124.34750833333237 46.01379310316406,121.61120377696352 40.800000000046566,117.93877825530944 18.765517240855843,120.02702257671626 13.986206896137446,129.0280045417603 12.124137930804864,136.2287069624872 13.24137930991128,137.52482554886956 22.862068965099752,141.7731974615017 40.365517241414636,140.76511153916363 44.896551724290475,139.18097359174863 47.75172413792461,135.00459276529728 47.06896551721729,123.5554212697316 44.27586206886917,120.24304749647854 40.48965517245233,118.01078678370686 19.013793103164062,119.95501425524708 15.724137930897996,124.70754761167336 12.0,136.01268696517218 14.482758620055392,138.31689683988225 23.668965516844764,142.06122174469056 40.24137931014411,140.90912390244193 44.77241379278712,139.32498628011672 47.81379310321063,135.00459276529728 47.37931034481153,124.77955544536235 46.13793103443459,122.11526068137027 40.86206896533258,118.15480381826637 19.199999999720603,119.59497253742302 13.427586206467822,129.96410003612982 12.18620689632371,136.44472689321265 22.92413793085143,141.8452035432565 41.11034482740797,141.12514239212032 44.896551724290475,139.61301156849368 48.0,135.29261982743628 47.441379310330376,124.92357109021395 46.26206896547228,122.18726878112648 41.048275862121955,118.15480381826637 22.05517241358757,119.16292223212076 18.455172413494438,120.17103919718647 13.67586206854321,129.67607078619767 12.124137930804864,136.73275336407823 23.172413792926818,141.91720961785177 39.80689655151218,141.12514239212032 44.648275861982256,139.61301156849368 47.93793103448115,135.14860631112242 47.37931034481153,124.70754761167336 45.26896551717073,121.25116290926235 40.67586206877604,118.08279530482832 18.889655172126368,119.81099759030621 13.737931034294888,129.4600487712887 12.062068965053186,136.66074675758136 22.986206896370277,141.98921568511287 40.98620689660311,141.05313623626716 44.77241379278712,139.46899893908994 48.0,134.64455877133878 47.255172413541004,123.91546095506055 45.64137931005098,121.3951792785665 40.86206896533258,118.08279530482832 18.579310344532132,119.81099759030621 13.303448275430128,130.5401581810438 12.248275861609727,136.94877313950565 21.931034482317045,141.8452035432565 31.365517241181806,141.62918527546572" stroke="#4DD2FF" stroke-linecap="round" stroke-linejoin="round" stroke-width="0.5"><title>2025-10-02 10.0km</title><desc>1759407705000</desc></polyline><polyline fill="none" points="78.92429378558882,119.02805401047226 65.86666666693054,120.65617620025296 59.39887005649507,133.82258832792286 59.27683615847491,136.2293246606714 65.62259887019172,140.47648593544727 70.19887005654164,142.1045574892778 87.10056497203186,141.11355787079083 91.85988700552844,138.21133651043056 93.38531073485501,134.67202563968021 93.81242937874049,124.26634647441097 91.1276836162433,120.65617620025296 85.81920903967693,117.82465687801596 66.35480225994252,119.806721624278 59.337853107601404,132.19449722231366 58.97175141260959,136.01696591021027 69.16158192115836,142.03377184958663 80.9988700565882,140.97198638034752 85.51412429404445,141.67984354152577 91.31073446338996,139.0607684168499 93.75141242938116,133.82258832792286 93.93446327699348,123.91240904800361 88.87005649739876,118.88647798617603 86.18531073466875,118.03702123038238 65.50056497193873,120.37302479124628 61.107344632735476,128.4427943896735 58.7887005652301,136.6540419650264 69.64971751417033,142.17534312192583 87.71073446329683,140.83041486120783 91.1276836162433,139.27312622970203 94.11751412437297,135.66303451446583 93.87344632786699,124.76185856643133 89.96836158214137,120.08987326582428 86.06327683641575,118.2493855173816 65.56158192106523,120.23144904302899 59.27683615847491,132.83157680829754 59.21581920911558,137.36190355790313 69.58870056504384,142.1045574892778 86.67344632791355,140.83041486120783 91.18870056490414,138.98998246452538 94.05649717547931,134.45966640970437 94.42259887000546,124.90343338472303 88.80903954827227,119.45278190885438 85.14802259905264,118.3201735985931 65.13446327694692,120.72696403425653 60.43615819211118,129.5753860747791 58.7887005652301,136.37089712440502 69.58870056504384,142.03377184958663 86.85649717529304,140.83041486120783 90.51751412427984,139.62705577298766 94.05649717547931,135.45067558955634 94.36158192111179,125.39894501894014 90.15141242928803,120.16066115826834 86.85649717529304,118.53253779845545 65.68361581931822,120.37302479124628 60.37514124298468,129.92932059487794 58.7887005652301,136.3001108961762 69.46666666679084,142.1045574892778 87.28361581941135,140.68884331273148 91.00564971752465,139.48548397765262 94.11751412437297,135.94617964565987 94.2395480228588,124.54949628491886 90.02937853126787,120.5146005100687 86.36836158204824,118.7449019330088 65.68361581931822,120.44381265429547 61.2903954803478,127.80571074935142 58.7887005652301,136.4416833455325 69.28361581941135,141.82141488656634 90.33446327713318,139.62705577298766 94.2395480228588,135.23831659951247 94.42259887000546,125.18658293341286 90.51751412427984,120.5146005100687 86.06327683641575,118.53253779845545 65.25649717543274,120.65617620025296 60.25310734473169,130.4956154493848 58.910734463483095,136.8664005191531 69.71073446329683,141.96298620238667 88.01581920916215,140.5472717351513 90.76158192101866,139.55626987892902 94.30056497175246,135.23831659951247 94.17853107349947,124.62028371938504 92.34802259900607,122.1427191902767 86.85649717529304,118.46174973913003 65.74463276867755,120.3022369206301 60.68022598885,129.22145137289772 58.66666666674428,136.4416833455325 69.77175141265616,141.89220054808538 90.21242937864736,139.7686275394517 94.42259887000546,134.53045282675885 93.87344632786699,124.54949628491886 89.96836158214137,120.16066115826834 86.55141242942773,118.53253779845545 65.56158192106523,120.37302479124628 60.07005649711937,130.6371890901355 58.7887005652301,136.15853841777425 64.15819209069014,139.7686275394517 70.56497175153345,141.82141488656634 87.10056497203186,140.83041486120783 90.27344632777385,139.9101992767537 93.38531073485501,137.2203312976053 94.66666666674428,132.3360705145169 94.30056497175246,125.32815766433487 93.20225988724269,122.77980806224514 86.97853107354604,118.39096167241223 78.0700564973522,118.81568996317219 67.14802259905264,119.806721624278 64.58531073457561,121.36405421415111 60.25310734473169,130.42482861789176 58.7887005652301,136.4416833455325 59.76497175148688,137.99897837056778 63.30395480268635,139.48548397765262" stroke="#4DD2FF" stroke-linecap="round" stroke-linejoin="round" stroke-width="0.5"><title>2025-09-29 16.1km</title><desc>1759146700000</desc></polyline><polyline fill="none" points="124.8514056224376,120.40361289010616 120.01835915097035,119.10969313647365 113.82214572560042,119.6128844358027 111.71543316124007,120.83491894340841 107.68789443466812,128.16708120662952 105.33333333325572,136.64929079654394 116.61044176691212,142.2561187033425 134.57946069957688,140.89035706635332 137.3057946069166,139.81212231400423 141.02352266199887,134.20527484075865 140.58978772209957,123.78216986445477 138.11130235204473,120.47549725085264 132.90648307511583,117.60011706891237 112.27309236931615,119.54099998669699 106.82042455510236,130.03605146612972 105.45725760166533,136.36175995023223 112.582903040573,140.6747102487716 117.04417670657858,142.11235444591148 137.11990820406936,139.9558870436158 140.713711990742,135.0678696813411 140.713711990742,125.00419709651032 139.28858290310018,121.76941448089201 133.15433161193505,117.88765561836772 112.21113023511134,119.75665331236087 107.87378083728254,127.95143047120655 105.33333333325572,136.0742289861082 108.8032128510531,138.80576838064007 116.48651749826968,142.1842365784687 135.26104417652823,140.74659252888523 137.92541594943032,139.52459276630543 141.14744693040848,136.00234622653807 140.77567412517965,124.57289361121366 138.85484796320088,121.40999326779274 133.21629374637268,117.88765561836772 112.1491681006737,119.68476887774887 105.829030407127,133.2707958976389 105.95295467576943,137.4400000150199 116.67240390134975,142.11235444591148 134.64142283401452,140.89035706635332 137.49168100976385,139.8840046824189 141.02352266199887,134.8522210707888 140.96156052779406,124.93231320061022 139.22662076866254,121.55376177519793 133.89787722285837,117.95954023726517 112.0252438322641,120.18795976391993 108.05966724012978,127.44824516313383 105.45725760166533,136.00234622653807 107.13023522659205,138.01506070414325 116.54847963270731,141.89670800440945 137.11990820406936,140.17153408256127 140.96156052779406,135.85858068533707 141.14744693040848,125.00419709651032 139.9701663798187,122.4163721994264 133.71199082047679,117.95954023726517 112.45897877239622,119.54099998669699 108.18359150877222,126.94505949376617 105.39529546769336,136.289877220348 116.30063109565526,142.11235444591148 134.3935742971953,141.03412157471757 137.73952954704873,139.81212231400423 140.5278255881276,136.9368215248105 141.2094090648461,134.27715778461425 140.83763625938445,124.21347383689135 140.0940906482283,122.48825635330286 135.69477911642753,118.75027055846294 132.16293746395968,117.74388635839568 115.30923694744706,119.1815776299918 111.65347102680244,120.33172852208372 107.13023522659205,129.6047510796343 105.51921973587014,136.79305617546197 110.97188755008392,140.31529873842373 116.79632816975936,142.39988293108763 135.38496844517067,140.6028279615566 138.04934021807276,139.38082794827642 140.83763625938445,136.289877220348 141.33333333325572,134.27715778461425 140.713711990742,123.71028584335 135.94262765347958,118.96592412731843 132.34882386680692,117.95954023726517 112.52094090613537,119.82853773923125 107.13023522659205,129.74851790466346 105.64314400427975,134.20527484075865 105.829030407127,137.2243521347409 117.16810097522102,142.32800082088215 135.88066551904194,140.53094566677464 140.77567412517965,136.72117348958272" stroke="#4DD2FF" stroke-linecap="round" stroke-linejoin="round" stroke-width="0.5"><title>2025-09-26 12.0km</title><desc>1758887292000</desc></polyline><polyline fill="none" points="170.37241379311308,118.73087415151531 162.86206896509975,118.94689947052393 159.13793103420176,120.02702506753849 154.7310344823636,127.87588778609643 152.24827586160973,136.73275585490046 162.7379310342949,142.20523633260746 180.9862068966031,140.98113256378565 184.33793103438802,139.6850203628419 187.44137931033038,134.068506487587 187.68965517240576,124.49152655759826 183.53103448241018,119.66698338655988 179.37241379311308,117.79476366739254 159.1999999997206,119.9550167460693 154.29655172373168,128.5239550950937 152.1862068963237,136.6607492484036 162.67586206877604,141.9892181759351 181.4206896550022,140.8371202152921 184.89655172429048,139.25298243045108 187.68965517240576,133.78047892299946 187.7517241379246,124.56353441323154 186.01379310316406,121.8992388289771 180.36551724141464,118.08279779565055 158.88965517212637,120.1710416880087 154.54482758580707,128.09191028913483 152.1862068963237,136.44472938403487 162.86206896509975,141.9892181759351 181.73103448259644,140.76511402998585 184.4000000001397,139.6130140593159 187.7517241379246,135.14860880194465 187.68965517240576,124.63554226164706 183.59310344816186,119.66698338655988 180.11724137933925,118.1548063090886 159.01379310316406,119.52296666271286 152.7448275857605,132.4123463757569 152.24827586160973,137.02078220731346 163.48275862052105,142.06122423551278 180.55172413773835,140.90912639326416 184.21379310335033,139.82903294777498 187.8758620689623,134.5725544411107 187.68965517240576,124.41951869451441 186.1999999997206,121.97124695085222 180.7379310342949,118.1548063090886 158.64137931005098,120.02702506753849 154.4827586200554,128.01990279561142 152.0620689650532,136.44472938403487 163.5448275860399,141.917212108674 180.86206896533258,140.76511402998585 184.5862068964634,139.46900142991217 187.7517241379246,134.356533934013 187.7517241379246,124.3475108241546 184.33793103438802,120.38706656353315 180.2413793101441,118.22681481525069 159.13793103420176,119.88300841714954 157.58620689623058,121.25116540008457 154.4206896550022,128.16391777526587 152.1862068963237,135.86867608770262 154.60689655155875,138.38890576723497 162.6137931032572,141.9892181759351 181.2965517239645,140.8371202152921 184.89655172429048,139.39699510397622 187.93793103448115,134.86058168066666 187.81379310321063,124.63554226164706 186.01379310316406,121.97124695085222 180.30344827566296,118.22681481525069 158.70344827580266,120.1710416880087 154.29655172373168,128.30793272529263 152.1862068963237,137.02078220731346 163.17241379292682,141.84520603407873 181.91724137915298,140.6931078370544 184.5862068964634,139.6130140593159 187.7517241379246,135.9406827755738 187.44137931033038,124.3475108241546 186.5103448277805,122.47530359664233 181.91724137915298,118.73087415151531 179.18620689655654,118.08279779565055 159.448275861796,119.66698338655988 157.46206896542571,121.61120626778575 154.23448275844567,128.30793272529263 152.0,135.58064926206134 152.7448275857605,137.30880844185594 161.49655172391795,141.4851755509735 182.0413793104235,140.5490954296547 186.9448275861796,136.94877563032787 188.0,131.76428265904542" stroke="#4DD2FF" stroke-linecap="round" stroke-linejoin="round" stroke-width="0.5"><title>2025-09-14 12.0km</title><desc>1757851744000</desc></polyline><polyline fill="none" points="30.915254237363115,158.60332675883546 18.46779661020264,160.37302479112986 13.83050847472623,169.3630206612288 12.0,176.4416750985547 22.800000000046566,181.67983260628534 36.955932203214616,180.97197580861393 42.93559322040528,180.05176088534063 46.53559322026558,176.4416750985547 48.0,164.76185631385306 47.02372881351039,162.85059440654004 42.75254237302579,159.31120651686797 39.94576271180995,158.32017465220997 18.772881356300786,160.0190855480614 14.562711864709854,167.80570693453774 12.305084746098146,176.65403360925848 22.49491525418125,181.6090469590854 39.51864406769164,180.68883288599318 44.21694915252738,179.27311652968638 47.38983050826937,174.38887279178016 47.38983050826937,164.05398215114838 40.31186440680176,158.24938660732005 18.71186440694146,160.23144911573036 14.318644067738205,168.3012162290397 12.122033898485824,176.22931652260013 22.800000000046566,181.67983260628534 40.49491525441408,180.61804713710444 43.97288135602139,179.41468829615042 47.511864406755194,174.03494074207265 47.38983050826937,164.97421842115 46.291525423759595,162.49665643507615 39.94576271180995,158.1785985553288 18.772881356300786,159.94829767750343 13.40338983060792,170.3540366566158 12.061016949126497,175.80459917453118 12.915254237363115,177.36189483880298 22.92203389853239,181.82140387862455 40.49491525441408,180.61804713710444 44.09491525404155,179.34390241641086 46.96271186438389,175.73381292441627 47.084745762636885,165.3989424391766 45.5593220340088,162.00114296982065 40.1898305087816,158.24938660732005 18.772881356300786,160.0190855480614 14.501694915350527,167.9472810549778 12.122033898485824,176.4416750985547 22.800000000046566,181.7506182459765 41.16610169480555,180.54726138117258 43.7288135595154,179.4854741683812 47.32881355914287,174.53044556087116 47.084745762636885,164.97421842115 45.864406779641286,162.28429356502602 40.49491525441408,158.32017465220997 21.945762711809948,159.24041857366683 18.223728813696653,160.23144911573036 13.40338983060792,170.28324984689243 12.244067796738818,176.65403360925848 22.189830508548766,181.6090469590854 39.09152542380616,180.75961862748954 43.60677966102958,179.697831741767 47.20677966112271,175.30909527122276 47.02372881351039,164.62028153950814 45.0101694916375,161.50562914845068 39.45762711879797,158.10781049600337 18.772881356300786,160.0190855480614 13.40338983060792,170.0708893747069 12.122033898485824,176.51246127591003 22.73898305092007,181.89218950405484 42.69152542366646,180.122546692146 46.291525423759595,177.00796431460185 47.4508474576287,174.24729999387637 46.65762711875141,163.98319469491253 41.71525423740968,158.95726672862656 38.90847457619384,158.24938660732005 22.616949152667075,159.24041857366683" stroke="#4DD2FF" stroke-linecap="round" stroke-linejoin="round" stroke-width="0.5"><title>2025-09-11 11.0km</title><desc>1757592695000</desc></polyline><polyline fill="none" points="78.30303030321375,158.07247962034307 77.50028587807901,158.86049699247815 65.52086906833574,159.79178910329938 60.333905088715255,169.82101000187686 59.03716409392655,176.91301493125502 69.71983990864828,181.8558848410612 90.5911949686706,179.85008677910082 94.66666666674428,174.7639301387244 94.4196683820337,165.30787843308644 92.81417953129858,162.01255758304615 87.56546598067507,158.2873935372918 66.32361349347048,159.50523781689117 64.7798742139712,160.723079971096 60.76615208690055,168.67482062219642 58.66666666674428,175.551928664383 61.26014865655452,178.20246263063746 69.47284162417054,181.8558848410612 88.4917095482815,180.63807956228266 91.20869068033062,179.4919079472893 94.66666666674428,175.26538384892046 94.66666666674428,166.02425047190627 93.36992567195557,162.65729549527168 87.13321898248978,158.2873935372918 65.27387078339234,159.93506470212014 60.64265294466168,169.0330050055636 58.79016580921598,175.9817456668825 59.83990851929411,177.41446709731827 69.84333905088715,181.92752037965693 87.50371640967205,180.78135088196723 91.08519153832458,179.63517950213281 94.60491709574126,175.26538384892046 94.4196683820337,165.09296667808667 92.567181246588,161.86928241030546 87.07146941125393,158.21575557236793 65.9531160662882,159.50523781689117 61.0748999430798,168.31663605495123 58.91366495145485,176.4831985020428 70.39908519177698,181.92752037965693 87.9977129790932,180.70971522590844 90.77644368237816,179.77845102752326 94.5431675245054,175.40865627134917 94.5431675245054,165.16460393706802 92.8759291023016,162.01255758304615 86.5157232703641,158.07247962034307 66.01486563775688,159.6485134747927 60.95140080084093,168.4599099040497 58.85191538068466,175.48029247141676 59.28416237863712,177.27119508682517 70.89308176096529,181.92752037965693 89.4179531163536,180.4231725279824 94.23441966855898,175.9817456668825 94.04917095485143,163.87513214931823 88.98570611770265,158.86049699247815 86.26872498588637,158.1441176001681 65.58261863910593,159.79178910329938 59.46941109211184,172.54320223419927 59.16066323639825,177.05628701549722 69.905088622123,181.7842492951313 87.87421383685432,180.63807956228266 91.45568896504119,179.13372893177439 94.60491709574126,174.47738499974366 94.23441966855898,165.16460393706802 93.24642652948387,162.51402045530267 87.62721555191092,158.3590314949979 78.61177815916017,158.3590314949979 66.87935963412747,159.50523781689117 65.15037164115347,160.43652906734496 59.40766152110882,172.75811169523513 59.28416237863712,177.19955907028634 70.21383647806942,181.8558848410612 88.86220697546378,180.49480821361067 93.49342481442727,176.91301493125502 94.66666666674428,173.11629398271907 93.92567181237973,163.87513214931823 89.23270440264605,159.1470485435566 85.52773013152182,158.21575557236793 70.70783304749057,159.21868641290348" stroke="#4DD2FF" stroke-linecap="round" stroke-linejoin="round" stroke-width="0.5"><title>2025-09-09 11.0km</title><desc>1757419935000</desc></polyline><polyline fill="none" points="125.52544311038218,157.78593133046525 123.05546026304364,158.86050080507994 112.18753573484719,159.8634308221517 106.81532304151915,170.17919877154054 105.39508290425874,176.69811239361297 115.9542595767416,182.21406866947655 133.42938822181895,181.06789952504914 137.6283590621315,179.77845698746387 140.83933676383458,175.2653893455863 141.20983419101685,163.87513647676678 138.4311034877319,160.7230839750846 134.1703830761835,158.1441213391954 112.00228702137247,160.07834420964355 107.0005717552267,169.82101493951632 105.33333333325572,176.19665966113098 106.50657518580556,177.62938079761807 115.64551172102802,182.14243315317435 137.07261292170733,180.06499997951323 141.08633504854515,174.76393558393465 141.20983419101685,165.164608396939 139.78959405375645,162.22747444483684 134.41738136089407,158.28739729122026 112.18753573484719,160.07834420964355 107.1240708976984,169.24792042648187 105.45683247572742,175.91011508111842 106.25957690086216,177.4861088161706 116.0777587192133,181.99916209850926 133.9233847912401,180.99626389087643 138.4928530587349,178.70391971967183 140.4070897656493,174.83557185757672 141.33333333325572,167.52863406256074 140.16009148093872,162.585662174155 134.1703830761835,158.1441213391954 112.61978273279965,160.00670642097248 107.86506575183012,167.60027107904898 105.39508290425874,176.62647631095024 116.13950829068199,182.21406866947655 137.07261292170733,179.99336424242938 141.02458547754213,174.97884438297478 141.02458547754213,165.30788290750934 139.2955974843353,161.79764892731328 133.79988564900123,158.1441213391954 112.31103487708606,159.79179301147815 106.25957690086216,171.82684203033568 106.01257861638442,177.3428368056775 116.13950829068199,181.92752655991353 134.91137793008238,180.78135694476077 137.4431103488896,179.77845698746387 140.65408805035986,174.83557185757672 140.65408805035986,164.1616859982023 137.4431103488896,160.29325753089506 133.49113779328763,158.1441213391954 115.15151515160687,159.2903281317558 111.6317895941902,160.29325753089506 106.19782733009197,172.1133882869617 105.5185820471961,176.62647631095024 116.26300743268803,182.07079762947978 133.24413950834423,181.06789952504914 137.4431103488896,179.70682122098515 140.65408805035986,174.90720812388463 140.90108633507043,164.59151005983585 137.87535734684207,160.5081707861973 132.8118925099261,158.07248335209442 111.87878787890077,159.93506862525828 106.38307604356669,171.39702242490603 105.64208118920214,176.8413845364703 116.57175528863445,181.85589101398364 135.09662664378993,180.566449932463 140.03659233846702,176.98465665010735 141.08633504854515,172.97302635124652 140.77758719283156,164.5198727346724 139.974842767464,162.585662174155 136.02287021139637,159.2903281317558 133.18238993687555,158.1441213391954 115.39851343608461,159.2903281317558" stroke="#4DD2FF" stroke-linecap="round" stroke-linejoin="round" stroke-width="0.5"><title>2025-09-06 11.0km</title><desc>1757162103000</desc></polyline><polyline fill="none" points="170.4344827583991,158.62286025780486 159.9448275861796,159.41495293122716 158.1448275859002,160.4950778632192 152.99310344806872,171.44025002466515 152.0,176.48073240648955 161.6827586204745,181.8092029747786 169.31724137929268,181.95321513112867 181.5448275860399,180.80111705244053 185.70344827580266,178.56892164080637 188.0,174.60855746356538 187.37931034481153,163.44741085742135 182.47586206905544,158.6948687196127 179.80689655151218,157.83076668984722 170.86896551703103,158.04679229698377 158.70344827580266,159.84700310358312 153.6137931032572,169.56806163024157 152.0,176.192705817346 162.86206896509975,182.02522119838977 181.11034482740797,181.01713558624033 184.5862068964634,179.86503597022966 187.93793103448115,173.81648194545414 187.50344827584922,163.95146646833746 186.01379310316406,161.64720929024043 179.9310344827827,157.90277523291297 158.51724137924612,159.84700310358312 153.86206896509975,169.28003220289247 152.0,176.55273903516354 162.42758620693348,182.09722725796746 184.08965517254546,180.15306105167838 187.8758620689623,174.75257109833183 187.50344827584922,163.44741085742135 182.53793103434145,158.76687717397 179.9310344827827,157.97478376858635 158.76551724085584,159.99101976852398 154.54482758580707,167.55185315629933 152.0,176.33671912667342 153.30344827543013,177.7768505939748 163.17241379292682,182.16923331021098 181.7931034481153,180.87312323774677 184.27586206886917,179.93704225157853 187.56551724136807,175.11260505503742 187.62758620688692,164.88756878487766 186.8206896551419,162.58331468165852 181.17241379315965,158.19080933154328 158.95172413787805,159.77499476011144 154.54482758580707,167.4798456034623 152.12413793080486,176.76875887735514 162.3655172411818,181.8092029747786 179.80689655151218,180.87312323774677 184.21379310335033,179.7930296815466 187.8758620689623,175.97668579802848 187.62758620688692,165.1756000154419 186.01379310316406,161.93524185143178 180.17931034462526,158.04679229698377 158.70344827580266,159.84700310358312 153.79999999981374,169.42404693138087 152.12413793080486,176.48073240648955 162.17931034462526,182.02522119838977 183.96551724127494,180.08105479250662 187.8758620689623,175.25661858631065 187.7517241379246,164.81556095863925 185.95172413811088,161.57520113157807 180.80000000004657,158.11880081810523 161.55862068966962,159.19892774539767 158.1448275859002,160.27905300975544 152.49655172391795,172.95239854202373 152.12413793080486,176.69675227085827 162.42758620693348,181.8092029747786 183.6551724136807,180.15306105167838 187.62758620688692,175.61665228451602 187.50344827584922,164.4555217169691 186.01379310316406,161.8632337221643 180.2413793101441,158.04679229698377 159.448275861796,159.34294454340125" stroke="#4DD2FF" stroke-linecap="round" stroke-linejoin="round" stroke-width="0.5"><title>2025-08-31 11.1km</title><desc>1756643837000</desc></polyline><polyline fill="none" points="31.56249999976717,197.20244841452222 28.62499999976717,198.72512922255555 17.9375,199.88526477786945 12.87499999976717,211.70403716852888 12.4375,216.6345095281722 23.0625,222.21750286023598 40.56249999976717,220.91239148780005 45.37499999976717,218.3746680272161 47.62499999976717,214.74933298362885 47.87499999976717,204.23575614055153 44.625,200.10278998228023 40.56249999976717,197.78251768072369 18.87499999976717,199.66773950646166 14.37499999976717,208.2236830186448 12.49999999976717,213.4442078131251 12.375,216.9245362424408 22.74999999976717,222.5075272823451 41.4375,220.83988522959407 45.12499999976717,219.09973280347185 47.9375,213.80674282461405 47.68749999976717,203.80070821003756 43.93749999976717,199.37770570692373 39.74999999976717,197.4924831071403 18.625,200.03028158837697 14.37499999976717,207.93365273211384 12.12499999976717,216.70701621792978 23.31249999976717,222.4350211881101 43.87499999976717,219.82479683525162 46.0625,217.64960250706645 47.81249999976717,213.5892218402587 47.56249999976717,203.72820019570645 45.1875,200.68285686714808 40.31249999976717,197.63750040880404 18.56249999976717,200.10278998228023 13.31249999976717,210.39890637178905 12.0,216.0544557426474 14.37499999976717,218.7372005082434 23.49999999953434,222.79755158547778 44.18749999976717,219.96980955236359 47.68749999976717,214.60431919491384 47.81249999976717,203.72820019570645 45.99999999976717,201.40793980262242 40.25,197.78251768072369 22.62499999976717,199.23268876265502 18.31249999953434,200.68285686714808 13.56249999976717,210.32639903470408 12.0,216.56200283108046 13.875,218.3746680272161 22.99999999976717,222.5075272823451 43.93749999976717,220.18732857203577 47.56249999976717,214.24178459285758 47.56249999976717,203.80070821003756 43.12499999976717,199.01516329008155 39.87499999976717,197.4924831071403 18.4375,200.10278998228023 14.37499999976717,208.07866789028049 12.12499999976717,216.1269624918932 13.8125,218.22965498262784 22.93749999976717,222.4350211881101 42.06249999976717,221.0574039813364 44.625,219.67978408839554 47.1875,215.9819489858928 47.62499999976717,203.80070821003756 45.12499999976717,200.68285686714808 40.31249999976717,197.4924831071403 18.6875,199.9577731869649 14.31249999976717,208.151175457926 12.5625,213.0816726158955 12.375,216.6345095281722 23.4375,222.4350211881101 42.99999999976717,220.83988522959407 46.87499999976717,217.06954955484252 48.0,213.37170078861527 47.87499999976717,204.23575614055153 42.62499999976717,198.58011214411817 37.62499999976717,197.4924831071403 23.4375,198.94265478424495" stroke="#4DD2FF" stroke-linecap="round" stroke-linejoin="round" stroke-width="0.5"><title>2025-08-29 11.0km</title><desc>1756472821000</desc></polyline><polyline fill="none" points="76.60523321991786,201.59020728629548 65.54721274203621,202.51673130964627 60.14106939709745,213.2073036809452 59.15813424345106,219.26522162777837 69.97042093309574,224.18278674286557 87.78612059215084,223.11375381081598 92.14789533615112,221.26075949636288 94.48236632579938,216.91333034838317 94.42093287874013,206.0802737227059 87.9089874860365,200.80622445471818 78.32536973874085,200.66368202655576 65.11717861215584,202.73054437019164 60.69397042109631,211.71063345804578 59.15813424345106,219.19395231216913 69.04891922650859,224.18278674286557 76.85096700815484,224.04024911369197 90.18202502885833,222.61487121263053 92.33219567732885,220.97568300925195 94.54379977285862,216.91333034838317 94.48236632579938,206.0802737227059 89.19908987544477,201.3763938745251 82.37997724721208,200.5211395691731 66.40728100156412,201.9465628261678 64.31854380015284,204.01342135079904 61.246871444862336,210.35650047648232 59.096700796624646,218.62379752343986 70.46188850980252,224.39659313170705 89.07622298109345,222.97121596208308 93.49943117215298,219.47902953100856 94.66666666674428,216.27190407167654 94.6052332201507,206.7217094147345 88.27758816885762,200.87749565776903 67.75881683756597,201.8040206321748 64.74857792956755,203.51452502893517 61.246871444862336,210.35650047648232 58.912400455446914,218.26745054282947 60.26393629121594,220.1204528452363 68.74175199097954,224.04024911369197 74.76222980674356,224.18278674286557 89.69055745215155,222.82867808442097 94.05233219615184,218.7663362644962 94.11376564321108,206.36535632575396 89.07622298109345,201.30512272269698 79.55403868085705,200.59241080167703 67.51308304909617,201.66147840890335 65.05574516486377,202.6592733571888 61.246871444862336,210.6415813236963 59.096700796624646,216.84206079144496 59.64960182015784,219.90664513973752 69.72468714485876,224.32532434276072 88.40045506274328,223.11375381081598 90.980659841327,221.97345020255307 93.31513083074242,219.05141365888994 94.42093287874013,216.20063444867264 94.54379977285862,210.07141951227095 94.35949943144806,206.6504388114554 93.0079635954462,204.36977564694826 88.03185438015498,200.73495324427495 71.50625711050816,201.59020728629548 59.15813424345106,195.60340686829295 58.66666666674428,197.31392654118827 59.526734926272184,199.95096944691613 63.33560864627361,205.2250252114609 59.15813424345106,216.05809518083697 58.97383390227333,218.48125875310507 59.95676905591972,219.8353758896119 69.11035267380066,224.04024911369197 88.5233219570946,223.11375381081598 93.06939704273827,219.69283736817306 94.54379977285862,215.6304772022413 93.49943117215298,204.93994214053964 88.83048919285648,201.09130922320765 78.32536973874085,200.66368202655576 69.2946530149784,201.59020728629548 65.6700796361547,202.51673130964627 63.88850967027247,204.79740056104492 59.15813424345106,216.55698249017587 59.833902161801234,219.8353758896119 68.80318543827161,223.8977114551817 71.50625711050816,224.18278674286557 77.83390216180123,223.75517376762582 89.62912400485948,219.6215680965106 82.99431171803735,222.61487121263053 89.32195676933043,222.75740913441405 93.25369738368317,219.47902953100856 94.42093287874013,216.05809518083697 94.17519909050316,208.43220169632696 93.43799772532657,205.29629596113227 91.34926052344963,203.0868993247277 86.98748577968217,200.59241080167703 72.91922639380209,201.44766501913546" stroke="#4DD2FF" stroke-linecap="round" stroke-linejoin="round" stroke-width="0.5"><title>2025-08-27 11.4km</title><desc>1756300085000</desc></polyline><polyline fill="none" points="138.14423622959293,217.50624275242444 140.84270300972275,215.01606385211926 140.65871663833968,204.34376723668538 135.99772856314667,199.29215620819014 132.6246450881008,198.08261007635156 111.95684270304628,200.1459522069199 107.17319704708643,209.39534144941717 105.33333333325572,216.0832844763645 108.70641680876724,218.7869027038687 115.82055650209077,221.9173948460957 134.95513912546448,220.70788819424342 137.71493469621055,219.4983794320724 140.72004542895593,214.87376764474902 140.78137421933934,203.9880211863201 135.32311186823063,198.79410805657972 132.74730266910046,198.01146023819456 112.50880181742832,199.64790466881823 107.84781374200247,207.54547347477637 105.33333333325572,216.15443245944334 110.30096536083147,219.4983794320724 116.92447473038919,222.05968960741302 136.9789892109111,219.92526511853794 140.59738784795627,215.15836003032746 141.33333333325572,204.7706622563419 137.77626348659396,200.71514895517612 133.7285633161664,198.1537599071744 112.14082907466218,199.8613536574412 107.9704713227693,207.47432460804703 105.51731970487162,216.01213648577686 106.74389551393688,217.50624275242444 116.67915956862271,222.05968960741302 133.60590573539957,220.9924781845766 137.22430437267758,219.8541175221908 140.59738784795627,215.08721194474492 141.02668938110583,204.7706622563419 138.0215786488261,201.07089668535627 132.50198750710115,198.01146023819456 112.01817149366252,200.07480258034775 107.41851220885292,208.96844927826896 105.51731970487162,216.15443245944334 108.46110164700076,218.7157549909316 116.61783077800646,222.05968960741302 132.5633162977174,221.3482155081001 137.5922771152109,219.56952706479933 140.65871663833968,213.8065451584407 140.90403180010617,204.69951310456963 136.85633162991144,200.07480258034775 132.134014764335,198.01146023819456 111.89551391243003,200.00365294679068 107.23452583770268,209.3241927723284 105.39466212363914,216.36787636531517 116.00454287324101,221.98854223039234 136.91766042029485,220.3521505421959 141.14934696210548,215.5141003478202 140.84270300972275,204.55721477943007 138.94151050550863,201.64009267406072 132.74730266910046,197.94031039258698 112.01817149366252,199.71905433916254 106.06927881902084,212.66817269509193 105.51731970487162,216.0832844763645 106.37592277140357,217.57739058986772 116.92447473038919,222.05968960741302 134.709823963698,220.9213306978345 137.46961953444406,219.78296991885873 140.04542873380706,216.8659118898213 141.02668938110583,212.95276598638156 140.78137421933934,204.98410966765368 139.86144236219116,202.77848324883962 135.8137421917636,199.2210064943065 132.99261783063412,198.22490973077947 114.6553094831761,199.29215620819014" stroke="#4DD2FF" stroke-linecap="round" stroke-linejoin="round" stroke-width="0.5"><title>2025-08-21 10.0km</title><desc>1755782353000</desc></polyline><polyline fill="none" points="186.75862068962306,217.3448107103468 187.93793103448115,214.39253650570754 187.255172413541,203.5914274409297 182.28965517203324,198.69486987998243 179.37241379311308,197.83076793892542 158.51724137924612,199.84700414561667 152.37241379311308,216.12069852335844 153.36551724094898,217.4888237681589 162.30344827566296,221.52117739082314 183.468965517357,220.22506625403184 187.8758620689623,215.4006315334118 187.13103448273614,204.02347499650205 182.78620689664967,199.48696239118 179.18620689655654,198.3348275339231 158.45517241349444,200.0630291099078 153.7379310342949,211.29623557726154 152.80689655151218,217.12879106792388 163.0482758616563,222.16923206107458 184.02758620679379,219.9370412317803 187.81379310321063,214.68056380434427 187.50344827584922,204.1674907892011 185.45517241372727,201.35917749785585 179.80689655151218,198.11880203755572 158.70344827580266,199.9910207960056 153.9241379306186,209.5680616745958 152.37241379311308,215.97668518446153 153.24137930991128,217.4888237681589 162.67586206877604,221.73719568079105 181.60689655179158,220.65710356552154 184.27586206886917,219.64901609130902 187.68965517240576,215.1846112923231 187.56551724136807,204.31150655262172 182.78620689664967,199.2709372494137 179.9310344827827,198.04679352411767 158.64137931005098,199.91901247453643 153.24137930991128,210.7921852952568 152.0,216.408725112502 163.48275862052105,221.95321390440222 184.52413793071173,219.7930286762421 187.8758620689623,215.1846112923231 187.31724137929268,203.80745125201065 182.28965517203324,199.05491204134887 179.80689655151218,198.19081054371782 158.3931034479756,199.9910207960056 153.7379310342949,210.21612738701515 152.49655172391795,217.3448107103468 162.98620689637028,221.80920176254585 183.7793103447184,219.86503495759098 188.0,214.68056380434427 187.68965517240576,204.4555222860654 185.8896551723592,201.57520199625287 179.74482758622617,198.04679352411767 158.76551724085584,199.77499580959557 153.42758620646782,210.57616363512352 152.37241379311308,217.12879106792388 161.43448275816627,221.59318349475507 165.03448275849223,221.95321390440222 182.78620689664967,220.44108494312968 188.0,215.90467850404093 187.37931034481153,203.80745125201065 182.28965517203324,198.98290362401167 179.37241379311308,198.11880203755572 170.37241379311308,198.26281904254574 160.44137931009755,199.19892885407899 157.95862068934366,200.7831118432223" stroke="#4DD2FF" stroke-linecap="round" stroke-linejoin="round" stroke-width="0.5"><title>2025-07-22 10.0km</title><desc>1753187142000</desc></polyline><polyline fill="none" points="22.597239417023957,261.88239281787537 30.709853754378855,267.5294154116418 38.61965273320675,262.35297856642865 37.40276058297604,239.05886809295043 31.521115188486874,232.70588778774254 25.233839076943696,233.41177535778843 21.177531908266246,238.58827756298706 22.80005477555096,259.529462631559 31.92674590460956,266.5882459457498 38.822468091733754,258.35299663222395 36.38868379127234,236.0000279219821 28.68170017004013,232.70588778774254 23.408500851131976,235.05884550954215 20.97471654973924,240.70593418669887 23.408500851131976,261.17651401576586 30.10140767879784,266.5882459457498 35.78023771569133,264.70590585353784 38.822468091733754,259.529462631559 37.40276058297604,238.11768693639897 31.31829982995987,232.4705918834079 21.177531908266246,237.88239158736542 22.394424059428275,258.35299663222395 29.89859232120216,266.8235383478459 37.40276058297604,263.2941497708671 37.40276058297604,239.2941633220762 32.940822697244585,232.70588778774254 22.191608699969947,236.70591447711922 23.20568549167365,259.0588763044216 29.08733088709414,265.4117835694924 38.01120665855706,258.35299663222395 37.19994522444904,236.70591447711922 33.14363805577159,232.70588778774254 21.785977982915938,236.70591447711922 22.191608699969947,258.35299663222395 29.695776962675154,267.05883072689176 35.577422356233,266.35295351874083 38.822468091733754,261.17651401576586 38.01120665855706,238.58827756298706 33.549268771894276,232.70588778774254 25.03102371841669,233.1764795256313 20.771901191212237,240.47063910332508 22.80005477555096,262.5882714034524 32.940822697244585,268.0 38.822468091733754,262.11768570402637 38.01120665855706,238.58827756298706 29.49296160414815,232.23529595369473 20.97471654973924,239.05886809295043 22.80005477555096,262.11768570402637 32.535191980190575,267.5294154116418 37.40276058297604,266.11766106728464 39.02528345119208,260.94122103368863 36.79431450832635,236.70591447711922 26.85636194422841,232.70588778774254 21.583162624388933,239.2941633220762 23.002870134077966,260.70592802669853 26.653546585701406,265.4117835694924 32.33237662259489,266.35295351874083 38.822468091733754,258.11770336003974 36.591499148868024,237.647096213419 32.33237662259489,233.1764795256313 26.045100511051714,233.1764795256313 21.177531908266246,240.2353439948056 23.20568549167365,261.41180697386153 27.059177303686738,265.8823685925454 32.940822697244585,266.5882459457498 38.61965273320675,260.47063499549404 36.38868379127234,236.23532346496359 25.639469793997705,233.41177535778843 20.97471654973924,240.47063910332508 23.20568549167365,261.17651401576586 32.535191980190575,266.5882459457498 38.822468091733754,257.88241006364115 36.997129866853356,237.17650539404713 27.464808019809425,232.70588778774254 21.38034726586193,238.58827756298706 23.408500851131976,261.88239281787537 30.709853754378855,266.8235383478459 36.38868379127234,264.9411984500475 38.822468091733754,259.7647557586897 36.997129866853356,236.470618983265 26.247915868647397,232.9411836687941 20.97471654973924,241.4118192929309 24.219762285239995,263.76473522838205 33.14363805577159,266.8235383478459 38.822468091733754,260.47063499549404 36.79431450832635,236.9412099479232 29.89859232120216,232.4705918834079 21.38034726586193,239.2941633220762 23.61131620965898,262.5882714034524 31.115484472364187,266.8235383478459 39.02528345119208,259.29416948067956 37.19994522444904,236.70591447711922 29.08733088709414,232.0 21.785977982915938,237.647096213419 23.408500851131976,261.88239281787537 30.91266911290586,266.5882459457498 36.79431450832635,264.70590585353784 39.22809880785644,259.29416948067956 37.605575940571725,238.11768693639897 31.31829982995987,232.23529595369473 23.408500851131976,234.82354984618723 21.38034726586193,239.76475370652042 24.219762285239995,263.05885700532235 33.14363805577159,266.11766106728464 39.02528345119208,259.29416948067956 37.40276058297604,236.9412099479232 32.940822697244585,232.70588778774254 26.653546585701406,232.4705918834079 21.177531908266246,239.76475370652042 23.408500851131976,262.11768570402637 30.709853754378855,267.05883072689176 36.79431450832635,264.9411984500475 39.22809880785644,259.529462631559 37.605575940571725,238.11768693639897 33.95489948987961,232.9411836687941 27.66762337833643,232.0 21.38034726586193,238.58827756298706 23.002870134077966,260.70592802669853 32.33237662259489,267.05883072689176 38.822468091733754,261.41180697386153 37.40276058297604,237.41180081595667 27.464808019809425,232.23529595369473 21.38034726586193,238.58827756298706 23.20568549167365,262.5882714034524 33.549268771894276,267.05883072689176 39.22809880785644,260.94122103368863 37.80839130003005,238.58827756298706 30.507038396783173,232.0 24.219762285239995,233.647071165964 20.97471654973924,239.05886809295043 23.002870134077966,261.17651401576586 30.30422303825617,267.05883072689176 35.98305307421833,265.4117835694924 39.02528345119208,260.2353419410065 37.19994522444904,237.88239158736542 33.14363805577159,232.9411836687941 27.059177303686738,232.23529595369473 21.38034726586193,239.05886809295043 23.002870134077966,261.17651401576586 26.653546585701406,266.11766106728464 32.7380073396489,267.05883072689176 38.822468091733754,260.70592802669853 36.38868379127234,235.7647323552519 28.884515528567135,232.23529595369473 21.583162624388933,238.82357284030877 23.20568549167365,260.94122103368863 30.507038396783173,266.8235383478459 38.61965273320675,261.41180697386153 36.591499148868024,236.470618983265 28.478884811513126,232.23529595369473 21.785977982915938,237.88239158736542 24.01694692671299,262.5882714034524 31.92674590460956,266.8235383478459 38.822468091733754,260.2353419410065 36.591499148868024,236.70591447711922 28.27606945298612,232.23529595369473 21.785977982915938,239.05886809295043 23.20568549167365,259.7647557586897 26.653546585701406,265.1764910216443 33.14363805577159,266.11766106728464 38.822468091733754,258.82358310418203 36.79431450832635,238.11768693639897 28.68170017004013,232.9411836687941 21.785977982915938,239.2941633220762 25.84228515252471,263.05885700532235 32.33237662259489,265.8823685925454" stroke="#4DD2FF" stroke-linecap="round" stroke-linejoin="round" stroke-width="0.5"><title>2025-05-09 10.0km</title><desc>1746796175000</desc></polyline><polyline fill="none" points="72.03220474161208,262.6234127751086 74.65168322157115,266.3636487098411 81.09963024687022,266.83117777016014 85.53259382676333,258.649405361386 83.1146136932075,236.2078215801157 74.65168322157115,232.46753611485474 68.00223785080016,238.54549687565304 70.62171632889658,262.85717770061456 80.69663355872035,268.0 86.13708886131644,261.22082271496765 83.5176103822887,237.3766595281195 77.0696633560583,232.0 67.80073950532824,237.84419453935698 69.41272626258433,261.9221178526059 73.24119480885565,266.5974132521078 79.28614514600486,267.5324711804278 85.53259382676333,260.98705762065947 84.52510210499167,239.71433362434618 76.66666666697711,232.46753611485474 71.02471301984042,233.87014388432726 67.80073950532824,239.01303164707497 69.41272626258433,260.05199700477533 78.07715507782996,267.06494226376526 84.72660044953227,262.1558828500565 83.71910872682929,239.01303164707497 74.65168322157115,233.16884010774083 67.59924116078764,241.3507040636614 70.21871964074671,262.1558828500565 77.2711617005989,267.29870673432015 83.1146136932075,264.96106095355935 85.12959713861346,259.3507012913469 82.51011865865439,235.97405391838402 74.65168322157115,232.70130413677543 68.00223785080016,238.3117294544354 70.21871964074671,262.3896478244569 77.47266004420817,266.83117777016014 85.12959713861346,258.88317069550976 83.31611203681678,238.07796200853772 73.64419149793684,233.16884010774083 67.59924116078764,239.24679899704643 70.8232146743685,263.09094260213897 78.88314845692366,267.06494226376526 85.33109548315406,257.9481092165224 83.31611203681678,237.610427045729 73.44269315339625,233.16884010774083 67.39774281624705,239.71433362434618 70.62171632889658,262.85717770061456 80.49513521324843,266.5974132521078 85.33109548315406,259.818231791025 83.71910872682929,239.01303164707497 74.85318156611174,232.93507213471457 67.19624447170645,240.88316977233626 70.8232146743685,263.792237163987 78.68165011238307,267.06494226376526 84.72660044953227,260.7532925021369 83.1146136932075,237.14289198582992 75.8606732878834,232.70130413677543 67.19624447170645,239.48056632233784 70.0172212952748,261.9221178526059 76.46516832150519,267.06494226376526 84.92809879314154,261.22082271496765 83.31611203681678,238.07796200853772 77.2711617005989,232.93507213471457 71.83070639707148,233.63637598301284 67.19624447170645,240.4156353850849 70.21871964074671,263.09094260213897 77.47266004420817,267.06494226376526 84.32360375951976,262.6234127751086 83.71910872682929,239.24679899704643 78.07715507782996,233.40260805748403 68.20373619440943,237.3766595281195 69.21122791804373,259.1169360051863 71.83070639707148,264.96106095355935 77.47266004420817,267.5324711804278 84.72660044953227,262.3896478244569 83.5176103822887,238.07796200853772 76.66666666697711,232.70130413677543 71.02471301984042,234.10391176166013 67.59924116078764,239.01303164707497 69.41272626258433,260.28576219524257 74.24868653155863,266.5974132521078 79.89064017962664,267.7662356023211 85.12959713861346,261.22082271496765 83.92060707136989,239.48056632233784 75.25617825426161,232.70130413677543 67.59924116078764,240.18186815502122 70.21871964074671,263.3247074796818 78.07715507782996,267.29870673432015 85.33109548315406,258.88317069550976 83.71910872682929,238.3117294544354 74.45018487609923,232.70130413677543 67.19624447170645,240.4156353850849 69.41272626258433,261.68835283024237 73.44269315339625,266.3636487098411 79.28614514600486,267.06494226376526 85.12959713861346,261.68835283024237 83.1146136932075,237.3766595281195 75.6591749433428,232.70130413677543 68.60673288349062,237.3766595281195 69.21122791804373,261.22082271496765 78.07715507782996,267.29870673432015 85.33109548315406,259.3507012913469 82.9131153486669,236.441589217633 75.05467990972102,232.70130413677543 67.19624447170645,240.64940259046853 69.41272626258433,261.9221178526059 73.64419149793684,266.5974132521078 79.68914183508605,267.06494226376526 85.33109548315406,260.05199700477533 83.71910872682929,237.84419453935698 76.86816501058638,232.46753611485474 67.80073950532824,239.24679899704643 70.21871964074671,262.85717770061456 77.67415838968009,267.06494226376526 84.32360375951976,261.68835283024237 83.5176103822887,238.77926427312195 77.47266004420817,233.16884010774083 72.03220474161208,233.87014388432726 68.40523453895003,241.11693692952394 69.41272626258433,260.7532925021369 75.05467990972102,266.83117777016014 84.52510210499167,261.9221178526059 83.1146136932075,236.6753568314016 76.26366997789592,232.70130413677543 70.62171632889658,234.80521525046788 67.80073950532824,239.9481009019073 69.41272626258433,262.6234127751086 79.48764349054545,267.29870673432015 84.92809879314154,261.22082271496765 83.5176103822887,238.3117294544354 74.85318156611174,232.93507213471457 67.80073950532824,240.4156353850849 70.21871964074671,262.6234127751086 77.0696633560583,267.06494226376526 85.33109548315406,260.05199700477533 83.1146136932075,236.6753568314016 76.06217163335532,232.70130413677543 67.59924116078764,239.48056632233784 69.21122791804373,261.68835283024237 77.87565673422068,267.29870673432015 85.33109548315406,259.818231791025 83.5176103822887,237.3766595281195 77.47266004420817,232.46753611485474 68.20373619440943,238.07796200853772 69.00972957257181,261.22082271496765 77.47266004420817,267.06494226376526 84.92809879314154,260.05199700477533 83.31611203681678,237.84419453935698 74.24868653155863,233.16884010774083 67.80073950532824,240.88316977233626 69.41272626258433,261.45458778436296 76.86816501058638,266.3636487098411 84.72660044953227,259.58446655375883 82.9131153486669,236.6753568314016 75.05467990972102,232.93507213471457 68.20373619440943,238.77926427312195 70.21871964074671,261.22082271496765 78.27865342330188,265.6623549400829 85.33109548315406,259.3507012913469 84.12210541497916,239.9481009019073 77.47266004420817,232.70130413677543" stroke="#4DD2FF" stroke-linecap="round" stroke-linejoin="round" stroke-width="0.5"><title>2025-05-03 10.2km</title><desc>1746275352000</desc></polyline></svg>