<?xml version="1.0" encoding="utf-8" ?>
<svg baseProfile="full" height="300mm" version="1.1" viewBox="0,0,200,300" width="200mm" xmlns="http://www.w3.org/2000/svg" xmlns:ev="http://www.w3.org/2001/xml-events" xmlns:xlink="http://www.w3.org/1999/xlink"><defs /><rect fill="#222222" height="300" width="200" x="0" y="0" /><text fill="#FFFFFF" style="font-size:12px; font-family:Arial; font-weight:bold;" x="10" y="20">Over 10km Runs</text><text fill="#FFFFFF" style="font-size:4px; font-family:Arial" x="10" y="280">Runner</text><text fill="#FFFFFF" style="font-size:9px; font-family:Arial" x="10" y="290">Wangyp</text><text fill="#FFFFFF" style="font-size:4px; font-family:Arial" x="65" y="280">SPECIAL TRACKS</text><rect fill="yellow" height="2.6" width="2.6" x="65" y="283" /><text fill="#FFFFFF" style="font-size:3px; font-family:Arial" x="70" y="285.5">Over 20.0 km</text><rect fill="red" height="2.6" width="2.6" x="65" y="287" /><text fill="#FFFFFF" style="font-size:3px; font-family:Arial" x="70" y="289.5">Over 40.0 km</text><text fill="#FFFFFF" style="font-size:4px; font-family:Arial" x="120" y="280">STATISTICS</text><text fill="#FFFFFF" style="font-size:3px; font-family:Arial" x="120" y="285">Number: 21</text><text fill="#FFFFFF" style="font-size:3px; font-family:Arial" x="120" y="290">Weekly: 1.6</text><text fill="#FFFFFF" style="font-size:3px; font-family:Arial" x="141" y="285">Total: 251.8 km</text><text fill="#FFFFFF" style="font-size:3px; font-family:Arial" x="141" y="290">Avg: 12.0 km</text><text fill="#FFFFFF" style="font-size:3px; font-family:Arial" x="167" y="285">Min: 10.0 km</text><text fill="#FFFFFF" style="font-size:3px; font-family:Arial" x="167" y="290">Max: 21.3 km</text><polyline fill="none" points="24.72680284641683,59.294169479981065 23.71272647101432,64.23532058973797 31.216891651041806,68.0 37.50416518189013,66.82353834877722 40.54639430809766,60.00004886230454 37.70698045566678,37.64709621295333 35.070381878875196,33.88236695062369 27.56621669884771,32.47059188247658 21.076127893291414,38.58827756275423 22.90146536938846,62.58827140345238 31.825337477959692,67.52941541210748 38.72105683106929,59.52946263179183 36.4900888055563,37.411800815723836 27.56621669884771,32.94118366809562 21.076127893291414,40.23534399527125 23.509911195375025,62.11768570402637 31.216891651041806,67.29412308172323 39.53231793269515,60.235341941937804 37.301349906250834,38.82357284030877 33.04222912713885,33.41177535825409 27.363401424139738,32.94118366809562 21.481758443638682,38.82357284030877 23.71272647101432,62.58827140345238 33.447859678417444,67.05883072689176 39.126687383279204,60.47063499619253 36.4900888055563,36.94120994745754 26.75495559722185,32.94118366809562 21.481758443638682,39.29416332114488 23.509911195375025,62.58827140345238 32.63659857772291,67.29412308172323 38.72105683106929,59.76475575868972 37.09853463061154,37.64709621295333 27.971847248263657,32.94118366809562 21.481758443638682,38.35298226191662 23.509911195375025,62.11768570402637 31.216891651041806,67.29412308172323 38.92387210763991,60.941221033688635 36.4900888055563,36.00002792174928 26.957770872861147,32.70588778750971 21.481758443638682,39.0588680927176 23.71272647101432,63.058857006020844 32.02815275173634,67.29412308172323 39.32950265798718,60.235341941937804 37.09853463061154,37.411800815723836 28.17466252297163,32.70588778750971 21.278943167999387,40.23534399527125 23.71272647101432,63.2941497717984 32.43378330208361,67.29412308172323 39.126687383279204,60.00004886230454 37.301349906250834,38.35298226191662 28.17466252297163,32.70588778750971 21.481758443638682,39.29416332114488 23.509911195375025,63.058857006020844 33.447859678417444,66.82353834877722 38.92387210763991,59.76475575868972 36.895719355903566,36.94120994745754 27.56621669884771,32.47059188247658 20.873312617652118,40.0000488627702 22.90146536938846,61.4118069736287 26.75495559722185,66.1176610677503 32.43378330208361,67.05883072689176 38.72105683106929,60.70592802669853 36.895719355903566,37.88239158713259 28.58029307425022,32.47059188247658 21.278943167999387,39.29416332114488 23.104280645027757,61.17651401599869 32.23096802737564,67.29412308172323 38.92387210763991,60.941221033688635 37.50416518189013,39.0588680927176 28.58029307425022,32.47059188247658 21.278943167999387,39.52945852605626 23.104280645027757,61.88239281857386 31.014076376333833,67.29412308172323 39.126687383279204,60.70592802669853 36.895719355903566,37.176505394047126 28.17466252297163,32.47059188247658 21.278943167999387,37.88239158713259 22.90146536938846,61.647099908441305 31.41970692574978,67.05883072689176 38.92387210763991,59.76475575868972 37.50416518189013,37.88239158713259 27.56621669884771,32.47059188247658 21.076127893291414,40.0000488627702 23.104280645027757,62.82356421649456 32.43378330208361,66.82353834877722 38.92387210763991,60.47063499619253 37.50416518189013,37.88239158713259 27.769031973555684,32.70588778750971 21.278943167999387,39.764753706753254 23.104280645027757,62.352978565730155 31.41970692574978,67.05883072689176 39.126687383279204,59.76475575868972 36.895719355903566,36.94120994745754 26.957770872861147,32.47059188247658 21.076127893291414,39.0588680927176 23.104280645027757,62.11768570402637 31.622522202320397,66.82353834877722 39.126687383279204,60.00004886230454 36.69290408026427,36.47061898279935 28.783108349889517,32.47059188247658 21.076127893291414,40.0000488627702 23.509911195375025,63.058857006020844 32.02815275173634,66.82353834877722 39.126687383279204,60.00004886230454 37.50416518189013,38.11768693686463 27.769031973555684,32.47059188247658 21.278943167999387,38.35298226191662 23.104280645027757,62.82356421649456 31.825337477959692,66.58824594621547 39.126687383279204,60.235341941937804 37.301349906250834,37.88239158713259 28.98592362459749,32.47059188247658 21.278943167999387,38.82357284030877 23.104280645027757,62.11768570402637 32.43378330208361,66.58824594621547 39.32950265798718,58.823583104647696 37.09853463061154,36.94120994745754 27.363401424139738,32.23529595322907 21.076127893291414,39.52945852605626 23.104280645027757,61.88239281857386 30.811261100694537,66.82353834877722 39.735133208334446,59.76475575868972 37.70698045566678,38.58827756275423 29.39155417494476,32.0 20.873312617652118,38.11768693686463 22.90146536938846,62.58827140345238 32.23096802737564,67.05883072689176 39.126687383279204,60.00004886230454 36.895719355903566,36.70591447735205 26.957770872861147,32.94118366809562 19.656420967541635,42.35299909650348 23.104280645027757,62.58827140345238 33.04222912713885,67.05883072689176 39.53231793269515,58.58828988112509 37.09853463061154,37.176505394047126 27.56621669884771,32.0 20.264866792596877,39.52945852605626 22.698650093749166,61.17651401599869 32.63659857772291,66.58824594621547 39.32950265798718,58.823583104647696 36.69290408026427,36.94120994745754 26.349325047805905,32.70588778750971 19.45360569190234,43.29417851404287 22.90146536938846,61.88239281857386 32.43378330208361,67.05883072689176 39.53231793269515,59.52946263179183 37.301349906250834,37.64709621295333 29.188738899305463,32.0 23.104280645027757,34.58825415791944 19.859236242249608,43.529473308240995 22.495834819041193,59.76475575868972" stroke="#4DD2FF" stroke-linecap="round" stroke-linejoin="round" stroke-width="0.5"><title>2025-11-07 10.1km</title><desc>1762493397000</desc></polyline><polyline fill="none" points="64.7493997393176,43.23331233740464 60.52630856828182,45.62266865053243 58.666666666656965,46.85169948517432 61.56355903131771,56.06455918546271 61.948823489045026,56.73485831851576 64.1863209164876,58.09262730917544 74.15133429371053,63.75548984968191 81.47135899020941,65.15610850552912 81.90107703916146,65.14751582439203 87.2577347876504,66.09270546726475 87.53927419905085,66.04974253293767 87.62077244973625,65.92085359776684 87.8208136104513,60.38703503002034 87.5763188584533,59.106642963102786 86.63538450980559,57.319217289972585 86.19825752897304,57.43952598406031 85.5240447279939,58.127000922118896 84.44974960552645,58.68557015598344 83.92371544212801,58.65119677218172 83.67181175827864,58.41058269077621 83.37545448311721,57.78326415816264 82.73087740960182,57.551241045330244 82.16038965492044,57.09578639978281 80.62674075597897,56.48564516453189 79.58208136103349,56.287992825644324 77.17417850036873,55.07628786130226 76.70000686013373,53.615343679950456 76.70741579198511,52.945019588012656 77.04822665840038,52.36922409846011 77.87061809698935,51.578573097380286 82.33820402005222,49.66207285586279 82.54565411264775,49.70504419384088 82.84201138780918,50.19491588872188 84.73869794880738,53.761439244532085 85.15359813405667,53.85597153289564 87.68745283666067,52.86767415533541 87.99862797558308,52.62704346368264 88.15421554501518,52.28328413373674 86.8724703299522,48.17525098477927 86.93174178496702,47.70255642152915 94.37030939149554,44.43659382133774 94.66666666665697,44.10139571662148 93.41455717908684,39.90700856552576 92.48103176234872,37.947263868685695 90.1990807435941,33.907294532727974 90.55470947382855,34.59496265479538 90.63620772448485,35.05053967510321 92.67366399118328,38.61770800551312 92.6514371955418,38.909951205714606 79.90807436371688,44.703032383476966 78.44851478355122,45.175743875479384 78.34478973725345,45.39061185346509 78.49296837483416,48.544810330698965 75.90725114903762,48.106495577718306 75.28490087125101,48.91436804612022 75.2182204843266,49.36986717298714 75.51457775948802,50.04021987353917 75.32935446250485,50.36680001500645 75.0552239829849,50.37539421208203 74.82554709474789,50.17772745669208 74.67736845716718,49.87692932531354 74.6551416615257,49.39565006833436 74.37360225012526,49.06047180947644 74.70700418466004,48.192439827696944 74.53659875143785,46.93764502269187 74.69218632092816,45.80315682595392 74.60327913836227,45.43358538292523 74.01056458803941,44.935091085673776 73.8623859504587,44.59130018641736 74.2624682719179,43.5771088112233 74.2624682719179,43.13017312003649 74.04760924741277,43.02703377563739 73.48453042464098,43.121578179510834 72.62509432664956,42.82075470579002 72.15833161829505,43.36223618048825 72.01015298074344,44.20453373788041 72.202785209578,44.960875346238026 71.98792618510197,45.373422435506654 71.44707415788434,45.85472480464523 70.64690951499506,45.68283141888969 69.9726967139868,44.21312856726581 69.86156273580855,43.499754727687105 70.09123962407466,41.54868921378511 70.35796117171412,41.09314754814113 70.06901282843319,40.28519963083818 64.7419908074371,43.28488189843483" stroke="yellow" stroke-linecap="round" stroke-linejoin="round" stroke-width="0.5"><title>2025-11-02 21.2km</title><desc>1762040409000</desc></polyline><polyline fill="none" points="123.21129943500273,39.06345243973192 111.80112994345836,39.771331761730835 106.79774011299014,50.53100799303502 105.76045197760686,57.326506487617735 115.82824858743697,61.99837286100956 133.9502824859228,60.93658782780403 137.48926553688943,59.80401532392716 141.15028248541057,55.4860655903467 140.9062146891374,45.22197820188012 139.07570621441118,41.89496536756633 133.15706214681268,37.930844013229944 111.98418079083785,39.771331761730835 106.91977401124313,50.03550027491292 105.33333333325572,56.12314184132265 107.52994350274093,58.246725094504654 116.0112994350493,62.0691584716551 137.24519773991778,60.1579444311792 141.2723163838964,55.55685186939081 140.7841807906516,45.15119086194318 139.19774011266418,41.965753041848075 135.1706214689184,38.70951250632061 132.42485875659622,37.860055924917106 111.86214689281769,39.842119654116686 106.73672316409647,50.601794780697674 105.39435028261505,56.406286652898416 115.95028248568997,61.927587243088055 137.4282485875301,59.945586988702416 141.2723163838964,55.41527930396842 140.72316384175792,44.726466669351794 135.90282485890202,39.205028362281155 132.97401129920036,38.072420168318786 112.04519774019718,39.912907538877334 106.85875706211664,50.601794780697674 105.51638418063521,56.406286652898416 107.10282485862263,57.9635810382897 115.82824858743697,61.856801617657766 137.4282485875301,60.016372810234316 141.15028248541057,55.769210663449485 140.9672316382639,45.43434017820982 139.07570621441118,42.03654070885386 133.584180790931,38.213996294362005 111.86214689281769,40.05448328709463 106.73672316409647,50.884941859170794 105.51638418063521,56.47707283758791 115.8892655367963,62.139944075082894 137.48926553688943,59.80401532392716 141.33333333325572,55.202920400945004 140.66214689263143,44.86804142926121 139.25875706179067,42.17811602097936 133.584180790931,38.28478434635326 112.35028248582967,39.912907538877334 106.61468926561065,51.16808882140322 105.51638418063521,56.05235562019516 106.85875706211664,57.892795006220695 114.97401129943319,61.71523034531856 117.90282485866919,62.0691584716551 135.8418079095427,60.653444876137655 139.6248587567825,58.03436706325738 141.33333333325572,54.63662967341952 140.8451977397781,44.726466669351794 138.4045197737869,41.470239169488195 133.09604519768618,38.28478434635326 111.86214689281769,40.125271150202025 106.85875706211664,50.389434395649005 105.51638418063521,57.043362053635065 116.0112994350493,61.927587243088055 137.0621468925383,60.22873023094144 141.2112994347699,55.769210663449485 140.72316384175792,44.655679278541356 135.90282485890202,39.417392191593535 132.97401129920036,38.28478434635326 112.35028248582967,39.842119654116686 107.04180790972896,49.96471342915902 105.51638418063521,56.54785901494324 116.0112994350493,61.99837286100956 136.4519774010405,60.58265912020579" stroke="#4DD2FF" stroke-linecap="round" stroke-linejoin="round" stroke-width="0.5"><title>2025-10-26 12.0km</title><desc>1761480636000</desc></polyline><polyline fill="none" points="186.65762711851858,56.689428732322995 188.0,54.21190921560628 187.26779661001638,43.94780497031752 182.08135593193583,38.85108954779571 178.90847457642667,38.00163331517251 158.58983050845563,39.84212049667258 153.28135593235493,50.67258018051507 152.24406779673882,56.33549791772384 163.16610169480555,61.85679794114549 178.17627118644305,61.00737004540861 184.52203389792703,59.52086871035863 187.93898305064067,55.41527694952674 187.5728813558817,45.00961594207911 185.92542372853495,42.10732874635141 180.61694915266708,38.072421374497935 158.65084745758213,39.629756841866765 153.34237288148142,50.1062858493533 152.24406779673882,56.61864258395508 163.53220338979736,61.92758355179103 181.34915254218504,60.582655705162324 184.33898305078037,59.52086871035863 187.93898305064067,55.34449067048263 187.51186440652236,45.221977940236684 185.8033898305148,41.965753448545 179.76271186443046,37.930845248454716 158.4067796608433,40.05448408605298 153.46440677973442,49.89392535504885 152.122033898253,56.123139341769274 152.97627118672244,57.468075885262806 163.47118644043803,61.92758355179103 181.89830508478917,60.65344144665869 184.58305084728636,59.52086871035863 187.87796610151418,55.27370438410435 187.20677966088988,43.80623005039524 181.53220338979736,38.709513581648935 175.79661016911268,37.930845248454716 158.52881355956197,39.84212049667258 152.85423728823662,51.805167448183056 152.0,55.98156692145858 153.0372881356161,57.53886194649385 163.53220338979736,61.998369155218825 177.3830508471001,61.078155743249226 184.27796610142104,59.66244040406309 187.87796610151418,55.48606322158594 187.3288135593757,44.16016729542753 181.41016949154437,38.42636156221852 175.3084745761007,37.930845248454716 158.46779661020264,39.91290836723056 153.52542372886091,50.03549902536906 152.3661016949918,56.901787133770995 162.98305084742606,61.92758355179103 183.8508474577684,59.874797890370246 188.0,55.41527694952674 187.45084745739587,44.797253878379706 182.02033898304217,38.92187751986785 179.21355932205915,38.072421374497935 158.77288135606796,39.91290836723056 153.5864406779874,49.89392535504885 152.30508474609815,56.689428732322995 163.53220338979736,62.069154751545284 183.30169491493143,60.22872688859934 187.6338983050082,56.477070265391376 187.3898305085022,44.301742142415605 182.20338983042166,39.063453442417085 178.42033898294903,38.00163331517251 164.26440677978098,39.275817271729466" stroke="#4DD2FF" stroke-linecap="round" stroke-linejoin="round" stroke-width="0.5"><title>2025-10-22 10.1km</title><desc>1761137801000</desc></polyline><polyline fill="none" points="29.634098360635107,92.57155821294145 35.77180327870883,93.98950119584333 37.164590163942194,94.44689730653045 35.53573770492221,96.23071952666214 33.607868852472166,97.3833239735468 32.695081967220176,99.15793953798129 32.293770491785835,100.31050582573516 32.02622950822115,100.38368413043645 30.232131147553446,100.25562205746974 27.07672131145955,99.22197139256605 24.574426229519304,98.71886271451513 22.512786885286914,102.46924035598204 22.221639344264986,102.66132858705532 18.601967213122407,100.42942054010928 18.50754098361358,100.109265175568 18.979672131157713,98.5084709638686 19.97114754098584,96.72469470099895 20.836721311497968,93.7790981902508 21.89901639346499,93.66932251027902 22.70163934424636,93.76080225305486 26.163934426236665,95.49889938026172 26.42360655736411,95.22446526355634 27.45442622952396,92.26967064128257 27.32852459017886,92.01352280224819 26.950819672143552,91.90374492975388 14.038032786891563,88.97628470298514 12.306885245954618,88.55545432482904 12.086557377071586,88.37248397026269 12.0,86.73488243114843 12.165245901647722,84.57576363561384 13.007213114760816,81.65720989592955 13.377049180358881,80.87952257280267 14.4393442622968,79.29667899727065 15.958032786904369,77.5765625004351 16.40655737707857,77.3386714129374 18.397377049172064,78.55556908041763 18.499672131147236,78.76600833069097 16.752786885248497,81.5199714538685 16.19409836063278,83.47788639092323 16.619016393466154,82.04147639978328 17.051803278707666,81.06250844104216 18.609836065617856,78.80260641002678 23.488524590153247,80.52269903983688 26.80131147542852,81.1631505070618 27.210491803270997,81.09910556922114 27.934426229505334,81.44677753097494 27.9816393442743,83.93533690038021 28.083934426220367,84.17321022949909 28.351475409814157,84.22810398376896 30.806557377043646,83.88959195598727 32.639999999984866,83.98108182108263 34.26885245900485,84.41108291838464 35.929180327861104,85.27107883641293 34.166557377029676,84.40193398063275 32.262295081978664,83.95363487150462 30.83803278687992,83.92618791340647 28.209836065594573,84.31044455122901 27.04524590165238,84.31959349844692 25.613114754116395,84.24640189428465 23.567213114758488,83.88044296426233 22.906229508196702,86.47871855220001 23.016393442609115,86.70743633677193 36.07081967210979,89.84538457696908 47.19737704916042,92.34285560179705 47.937049180298345,92.67218717439391 48.0,93.06555383370869 47.56721311475849,96.20327638050367 47.401967213110765,96.4411166976206 47.016393442609115,96.54174125453574 29.618360655760625,92.5441139308241" stroke="yellow" stroke-linecap="round" stroke-linejoin="round" stroke-width="0.5"><title>2025-10-12 21.3km</title><desc>1760225536000</desc></polyline><polyline fill="none" points="78.57110352721065,79.34515209431993 73.90216154744849,79.06006755994167 65.24004550650716,80.41421805560822 59.403868032153696,91.4611366027384 58.66666666674428,95.87985481024953 59.34243458486162,97.44778031797614 70.15472127427347,101.72392279910855 87.84755403874442,100.5836207123939 90.73492605285719,99.58585485036019 93.19226393685676,97.30524178192718 94.42093287874013,94.45446491247276 93.92946530180052,83.76394740812248 90.05915813473985,79.55896541813854 86.7417519914452,78.06227076798677 65.3014789535664,80.12913396017393 60.38680318556726,89.75065748911584 58.97383390227333,96.73508734430652 69.23321956815198,101.65265397343319 88.58475540415384,100.36981386266416 92.45506257144734,98.16047256038291 94.48236632579938,94.59700403379975 93.92946530180052,83.97775937133702 90.91922639403492,80.2716760225012 87.11035267403349,78.133542014868 64.99431171803735,80.2716760225012 60.14106939709745,90.46335763199022 59.15813424345106,97.09143392258557 70.95335608674213,101.79519161721691 86.68031854415312,100.86869640962686 92.20932878297754,98.3030109211104 94.48236632579938,93.67049922130536 93.56086461944506,82.83742814022116 87.78612059215084,78.20481325458968 77.95676905615255,78.48989814013476 65.05574516486377,80.48548906098586 59.711035267449915,91.31859683757648 59.21956769074313,97.23397250269772 69.5403868034482,101.79519161721691 84.40728100156412,101.15377198986243 90.980659841327,99.58585485036019 94.54379977285862,94.73954312613932 94.29806598438881,84.19157126860227 89.07622298109345,78.77498290862422 85.63594994344749,78.133542014868 67.08304891944863,79.48769431759138 64.31854380015284,81.69709503621561 59.403868032153696,92.9578023707727 59.0352673495654,96.59254866180709 62.04550625756383,98.65935669466853 69.23321956815198,101.86646042828215 87.1717861208599,100.79742749623256 90.85779294674285,99.65712388796965 94.54379977285862,94.59700403379975 94.42093287874013,83.90648872428574 89.3833902166225,78.91752524883486 85.69738339073956,78.27608448709361 66.8987485782709,79.55896541813854 65.24004550650716,80.41421805560822 63.39704209356569,83.47886468819343 58.789533560862765,96.09366304246942 59.833902161801234,97.51904957502848 69.35608646227047,101.93772923201323 85.82025028485805,100.93996531557059 91.10352673521265,99.158240470686 93.86803185474128,96.30747120885644 94.66666666674428,93.95557775709312 94.42093287874013,84.54792428459041 91.47212741803378,80.62803105049534 87.35608646227047,78.41862692969153 65.85437997756526,79.98659186856821 61.12400455074385,88.32525500911288 58.912400455446914,96.5212793094106 68.98748577944934,101.72392279910855 73.10352673521265,101.79519161721691" stroke="#4DD2FF" stroke-linecap="round" stroke-linejoin="round" stroke-width="0.5"><title>2025-10-08 10.1km</title><desc>1759925805000</desc></polyline><polyline fill="none" points="115.9288582901936,79.64881923765643 111.03384968428873,81.94911771622719 106.63453815248795,91.2221193331061 105.39529546769336,96.11016378796194 106.3247274812311,97.6197000334505 115.80493402178399,101.93264280626317 134.82730923686177,100.56688046862837 137.6775674126111,99.6324099660269 140.96156052779406,94.81627298763487 140.713711990742,84.39317657065112 139.4744693057146,82.02100192196667 134.20768789434806,78.42678259772947 124.4796328167431,78.57055172487162 111.83935742941685,80.58331640582765 107.62593230046332,88.20301600848325 105.39529546769336,95.75074991642032 108.74125071708113,98.55417322163703 115.61904761870392,101.64511411450803 131.1715433159843,101.0700563765713 137.6775674126111,99.41676275013015 140.21801491710357,96.97275632666424 141.14744693040848,94.52874137426261 141.08548479620367,84.96824800246395 137.92541594943032,80.43954769195989 133.89787722285837,78.35489802318625 112.33505450375378,80.08012577804038 107.62593230046332,88.34678312850883 105.33333333325572,96.46957747486886 115.80493402178399,101.78887847519945 137.11990820406936,99.7761747399345 140.83763625938445,95.82263270561816 141.14744693040848,85.04013189836405 139.5364314399194,81.80534928274574 134.14572576014325,78.21112885157345 111.83935742941685,80.15201017545769 106.75846242066473,90.21575300447876 105.76706827315502,96.39769475208595 115.74297188734636,101.57323192298645 134.08376362570561,100.56688046862837 137.6775674126111,99.48864516284084 141.27137119905092,95.17568733874941 140.83763625938445,83.88998868025374 138.11130235204473,80.43954769195989 134.3316121629905,78.13924425485311 112.45897877239622,79.7207036796026 107.31612162920646,89.06561828649137 105.33333333325572,96.0382810283918 108.36947791161947,98.69793821661733 116.54847963270731,101.78887847519945 137.24383247247897,100.06370419904124 141.33333333325572,94.81627298763487 140.15605278266594,82.45230700128013 136.0665519218892,78.85808989068028 133.46414228342474,77.9954750391189 113.26448651729152,79.7925881142146 110.72403901303187,81.87723350309534 107.00631095794961,90.07198626798345 105.51921973587014,96.75710829143645 111.96328169805929,100.42311585706193 117.23006310965866,102.0045249608811 134.0218014915008,100.78252733073896 138.35915088909678,98.98546811868437 141.33333333325572,94.45685845252592 141.08548479620367,85.68708662840072 139.90820424538106,82.30853867094265 135.6328169819899,78.78620536031667 133.15433161193505,78.13924425485311 113.45037292013876,79.50505033193622 110.72403901303187,81.94911771622719 105.89099254156463,93.52237979718484 105.58118187007494,97.18840429524425 116.30063109565526,102.0045249608811 130.1801491677761,100.92629186820704" stroke="#4DD2FF" stroke-linecap="round" stroke-linejoin="round" stroke-width="0.5"><title>2025-10-06 10.0km</title><desc>1759752637000</desc></polyline><polyline fill="none" points="166.64827586198226,79.16292223212076 158.95172413787805,80.02702257671626 152.24827586160973,95.07659954176052 152.99310344806872,97.74084508069791 162.79999999981374,101.98921568511287 180.17931034462526,100.83711772446986 184.02758620679379,99.54100525740068 187.7517241379246,95.14860631112242 187.255172413541,84.34750833333237 186.01379310316406,81.61120377696352 180.80000000004657,77.93877825530944 158.76551724085584,80.02702257671626 153.98620689613745,89.02800454176031 152.12413793080486,96.2287069624872 153.24137930991128,97.52482554886956 162.86206896509975,101.7731974615017 180.36551724141464,100.76511153916363 184.89655172429048,99.18097359174863 187.7517241379246,95.00459276529728 187.0689655172173,83.5554212697316 184.27586206886917,80.24304749647854 180.48965517245233,78.01078678370686 159.01379310316406,79.95501425524708 155.724137930898,84.70754761167336 152.0,96.01268696517218 154.4827586200554,98.31689683988225 163.66896551684476,102.06122174469056 180.2413793101441,100.90912390244193 184.77241379278712,99.32498628011672 187.81379310321063,95.00459276529728 187.37931034481153,84.77955544536235 186.1379310344346,82.11526068137027 180.86206896533258,78.15480381826637 159.1999999997206,79.59497253742302 153.42758620646782,89.96410003612982 152.1862068963237,96.44472689321265 162.92413793085143,101.8452035432565 181.11034482740797,101.12514239212032 184.89655172429048,99.61301156849368 188.0,95.29261982743628 187.44137931033038,84.92357109021395 186.26206896547228,82.18726878112648 181.04827586212195,78.15480381826637 162.05517241358757,79.16292223212076 158.45517241349444,80.17103919718647 153.6758620685432,89.67607078619767 152.12413793080486,96.73275336407823 163.17241379292682,101.91720961785177 179.80689655151218,101.12514239212032 184.64827586198226,99.61301156849368 187.93793103448115,95.14860631112242 187.37931034481153,84.70754761167336 185.26896551717073,81.25116290926235 180.67586206877604,78.08279530482832 158.88965517212637,79.81099759030621 153.7379310342949,89.46004877128871 152.0620689650532,96.66074675758136 162.98620689637028,101.98921568511287 180.9862068966031,101.05313623626716 184.77241379278712,99.46899893908994 188.0,94.64455877133878 187.255172413541,83.91546095506055 185.64137931005098,81.3951792785665 180.86206896533258,78.08279530482832 158.57931034453213,79.81099759030621 153.30344827543013,90.54015818104381 152.24827586160973,96.94877313950565 161.93103448231705,101.8452035432565 171.3655172411818,101.62918527546572" stroke="#4DD2FF" stroke-linecap="round" stroke-linejoin="round" stroke-width="0.5"><title>2025-10-02 10.0km</title><desc>1759407705000</desc></polyline><polyline fill="none" points="32.25762711884454,119.02805401047226 19.200000000186265,120.65617620025296 12.732203389750794,133.82258832792286 12.61016949173063,136.2293246606714 18.955932203447446,140.47648593544727 23.53220338979736,142.1045574892778 40.433898305287585,141.11355787079083 45.19322033878416,138.21133651043056 46.718644068110734,134.67202563968021 47.14576271199621,124.26634647441097 44.461016949499026,120.65617620025296 39.15254237293266,117.82465687801596 19.68813559319824,119.806721624278 12.671186440857127,132.19449722231366 12.305084745865315,136.01696591021027 22.49491525441408,142.03377184958663 34.332203389843926,140.97198638034752 38.84745762730017,141.67984354152577 44.644067796645686,139.0607684168499 47.084745762636885,133.82258832792286 47.267796610249206,123.91240904800361 42.20338983065449,118.88647798617603 39.51864406792447,118.03702123038238 18.833898305194452,120.37302479124628 14.440677965991199,128.4427943896735 12.122033898485824,136.6540419650264 22.983050847426057,142.17534312192583 41.044067796552554,140.83041486120783 44.461016949499026,139.27312622970203 47.4508474576287,135.66303451446583 47.20677966112271,124.76185856643133 43.30169491539709,120.08987326582428 39.396610169671476,118.2493855173816 18.89491525432095,120.23144904302899 12.61016949173063,132.83157680829754 12.549152542371303,137.36190355790313 22.92203389829956,142.1045574892778 40.006779661169276,140.83041486120783 44.52203389815986,138.98998246452538 47.38983050873503,134.45966640970437 47.75593220326118,124.90343338472303 42.14237288152799,119.45278190885438 38.48135593230836,118.3201735985931 18.46779661020264,120.72696403425653 13.769491525366902,129.5753860747791 12.122033898485824,136.37089712440502 22.92203389829956,142.03377184958663 40.189830508548766,140.83041486120783 43.850847457535565,139.62705577298766 47.38983050873503,135.45067558955634 47.694915254367515,125.39894501894014 43.48474576254375,120.16066115826834 40.189830508548766,118.53253779845545 19.016949152573943,120.37302479124628 13.708474576240405,129.92932059487794 12.122033898485824,136.3001108961762 22.800000000046566,142.1045574892778 40.616949152667075,140.68884331273148 44.33898305078037,139.48548397765262 47.4508474576287,135.94617964565987 47.57288135611452,124.54949628491886 43.36271186452359,120.5146005100687 39.70169491530396,118.7449019330088 19.016949152573943,120.44381265429547 14.62372881360352,127.80571074935142 12.122033898485824,136.4416833455325 22.616949152667075,141.82141488656634 43.667796610388905,139.62705577298766 47.57288135611452,135.23831659951247 47.75593220326118,125.18658293341286 43.850847457535565,120.5146005100687 39.396610169671476,118.53253779845545 18.589830508688465,120.65617620025296 13.586440677987412,130.4956154493848 12.244067796738818,136.8664005191531 23.044067796552554,141.96298620238667 41.34915254241787,140.5472717351513 44.09491525427438,139.55626987892902 47.63389830500819,135.23831659951247 47.511864406755194,124.62028371938504 45.681355932261795,122.1427191902767 40.189830508548766,118.46174973913003 19.07796610193327,120.3022369206301 14.01355932210572,129.22145137289772 12.0,136.4416833455325 23.10508474591188,141.89220054808538 43.54576271190308,139.7686275394517 47.75593220326118,134.53045282675885 47.20677966112271,124.54949628491886 43.30169491539709,120.16066115826834 39.88474576268345,118.53253779845545 18.89491525432095,120.37302479124628 13.40338983037509,130.6371890901355 12.122033898485824,136.15853841777425 17.49152542394586,139.7686275394517 23.898305084789172,141.82141488656634 40.433898305287585,140.83041486120783 43.60677966102958,139.9101992767537 46.718644068110734,137.2203312976053 48.0,132.3360705145169 47.63389830500819,125.32815766433487 46.53559322049841,122.77980806224514 40.31186440680176,118.39096167241223 31.40338983060792,118.81568996317219 20.48135593230836,119.806721624278 17.918644067831337,121.36405421415111 13.586440677987412,130.42482861789176 12.122033898485824,136.4416833455325 13.098305084742606,137.99897837056778 16.63728813594207,139.48548397765262" stroke="#4DD2FF" stroke-linecap="round" stroke-linejoin="round" stroke-width="0.5"><title>2025-09-29 16.1km</title><desc>1759146700000</desc></polyline><polyline fill="none" points="78.18473895592615,120.40361289010616 73.35169248445891,119.10969313647365 67.15547905908898,119.6128844358027 65.04876649472862,120.83491894340841 61.02122776815668,128.16708120662952 58.66666666674428,136.64929079654394 69.94377510040067,142.2561187033425 87.91279403306544,140.89035706635332 90.63912794040516,139.81212231400423 94.35685599548742,134.20527484075865 93.92312105558813,123.78216986445477 91.44463568553329,120.47549725085264 86.23981640860438,117.60011706891237 65.6064257028047,119.54099998669699 60.15375788859092,130.03605146612972 58.79059093515389,136.36175995023223 65.91623637406155,140.6747102487716 70.37751004006714,142.11235444591148 90.45324153755791,139.9558870436158 94.04704532423057,135.0678696813411 94.04704532423057,125.00419709651032 92.62191623658873,121.76941448089201 86.4876649454236,117.88765561836772 65.5444635685999,119.75665331236087 61.20711417077109,127.95143047120655 58.66666666674428,136.0742289861082 62.13654618454166,138.80576838064007 69.81985083175823,142.1842365784687 88.59437751001678,140.74659252888523 91.25874928291887,139.52459276630543 94.48078026389703,136.00234622653807 94.1090074586682,124.57289361121366 92.18818129668944,121.40999326779274 86.54962707986124,117.88765561836772 65.48250143416226,119.68476887774887 59.16236374061555,133.2707958976389 59.28628800925799,137.4400000150199 70.0057372348383,142.11235444591148 87.97475616750307,140.89035706635332 90.8250143432524,139.8840046824189 94.35685599548742,134.8522210707888 94.29489386128262,124.93231320061022 92.5599541021511,121.55376177519793 87.23121055634692,117.95954023726517 65.35857716575265,120.18795976391993 61.39300057361834,127.44824516313383 58.79059093515389,136.00234622653807 60.4635685600806,138.01506070414325 69.88181296619587,141.89670800440945 90.45324153755791,140.17153408256127 94.29489386128262,135.85858068533707 94.48078026389703,125.00419709651032 93.30349971330725,122.4163721994264 87.04532415396534,117.95954023726517 65.79231210588478,119.54099998669699 61.51692484226078,126.94505949376617 58.72862880118191,136.289877220348 69.63396442914382,142.11235444591148 87.72690763068385,141.03412157471757 91.07286288053729,139.81212231400423 93.86115892161615,136.9368215248105 94.54274239833467,134.27715778461425 94.170969592873,124.21347383689135 93.42742398171686,122.48825635330286 89.02811244991608,118.75027055846294 85.49627079744823,117.74388635839568 68.64257028093562,119.1815776299918 64.98680436029099,120.33172852208372 60.4635685600806,129.6047510796343 58.85255306935869,136.79305617546197 64.30522088357247,140.31529873842373 70.12966150324792,142.39988293108763 88.71830177865922,140.6028279615566 91.38267355156131,139.38082794827642 94.170969592873,136.289877220348 94.66666666674428,134.27715778461425 94.04704532423057,123.71028584335 89.27596098696813,118.96592412731843 85.68215720029548,117.95954023726517 65.85427423962392,119.82853773923125 60.4635685600806,129.74851790466346 58.9764773377683,134.20527484075865 59.16236374061555,137.2243521347409 70.50143430870958,142.32800082088215 89.2139988525305,140.53094566677464 94.1090074586682,136.72117348958272" stroke="#4DD2FF" stroke-linecap="round" stroke-linejoin="round" stroke-width="0.5"><title>2025-09-26 12.0km</title><desc>1758887292000</desc></polyline><polyline fill="none" points="123.7057471263688,118.73087415151531 116.19540229835548,118.94689947052393 112.47126436745748,120.02702506753849 108.06436781561933,127.87588778609643 105.58160919486545,136.73275585490046 116.07126436755061,142.20523633260746 134.31954022985883,140.98113256378565 137.67126436764374,139.6850203628419 140.7747126435861,134.068506487587 141.0229885056615,124.49152655759826 136.8643678156659,119.66698338655988 132.7057471263688,117.79476366739254 112.53333333297633,119.9550167460693 107.6298850569874,128.5239550950937 105.51954022957943,136.6607492484036 116.00919540203176,141.9892181759351 134.75402298825793,140.8371202152921 138.2298850575462,139.25298243045108 141.0229885056615,133.78047892299946 141.08505747118033,124.56353441323154 139.34712643641979,121.8992388289771 133.69885057467036,118.08279779565055 112.22298850538209,120.1710416880087 107.8781609190628,128.09191028913483 105.51954022957943,136.44472938403487 116.19540229835548,141.9892181759351 135.06436781585217,140.76511402998585 137.73333333339542,139.6130140593159 141.08505747118033,135.14860880194465 141.0229885056615,124.63554226164706 136.92643678141758,119.66698338655988 133.45057471259497,118.1548063090886 112.34712643641979,119.52296666271286 106.07816091901623,132.4123463757569 105.58160919486545,137.02078220731346 116.81609195377678,142.06122423551278 133.88505747099407,140.90912639326416 137.54712643660605,139.82903294777498 141.20919540221803,134.5725544411107 141.0229885056615,124.41951869451441 139.53333333297633,121.97124695085222 134.0712643675506,118.1548063090886 111.9747126433067,120.02702506753849 107.81609195331112,128.01990279561142 105.39540229830891,136.44472938403487 116.87816091929562,141.917212108674 134.1954022985883,140.76511402998585 137.91954022971913,139.46900142991217 141.08505747118033,134.356533934013 141.08505747118033,124.3475108241546 137.67126436764374,120.38706656353315 133.57471264339983,118.22681481525069 112.47126436745748,119.88300841714954 110.9195402294863,121.25116540008457 107.75402298825793,128.16391777526587 105.51954022957943,135.86867608770262 107.94022988481447,138.38890576723497 115.94712643651292,141.9892181759351 134.62988505722024,140.8371202152921 138.2298850575462,139.39699510397622 141.27126436773688,134.86058168066666 141.14712643646635,124.63554226164706 139.34712643641979,121.97124695085222 133.63678160891868,118.22681481525069 112.03678160905838,120.1710416880087 107.6298850569874,128.30793272529263 105.51954022957943,137.02078220731346 116.50574712618254,141.84520603407873 135.2505747124087,140.6931078370544 137.91954022971913,139.6130140593159 141.08505747118033,135.9406827755738 140.7747126435861,124.3475108241546 139.84367816103622,122.47530359664233 135.2505747124087,118.73087415151531 132.51954022981226,118.08279779565055 112.78160919505171,119.66698338655988 110.79540229868144,121.61120626778575 107.56781609170139,128.30793272529263 105.33333333325572,135.58064926206134 106.07816091901623,137.30880844185594 114.82988505717367,141.4851755509735 135.37471264367923,140.5490954296547 140.27816091943532,136.94877563032787 141.33333333325572,131.76428265904542" stroke="#4DD2FF" stroke-linecap="round" stroke-linejoin="round" stroke-width="0.5"><title>2025-09-14 12.0km</title><desc>1757851744000</desc></polyline><polyline fill="none" points="170.91525423736311,118.60332675883546 158.46779661020264,120.37302479112986 153.83050847472623,129.3630206612288 152.0,136.4416750985547 162.80000000004657,141.67983260628534 176.95593220321462,140.97197580861393 182.93559322040528,140.05176088534063 186.53559322026558,136.4416750985547 188.0,124.76185631385306 187.0237288135104,122.85059440654004 182.7525423730258,119.31120651686797 179.94576271180995,118.32017465220997 158.7728813563008,120.01908554806141 154.56271186470985,127.80570693453774 152.30508474609815,136.65403360925848 162.49491525418125,141.6090469590854 179.51864406769164,140.68883288599318 184.21694915252738,139.27311652968638 187.38983050826937,134.38887279178016 187.38983050826937,124.05398215114838 180.31186440680176,118.24938660732005 158.71186440694146,120.23144911573036 154.3186440677382,128.3012162290397 152.12203389848582,136.22931652260013 162.80000000004657,141.67983260628534 180.49491525441408,140.61804713710444 183.9728813560214,139.41468829615042 187.5118644067552,134.03494074207265 187.38983050826937,124.97421842115 186.2915254237596,122.49665643507615 179.94576271180995,118.17859855532879 158.7728813563008,119.94829767750343 153.40338983060792,130.3540366566158 152.0610169491265,135.80459917453118 152.91525423736311,137.36189483880298 162.9220338985324,141.82140387862455 180.49491525441408,140.61804713710444 184.09491525404155,139.34390241641086 186.9627118643839,135.73381292441627 187.08474576263689,125.39894243917661 185.5593220340088,122.00114296982065 180.1898305087816,118.24938660732005 158.7728813563008,120.01908554806141 154.50169491535053,127.9472810549778 152.12203389848582,136.4416750985547 162.80000000004657,141.7506182459765 181.16610169480555,140.54726138117258 183.7288135595154,139.4854741683812 187.32881355914287,134.53044556087116 187.08474576263689,124.97421842115 185.86440677964129,122.28429356502602 180.49491525441408,118.32017465220997 161.94576271180995,119.24041857366683 158.22372881369665,120.23144911573036 153.40338983060792,130.28324984689243 152.24406779673882,136.65403360925848 162.18983050854877,141.6090469590854 179.09152542380616,140.75961862748954 183.60677966102958,139.697831741767 187.2067796611227,135.30909527122276 187.0237288135104,124.62028153950814 185.0101694916375,121.50562914845068 179.45762711879797,118.10781049600337 158.7728813563008,120.01908554806141 153.40338983060792,130.0708893747069 152.12203389848582,136.51246127591003 162.73898305092007,141.89218950405484 182.69152542366646,140.122546692146 186.2915254237596,137.00796431460185 187.4508474576287,134.24729999387637 186.6576271187514,123.98319469491253 181.71525423740968,118.95726672862656 178.90847457619384,118.24938660732005 162.61694915266708,119.24041857366683" stroke="#4DD2FF" stroke-linecap="round" stroke-linejoin="round" stroke-width="0.5"><title>2025-09-11 11.0km</title><desc>1757592695000</desc></polyline><polyline fill="none" points="31.63636363646947,158.07247962034307 30.833619211334735,158.86049699247815 18.854202401591465,159.79178910329938 13.667238421970978,169.82101000187686 12.370497427182272,176.91301493125502 23.053173241904005,181.8558848410612 43.92452830192633,179.85008677910082 48.0,174.7639301387244 47.75300171528943,165.30787843308644 46.1475128645543,162.01255758304615 40.898799313930795,158.2873935372918 19.656946826726198,159.50523781689117 18.11320754722692,160.723079971096 14.09948542015627,168.67482062219642 12.0,175.551928664383 14.593481989810243,178.20246263063746 22.806174957426265,181.8558848410612 41.82504288153723,180.63807956228266 44.54202401358634,179.4919079472893 48.0,175.26538384892046 48.0,166.02425047190627 46.703259005211294,162.65729549527168 40.4665523157455,158.2873935372918 18.607204116648063,159.93506470212014 13.9759862779174,169.0330050055636 12.123499142471701,175.9817456668825 13.173241852549836,177.41446709731827 23.176672384142876,181.92752037965693 40.837049742927775,180.78135088196723 44.4185248715803,179.63517950213281 47.93825042899698,175.26538384892046 47.75300171528943,165.09296667808667 45.90051457984373,161.86928241030546 40.40480274450965,158.21575557236793 19.286449399543926,159.50523781689117 14.408233276335523,168.31663605495123 12.246998284710571,176.4831985020428 23.7324185250327,181.92752037965693 41.33104631234892,180.70971522590844 44.10977701563388,179.77845102752326 47.87650085776113,175.40865627134917 47.87650085776113,165.16460393706802 46.20926243555732,162.01255758304615 39.84905660361983,158.07247962034307 19.348198971012607,159.6485134747927 14.284734134096652,168.4599099040497 12.185248713940382,175.48029247141676 12.617495711892843,177.27119508682517 24.22641509422101,181.92752037965693 42.751286449609324,180.4231725279824 47.56775300181471,175.9817456668825 47.38250428810716,163.87513214931823 42.31903945095837,158.86049699247815 39.60205831914209,158.1441176001681 18.915951972361654,159.79178910329938 12.802744425367564,172.54320223419927 12.493996569653973,177.05628701549722 23.238421955378726,181.7842492951313 41.20754717011005,180.63807956228266 44.78902229829691,179.13372893177439 47.93825042899698,174.47738499974366 47.56775300181471,165.16460393706802 46.57975986273959,162.51402045530267 40.960548885166645,158.3590314949979 31.94511149241589,158.3590314949979 20.21269296738319,159.50523781689117 18.483704974409193,160.43652906734496 12.740994854364544,172.75811169523513 12.617495711892843,177.19955907028634 23.547169811325148,181.8558848410612 42.1955403087195,180.49480821361067 46.826758147682995,176.91301493125502 48.0,173.11629398271907 47.259005145635456,163.87513214931823 42.56603773590177,159.1470485435566 38.861063464777544,158.21575557236793 24.04116638074629,159.21868641290348" stroke="#4DD2FF" stroke-linecap="round" stroke-linejoin="round" stroke-width="0.5"><title>2025-09-09 11.0km</title><desc>1757419935000</desc></polyline><polyline fill="none" points="78.85877644387074,157.78593133046525 76.3887935965322,158.86050080507994 65.52086906833574,159.8634308221517 60.148656375007704,170.17919877154054 58.7284162377473,176.69811239361297 69.28759291023016,182.21406866947655 86.76272155530751,181.06789952504914 90.96169239562005,179.77845698746387 94.17267009732313,175.2653893455863 94.5431675245054,163.87513647676678 91.76443682122044,160.7230839750846 87.50371640967205,158.1441213391954 65.33562035486102,160.07834420964355 60.333905088715255,169.82101493951632 58.66666666674428,176.19665966113098 59.83990851929411,177.62938079761807 68.97884505451657,182.14243315317435 90.40594625519589,180.06499997951323 94.4196683820337,174.76393558393465 94.5431675245054,165.164608396939 93.122927387245,162.22747444483684 87.75071469438262,158.28739729122026 65.52086906833574,160.07834420964355 60.457404231186956,169.24792042648187 58.79016580921598,175.91011508111842 59.59291023435071,177.4861088161706 69.41109205270186,181.99916209850926 87.25671812472865,180.99626389087643 91.82618639222346,178.70391971967183 93.74042309913784,174.83557185757672 94.66666666674428,167.52863406256074 93.49342481442727,162.585662174155 87.50371640967205,158.1441213391954 65.9531160662882,160.00670642097248 61.19839908531867,167.60027107904898 58.7284162377473,176.62647631095024 69.47284162417054,182.21406866947655 90.40594625519589,179.99336424242938 94.35791881103069,174.97884438297478 94.35791881103069,165.30788290750934 92.62893081782386,161.79764892731328 87.13321898248978,158.1441213391954 65.64436821057461,159.79179301147815 59.59291023435071,171.82684203033568 59.34591194987297,177.3428368056775 69.47284162417054,181.92752655991353 88.24471126357093,180.78135694476077 90.77644368237816,179.77845698746387 93.98742138384841,174.83557185757672 93.98742138384841,164.1616859982023 90.77644368237816,160.29325753089506 86.82447112677619,158.1441213391954 68.48484848509543,159.2903281317558 64.96512292767875,160.29325753089506 59.53116066358052,172.1133882869617 58.85191538068466,176.62647631095024 69.59634076617658,182.07079762947978 86.57747284183279,181.06789952504914 90.77644368237816,179.70682122098515 93.98742138384841,174.90720812388463 94.23441966855898,164.59151005983585 91.20869068033062,160.5081707861973 86.14522584341466,158.07248335209442 65.21212121238932,159.93506862525828 59.71640937705524,171.39702242490603 58.9754145226907,176.8413845364703 69.905088622123,181.85589101398364 88.42995997727849,180.566449932463 93.36992567195557,176.98465665010735 94.4196683820337,172.97302635124652 94.11092052632011,164.5198727346724 93.30817610095255,162.585662174155 89.35620354488492,159.2903281317558 86.5157232703641,158.1441213391954 68.73184676957317,159.2903281317558" stroke="#4DD2FF" stroke-linecap="round" stroke-linejoin="round" stroke-width="0.5"><title>2025-09-06 11.0km</title><desc>1757162103000</desc></polyline><polyline fill="none" points="123.76781609165482,158.62286025780486 113.27816091943532,159.41495293122716 111.47816091915593,160.4950778632192 106.32643678132445,171.44025002466515 105.33333333325572,176.48073240648955 115.01609195373021,181.8092029747786 122.6505747125484,181.95321513112867 134.87816091929562,180.80111705244053 139.03678160905838,178.56892164080637 141.33333333325572,174.60855746356538 140.71264367806725,163.44741085742135 135.80919540231116,158.6948687196127 133.1402298847679,157.83076668984722 124.20229885028675,158.04679229698377 112.03678160905838,159.84700310358312 106.94712643651292,169.56806163024157 105.33333333325572,176.192705817346 116.19540229835548,182.02522119838977 134.4436781606637,181.01713558624033 137.91954022971913,179.86503597022966 141.27126436773688,173.81648194545414 140.83678160910495,163.95146646833746 139.34712643641979,161.64720929024043 133.26436781603843,157.90277523291297 111.85057471250184,159.84700310358312 107.19540229835548,169.28003220289247 105.33333333325572,176.55273903516354 115.7609195401892,182.09722725796746 137.4229885058012,180.15306105167838 141.20919540221803,174.75257109833183 140.83678160910495,163.44741085742135 135.87126436759718,158.76687717397 133.26436781603843,157.97478376858635 112.09885057411157,159.99101976852398 107.8781609190628,167.55185315629933 105.33333333325572,176.33671912667342 106.63678160868585,177.7768505939748 116.50574712618254,182.16923331021098 135.126436781371,180.87312323774677 137.6091954021249,179.93704225157853 140.8988505746238,175.11260505503742 140.96091954014264,164.88756878487766 140.15402298839763,162.58331468165852 134.50574712641537,158.19080933154328 112.28505747113377,159.77499476011144 107.8781609190628,167.4798456034623 105.45747126406059,176.76875887735514 115.69885057443753,181.8092029747786 133.1402298847679,180.87312323774677 137.54712643660605,179.7930296815466 141.20919540221803,175.97668579802848 140.96091954014264,165.1756000154419 139.34712643641979,161.93524185143178 133.512643677881,158.04679229698377 112.03678160905838,159.84700310358312 107.13333333306946,169.42404693138087 105.45747126406059,176.48073240648955 115.51264367788099,182.02522119838977 137.29885057453066,180.08105479250662 141.20919540221803,175.25661858631065 141.08505747118033,164.81556095863925 139.2850574713666,161.57520113157807 134.1333333333023,158.11880081810523 114.89195402292535,159.19892774539767 111.47816091915593,160.27905300975544 105.82988505717367,172.95239854202373 105.45747126406059,176.69675227085827 115.7609195401892,181.8092029747786 136.98850574693643,180.15306105167838 140.96091954014264,175.61665228451602 140.83678160910495,164.4555217169691 139.34712643641979,161.8632337221643 133.57471264339983,158.04679229698377 112.78160919505171,159.34294454340125" stroke="#4DD2FF" stroke-linecap="round" stroke-linejoin="round" stroke-width="0.5"><title>2025-08-31 11.1km</title><desc>1756643837000</desc></polyline><polyline fill="none" points="171.56249999976717,157.20244841452222 168.62499999976717,158.72512922255555 157.9375,159.88526477786945 152.87499999976717,171.70403716852888 152.4375,176.6345095281722 163.0625,182.21750286023598 180.56249999976717,180.91239148780005 185.37499999976717,178.3746680272161 187.62499999976717,174.74933298362885 187.87499999976717,164.23575614055153 184.625,160.10278998228023 180.56249999976717,157.78251768072369 158.87499999976717,159.66773950646166 154.37499999976717,168.2236830186448 152.49999999976717,173.4442078131251 152.375,176.9245362424408 162.74999999976717,182.5075272823451 181.4375,180.83988522959407 185.12499999976717,179.09973280347185 187.9375,173.80674282461405 187.68749999976717,163.80070821003756 183.93749999976717,159.37770570692373 179.74999999976717,157.4924831071403 158.625,160.03028158837697 154.37499999976717,167.93365273211384 152.12499999976717,176.70701621792978 163.31249999976717,182.4350211881101 183.87499999976717,179.82479683525162 186.0625,177.64960250706645 187.81249999976717,173.5892218402587 187.56249999976717,163.72820019570645 185.1875,160.68285686714808 180.31249999976717,157.63750040880404 158.56249999976717,160.10278998228023 153.31249999976717,170.39890637178905 152.0,176.0544557426474 154.37499999976717,178.7372005082434 163.49999999953434,182.79755158547778 184.18749999976717,179.96980955236359 187.68749999976717,174.60431919491384 187.81249999976717,163.72820019570645 185.99999999976717,161.40793980262242 180.25,157.78251768072369 162.62499999976717,159.23268876265502 158.31249999953434,160.68285686714808 153.56249999976717,170.32639903470408 152.0,176.56200283108046 153.875,178.3746680272161 162.99999999976717,182.5075272823451 183.93749999976717,180.18732857203577 187.56249999976717,174.24178459285758 187.56249999976717,163.80070821003756 183.12499999976717,159.01516329008155 179.87499999976717,157.4924831071403 158.4375,160.10278998228023 154.37499999976717,168.07866789028049 152.12499999976717,176.1269624918932 153.8125,178.22965498262784 162.93749999976717,182.4350211881101 182.06249999976717,181.0574039813364 184.625,179.67978408839554 187.1875,175.9819489858928 187.62499999976717,163.80070821003756 185.12499999976717,160.68285686714808 180.31249999976717,157.4924831071403 158.6875,159.9577731869649 154.31249999976717,168.151175457926 152.5625,173.0816726158955 152.375,176.6345095281722 163.4375,182.4350211881101 182.99999999976717,180.83988522959407 186.87499999976717,177.06954955484252 188.0,173.37170078861527 187.87499999976717,164.23575614055153 182.62499999976717,158.58011214411817 177.62499999976717,157.4924831071403 163.4375,158.94265478424495" stroke="#4DD2FF" stroke-linecap="round" stroke-linejoin="round" stroke-width="0.5"><title>2025-08-29 11.0km</title><desc>1756472821000</desc></polyline><polyline fill="none" points="29.938566553173587,201.59020728629548 18.88054607529193,202.51673130964627 13.474402730353177,213.2073036809452 12.491467576706782,219.26522162777837 23.30375426635146,224.18278674286557 41.11945392540656,223.11375381081598 45.481228669406846,221.26075949636288 47.8156996590551,216.91333034838317 47.754266211995855,206.0802737227059 41.24232081929222,200.80622445471818 31.65870307199657,200.66368202655576 18.450511945411563,202.73054437019164 14.027303754352033,211.71063345804578 12.491467576706782,219.19395231216913 22.38225255976431,224.18278674286557 30.184300341410562,224.04024911369197 43.51535836211406,222.61487121263053 45.66552901058458,220.97568300925195 47.87713310611434,216.91333034838317 47.8156996590551,206.0802737227059 42.53242320870049,201.3763938745251 35.713310580467805,200.5211395691731 19.74061433481984,201.9465628261678 17.65187713340856,204.01342135079904 14.580204778118059,210.35650047648232 12.430034129880369,218.62379752343986 23.795221843058243,224.39659313170705 42.409556314349174,222.97121596208308 46.832764505408704,219.47902953100856 48.0,216.27190407167654 47.93856655340642,206.7217094147345 41.61092150211334,200.87749565776903 21.092150170821697,201.8040206321748 18.08191126282327,203.51452502893517 14.580204778118059,210.35650047648232 12.245733788702637,218.26745054282947 13.597269624471664,220.1204528452363 22.07508532423526,224.04024911369197 28.095563139999285,224.18278674286557 43.023890785407275,222.82867808442097 47.38566552940756,218.7663362644962 47.447098976466805,206.36535632575396 42.409556314349174,201.30512272269698 32.88737201411277,200.59241080167703 20.84641638235189,201.66147840890335 18.38907849811949,202.6592733571888 14.580204778118059,210.6415813236963 12.430034129880369,216.84206079144496 12.982935153413564,219.90664513973752 23.058020478114486,224.32532434276072 41.733788395999,223.11375381081598 44.31399317458272,221.97345020255307 46.64846416399814,219.05141365888994 47.754266211995855,216.20063444867264 47.87713310611434,210.07141951227095 47.69283276470378,206.6504388114554 46.34129692870192,204.36977564694826 41.365187713410705,200.73495324427495 24.839590443763882,201.59020728629548 12.491467576706782,195.60340686829295 12.0,197.31392654118827 12.860068259527907,199.95096944691613 16.668941979529336,205.2250252114609 12.491467576706782,216.05809518083697 12.30716723552905,218.48125875310507 13.290102389175445,219.8353758896119 22.443686007056385,224.04024911369197 41.85665529035032,223.11375381081598 46.402730375994,219.69283736817306 47.87713310611434,215.6304772022413 46.832764505408704,204.93994214053964 42.1638225261122,201.09130922320765 31.65870307199657,200.66368202655576 22.627986348234117,201.59020728629548 19.00341296941042,202.51673130964627 17.221843003528193,204.79740056104492 12.491467576706782,216.55698249017587 13.167235495056957,219.8353758896119 22.136518771527335,223.8977114551817 24.839590443763882,224.18278674286557 31.167235495056957,223.75517376762582 42.9624573381152,219.6215680965106 36.327645051293075,222.61487121263053 42.65529010258615,222.75740913441405 46.5870307169389,219.47902953100856 47.754266211995855,216.05809518083697 47.50853242375888,208.43220169632696 46.77133105858229,205.29629596113227 44.68259385670535,203.0868993247277 40.3208191129379,200.59241080167703 26.252559727057815,201.44766501913546" stroke="#4DD2FF" stroke-linecap="round" stroke-linejoin="round" stroke-width="0.5"><title>2025-08-27 11.4km</title><desc>1756300085000</desc></polyline><polyline fill="none" points="91.47756956308149,217.50624275242444 94.17603634321131,215.01606385211926 93.99204997182824,204.34376723668538 89.33106189663522,199.29215620819014 85.95797842158936,198.08261007635156 65.29017603653483,200.1459522069199 60.506530380574986,209.39534144941717 58.66666666674428,216.0832844763645 62.0397501422558,218.7869027038687 69.15388983557932,221.9173948460957 88.28847245895304,220.70788819424342 91.0482680296991,219.4983794320724 94.05337876244448,214.87376764474902 94.1147075528279,203.9880211863201 88.65644520171918,198.79410805657972 86.08063600258902,198.01146023819456 65.84213515091687,199.64790466881823 61.181147075491026,207.54547347477637 58.66666666674428,216.15443245944334 63.63429869432002,219.4983794320724 70.25780806387775,222.05968960741302 90.31232254439965,219.92526511853794 93.93072118144482,215.15836003032746 94.66666666674428,204.7706622563419 91.10959682008252,200.71514895517612 87.06189664965495,198.1537599071744 65.47416240815073,199.8613536574412 61.30380465625785,207.47432460804703 58.85065303836018,216.01213648577686 60.07722884742543,217.50624275242444 70.01249290211126,222.05968960741302 86.93923906888813,220.9924781845766 90.55763770616613,219.8541175221908 93.93072118144482,215.08721194474492 94.36002271459438,204.7706622563419 91.35491198231466,201.07089668535627 85.8353208405897,198.01146023819456 65.35150482715108,200.07480258034775 60.75184554234147,208.96844927826896 58.85065303836018,216.15443245944334 61.794434980489314,218.7157549909316 69.95116411149502,222.05968960741302 85.89664963120595,221.3482155081001 90.92561044869944,219.56952706479933 93.99204997182824,213.8065451584407 94.23736513359472,204.69951310456963 90.18966496339999,200.07480258034775 85.46734809782356,198.01146023819456 65.22884724591859,200.00365294679068 60.56785917119123,209.3241927723284 58.72799545712769,216.36787636531517 69.33787620672956,221.98854223039234 90.2509937537834,220.3521505421959 94.48268029559404,215.5141003478202 94.17603634321131,204.55721477943007 92.27484383899719,201.64009267406072 86.08063600258902,197.94031039258698 65.35150482715108,199.71905433916254 59.40261215250939,212.66817269509193 58.85065303836018,216.0832844763645 59.70925610489212,217.57739058986772 70.25780806387775,222.05968960741302 88.04315729718655,220.9213306978345 90.80295286793262,219.78296991885873 93.37876206729561,216.8659118898213 94.36002271459438,212.95276598638156 94.1147075528279,204.98410966765368 93.19477569567971,202.77848324883962 89.14707552525215,199.2210064943065 86.32595116412267,198.22490973077947 67.98864281666465,199.29215620819014" stroke="#4DD2FF" stroke-linecap="round" stroke-linejoin="round" stroke-width="0.5"><title>2025-08-21 10.0km</title><desc>1755782353000</desc></polyline><polyline fill="none" points="140.09195402287878,217.3448107103468 141.27126436773688,214.39253650570754 140.58850574679673,203.5914274409297 135.62298850528896,198.69486987998243 132.7057471263688,197.83076793892542 111.85057471250184,199.84700414561667 105.7057471263688,216.12069852335844 106.6988505742047,217.4888237681589 115.63678160891868,221.52117739082314 136.80229885061271,220.22506625403184 141.20919540221803,215.4006315334118 140.46436781599186,204.02347499650205 136.1195402299054,199.48696239118 132.51954022981226,198.3348275339231 111.78850574675016,200.0630291099078 107.07126436755061,211.29623557726154 106.1402298847679,217.12879106792388 116.38160919491202,222.16923206107458 137.3609195400495,219.9370412317803 141.14712643646635,214.68056380434427 140.83678160910495,204.1674907892011 138.788505746983,201.35917749785585 133.1402298847679,198.11880203755572 112.03678160905838,199.9910207960056 107.25747126387432,209.5680616745958 105.7057471263688,215.97668518446153 106.574712643167,217.4888237681589 116.00919540203176,221.73719568079105 134.9402298850473,220.65710356552154 137.6091954021249,219.64901609130902 141.0229885056615,215.1846112923231 140.8988505746238,204.31150655262172 136.1195402299054,199.2709372494137 133.26436781603843,198.04679352411767 111.9747126433067,199.91901247453643 106.574712643167,210.7921852952568 105.33333333325572,216.408725112502 116.81609195377678,221.95321390440222 137.85747126396745,219.7930286762421 141.20919540221803,215.1846112923231 140.6505747125484,203.80745125201065 135.62298850528896,199.05491204134887 133.1402298847679,198.19081054371782 111.72643678123131,199.9910207960056 107.07126436755061,210.21612738701515 105.82988505717367,217.3448107103468 116.319540229626,221.80920176254585 137.11264367797412,219.86503495759098 141.33333333325572,214.68056380434427 141.0229885056615,204.4555222860654 139.22298850561492,201.57520199625287 133.0781609194819,198.04679352411767 112.09885057411157,199.77499580959557 106.76091953972355,210.57616363512352 105.7057471263688,217.12879106792388 114.76781609142199,221.59318349475507 118.36781609174795,221.95321390440222 136.1195402299054,220.44108494312968 141.33333333325572,215.90467850404093 140.71264367806725,203.80745125201065 135.62298850528896,198.98290362401167 132.7057471263688,198.11880203755572 123.7057471263688,198.26281904254574 113.77471264335327,199.19892885407899 111.29195402259938,200.7831118432223" stroke="#4DD2FF" stroke-linecap="round" stroke-linejoin="round" stroke-width="0.5"><title>2025-07-22 10.0km</title><desc>1753187142000</desc></polyline><polyline fill="none" points="162.59723941702396,221.88239281787537 170.70985375437886,227.52941541164182 178.61965273320675,222.35297856642865 177.40276058297604,199.05886809295043 171.52111518848687,192.70588778774254 165.2338390769437,193.41177535778843 161.17753190826625,198.58827756298706 162.80005477555096,219.529462631559 171.92674590460956,226.5882459457498 178.82246809173375,218.35299663222395 176.38868379127234,196.0000279219821 168.68170017004013,192.70588778774254 163.40850085113198,195.05884550954215 160.97471654973924,200.70593418669887 163.40850085113198,221.17651401576586 170.10140767879784,226.5882459457498 175.78023771569133,224.70590585353784 178.82246809173375,219.529462631559 177.40276058297604,198.11768693639897 171.31829982995987,192.4705918834079 161.17753190826625,197.88239158736542 162.39442405942827,218.35299663222395 169.89859232120216,226.8235383478459 177.40276058297604,223.29414977086708 177.40276058297604,199.2941633220762 172.94082269724458,192.70588778774254 162.19160869996995,196.70591447711922 163.20568549167365,219.05887630442157 169.08733088709414,225.4117835694924 178.01120665855706,218.35299663222395 177.19994522444904,196.70591447711922 173.1436380557716,192.70588778774254 161.78597798291594,196.70591447711922 162.19160869996995,218.35299663222395 169.69577696267515,227.05883072689176 175.577422356233,226.35295351874083 178.82246809173375,221.17651401576586 178.01120665855706,198.58827756298706 173.54926877189428,192.70588778774254 165.0310237184167,193.1764795256313 160.77190119121224,200.47063910332508 162.80005477555096,222.58827140345238 172.94082269724458,228.0 178.82246809173375,222.11768570402637 178.01120665855706,198.58827756298706 169.49296160414815,192.23529595369473 160.97471654973924,199.05886809295043 162.80005477555096,222.11768570402637 172.53519198019058,227.52941541164182 177.40276058297604,226.11766106728464 179.02528345119208,220.94122103368863 176.79431450832635,196.70591447711922 166.8563619442284,192.70588778774254 161.58316262438893,199.2941633220762 163.00287013407797,220.70592802669853 166.6535465857014,225.4117835694924 172.3323766225949,226.35295351874083 178.82246809173375,218.11770336003974 176.59149914886802,197.647096213419 172.3323766225949,193.1764795256313 166.04510051105171,193.1764795256313 161.17753190826625,200.2353439948056 163.20568549167365,221.41180697386153 167.05917730368674,225.8823685925454 172.94082269724458,226.5882459457498 178.61965273320675,220.47063499549404 176.38868379127234,196.23532346496359 165.6394697939977,193.41177535778843 160.97471654973924,200.47063910332508 163.20568549167365,221.17651401576586 172.53519198019058,226.5882459457498 178.82246809173375,217.88241006364115 176.99712986685336,197.17650539404713 167.46480801980942,192.70588778774254 161.38034726586193,198.58827756298706 163.40850085113198,221.88239281787537 170.70985375437886,226.8235383478459 176.38868379127234,224.94119845004752 178.82246809173375,219.76475575868972 176.99712986685336,196.470618983265 166.2479158686474,192.9411836687941 160.97471654973924,201.4118192929309 164.21976228524,223.76473522838205 173.1436380557716,226.8235383478459 178.82246809173375,220.47063499549404 176.79431450832635,196.9412099479232 169.89859232120216,192.4705918834079 161.38034726586193,199.2941633220762 163.61131620965898,222.58827140345238 171.1154844723642,226.8235383478459 179.02528345119208,219.29416948067956 177.19994522444904,196.70591447711922 169.08733088709414,192.0 161.78597798291594,197.647096213419 163.40850085113198,221.88239281787537 170.91266911290586,226.5882459457498 176.79431450832635,224.70590585353784 179.22809880785644,219.29416948067956 177.60557594057173,198.11768693639897 171.31829982995987,192.23529595369473 163.40850085113198,194.82354984618723 161.38034726586193,199.76475370652042 164.21976228524,223.05885700532235 173.1436380557716,226.11766106728464 179.02528345119208,219.29416948067956 177.40276058297604,196.9412099479232 172.94082269724458,192.70588778774254 166.6535465857014,192.4705918834079 161.17753190826625,199.76475370652042 163.40850085113198,222.11768570402637 170.70985375437886,227.05883072689176 176.79431450832635,224.94119845004752 179.22809880785644,219.529462631559 177.60557594057173,198.11768693639897 173.9548994898796,192.9411836687941 167.66762337833643,192.0 161.38034726586193,198.58827756298706 163.00287013407797,220.70592802669853 172.3323766225949,227.05883072689176 178.82246809173375,221.41180697386153 177.40276058297604,197.41180081595667 167.46480801980942,192.23529595369473 161.38034726586193,198.58827756298706 163.20568549167365,222.58827140345238 173.54926877189428,227.05883072689176 179.22809880785644,220.94122103368863 177.80839130003005,198.58827756298706 170.50703839678317,192.0 164.21976228524,193.647071165964 160.97471654973924,199.05886809295043 163.00287013407797,221.17651401576586 170.30422303825617,227.05883072689176 175.98305307421833,225.4117835694924 179.02528345119208,220.23534194100648 177.19994522444904,197.88239158736542 173.1436380557716,192.9411836687941 167.05917730368674,192.23529595369473 161.38034726586193,199.05886809295043 163.00287013407797,221.17651401576586 166.6535465857014,226.11766106728464 172.7380073396489,227.05883072689176 178.82246809173375,220.70592802669853 176.38868379127234,195.7647323552519 168.88451552856714,192.23529595369473 161.58316262438893,198.82357284030877 163.20568549167365,220.94122103368863 170.50703839678317,226.8235383478459 178.61965273320675,221.41180697386153 176.59149914886802,196.470618983265 168.47888481151313,192.23529595369473 161.78597798291594,197.88239158736542 164.016946926713,222.58827140345238 171.92674590460956,226.8235383478459 178.82246809173375,220.23534194100648 176.59149914886802,196.70591447711922 168.27606945298612,192.23529595369473 161.78597798291594,199.05886809295043 163.20568549167365,219.76475575868972 166.6535465857014,225.17649102164432 173.1436380557716,226.11766106728464 178.82246809173375,218.82358310418203 176.79431450832635,198.11768693639897 168.68170017004013,192.9411836687941 161.78597798291594,199.2941633220762 165.8422851525247,223.05885700532235 172.3323766225949,225.8823685925454" stroke="#4DD2FF" stroke-linecap="round" stroke-linejoin="round" stroke-width="0.5"><title>2025-05-09 10.0km</title><desc>1746796175000</desc></polyline><polyline fill="none" points="25.365538075566292,262.6234127751086 27.985016555525362,266.3636487098411 34.432963580824435,266.83117777016014 38.86592716071755,258.649405361386 36.44794702716172,236.2078215801157 27.985016555525362,232.46753611485474 21.33557118475437,238.54549687565304 23.955049662850797,262.85717770061456 34.029966892674565,268.0 39.47042219527066,261.22082271496765 36.85094371624291,237.3766595281195 30.402996690012515,232.0 21.134072839282453,237.84419453935698 22.746059596538544,261.9221178526059 26.574528142809868,266.5974132521078 32.61947847995907,267.5324711804278 38.86592716071755,260.98705762065947 37.85843543894589,239.71433362434618 30.000000000931323,232.46753611485474 24.358046353794634,233.87014388432726 21.134072839282453,239.01303164707497 22.746059596538544,260.05199700477533 31.410488411784172,267.06494226376526 38.059933783486485,262.1558828500565 37.052442060783505,239.01303164707497 27.985016555525362,233.16884010774083 20.932574494741857,241.3507040636614 23.552052974700928,262.1558828500565 30.60449503455311,267.29870673432015 36.44794702716172,264.96106095355935 38.46293047256768,259.3507012913469 35.84345199260861,235.97405391838402 27.985016555525362,232.70130413677543 21.33557118475437,238.3117294544354 23.552052974700928,262.3896478244569 30.805993378162384,266.83117777016014 38.46293047256768,258.88317069550976 36.64944537077099,238.07796200853772 26.97752483189106,233.16884010774083 20.932574494741857,239.24679899704643 24.156548008322716,263.09094260213897 32.21648179087788,267.06494226376526 38.66442881710827,257.9481092165224 36.64944537077099,237.610427045729 26.776026487350464,233.16884010774083 20.73107615020126,239.71433362434618 23.955049662850797,262.85717770061456 33.82846854720265,266.5974132521078 38.66442881710827,259.818231791025 37.052442060783505,239.01303164707497 28.18651490006596,232.93507213471457 20.529577805660665,240.88316977233626 24.156548008322716,263.792237163987 32.01498344633728,267.06494226376526 38.059933783486485,260.7532925021369 36.44794702716172,237.14289198582992 29.194006621837616,232.70130413677543 20.529577805660665,239.48056632233784 23.35055462922901,261.9221178526059 29.798501655459404,267.06494226376526 38.26143212709576,261.22082271496765 36.64944537077099,238.07796200853772 30.60449503455311,232.93507213471457 25.164039731025696,233.63637598301284 20.529577805660665,240.4156353850849 23.552052974700928,263.09094260213897 30.805993378162384,267.06494226376526 37.65693709347397,262.6234127751086 37.052442060783505,239.24679899704643 31.410488411784172,233.40260805748403 21.537069528363645,237.3766595281195 22.544561251997948,259.1169360051863 25.164039731025696,264.96106095355935 30.805993378162384,267.5324711804278 38.059933783486485,262.3896478244569 36.85094371624291,238.07796200853772 30.000000000931323,232.70130413677543 24.358046353794634,234.10391176166013 20.932574494741857,239.01303164707497 22.746059596538544,260.28576219524257 27.582019865512848,266.5974132521078 33.22397351358086,267.7662356023211 38.46293047256768,261.22082271496765 37.2539404053241,239.48056632233784 28.589511588215828,232.70130413677543 20.932574494741857,240.18186815502122 23.552052974700928,263.3247074796818 31.410488411784172,267.29870673432015 38.66442881710827,258.88317069550976 37.052442060783505,238.3117294544354 27.783518210053444,232.70130413677543 20.529577805660665,240.4156353850849 22.746059596538544,261.68835283024237 26.776026487350464,266.3636487098411 32.61947847995907,267.06494226376526 38.46293047256768,261.68835283024237 36.44794702716172,237.3766595281195 28.99250827729702,232.70130413677543 21.940066217444837,237.3766595281195 22.544561251997948,261.22082271496765 31.410488411784172,267.29870673432015 38.66442881710827,259.3507012913469 36.24644868262112,236.441589217633 28.388013243675232,232.70130413677543 20.529577805660665,240.64940259046853 22.746059596538544,261.9221178526059 26.97752483189106,266.5974132521078 33.02247516904026,267.06494226376526 38.66442881710827,260.05199700477533 37.052442060783505,237.84419453935698 30.201498344540596,232.46753611485474 21.134072839282453,239.24679899704643 23.552052974700928,262.85717770061456 31.007491723634303,267.06494226376526 37.65693709347397,261.68835283024237 36.85094371624291,238.77926427312195 30.805993378162384,233.16884010774083 25.365538075566292,233.87014388432726 21.73856787290424,241.11693692952394 22.746059596538544,260.7532925021369 28.388013243675232,266.83117777016014 37.85843543894589,261.9221178526059 36.44794702716172,236.6753568314016 29.59700331185013,232.70130413677543 23.955049662850797,234.80521525046788 21.134072839282453,239.9481009019073 22.746059596538544,262.6234127751086 32.82097682449967,267.29870673432015 38.26143212709576,261.22082271496765 36.85094371624291,238.3117294544354 28.18651490006596,232.93507213471457 21.134072839282453,240.4156353850849 23.552052974700928,262.6234127751086 30.402996690012515,267.06494226376526 38.66442881710827,260.05199700477533 36.44794702716172,236.6753568314016 29.395504967309535,232.70130413677543 20.932574494741857,239.48056632233784 22.544561251997948,261.68835283024237 31.2089900681749,267.29870673432015 38.66442881710827,259.818231791025 36.85094371624291,237.3766595281195 30.805993378162384,232.46753611485474 21.537069528363645,238.07796200853772 22.34306290652603,261.22082271496765 30.805993378162384,267.06494226376526 38.26143212709576,260.05199700477533 36.64944537077099,237.84419453935698 27.582019865512848,233.16884010774083 21.134072839282453,240.88316977233626 22.746059596538544,261.45458778436296 30.201498344540596,266.3636487098411 38.059933783486485,259.58446655375883 36.24644868262112,236.6753568314016 28.388013243675232,232.93507213471457 21.537069528363645,238.77926427312195 23.552052974700928,261.22082271496765 31.61198675725609,265.6623549400829 38.66442881710827,259.3507012913469 37.455438748933375,239.9481009019073 30.805993378162384,232.70130413677543" stroke="#4DD2FF" stroke-linecap="round" stroke-linejoin="round" stroke-width="0.5"><title>2025-05-03 10.2km</title><desc>1746275352000</desc></polyline></svg>