<?xml version="1.0" encoding="utf-8" ?>
<svg baseProfile="full" height="300mm" version="1.1" viewBox="0,0,200,300" width="200mm" xmlns="http://www.w3.org/2000/svg" xmlns:ev="http://www.w3.org/2001/xml-events" xmlns:xlink="http://www.w3.org/1999/xlink"><defs /><rect fill="#222222" height="300" width="200" x="0" y="0" /><text fill="#FFFFFF" style="font-size:12px; font-family:Arial; font-weight:bold;" x="10" y="20">Over 10km Runs</text><text fill="#FFFFFF" style="font-size:4px; font-family:Arial" x="10" y="280">Runner</text><text fill="#FFFFFF" style="font-size:9px; font-family:Arial" x="10" y="290">Wangyp</text><text fill="#FFFFFF" style="font-size:4px; font-family:Arial" x="65" y="280">SPECIAL TRACKS</text><rect fill="yellow" height="2.6" width="2.6" x="65" y="283" /><text fill="#FFFFFF" style="font-size:3px; font-family:Arial" x="70" y="285.5">Over 20.0 km</text><rect fill="red" height="2.6" width="2.6" x="65" y="287" /><text fill="#FFFFFF" style="font-size:3px; font-family:Arial" x="70" y="289.5">Over 40.0 km</text><text fill="#FFFFFF" style="font-size:4px; font-family:Arial" x="120" y="280">STATISTICS</text><text fill="#FFFFFF" style="font-size:3px; font-family:Arial" x="120" y="285">Number: 18</text><text fill="#FFFFFF" style="font-size:3px; font-family:Arial" x="120" y="290">Weekly: 1.6</text><text fill="#FFFFFF" style="font-size:3px; font-family:Arial" x="141" y="285">Total: 208.4 km</text><text fill="#FFFFFF" style="font-size:3px; font-family:Arial" x="141" y="290">Avg: 11.6 km</text><text fill="#FFFFFF" style="font-size:3px; font-family:Arial" x="167" y="285">Min: 10.0 km</text><text fill="#FFFFFF" style="font-size:3px; font-family:Arial" x="167" y="290">Max: 21.3 km</text><polyline fill="none" points="51.2398305083625,60.02560732385609 52.75,57.23839786759345 51.926271186210215,45.69128059159266 46.0915254233405,39.95747574127745 42.52203389839269,39.001837479532696 19.66355932224542,41.072385558800306 13.691525423899293,53.25665270304307 12.524576271418482,59.62743515742477 24.81186440680176,65.83889768377412 41.69830508483574,64.88329130108468 48.837288135197014,63.21097729919711 52.681355932028964,58.59218656824669 52.2694915253669,46.88581793481717 50.41610169457272,43.62074483965989 44.44406779669225,39.08147404628107 19.732203389750794,40.833476447092835 13.760169491637498,52.619571580551565 12.524576271418482,59.94597290700767 25.223728813696653,65.91853149578674 45.267796610016376,64.40548766835127 48.63135593221523,63.21097729919711 52.681355932028964,58.51255200430751 52.20084745739587,47.124725182773545 50.27881355909631,43.46147262962768 43.48305084742606,38.92220090451883 19.457627118565142,41.31129459681688 13.89745762734674,52.38066602445906 12.387288135709241,59.38853175949771 13.348305084975436,60.901585370942485 25.155084745492786,65.91853149578674 45.885593220358714,64.48512162751285 48.90593220316805,63.21097729919711 52.61271186429076,58.43291743216105 51.85762711847201,45.5320088067092 45.47372881346382,39.79820277937688 39.02118644025177,38.92220090451883 19.594915254507214,41.072385558800306 13.211016949266195,54.530813379213214 12.25,59.22926278668456 13.41694915248081,60.981219689769205 25.223728813696653,65.99816529959207 40.80593220307492,64.96292521117721 48.56271186424419,63.37024545460008 52.61271186429076,58.67182112426963 51.99491525418125,45.930188207363244 45.33644067798741,39.47965675749583 38.472033898113295,38.92220090451883 19.526271186536178,41.15202191314893 13.966101695084944,52.5399364035693 12.661864406662062,60.26451052550692 24.605932203354314,65.91853149578674 48.082203389843926,63.6091476266738 52.75,58.59218656824669 52.13220338965766,46.6469106132281 46.022881356067955,40.03711220988771 42.86525423731655,39.08147404628107 19.869491525460035,41.15202191314893 14.03474576282315,52.38066602445906 12.593220339389518,60.02560732385609 25.223728813696653,66.07779909548117 47.46440677926876,64.00731774972519 52.33813559310511,59.786704048572574 52.063559321919456,46.08945991023211 46.22881355904974,40.19638512277743 41.97288135578856,39.001837479532696 26.047457627253607,40.435294430702925" stroke="#4DD2FF" stroke-linecap="round" stroke-linejoin="round" stroke-width="0.5"><title>2025-10-22 10.1km</title><desc>1761137801000</desc></polyline><polyline fill="none" points="77.08836065573269,55.39300298956368 83.99327868854743,56.988188845331024 85.56016393442405,57.50275946985494 83.72770491801202,59.50955946750037 81.558852459013,60.80623947024287 80.53196721311542,62.80268198023259 80.08049180326634,64.09931905395933 79.7795081967488,64.18164464674919 77.76114754096488,64.03757481465436 74.21131147540291,62.87471781664499 71.39622950821649,62.308720553832245 69.07688524591504,66.52789540048252 68.74934426229447,66.7439946604427 64.67721311474452,64.23309810763021 64.57098360653617,63.872923322524 65.10213114751969,62.072029834358545 66.21754098360543,60.06528153862746 67.19131147541339,56.75148546403943 68.38639344263356,56.62798782407481 69.28934426227352,56.73090253469127 73.18442622950533,58.68626180280262 73.47655737702735,58.37752342150634 74.63622950820718,55.053379471442895 74.49459016392939,54.76521315253194 74.06967213115422,54.64171304597403 59.542786885256646,51.34832029086101 57.59524590166984,50.87488611543813 57.347377049183706,50.66904446655826 57.25,48.82674273504381 57.435901639342774,46.397734090074664 58.38311475410592,43.11436113292439 58.79918032788555,42.23946289440937 59.994262295076624,40.458763871931296 61.70278688526014,38.523632812997676 62.20737704919884,38.25600533956458 64.44704918033676,39.62501521547529 64.56213114754064,39.8617593720337 62.59688524590456,42.95996788561024 61.96836065570824,45.162622189789545 62.44639344263123,43.5466609497671 62.93327868852066,42.4453219961797 64.68606557379826,39.90293221128377 70.1745901639224,41.838036419823766 73.90147540983162,42.55854432045453 74.36180327867623,42.486493765383784 75.17622950818622,42.87762472235772 75.22934426230495,45.67725401293865 75.34442622947972,45.94486150820012 75.64540983602637,46.006616981750994 78.40737704918138,45.625790950492956 80.46999999997206,45.72871704872523 82.30245901638409,46.212468283185444 84.17032786883647,47.17996369097091 82.18737704915111,46.20217572822003 80.0450819671969,45.69783923045179 78.44278688525083,45.66696140258864 75.48606557378662,46.099250120139914 74.17590163933346,46.10954268575733 72.56475409836276,46.027202131073864 70.26311475408147,45.615498334802396 69.51950819671038,48.5385583712341 69.64344262293889,48.79586587887752 84.32967213113443,52.326057649093855 96.84704918030184,55.135712552022596 97.679180327832,55.50621057119861 97.75,55.94874806293228 97.26311475411057,59.47868592807208 97.0772131147387,59.74625628483045 96.64344262290979,59.85945891135634 77.07065573771251,55.3621281721862" stroke="yellow" stroke-linecap="round" stroke-linejoin="round" stroke-width="0.5"><title>2025-10-12 21.3km</title><desc>1760225536000</desc></polyline><polyline fill="none" points="124.64249146776274,40.51329610613175 119.38993174070492,40.19257600500714 109.64505119458772,41.71599531255197 103.07935153599828,54.14377867814619 102.25,59.114836661552545 103.0102389077656,60.87875285779592 115.17406143341213,65.68941314902622 135.07849829364568,64.40657330147224 138.3267918091733,63.28408670669887 141.09129692870192,60.71839700470446 142.47354948846623,57.511273026582785 141.92064846423455,45.48444083420327 137.5665529014077,40.753836095449515 133.8344709901139,39.07005461398512 109.71416382258758,41.395275705261156 104.18515358353034,52.21948967530625 102.59556313976645,60.07697326235939 114.13737201387994,65.60923572012689 135.90784982941113,64.16604059556266 140.26194539270364,61.68053163046716 142.54266211623326,57.6716295380611 141.92064846423455,45.72497929277597 138.53412969317287,41.55563552532112 134.24914675811306,39.150234766770154 109.36860068282112,41.55563552532112 103.90870307176374,53.02127733605448 102.80290102376603,60.47786316293059 116.07252559741028,65.76959056936903 133.76535836188123,64.72728346084477 139.98549488047138,61.84088728623465 142.54266211623326,56.629311623983085 141.50597269670106,44.44210665777791 135.00938566587865,39.23041491146432 123.951365187997,39.551135407644324 109.43771331035532,41.79617519368185 103.42491467576474,53.98342144227354 102.87201365199871,60.63821906555677 114.4829351536464,65.76959056936903 131.208191126585,65.04799348860979 138.60324232140556,63.28408670669887 142.61177474423312,57.83198601694312 142.3353242322337,45.96551767725032 136.46075085364282,39.871855772216804 132.5904436861165,39.150234766770154 111.7184300343506,40.673656107333954 108.60836177505553,43.159231915778946 103.07935153599828,55.82752766716294 102.66467576799914,59.91661724454025 106.05119453952648,62.241776281560306 114.13737201387994,65.8497679818538 134.31825938564725,64.64710593328346 138.46501706494018,63.364264374016784 142.61177474423312,57.6716295380611 142.47354948846623,45.64479981485056 136.8063139936421,40.032215904968325 132.65955631434917,39.31059504800942 111.51109215035103,40.753836095449515 109.64505119458772,41.71599531255197 107.57167235505767,45.16372277424671 102.38822525576688,59.35537092277082 103.56313993176445,60.95893077191431 114.27559726964682,65.92994538601488 132.79778157011606,64.80746098002419 138.7414675769396,62.8030205295654 141.85153583646752,59.59590511000715 142.75,56.95002497674432 142.47354948846623,46.36641482019331 139.15614334517159,41.956534931843635 134.52559726964682,39.47095529589569 110.3361774745863,41.234915852197446 105.01450511952862,50.61591188528109 102.52645051223226,59.83643922308693 113.86092150188051,65.68941314902622 118.49146757693961,65.76959056936903" stroke="#4DD2FF" stroke-linecap="round" stroke-linejoin="round" stroke-width="0.5"><title>2025-10-08 10.1km</title><desc>1759925805000</desc></polyline><polyline fill="none" points="159.16996557661332,40.85492164239986 153.66308089485392,43.44275743077742 148.71385542163625,53.87488424975891 147.31970740132965,59.373934261500835 148.3653184166178,61.072162537660915 159.03055077488534,65.92422315705335 180.43072289181873,64.38774052722147 183.6372633392457,63.33646121178754 187.33175559411757,57.91830711113289 187.05292598973028,46.19232364196796 185.65877796895802,43.523627162270714 179.73364888131618,39.48013042245293 168.78958691912703,39.64187069050968 154.5692771084141,41.90623095660703 149.82917383825406,50.47839300951455 147.31970740132965,58.969593656016514 151.08390705706552,62.123444874363486 158.82142857136205,65.60075337887974 176.31798623059876,64.95381342369365 183.6372633392457,63.09385809395462 186.49526678188704,60.34435086749727 187.54087779694237,57.59483404603088 187.47117039607838,46.83927900280105 183.91609294340014,41.744491153454874 179.3851118760649,39.39926027611364 155.12693631695583,41.340141500288155 149.82917383825406,50.64013101963792 147.25,59.778274659242015 159.03055077488534,65.76248828467214 183.00989672983997,63.49819658242632 187.19234079192393,59.05046179384226 187.54087779694237,46.92014838568866 185.72848537005484,43.28101794311078 179.6639414804522,39.23751995805651 154.5692771084141,41.421011447382625 148.85327022359706,52.742722130031325 147.73795180744492,59.697406596154906 158.9608433735557,65.51988591341069 179.59423407912254,64.38774052722147 183.6372633392457,63.17472580820322 187.680292599136,58.32264825608581 187.19234079192393,45.626237265300006 184.12521514622495,41.744491153454874 179.87306368350983,39.15664978674613 155.26635111914948,40.93579163955292 149.4806368330028,51.44882057234645 147.25,59.29306615696987 150.66566265071742,62.2851804937236 159.86703958711587,65.76248828467214 183.14931153180078,63.821667223994154 187.75,57.91830711113289 186.4255593805574,44.00884537643287 181.82487091235816,39.96535112702986 178.89716006908566,38.99490941897966 156.172547332244,41.016661628498696 153.31454388983548,43.36188769101864 149.13209982798435,52.58098455151776 147.45912220329046,60.10174682788784 154.70869191060774,64.22600533918012 160.6338209984824,66.00509058102034 179.52452667825855,64.6303432470886 184.40404475061223,62.608651633549016 187.75,57.51396575907711 187.47117039607838,47.64797245699447 186.1467297761701,43.84710600483231 181.33691910491325,39.8844810303417 178.54862306360155,39.15664978674613 156.38166953530163,40.69318162341369 153.31454388983548,43.44275743077742 147.87736660940573,56.46267727186205 147.52882960415445,60.586954832135234 159.58820998296142,66.00509058102034 175.20266781398095,64.79207835177658" stroke="#4DD2FF" stroke-linecap="round" stroke-linejoin="round" stroke-width="0.5"><title>2025-10-06 10.0km</title><desc>1759752637000</desc></polyline><polyline fill="none" points="28.72931034490466,89.05828751117224 20.070689655141905,90.03040039882762 12.529310344485566,106.96117448451696 13.367241379106417,109.95845071581425 24.399999999906868,114.7378676457447 43.951724137878045,113.44175744004315 48.28103448287584,111.98363091453211 52.4706896552816,107.04218210000545 51.91206896537915,94.89094687497709 50.515517241321504,91.81260424910579 44.6500000001397,87.6811255372595 19.861206896137446,90.03040039882762 14.484482758212835,100.15650510950945 12.389655172359198,108.25729533284903 13.646551723824814,109.7154287424637 24.469827586086467,114.49484714417486 44.161206896649674,113.36075048154453 49.25862068985589,111.5785952907172 52.4706896552816,106.8801668609376 51.70258620707318,93.99984892847715 48.560344827594236,90.27342843357474 44.3008620692417,87.76213513169205 20.140517241321504,89.94939103716752 16.439655172405764,95.29599106317619 12.25,108.01427283580415 15.043103447882459,110.60650894488208 25.377586206654087,114.8188744627987 44.021551724290475,113.52276439027628 49.11896551703103,111.74060956516769 52.5405172414612,106.8801668609376 52.05172413797118,95.37699987605447 50.65517241391353,92.37966826651245 44.7198275863193,87.92415429558605 20.3499999998603,89.54434410459362 13.856034482596442,101.20961254060967 12.459482758305967,108.50031775486423 24.539655172498897,114.57585398614174 44.999137931037694,113.76578519114992 49.25862068985589,112.06463801453356 52.75,107.20419730589492 52.12155172438361,95.5390174765489 50.79482758627273,92.46067737881094 44.929310344858095,87.92415429558605 23.562068965518847,89.05828751117224 19.51206896523945,90.1924190968275 14.135344827314839,100.88557963451603 12.389655172359198,108.82434753456619 24.818965517217293,114.65686082007596 43.53275862056762,113.76578519114992 48.97931034490466,112.06463801453356 52.6801724138204,107.04218210000545 52.05172413797118,95.29599106317619 49.67758620693348,91.40755827294197 44.51034482754767,87.84314471791731 20.000862068729475,89.78737228905084 14.205172413727269,100.64255486772163 12.319827585946769,108.7433401022572 24.609482758445665,114.7378676457447 44.85948275891133,113.68477826582966 49.11896551703103,111.90262380649801 52.75,106.47512861777795 51.91206896537915,94.4048935744213 50.09655172401108,91.56957668840187 44.7198275863193,87.84314471791731 19.65172413783148,89.78737228905084 13.716379310004413,101.85767795366701 12.529310344485566,109.0673697819584 23.422413792693987,114.57585398614174 34.03620689641684,114.33283343492076" stroke="#4DD2FF" stroke-linecap="round" stroke-linejoin="round" stroke-width="0.5"><title>2025-10-02 10.0km</title><desc>1759407705000</desc></polyline><polyline fill="none" points="80.0398305086419,88.90656076179584 65.35000000009313,90.73819822538644 58.073728813556954,105.55041186895687 57.936440678080544,108.25799024332082 65.07542372914031,113.03604667744366 70.22372881369665,114.86762717546662 89.23813559347764,113.75275260471972 94.5923728812486,110.48775357432896 96.30847457656637,106.5060288446839 96.78898305119947,94.79963978379965 93.7686440681573,90.73819822538644 87.79661016957834,87.55273898784071 65.89915254246444,89.78256182733458 58.00508474581875,103.71880937519018 57.59322033915669,108.01908664905932 69.05677966121584,114.78799333085772 82.37372881383635,113.59348467795644 87.45338983065449,114.38982398429653 93.97457627113909,111.44336446898524 96.72033898322843,105.55041186895687 96.92627118644305,94.40146017906955 91.22881355974823,88.74728773452807 88.2084745762404,87.79164888424566 64.93813559343107,90.41965289018117 59.995762711856514,99.49814368842635 57.38728813594207,108.73579721077112 69.60593220335431,114.9472610122175 89.92457627109252,113.43421671894612 93.7686440681573,111.68226700846571 97.13220338989049,107.62091382883955 96.85762711893767,95.35709088732256 92.46440677996725,90.10110742412508 88.07118644099683,88.03055870707612 65.00677966093644,90.26038017345127 57.936440678080544,104.43552390934201 57.86779661010951,109.53214150271378 69.53728813561611,114.86762717546662 88.75762711884454,113.43421671894612 93.83728813542984,111.36373027262744 97.06355932215229,106.2671247109538 97.47542372881435,95.51636255782796 91.16016949154437,89.38437964749755 87.0415254237596,88.11019529844634 64.52627118653618,90.81783453858225 59.240677966037765,100.77230933419196 57.38728813594207,108.4172592650284 69.53728813561611,114.78799333085772 88.96355932205915,113.43421671894612 93.08220338984393,112.0804377446766 97.06355932215229,107.38201003830181 97.40677966107614,96.07381314632948 92.67033898294903,90.18074380309554 88.96355932205915,88.34910502331331 65.14406779664569,90.41965289018117 59.17203389853239,101.17048566933954 57.38728813594207,108.33762475830736 69.39999999990687,114.86762717546662 89.44406779692508,113.27494872687384 93.63135593221523,111.92116947489558 97.13220338989049,107.93945210141828 97.26949152559973,95.11818332062103 92.53305084747262,90.57892557384912 88.41440677968785,88.58801467466401 65.14406779664569,90.49928923614789 60.20169491530396,98.781424593064 57.38728813594207,108.496893763775 69.19406779692508,114.54909174743807 92.87627118662931,112.0804377446766 97.26949152559973,107.14310617453884 97.47542372881435,95.83490580017678 93.08220338984393,90.57892557384912 88.07118644099683,88.34910502331331 64.66355932224542,90.73819822538644 59.03474576282315,101.80756738065975 57.52457627141848,108.97470058407634 69.67457627109252,114.70835947775049 90.2677966102492,113.11568070214707 93.35677966102958,112.00080361386063 97.33813559310511,107.14310617453884 97.2008474576287,95.19781918439548 95.14152542385273,92.41055908915587 88.96355932205915,88.26946845656494 65.21271186484955,90.34001653577434 59.51525423722342,100.37413279456086 57.25,108.496893763775 69.74322033906356,114.62872561666882 92.73898305092007,112.23970598191954 97.47542372881435,106.34675943019101 96.85762711893767,95.11818332062103 92.46440677996725,90.18074380309554 88.6203389831353,88.34910502331331 65.00677966093644,90.41965289018117 58.8288135593757,101.9668377264752 57.38728813594207,108.1783557200688 63.4279661020264,112.23970598191954 70.63559322059155,114.54909174743807 89.23813559347764,113.43421671894612 92.80762711865827,112.39897418644978 96.30847457656637,109.37287270987872 97.75,103.87807932886062 97.33813559310511,95.99417737242766 96.10254237311892,93.12728407006944 89.1008474577684,88.18983188149286 79.07881355960853,88.66765120864147 66.7915254237596,89.78256182733458 63.90847457619384,91.53456099098548 59.03474576282315,101.72793219523737 57.38728813594207,108.496893763775 58.48559322045185,110.24885066697607 62.46694915276021,111.92116947489558" stroke="#4DD2FF" stroke-linecap="round" stroke-linejoin="round" stroke-width="0.5"><title>2025-09-29 16.1km</title><desc>1759146700000</desc></polyline><polyline fill="none" points="124.20783132547513,90.45406450139126 118.77065404504538,88.99840477859834 111.79991394164972,89.56449499033624 109.42986230645329,90.93928381137084 104.89888123911805,99.18796635745093 102.25,108.73045214614831 114.93674698797986,115.03813354135491 135.15189328743145,113.50165169971297 138.21901893313043,112.28863760334207 142.40146299498156,105.98093419586075 141.91351118753664,94.2549410975189 139.12521514622495,90.5349344072747 133.26979345967993,87.3001317025628 110.05722891562618,89.48362498509232 103.92297762492672,101.29055789945414 102.38941480196081,108.40697994409129 110.40576592087746,113.25904902996263 115.42469879519194,114.876398751745 138.00989672983997,112.45037292409688 142.05292598973028,106.95135339157423 142.05292598973028,95.62972173362505 140.44965576613322,91.99059129104717 133.54862306360155,87.62361257069279 109.9875215147622,89.72623497643508 105.10800344217569,98.9453592801583 102.25,108.08350760943722 106.15361445769668,111.1564894283074 114.79733218578622,114.95726615079911 135.91867469903082,113.33991659502499 138.91609294340014,111.96516686212271 142.54087779694237,108.00263950490626 142.12263339105994,95.1445053126663 139.9617039586883,91.58624242630322 133.61833046469837,87.62361257069279 109.91781411343254,89.6453649874893 102.8076592083089,104.92964538489468 102.94707401050255,109.62000001693377 115.00645438930951,114.876398751745 135.22160068852827,113.50165169971297 138.42814113618806,112.36950526776491 142.40146299498156,106.70874870469561 142.33175559411757,95.54885235073743 140.3799483650364,91.7479819971486 134.3851118760649,87.70448276691604 109.77839931147173,90.21145473449724 105.31712564546615,98.3792758085765 102.38941480196081,108.00263950490626 104.27151463017799,110.26694329216843 114.86703958711587,114.63379650498973 138.00989672983997,112.69297584297601 142.33175559411757,107.84090327098966 142.54087779694237,95.62972173362505 141.21643717749976,92.71841872436926 134.1759896732401,87.70448276691604 110.26635111914948,89.48362498509232 105.45654044765979,97.81319193053059 102.31970740132965,108.32611187291332 114.58820998296142,114.876398751745 134.94277108460665,113.66338677163003 138.70697074057534,112.28863760334207 141.84380378690548,109.05392421543365 142.61058519827202,106.0618025077274 142.19234079192393,94.74015806656098 141.35585197946057,92.79928839753848 136.40662650601007,88.59405437827809 132.43330464721657,87.46187215327518 113.47289156611077,89.07927483378444 109.36015490535647,90.37319458741695 104.27151463017799,100.80534496461041 102.45912220329046,108.89218819746748 108.59337349398993,112.85471108078491 115.14586919103749,115.19986829749541 136.05808950099163,113.1781814568094 139.0555077455938,111.80343144189101 142.19234079192393,108.32611187291332 142.75,106.0618025077274 142.05292598973028,94.17407157382695 136.68545611039735,88.83666464331327 132.6424268502742,87.70448276691604 110.33605851978064,89.80710495670792 104.27151463017799,100.9670826427755 102.59853700501844,105.98093419586075 102.8076592083089,109.37739615165628 115.56411359738559,115.1190009235288 136.61574870930053,113.09731387515785 142.12263339105994,108.81132017582422" stroke="#4DD2FF" stroke-linecap="round" stroke-linejoin="round" stroke-width="0.5"><title>2025-09-26 12.0km</title><desc>1758887292000</desc></polyline><polyline fill="none" points="167.91896551731043,88.57223342044745 159.46982758608647,88.81526190438308 155.28017241344787,90.03040320100263 150.3224137928337,98.8603737593512 147.52931034448557,108.82435033674119 159.33017241372727,114.98089087416884 179.85948275891133,113.6037741342443 183.63017241400667,112.14564790821169 187.1215517243836,105.82706979854265 187.400862069102,95.05296737729805 182.72241379297338,89.62535630987259 178.04396551731043,87.51910912577296 155.3499999998603,89.94939383934252 149.83362068934366,99.58944948203862 147.45948275830597,108.74334290443221 159.26034482754767,114.7378704479197 180.3482758619357,113.44176024221815 184.2586206898559,111.6596052342793 187.400862069102,105.50303878838895 187.4706896552816,95.13397621485638 185.5155172413215,92.13664368266473 179.16120689664967,87.84314752009232 155.00086206872948,90.19242189900251 150.1129310342949,99.10339907533489 147.45948275830597,108.50032055703923 159.46982758608647,114.7378704479197 180.69741379306652,113.36075328371953 183.7000000004191,112.06464081670856 187.4706896552816,107.04218490218045 187.400862069102,95.21498504438205 182.7922413793858,89.62535630987259 178.88189655193128,87.92415709776105 155.1405172413215,89.4633374955738 148.0879310341552,103.96388967271196 147.52931034448557,109.14837998320581 160.16810344834812,114.81887726497371 179.37068965518847,113.52276719245128 183.49051724141464,112.30766206630506 187.61034482787363,106.39412374631502 187.400862069102,94.97195853135781 185.7249999998603,92.21765281975968 179.58017241372727,87.92415709776105 154.72155172401108,90.03040320100263 150.04310344788246,99.02239064505557 147.31982758594677,108.50032055703923 160.23793103452772,114.65686362225097 179.7198275863193,113.36075328371953 183.90948275872506,111.90262660867302 187.4706896552816,106.15110067575006 187.4706896552816,94.8909496771521 183.63017241400667,90.43544988398207 179.02155172429048,88.0051666671643 155.28017241344787,89.86838446930051 153.53448275849223,91.40756107511697 149.9732758619357,99.1844074971741 147.45948275830597,107.85226059868 150.18275862070732,110.6875189881539 159.19051724113524,114.7378704479197 180.20862068980932,113.44176024221815 184.2586206898559,111.82161949202418 187.6801724138204,106.71815439074999 187.5405172414612,95.21498504438205 185.5155172413215,92.21765281975968 179.09137931023724,88.0051666671643 154.7913793104235,90.19242189900251 149.83362068934366,99.34642431593966 147.45948275830597,109.14837998320581 159.8189655172173,114.57585678831674 180.90689655183814,113.2797463167226 183.90948275872506,112.06464081670856 187.4706896552816,107.93326812254963 187.1215517243836,94.8909496771521 186.0741379314568,92.78471654624445 180.90689655183814,88.57223342044745 177.83448275877163,87.84314752009232 155.62931034481153,89.62535630987259 153.39482758613303,91.81260705128079 149.7637931033969,99.34642431593966 147.25,107.52823041984811 148.0879310341552,109.4724094971316 157.93362068966962,114.17082249483792 181.04655172419734,113.11773235839792 186.56293103448115,109.06737258413341 187.75,103.23481799138244" stroke="#4DD2FF" stroke-linecap="round" stroke-linejoin="round" stroke-width="0.5"><title>2025-09-14 12.0km</title><desc>1757851744000</desc></polyline><polyline fill="none" points="33.52966101677157,137.1787426037481 19.526271186536178,139.16965289006475 14.30932203377597,149.28339824388968 12.25,157.2468844858813 24.399999999906868,163.1398116821074 40.32542372844182,162.34347278473433 47.052542372839525,161.30823099601548 51.10254237265326,157.2468844858813 52.75,144.10708835307742 51.651694915024564,141.95691870740848 46.84661016939208,137.9751073315274 43.68898305064067,136.86019648372894 19.869491525460035,138.77147124160547 15.133050847565755,147.53142030135496 12.593220339156687,157.48578781046672 24.05677966075018,163.06017782900017 43.208474575774744,162.0249369968078 48.49406779650599,160.43225609598449 52.063559321686625,154.93748189078178 52.063559321686625,143.3107299200492 44.100847457535565,136.7805599332787 19.800847457489,139.01038025517482 14.858474576147273,148.08886825770605 12.387288135709241,157.00798108795425 24.399999999906868,163.1398116821074 44.30677966098301,161.94530302926432 48.219491525320336,160.59152433322743 52.20084745739587,154.53930833481718 52.063559321686625,144.34599572385196 50.82796610146761,141.55873848946067 43.68898305064067,136.7009233747376 19.869491525460035,138.69183488725685 13.828813559375703,150.39829123875825 12.318644067738205,156.53017407137668 13.27966101677157,158.28213169367518 24.53728813561611,163.29907936352538 44.30677966098301,161.94530302926432 48.35677966079675,160.51189021853497 51.58305084705353,156.4505395400338 51.72033898276277,144.8238102440955 50.004237288143486,141.00128584110644 43.963559322059155,136.7805599332787 19.869491525460035,138.77147124160547 15.06440677959472,147.69069118693005 12.387288135709241,157.2468844858813 24.399999999906868,163.2194455267163 45.06186440656893,161.8656690538628 47.944915254134685,160.67115843942156 51.99491525394842,155.09675125603098 51.72033898276277,144.34599572385196 50.34745762683451,141.3198302607052 44.30677966098301,136.86019648372894 23.438983050640672,137.895470895397 19.251694915350527,139.01038025517482 13.828813559375703,150.3186560778413 12.52457627095282,157.48578781046672 23.713559321826324,163.06017782900017 42.72796610160731,162.1045709559694 47.807627118425444,160.91006070951698 51.85762711847201,155.97273218014743 51.651694915024564,143.94781673199032 49.38644067780115,140.44383279205067 43.1398305085022,136.62128680798924 19.869491525460035,138.77147124160547 13.828813559375703,150.07975054660346 12.387288135709241,157.32651893538423 24.331355932168663,163.37871319206897 46.77796610142104,161.38786502875155 50.82796610146761,157.88395985396346 52.13220338965766,154.7782124931109 51.2398305083625,143.23109403182752 45.67966101691127,137.576925069734 42.52203389815986,136.7805599332787 24.19406779645942,137.895470895397" stroke="#4DD2FF" stroke-linecap="round" stroke-linejoin="round" stroke-width="0.5"><title>2025-09-11 11.0km</title><desc>1757592695000</desc></polyline><polyline fill="none" points="79.34090909082443,136.58153957291506 78.43782161269337,137.46805911656702 64.96097770170309,138.51576274127 59.12564322468825,149.79863625211874 57.66680960543454,157.77714179770555 69.68481989717111,163.3378704462084 93.1650943395216,161.08134762651753 97.75,155.35942140611587 97.47212692978792,144.72136323724408 95.66595197259448,141.01412728091236 89.76114922808483,136.82331772951875 65.86406518006697,138.1933925440535 64.12735849060118,139.56346496753395 59.611921097617596,148.50917320000008 57.25,156.24591974751092 60.16766723850742,159.22777045948897 69.40694682695903,163.3378704462084 90.80317324167117,161.96783950761892 93.85977701540105,160.67839644075138 97.75,155.92355683009373 97.75,145.52728178096004 96.29116638074629,141.73945743218064 89.27487135515548,136.82331772951875 64.68310463125817,138.676947789907 59.47298456262797,148.91213063133182 57.388936535222456,156.72946387529373 58.569897084031254,158.34127548453398 69.82375643216074,163.41846042714315 89.69168096059002,162.1290197422495 93.72084048064426,160.8395769399358 97.68053173250519,155.92355683009373 97.47212692978792,144.4795875128475 95.38807890214957,140.85294271161547 89.20540308766067,136.74272501893574 65.44725557463244,138.1933925440535 59.95926243579015,148.10621556185652 57.52787307021208,157.29359831486363 70.44897084054537,163.41846042714315 90.24742710124701,162.04842962912517 93.3734991424717,161.00075740600005 97.61106346501037,156.0847383053042 97.61106346501037,144.56017942924518 95.7354202400893,141.01412728091236 88.5801886790432,136.58153957291506 65.51672384236008,138.35457765916362 59.820325900800526,148.26739864208503 57.4584048029501,156.16532903036568 57.94468267587945,158.1800944727147 71.00471698096953,163.41846042714315 91.84519725572318,161.7260690939729 97.26372212683782,156.72946387529373 97.05531732412055,143.10952366801212 91.35891938232817,137.46805911656702 88.30231560906395,136.66213230020367 65.03044596896507,138.51576274127 58.15308747859672,152.86110251350328 57.80574614088982,157.93832289247075 69.89322469965555,163.25728045706637 90.10849056625739,161.96783950761892 94.13765008561313,160.27544504828984 97.68053173250519,155.03705812472617 97.26372212683782,144.56017942924518 96.15222984552383,141.5782730122446 89.83061749557965,136.90391043189447 79.68825042899698,136.90391043189447 66.48927958845161,138.1933925440535 64.54416809626855,139.24109520076308 58.083619211101905,153.1028756571468 57.94468267587945,158.0995039541158 70.2405660378281,163.3378704462084 91.21998284733854,161.80665924033383 96.43010291620158,157.77714179770555 97.75,153.5058307305444 96.9163807888981,143.10952366801212 91.63679245277308,137.79042961151572 87.46869639796205,136.74272501893574 70.79631217825226,137.87102221453097" stroke="#4DD2FF" stroke-linecap="round" stroke-linejoin="round" stroke-width="0.5"><title>2025-09-09 11.0km</title><desc>1757419935000</desc></polyline><polyline fill="none" points="124.96612349920906,136.25917274679523 122.1873927959241,137.46806340577314 109.96097770170309,138.59635967499344 103.91723842197098,150.20159861800494 102.31946826749481,157.53537644288735 114.1985420237761,163.74082725320477 133.85806174948812,162.45138696575304 138.58190394495614,161.0007641109405 142.194253859343,155.9235630137846 142.61106346501037,143.10952853644267 139.48499142355286,139.5634694720502 134.69168096059002,136.6621365066385 109.75257289898582,138.83813723589992 104.12564322468825,149.79864180699224 102.25,156.97124211885966 103.56989708403125,158.58305339736398 113.8512006860692,163.66023729735753 137.95668953703716,161.3231249769451 142.47212692978792,155.3594275319483 142.61106346501037,144.56018444657093 141.0132933105342,141.25590875052148 134.96955403103493,136.82332195265917 109.96097770170309,138.83813723589992 104.2645797599107,149.15391047979938 102.38893653522246,156.64887946628733 103.29202401358634,158.4218724182574 114.33747855923139,163.49905736086657 134.4138078901451,162.37079687730875 139.55445969104767,159.7919096846599 141.70797598641366,155.4400183398393 142.75,147.21971332043177 141.43010291620158,141.65886994596804 134.69168096059002,136.6621365066385 110.44725557463244,138.75754472363042 105.09819897077978,147.30030496395193 102.31946826749481,157.45478584989905 114.40694682695903,163.74082725320477 137.95668953703716,161.24253477278398 142.4026586622931,155.60119993094122 142.4026586622931,144.72136827098439 140.45754717011005,140.7723550433293 134.27487135515548,136.6621365066385 110.09991423669271,138.51576713792747 103.29202401358634,152.05519728414947 103.01415094360709,158.26069140643813 114.40694682695903,163.41846737993183 135.5253001714591,162.1290265628486 138.3734991424717,161.0007641109405 141.98584905662574,155.4400183398393 141.98584905662574,143.43189674802125 138.3734991424717,139.0799147223006 133.9275300174486,136.6621365066385 113.29545454564504,137.9516191482544 109.33576329331845,139.0799147223006 103.22255574632436,152.37756182288285 102.4584048029501,157.45478584989905 114.54588336194865,163.5796473332448 133.64965694677085,162.45138696575304 138.3734991424717,160.92017387365922 141.98584905662574,155.5206091394066 142.26372212683782,143.91544881736627 138.85977701540105,139.3216921344865 133.1633790738415,136.5815437711426 109.61363636376336,138.67695220350288 103.43096054904163,151.57165022811387 102.59734133793972,157.69655760360183 114.89322469965555,163.3378773907898 135.73370497417636,161.88725617405726 141.2911663807463,157.85773873142898 142.47212692978792,153.3446546451887 142.1247855918482,143.834856826521 141.22169811325148,141.65886994596804 136.7757289877627,137.9516191482544 133.5801886790432,136.6621365066385 113.5733276156243,137.9516191482544" stroke="#4DD2FF" stroke-linecap="round" stroke-linejoin="round" stroke-width="0.5"><title>2025-09-06 11.0km</title><desc>1757162103000</desc></polyline><polyline fill="none" points="167.98879310349002,137.2007177899941 156.18793103448115,138.09182204765966 154.16293103434145,139.30696259613615 148.36724137910642,151.6202812777483 147.25,157.29082395730074 158.14310344820842,163.28535334661137 166.73189655179158,163.44736702251248 180.48793103452772,162.15125668398105 185.1663793104235,159.64003684587078 187.75,155.18462714657653 187.05172413797118,142.62833721464267 181.53534482768737,137.28172730957158 178.53275862056762,136.30961252603447 168.47758620698005,136.55264133412857 154.7913793104235,138.57787849148735 149.06551724113524,149.51406933402177 147.25,156.96679404447787 159.46982758608647,163.52837384818122 179.9991379310377,162.39427753450582 183.90948275872506,161.09816546656657 187.6801724138204,154.29354218865046 187.1913793105632,143.1953997768578 185.5155172413215,140.6031104515423 178.67241379339248,136.3906221370562 154.58189655165188,138.57787849148735 149.34482758608647,149.19003622827586 147.25,157.3718314145808 158.98103448282927,163.60938066523522 183.35086206928827,161.42219368316 187.61034482787363,155.34664248558693 187.1913793105632,142.62833721464267 181.60517241386697,137.36273682070896 178.67241379339248,136.47163173969602 154.86120689613745,138.73989723960403 150.1129310342949,147.2458348008222 147.25,157.1288090175367 148.7163793100044,158.74895691825077 159.8189655172173,163.69038747396553 180.76724137924612,162.23226364247967 183.56034482759424,161.1791725330404 187.26120689650998,155.75168068695348 187.3310344829224,144.24851488298737 186.42327586235479,141.65622901683673 180.06896551745012,136.71466049802257 155.0706896551419,138.496869105089 150.1129310342949,147.1648263039533 147.3896551723592,157.6148537370027 158.91120689641684,163.28535334661137 178.53275862056762,162.23226364247967 183.49051724141464,161.01715839176904 187.61034482787363,156.72377152281115 187.3310344829224,144.57255001738667 185.5155172413215,140.92714708292624 178.95172413787805,136.55264133412857 154.7913793104235,138.57787849148735 149.27499999990687,149.3520527977962 147.3896551723592,157.29082395730074 158.70172413787805,163.52837384818122 183.21120689669624,161.34118664159905 187.61034482787363,155.91369590960676 187.4706896552816,144.167506078491 185.44568965537474,140.5221012730617 179.6500000001397,136.63365092035383 158.00344827608205,137.84879371360876 154.16293103434145,139.06393463601125 147.80862068966962,153.32144835975487 147.3896551723592,157.53384630469372 158.98103448282927,163.28535334661137 182.8620689655654,161.42219368316 187.3310344829224,156.31873382010963 187.1913793105632,143.76246193161933 185.5155172413215,140.84613793744938 179.02155172429048,136.55264133412857 155.62931034481153,138.01081261137733" stroke="#4DD2FF" stroke-linecap="round" stroke-linejoin="round" stroke-width="0.5"><title>2025-08-31 11.1km</title><desc>1756643837000</desc></polyline><polyline fill="none" points="34.25781249976717,184.35275446635205 30.95312499976717,186.06577037536772 18.92968750023283,187.37092287506675 13.234375,200.667041814595 12.74218750023283,206.21382321917918 24.6953125,212.49469071778003 44.38281249976717,211.02644042373868 49.79687499976717,208.1715015306254 52.328125,204.0929996065679 52.60937499976717,192.26522565813502 48.953125,187.61563873005798 44.38281249976717,185.00533239083597 19.98437499976717,187.1262069447548 14.921875,196.75164339598268 12.81249999976717,202.62473378976574 12.671875,206.54010327276774 24.34375,212.8209681926528 45.3671875,210.94487088330789 49.515625,208.98719940386945 52.6796875,203.0325856776908 52.39843749976717,191.77579673624132 48.17968749976717,186.79991892026737 43.46874999976717,184.67904349550372 19.703125,187.53406678687315 14.921875,196.4253593236208 12.39062499976717,206.29539324517827 24.9765625,212.73939883662388 48.109375,209.8028964396217 50.5703125,207.35580282041337 52.5390625,202.78787457029102 52.25781249976717,191.6942252201261 49.5859375,188.2682139755343 44.1015625,184.84218795987545 19.6328125,187.61563873005798 13.7265625,199.19876966823358 12.25,205.5612627104856 14.921875,208.57935057178838 25.18749999976717,213.14724553364795 48.46093749976717,209.9660357463872 52.39843749976717,203.92985909426352 52.5390625,191.6942252201261 50.49999999976717,189.08393227792112 44.03125,185.00533239083597 24.20312499976717,186.63677485793596 19.35156249976717,188.2682139755343 14.00781249976717,199.11719891405664 12.25,206.1322531849728 14.359375,208.1715015306254 24.62499999976717,212.8209681926528 48.17968749976717,210.2107446435257 52.25781249976717,203.5220076669939 52.25781249976717,191.77579673624132 47.26562499976717,186.39205870131264 43.609375,184.67904349550372 19.4921875,187.61563873005798 14.921875,196.58850137656555 12.39062499976717,205.6428328033653 14.2890625,208.0083618554636 24.5546875,212.73939883662388 46.07031249976717,211.1895794789889 48.953125,209.63975709944498 51.83593750023283,205.4796926091076 52.328125,191.77579673624132 49.515625,188.2682139755343 44.1015625,184.67904349550372 19.7734375,187.45249483530642 14.8515625,196.67007239011582 12.8828125,202.21688169287518 12.671875,206.21382321917918 25.1171875,212.73939883662388 47.125,210.94487088330789 51.48437499976717,206.7032432492124 52.75,202.54316338716308 52.60937499976717,192.26522565813502 46.703125,185.90262616216205 41.07812499976717,184.67904349550372 25.1171875,186.31048663228285" stroke="#4DD2FF" stroke-linecap="round" stroke-linejoin="round" stroke-width="0.5"><title>2025-08-29 11.0km</title><desc>1756472821000</desc></polyline><polyline fill="none" points="77.43088737223297,189.28898319712607 64.99061433481984,190.33132272341754 58.90870307176374,202.35821664106334 57.802901023766026,209.17337433126522 69.9667235496454,214.70563508576015 90.00938566587865,213.5029730371898 94.91638225293718,211.41835443343734 97.54266211623326,206.52749664196745 97.47354948846623,194.34030793810962 90.14761092164554,188.40700251155067 79.36604095599614,188.24664227990434 64.50682593858801,190.57186241645832 59.53071672352962,200.67446264030878 57.802901023766026,209.09319635125576 68.93003412964754,214.70563508576015 77.70733788399957,214.54528025293257 92.70477815717459,212.9417301142239 95.12372013693675,211.09764338546665 97.61177474423312,206.52749664196745 97.54266211623326,194.34030793810962 91.59897610964254,189.0484431089135 83.92747440282255,188.08628201537067 65.958191126585,189.68988317949697 63.60836177505553,192.0150990196853 60.152730375295505,199.15106303611537 57.733788395999,208.4517722139135 70.51962457341142,214.94616727315588 91.46075085364282,213.34261795738712 96.43686006846838,209.4139082223992 97.75,205.80589208065066 97.6808873724658,195.06192309164908 90.56228668964468,188.48718261503382 67.4786689421162,189.5295232112403 64.09215017058887,191.453840657603 60.152730375295505,199.15106303611537 57.52645051223226,208.05088186071953 59.04692832753062,210.13550945091993 68.58447098964825,214.54528025293257 75.35750853247009,214.70563508576015 92.15187713340856,213.18226284504635 97.05887372046709,208.6121282976237 97.12798634823412,194.66102586651687 91.46075085364282,188.96826306311414 80.74829351576045,188.16646215191577 67.20221843011677,189.3691632100381 64.43771331035532,190.49168252688833 60.152730375295505,199.47177898918744 57.733788395999,206.44731839041924 58.35580204753205,209.89497578219743 69.69027303764597,214.8659898856422 90.70051194541156,213.5029730371898 93.60324232140556,212.22013147792313 96.2295221844688,208.93284036626574 97.47354948846623,205.72571375477128 97.61177474423312,198.83034695131937 97.40443686023355,194.98174366290914 95.88395904470235,192.41599760286044 90.28583617741242,188.32682239980204 71.69453924917616,189.28898319712607 57.802901023766026,182.55383272690233 57.25,184.47816735884408 58.21757679176517,187.44484062783886 62.502559726824984,193.3781533629517 57.802901023766026,205.56535707850708 57.595563139766455,208.29141609725775 58.70136518776417,209.81479787582066 68.99914675788023,214.54528025293257 90.83873720164411,213.5029730371898 95.95307167293504,209.65444203926018 97.61177474423312,205.08428685250692 96.43686006846838,193.05743490811437 91.1843003416434,188.72772287612315 79.36604095599614,188.24664227990434 69.20648464164697,189.28898319712607 65.12883959058672,190.33132272341754 63.1245733788237,192.8970756311901 57.802901023766026,206.12660530145513 58.563139931764454,209.81479787582066 68.65358361788094,214.38492538710125 71.69453924917616,214.70563508576015 78.81313993176445,214.22457048861543 92.08276450517587,209.5742641086108 84.61860068282112,212.9417301142239 91.73720136540942,213.102085276274 96.16040955646895,209.4139082223992 97.47354948846623,205.56535707850708 97.1970989764668,196.98622690839693 96.36774744093418,193.4583329563029 94.01791808870621,190.97276174032595 89.11092150211334,188.16646215191577 73.28412969294004,189.12862314656377" stroke="#4DD2FF" stroke-linecap="round" stroke-linejoin="round" stroke-width="0.5"><title>2025-08-27 11.4km</title><desc>1756300085000</desc></polyline><polyline fill="none" points="139.16226575826295,207.19452309655026 142.19804088608362,204.39307183370693 141.99105621827766,192.38673814130016 136.74744463386014,186.70367573422845 132.9527257240843,185.34293633594643 109.7014480412472,187.66419623279944 104.31984667805955,198.06975913065253 102.25,205.59369503590278 106.04471891000867,208.6352655419032 114.04812606517226,212.15706920193043 135.57453151629306,210.7963742185966 138.6793015333824,209.43567686108872 142.06005110754631,204.2329886003863 142.12904599681497,191.98652383463923 135.98850085190497,186.14337156369584 133.09071550285444,185.2628927679616 110.32240204466507,187.10389275243506 105.07879046001472,195.98865765915252 102.25,205.67373651691014 107.83858603099361,209.43567686108872 115.29003407177515,212.31715080834692 137.8513628623914,209.9159232584061 141.922061329009,204.55315503414022 142.75,192.86699503840646 138.74829642265104,188.30454257462407 134.19463373092003,185.42297989560757 109.90843270905316,187.34402286465047 105.21678023831919,195.90861518407473 102.45698466803879,205.51365354651352 103.83688245317899,207.19452309655026 115.01405451470055,212.31715080834692 134.05664395261556,211.11653795768507 138.127342419466,209.83588221255923 141.922061329009,204.4731134378817 142.40502555388957,192.86699503840646 139.02427597995847,188.7047587710549 132.814735945547,185.2628927679616 109.77044293028302,187.58415290294215 104.59582623513415,197.58950543805258 102.45698466803879,205.67373651691014 105.76873935293406,208.55522436485626 114.94505962519906,212.31715080834692 132.88373083504848,211.51674244663445 138.54131175484508,209.515717947972 141.99105621827766,203.03236330329673 142.26703577511944,192.78695224266266 137.71337308362126,187.58415290294215 132.4007666099351,185.2628927679616 109.63245315174572,187.50410956516862 104.38884156756103,197.98971686890582 102.31899488926865,205.91386091103777 114.25511073251255,212.23711000924231 137.78236797288992,210.39616935997037 142.54301533242688,204.9533628913341 142.19804088608362,192.62686662690248 140.05919931875542,189.34510425839107 133.09071550285444,185.18284919171128 109.77044293028302,187.18393613159424 103.07793867145665,201.75169428205118 102.45698466803879,205.59369503590278 103.42291311779991,207.27456441364484 115.29003407177515,212.31715080834692 135.29855195921846,211.036497035122 138.40332197630778,209.7558411587379 141.30110732559115,206.47415087610716 142.40502555388957,202.0718617347302 142.12904599681497,193.10712337610312 141.09412265755236,190.6257936549373 136.54045996582136,186.62363230611663 133.36669505946338,185.50302344717784 112.73722316860221,186.70367573422845" stroke="#4DD2FF" stroke-linecap="round" stroke-linejoin="round" stroke-width="0.5"><title>2025-08-21 10.0km</title><desc>1755782353000</desc></polyline><polyline fill="none" points="186.35344827594236,207.01291204919107 187.6801724138204,203.69160356890643 186.91206896537915,191.54035587108228 181.32586206891574,186.0317286149948 178.04396551731043,185.05961393134203 154.58189655165188,187.32787966384785 147.66896551731043,205.6357858387637 148.786206896184,207.17492673918605 158.84137931023724,211.71132456470514 182.65258620702662,210.25319953582948 187.61034482787363,204.82571047509555 186.77241379325278,192.02640937111573 181.8844827588182,186.92283269012114 177.83448275877163,185.62668097572168 154.51206896523945,187.57090774865355 149.20517241372727,200.20826502441196 148.15775862056762,206.76988995145075 159.67931034462526,212.44038606871618 183.28103448287584,209.9291713857674 187.5405172414612,204.01563427987276 187.1913793105632,192.18842713790946 184.8870689657051,189.02907468512421 178.53275862056762,185.3836522923084 154.7913793104235,187.48989839554997 149.41465517203324,198.26406938396394 147.66896551731043,205.4737708325265 148.6465517238248,207.17492673918605 159.26034482754767,211.9543451408972 180.55775862094015,210.73924151126994 183.56034482759424,209.60514310275903 187.400862069102,204.5826877038926 187.26120689650998,192.35044487169944 181.8844827588182,186.67980440566316 178.67241379339248,185.30264271463966 154.72155172401108,187.40888903388986 148.6465517238248,199.64120845723664 147.25,205.95981575158658 160.16810344834812,212.19736564246705 183.83965517231263,209.7671572608524 187.61034482787363,204.5826877038926 186.98189655179158,191.78338265855564 181.32586206891574,186.43677604658296 178.53275862056762,185.46466186171165 154.44224137929268,187.48989839554997 149.20517241372727,198.99314331042115 147.80862068966962,207.01291204919107 159.60948275844567,212.03535198286409 183.0017241379246,209.84816432732623 187.75,204.01563427987276 187.400862069102,192.5124625718454 185.3758620689623,189.27210224582814 178.46293103462085,185.30264271463966 154.86120689613745,187.24687028577318 148.85603448259644,199.39818408957217 147.66896551731043,206.76988995145075 157.8637931032572,211.7923314316431 161.91379310330376,212.19736564246705 181.8844827588182,210.49622056103544 187.75,205.39276331709698 187.05172413797118,191.78338265855564 181.32586206891574,186.35576657706406 178.04396551731043,185.3836522923084 167.91896551731043,185.54567142290762 156.74655172415078,186.59879496088251 153.95344827580266,188.38100082369056" stroke="#4DD2FF" stroke-linecap="round" stroke-linejoin="round" stroke-width="0.5"><title>2025-07-22 10.0km</title><desc>1753187142000</desc></polyline><polyline fill="none" points="24.171894344501197,260.8676919201389 33.2985854735598,267.22059233812615 42.19710932485759,261.39710088726133 40.8281056554988,235.19122660462745 34.21125458739698,228.04412376135588 27.138068961910903,228.8382472775411 22.57472339645028,234.66181225841865 24.400061622262,258.220645460533 34.66758914291859,266.1617766888812 42.425276602618396,256.89712121128105 39.68726926483214,231.75003141211346 31.016912690363824,228.04412376135588 25.084563457407057,230.6912011981476 22.346556117758155,237.0441759598907 25.084563457407057,260.0735782675911 32.61408363841474,266.1617766888812 39.00276742968708,264.04414408514276 42.425276602618396,258.220645460533 40.8281056554988,234.13239780347794 33.98308730777353,227.77941586868837 22.57472339645028,233.86769053596072 23.943727066740394,256.89712121128105 32.38591636158526,266.42648064135574 40.8281056554988,262.45591849205084 40.8281056554988,235.45593373733573 35.80842553451657,228.04412376135588 23.715559787116945,232.54415378673002 24.85639617871493,257.69123584241606 31.473247247748077,264.83825651556253 41.51260749157518,256.89712121128105 40.599938377738,232.54415378673002 36.03659281227738,228.04412376135588 23.259225230664015,232.54415378673002 23.715559787116945,256.89712121128105 32.15774908289313,266.6911845677532 38.77460015099496,265.897072708467 42.425276602618396,260.0735782675911 41.51260749157518,234.66181225841865 36.49292736873031,228.04412376135588 26.909901683218777,228.5735394663643 22.11838883999735,236.7794689910952 24.400061622262,261.66180532891303 35.80842553451657,267.75 42.425276602618396,261.13239641697146 41.51260749157518,234.66181225841865 31.929581804201007,227.51470794784836 22.346556117758155,235.19122660462745 24.400061622262,261.13239641697146 35.35209097806364,267.22059233812615 40.8281056554988,265.63236870081164 42.653443882241845,259.8088736627251 40.14360382128507,232.54415378673002 28.9634071867913,228.04412376135588 23.03105795290321,235.45593373733573 24.628228900022805,259.54416903015226 28.735239908099174,264.83825651556253 35.12392370030284,265.897072708467 42.425276602618396,256.63241628021933 39.91543654259294,233.60298324003816 35.12392370030284,228.5735394663643 28.050738074816763,228.5735394663643 22.57472339645028,236.51476199436001 24.85639617871493,260.33828284568153 29.19157446641475,265.36766466661356 35.80842553451657,266.1617766888812 42.19710932485759,259.2794643698726 39.68726926483214,232.01473889802583 27.59440351743251,228.8382472775411 22.346556117758155,236.7794689910952 24.85639617871493,260.0735782675911 35.35209097806364,266.1617766888812 42.425276602618396,256.3677113216836 40.37177109904587,233.07356856833212 29.647909021936357,228.04412376135588 22.802890674211085,234.66181225841865 25.084563457407057,260.8676919201389 33.2985854735598,266.42648064135574 39.68726926483214,264.30884825624526 42.425276602618396,258.4853502283804 40.37177109904587,232.27944635599852 28.278905352577567,228.30883162748069 22.346556117758155,237.83829670445994 25.99723257124424,262.9853271320462 36.03659281227738,266.42648064135574 42.425276602618396,259.2794643698726 40.14360382128507,232.80886119161732 32.38591636158526,227.77941586868837 22.802890674211085,235.45593373733573 25.31273073516786,261.66180532891303 33.75492003094405,266.42648064135574 42.653443882241845,257.9559406656772 40.599938377738,232.54415378673002 31.473247247748077,227.25 23.259225230664015,233.60298324003816 25.084563457407057,260.8676919201389 33.52675275225192,266.1617766888812 40.14360382128507,264.04414408514276 42.881611159071326,257.9559406656772 41.056272933259606,234.13239780347794 33.98308730777353,227.51470794784836 25.084563457407057,230.42649357696064 22.802890674211085,235.98534791986458 25.99723257124424,262.19121413095854 36.03659281227738,265.63236870081164 42.653443882241845,257.9559406656772 40.8281056554988,232.80886119161732 35.80842553451657,228.04412376135588 28.735239908099174,227.77941586868837 22.57472339645028,235.98534791986458 25.084563457407057,261.13239641697146 33.2985854735598,266.6911845677532 40.14360382128507,264.30884825624526 42.881611159071326,258.220645460533 41.056272933259606,234.13239780347794 36.94926192611456,228.30883162748069 29.87607629969716,227.25 22.802890674211085,234.66181225841865 24.628228900022805,259.54416903015226 35.12392370030284,266.6911845677532 42.425276602618396,260.33828284568153 40.8281056554988,233.33827591803856 29.647909021936357,227.51470794784836 22.802890674211085,234.66181225841865 24.85639617871493,261.66180532891303 36.49292736873031,266.6911845677532 42.881611159071326,259.8088736627251 41.28444021195173,234.66181225841865 33.07041819579899,227.25 25.99723257124424,229.10295506194234 22.346556117758155,235.19122660462745 24.628228900022805,260.0735782675911 32.84225091710687,266.6911845677532 39.23093470744789,264.83825651556253 42.653443882241845,259.0147596837487 40.599938377738,233.86769053596072 36.03659281227738,228.30883162748069 29.19157446641475,227.51470794784836 22.802890674211085,235.19122660462745 24.628228900022805,260.0735782675911 28.735239908099174,265.63236870081164 35.58025825675577,266.6911845677532 42.425276602618396,259.54416903015226 39.68726926483214,231.4853238996584 31.245079969987273,227.51470794784836 23.03105795290321,234.9265194456093 24.85639617871493,259.8088736627251 33.07041819579899,266.42648064135574 42.19710932485759,260.33828284568153 39.91543654259294,232.27944635599852 30.78874541260302,227.51470794784836 23.259225230664015,233.86769053596072 25.76906529162079,261.66180532891303 34.66758914291859,266.42648064135574 42.425276602618396,259.0147596837487 39.91543654259294,232.54415378673002 30.560578134842217,227.51470794784836 23.259225230664015,235.19122660462745 24.85639617871493,258.4853502283804 28.735239908099174,264.5735523994081 36.03659281227738,265.63236870081164 42.425276602618396,257.4265309923794 40.14360382128507,234.13239780347794 31.016912690363824,228.30883162748069 23.259225230664015,235.45593373733573 27.822570796124637,262.19121413095854 35.12392370030284,265.36766466661356" stroke="#4DD2FF" stroke-linecap="round" stroke-linejoin="round" stroke-width="0.5"><title>2025-05-09 10.0km</title><desc>1746796175000</desc></polyline><polyline fill="none" points="72.28623033501208,261.70133937173523 75.23314362484962,265.9091047986876 82.48708402831107,266.43507499154657 87.47416805569082,257.23058103141375 84.7539404053241,231.98379927757196 75.23314362484962,227.77597812912427 67.75251758191735,234.61368398508057 70.69943087082356,261.9643249132205 82.03371275402606,267.75 88.15422496944666,260.1234255542513 85.20731168054044,233.29874196904711 77.95337127614766,227.25 67.52583194430918,233.8247188567184 69.33931704610586,260.9123825840652 73.6463441606611,266.1720899087377 80.44691328983754,267.2240300779231 87.47416805569082,259.8604398232419 86.3407398685813,235.92862532730214 77.50000000093132,227.77597812912427 71.15280214697123,229.35391186969355 67.52583194430918,235.13966060290113 69.33931704610586,258.80849663028494 79.0867994632572,266.69806004688144 86.56742550618947,261.1753682063427 85.43399731814861,235.13966060290113 75.23314362484962,228.56494512129575 67.299146306701,237.7695420717355 70.24605959560722,261.1753682063427 78.18005691375583,266.96104507590644 84.7539404053241,264.3311935728416 87.0207967814058,258.0195389527362 84.07388349156827,231.7208106580656 75.23314362484962,228.03896715375595 67.75251758191735,234.35069563635625 70.24605959560722,261.43835380254313 78.40674255043268,266.43507499154657 87.0207967814058,257.4935670325067 84.98062604200095,234.08770725969225 74.09971543587744,228.56494512129575 67.299146306701,235.4026488715317 70.92611650936306,262.2273104272317 79.9935420146212,266.69806004688144 87.24748241901398,256.4416228684131 84.98062604200095,233.56173042650335 73.87302979733795,228.56494512129575 67.07246066909283,235.92862532730214 70.69943087082356,261.9643249132205 81.80702711548656,266.1720899087377 87.24748241901398,258.54551076493226 85.43399731814861,235.13966060290113 75.45982926152647,228.3019561516121 66.84577503055334,237.2435659938492 70.92611650936306,263.01626680931076 79.7668563760817,266.69806004688144 86.56742550618947,259.5974540649913 84.7539404053241,233.03575348411687 76.59325744956732,228.03896715375595 66.84577503055334,235.66563711268827 70.01937395799905,260.9123825840652 77.27331436239183,266.69806004688144 86.79411114286631,260.1234255542513 84.98062604200095,234.08770725969225 78.18005691375583,228.3019561516121 72.05954469647259,229.09092298080213 66.84577503055334,236.7175898081623 70.24605959560722,262.2273104272317 78.40674255043268,266.69806004688144 86.1140542300418,261.70133937173523 85.43399731814861,235.4026488715317 79.0867994632572,228.82793406466953 67.9792032185942,233.29874196904711 69.11263140849769,257.75655300565995 72.05954469647259,264.3311935728416 78.40674255043268,267.2240300779231 86.56742550618947,261.43835380254313 85.20731168054044,234.08770725969225 77.50000000093132,228.03896715375595 71.15280214697123,229.61690073180944 67.299146306701,235.13966060290113 69.33931704610586,259.0714824695606 74.77977234870195,266.1720899087377 81.12697020266205,267.48701505269855 87.0207967814058,260.1234255542513 85.66068295575678,235.66563711268827 75.9132005367428,228.03896715375595 67.299146306701,236.45460167434067 70.24605959560722,262.49029591470025 79.0867994632572,266.96104507590644 87.24748241901398,257.4935670325067 85.43399731814861,234.35069563635625 75.00645798631012,228.03896715375595 66.84577503055334,236.7175898081623 69.33931704610586,260.64939693408087 73.87302979733795,265.9091047986876 80.44691328983754,266.69806004688144 87.0207967814058,260.64939693408087 84.7539404053241,233.29874196904711 76.36657181195915,228.03896715375595 68.43257449474186,233.29874196904711 69.11263140849769,260.1234255542513 79.0867994632572,266.96104507590644 87.24748241901398,258.0195389527362 84.52725476771593,232.24678786983714 75.68651489913464,228.03896715375595 66.84577503055334,236.98057791404426 69.33931704610586,260.9123825840652 74.09971543587744,266.1720899087377 80.90028456505388,266.69806004688144 87.24748241901398,258.80849663028494 85.43399731814861,233.8247188567184 77.72668563760817,227.77597812912427 67.52583194430918,235.4026488715317 70.24605959560722,261.9643249132205 78.63342818897218,266.69806004688144 86.1140542300418,260.64939693408087 85.20731168054044,234.8766723072622 78.40674255043268,228.56494512129575 72.28623033501208,229.35391186969355 68.20588885713369,237.50655404571444 69.33931704610586,259.5974540649913 75.68651489913464,266.43507499154657 86.3407398685813,260.9123825840652 84.7539404053241,232.50977643532678 77.04662872571498,228.03896715375595 70.69943087082356,230.40586715680547 67.52583194430918,236.191613514442 69.33931704610586,261.70133937173523 80.67359892744571,266.96104507590644 86.79411114286631,260.1234255542513 85.20731168054044,234.35069563635625 75.45982926152647,228.3019561516121 67.52583194430918,236.7175898081623 70.24605959560722,261.70133937173523 77.95337127614766,266.69806004688144 87.24748241901398,258.80849663028494 84.7539404053241,232.50977643532678 76.81994308810681,228.03896715375595 67.299146306701,235.66563711268827 69.11263140849769,260.64939693408087 78.86011382658035,266.96104507590644 87.24748241901398,258.54551076493226 85.20731168054044,233.29874196904711 78.40674255043268,227.77597812912427 67.9792032185942,234.08770725969225 68.8859457699582,260.1234255542513 78.40674255043268,266.69806004688144 86.79411114286631,258.80849663028494 84.98062604200095,233.8247188567184 74.77977234870195,228.56494512129575 67.52583194430918,237.2435659938492 69.33931704610586,260.38641125755385 77.72668563760817,265.9091047986876 86.56742550618947,258.2825248730369 84.52725476771593,232.50977643532678 75.68651489913464,228.3019561516121 67.9792032185942,234.8766723072622 70.24605959560722,260.1234255542513 79.31348510179669,265.12014930765145 87.24748241901398,258.0195389527362 85.88736859243363,236.191613514442 78.40674255043268,228.03896715375595" stroke="#4DD2FF" stroke-linecap="round" stroke-linejoin="round" stroke-width="0.5"><title>2025-05-03 10.2km</title><desc>1746275352000</desc></polyline></svg>