<?xml version="1.0" encoding="utf-8" ?>
<svg baseProfile="full" height="300mm" version="1.1" viewBox="0,0,200,300" width="200mm" xmlns="http://www.w3.org/2000/svg" xmlns:ev="http://www.w3.org/2001/xml-events" xmlns:xlink="http://www.w3.org/1999/xlink"><defs /><rect fill="#222222" height="300" width="200" x="0" y="0" /><text fill="#FFFFFF" style="font-size:12px; font-family:Arial; font-weight:bold;" x="10" y="20">Over 10km Runs</text><text fill="#FFFFFF" style="font-size:4px; font-family:Arial" x="10" y="280">Runner</text><text fill="#FFFFFF" style="font-size:9px; font-family:Arial" x="10" y="290">Wangyp</text><text fill="#FFFFFF" style="font-size:4px; font-family:Arial" x="65" y="280">SPECIAL TRACKS</text><rect fill="yellow" height="2.6" width="2.6" x="65" y="283" /><text fill="#FFFFFF" style="font-size:3px; font-family:Arial" x="70" y="285.5">Over 20.0 km</text><rect fill="red" height="2.6" width="2.6" x="65" y="287" /><text fill="#FFFFFF" style="font-size:3px; font-family:Arial" x="70" y="289.5">Over 40.0 km</text><text fill="#FFFFFF" style="font-size:4px; font-family:Arial" x="120" y="280">STATISTICS</text><text fill="#FFFFFF" style="font-size:3px; font-family:Arial" x="120" y="285">Number: 20</text><text fill="#FFFFFF" style="font-size:3px; font-family:Arial" x="120" y="290">Weekly: 1.7</text><text fill="#FFFFFF" style="font-size:3px; font-family:Arial" x="141" y="285">Total: 241.7 km</text><text fill="#FFFFFF" style="font-size:3px; font-family:Arial" x="141" y="290">Avg: 12.1 km</text><text fill="#FFFFFF" style="font-size:3px; font-family:Arial" x="167" y="285">Min: 10.0 km</text><text fill="#FFFFFF" style="font-size:3px; font-family:Arial" x="167" y="290">Max: 21.3 km</text><polyline fill="none" points="19.093074706732295,44.887476379590225 14.342097139335237,47.57550223185535 12.25,48.95816192082566 15.50900391023606,59.32262908365374 15.942426425172016,60.07671560833842 18.45961103105219,61.604205722833285 29.670251080446178,67.97492608090397 37.905278863967396,69.5506220687239 38.38871166907484,69.54095530245104 44.41495163610671,70.6042936506783 44.731683473917656,70.55596034956397 44.82336900595692,70.41096029750042 45.04841531178681,64.18541440878471 44.77335871575633,62.74497333349427 43.71480757356039,60.734119451226434 43.22303972009104,60.86946673208149 42.46455031901132,61.642876037389215 41.25596830621362,62.27126642548683 40.66417987237219,62.2325963687108 40.380788228067104,61.96190552713233 40.04738629350322,61.25617217794206 39.32223708581296,60.99514617599925 38.68043836180004,60.48275969976385 36.95508335050545,59.79635081010929 35.7798415311554,59.5739919288535 33.07095081289299,58.21082384397596 32.537507717643166,56.56726163995336 32.545842765975976,55.813147036518785 32.92925499071134,55.16537711077399 33.85444535911665,54.275894734564645 38.88047952254419,52.11983196285291 39.113860876736,52.16817471807735 39.447262811270775,52.71928037481848 41.581035192415584,56.7316191501086 42.047797900799196,56.83796797451214 44.89838444124325,55.726133424766886 45.24845647253096,55.45542389665934 45.42349248813116,55.06869465046475 43.981529121199856,50.44715735788486 44.04820950809517,49.91537597423303 52.41659806543612,46.2411680490186 52.75,45.864070181203715 51.34137682648725,41.14538463622739 50.291160732653225,38.9406718522805 47.72396583654336,34.395706349328975 48.12404815806076,35.16933298664662 48.21573369007092,35.681857134499296 50.5078719900921,39.69492150621227 50.482866845006356,40.02369510644348 36.14658365919604,46.540911431417044 34.504579131520586,47.07271185992431 34.38788845442468,47.31443833515368 34.55458942169207,50.86291162204725 31.645657542685512,50.36980752494128 30.9455134801683,51.27866405189707 30.87049804488197,51.79110056961508 31.203899979416747,52.545247357738845 30.995523770310683,52.91265001688589 30.68712698086165,52.92231848859956 30.4287404815841,52.699943388790416 30.262039514287608,52.36154549098865 30.237034369201865,51.82010632688616 29.920302531390917,51.44303078566736 30.29537970776437,50.46649480616179 30.103673595382133,49.05485065053654 30.27870961104054,47.778551429204526 30.178689030668465,47.36278355579998 29.511885161540704,46.80197747139027 29.345184194273315,46.41521270973317 29.795276805903995,45.27424741262803 29.795276805903995,44.77144476005196 29.553560403350275,44.65541299759934 28.920096727728378,44.76177545195969 27.953231117513496,44.42334904402378 27.42812307056738,45.0325157030602 27.261422103329096,45.980100455126376 27.478133360797074,46.830984764528694 27.236416958243353,47.29510023995681 26.627958427619888,47.83656540523225 25.727773204358527,47.643185346263635 24.969283803220605,45.989769638181315 24.844258077791892,45.18722406865709 25.102644577098545,42.99227536551189 25.40270631815656,42.47979099166696 25.077639432012802,41.57084958469932 19.08473965837038,44.94549213575374" stroke="yellow" stroke-linecap="round" stroke-linejoin="round" stroke-width="0.5"><title>2025-11-02 21.2km</title><desc>1762040409000</desc></polyline><polyline fill="none" points="77.36271186429076,40.19638399477117 64.52627118653618,40.99274823197629 58.89745762734674,53.0973839922226 57.73050847486593,60.74231979867909 69.05677966098301,65.99816946865758 89.44406779669225,64.80366130633047 93.42542372900061,63.52951723948354 97.54406779631972,58.67182378919097 97.2694915253669,47.124725477187894 95.21016949112527,43.3818360385485 88.55169491516426,38.92219951498555 64.7322033897508,40.99274823197629 59.03474576282315,52.53993780934252 57.25,59.388534571568016 59.72118644067086,61.777565731375944 69.26271186443046,66.0778032806702 93.15084745758213,63.92768748517847 97.68135593202896,58.75145835313015 97.13220338965766,47.04508971970063 95.34745762683451,43.46147217217367 90.81694915262051,39.79820156970527 87.72796610137448,38.842562915582675 64.59491525450721,41.072384610946756 58.828813559608534,53.17701912834309 57.318644067971036,59.70707248453982 69.19406779645942,65.91853564849589 93.35677966102958,63.688785362348426 97.68135593202896,58.592189217044506 97.06355932191946,46.56727500312263 91.64067796617746,40.35565690766089 88.34576271148399,39.08147268940229 64.80084745795466,41.152020981302485 58.966101695084944,53.17701912834309 57.455932203447446,59.70707248453982 59.240677966037765,61.45902866811957 69.05677966098301,65.8389018199523 93.35677966102958,63.76841941155726 97.54406779631972,58.990361996460706 97.33813559310511,47.36363270052243 95.21016949112527,43.541108297533356 89.03220338979736,39.24074583116453 64.59491525450721,41.31129369803239 58.828813559608534,53.49555959162535 57.455932203447446,59.78670694230823 69.12542372895405,66.15743708447553 93.42542372900061,63.52951723948354 97.75,58.35328545112861 96.99491525418125,46.726546608028 95.41610169457272,43.70038052363088 89.03220338979736,39.32038238970563 65.14406779664569,41.152020981302485 58.69152542389929,53.814099924115 57.455932203447446,59.30890007276321 58.966101695084944,61.37939438200556 68.09576271194965,65.67963413853431 71.39067796617746,66.0778032806702 91.57203389820643,64.48512548569124 95.82796610146761,61.53866294625914 97.75,57.716208382626064 97.20084745739587,46.56727500312263 94.45508474553935,42.90401906578336 88.48305084742606,39.32038238970563 64.59491525450721,41.390930043999106 58.966101695084944,52.938113695185166 57.455932203447446,60.42378231039038 69.26271186443046,65.91853564849589 92.94491525413468,64.00732150982367 97.61271186429076,58.990361996460706 97.06355932191946,46.48763918841723 91.64067796617746,40.59456621558638 88.34576271148399,39.32038238970563 65.14406779664569,41.072384610946756 59.17203389829956,52.46030260785483 57.455932203447446,59.86634139181115 69.26271186443046,65.99816946865758 92.25847457628697,64.40549151028972" stroke="#4DD2FF" stroke-linecap="round" stroke-linejoin="round" stroke-width="0.5"><title>2025-10-26 12.0km</title><desc>1761480636000</desc></polyline><polyline fill="none" points="141.2398305083625,60.02560732385609 142.75,57.23839786759345 141.92627118621022,45.69128059159266 136.0915254233405,39.95747574127745 132.5220338983927,39.001837479532696 109.66355932224542,41.072385558800306 103.6915254238993,53.25665270304307 102.52457627141848,59.62743515742477 114.81186440680176,65.83889768377412 131.69830508483574,64.88329130108468 138.837288135197,63.21097729919711 142.68135593202896,58.59218656824669 142.2694915253669,46.88581793481717 140.41610169457272,43.62074483965989 134.44406779669225,39.08147404628107 109.7322033897508,40.833476447092835 103.7601694916375,52.619571580551565 102.52457627141848,59.94597290700767 115.22372881369665,65.91853149578674 135.26779661001638,64.40548766835127 138.63135593221523,63.21097729919711 142.68135593202896,58.51255200430751 142.20084745739587,47.124725182773545 140.2788135590963,43.46147262962768 133.48305084742606,38.92220090451883 109.45762711856514,41.31129459681688 103.89745762734674,52.38066602445906 102.38728813570924,59.38853175949771 103.34830508497544,60.901585370942485 115.15508474549279,65.91853149578674 135.88559322035871,64.48512162751285 138.90593220316805,63.21097729919711 142.61271186429076,58.43291743216105 141.857627118472,45.5320088067092 135.47372881346382,39.79820277937688 129.02118644025177,38.92220090451883 109.59491525450721,41.072385558800306 103.2110169492662,54.530813379213214 102.25,59.22926278668456 103.41694915248081,60.981219689769205 115.22372881369665,65.99816529959207 130.80593220307492,64.96292521117721 138.5627118642442,63.37024545460008 142.61271186429076,58.67182112426963 141.99491525418125,45.930188207363244 135.3364406779874,39.47965675749583 128.4720338981133,38.92220090451883 109.52627118653618,41.15202191314893 103.96610169508494,52.5399364035693 102.66186440666206,60.26451052550692 114.60593220335431,65.91853149578674 138.08220338984393,63.6091476266738 142.75,58.59218656824669 142.13220338965766,46.6469106132281 136.02288135606796,40.03711220988771 132.86525423731655,39.08147404628107 109.86949152546003,41.15202191314893 104.03474576282315,52.38066602445906 102.59322033938952,60.02560732385609 115.22372881369665,66.07779909548117 137.46440677926876,64.00731774972519 142.3381355931051,59.786704048572574 142.06355932191946,46.08945991023211 136.22881355904974,40.19638512277743 131.97288135578856,39.001837479532696 116.0474576272536,40.435294430702925" stroke="#4DD2FF" stroke-linecap="round" stroke-linejoin="round" stroke-width="0.5"><title>2025-10-22 10.1km</title><desc>1761137801000</desc></polyline><polyline fill="none" points="167.08836065573269,55.39300298956368 173.99327868854743,56.988188845331024 175.56016393442405,57.50275946985494 173.72770491801202,59.50955946750037 171.558852459013,60.80623947024287 170.53196721311542,62.80268198023259 170.08049180326634,64.09931905395933 169.7795081967488,64.18164464674919 167.76114754096488,64.03757481465436 164.2113114754029,62.87471781664499 161.3962295082165,62.308720553832245 159.07688524591504,66.52789540048252 158.74934426229447,66.7439946604427 154.67721311474452,64.23309810763021 154.57098360653617,63.872923322524 155.10213114751969,62.072029834358545 156.21754098360543,60.06528153862746 157.19131147541339,56.75148546403943 158.38639344263356,56.62798782407481 159.28934426227352,56.73090253469127 163.18442622950533,58.68626180280262 163.47655737702735,58.37752342150634 164.63622950820718,55.053379471442895 164.4945901639294,54.76521315253194 164.06967213115422,54.64171304597403 149.54278688525665,51.34832029086101 147.59524590166984,50.87488611543813 147.3473770491837,50.66904446655826 147.25,48.82674273504381 147.43590163934277,46.397734090074664 148.38311475410592,43.11436113292439 148.79918032788555,42.23946289440937 149.99426229507662,40.458763871931296 151.70278688526014,38.523632812997676 152.20737704919884,38.25600533956458 154.44704918033676,39.62501521547529 154.56213114754064,39.8617593720337 152.59688524590456,42.95996788561024 151.96836065570824,45.162622189789545 152.44639344263123,43.5466609497671 152.93327868852066,42.4453219961797 154.68606557379826,39.90293221128377 160.1745901639224,41.838036419823766 163.90147540983162,42.55854432045453 164.36180327867623,42.486493765383784 165.17622950818622,42.87762472235772 165.22934426230495,45.67725401293865 165.34442622947972,45.94486150820012 165.64540983602637,46.006616981750994 168.40737704918138,45.625790950492956 170.46999999997206,45.72871704872523 172.3024590163841,46.212468283185444 174.17032786883647,47.17996369097091 172.1873770491511,46.20217572822003 170.0450819671969,45.69783923045179 168.44278688525083,45.66696140258864 165.48606557378662,46.099250120139914 164.17590163933346,46.10954268575733 162.56475409836276,46.027202131073864 160.26311475408147,45.615498334802396 159.51950819671038,48.5385583712341 159.6434426229389,48.79586587887752 174.32967213113443,52.326057649093855 186.84704918030184,55.135712552022596 187.679180327832,55.50621057119861 187.75,55.94874806293228 187.26311475411057,59.47868592807208 187.0772131147387,59.74625628483045 186.6434426229098,59.85945891135634 167.0706557377125,55.3621281721862" stroke="yellow" stroke-linecap="round" stroke-linejoin="round" stroke-width="0.5"><title>2025-10-12 21.3km</title><desc>1760225536000</desc></polyline><polyline fill="none" points="34.64249146776274,89.26329610613175 29.389931740704924,88.94257600500714 19.645051194587722,90.46599531255197 13.079351535998285,102.89377867814619 12.25,107.86483666155254 13.010238907765597,109.62875285779592 25.174061433412135,114.43941314902622 45.07849829364568,113.15657330147224 48.3267918091733,112.03408670669887 51.09129692870192,109.46839700470446 52.47354948846623,106.26127302658278 51.920648464234546,94.23444083420327 47.566552901407704,89.50383609544951 43.834470990113914,87.82005461398512 19.71416382258758,90.14527570526116 14.185153583530337,100.96948967530625 12.595563139766455,108.82697326235939 24.13737201387994,114.35923572012689 45.907849829411134,112.91604059556266 50.26194539270364,110.43053163046716 52.54266211623326,106.4216295380611 51.920648464234546,94.47497929277597 48.53412969317287,90.30563552532112 44.249146758113056,87.90023476677015 19.368600682821125,90.30563552532112 13.908703071763739,101.77127733605448 12.802901023766026,109.22786316293059 26.072525597410277,114.51959056936903 43.765358361881226,113.47728346084477 49.98549488047138,110.59088728623465 52.54266211623326,105.37931162398309 51.505972696701065,93.19210665777791 45.00938566587865,87.98041491146432 33.951365187997,88.30113540764432 19.43771331035532,90.54617519368185 13.42491467576474,102.73342144227354 12.872013651998714,109.38821906555677 24.482935153646395,114.51959056936903 41.20819112658501,113.79799348860979 48.60324232140556,112.03408670669887 52.61177474423312,106.58198601694312 52.33532423223369,94.71551767725032 46.46075085364282,88.6218557722168 42.59044368611649,87.90023476677015 21.718430034350604,89.42365610733395 18.608361775055528,91.90923191577895 13.079351535998285,104.57752766716294 12.664675767999142,108.66661724454025 16.051194539526477,110.9917762815603 24.13737201387994,114.5997679818538 44.31825938564725,113.39710593328346 48.465017064940184,112.11426437401678 52.61177474423312,106.4216295380611 52.47354948846623,94.39479981485056 46.80631399364211,88.78221590496833 42.659556314349174,88.06059504800942 21.511092150351033,89.50383609544951 19.645051194587722,90.46599531255197 17.57167235505767,93.91372277424671 12.388225255766883,108.10537092277082 13.563139931764454,109.70893077191431 24.275597269646823,114.67994538601488 42.79778157011606,113.55746098002419 48.74146757693961,111.5530205295654 51.85153583646752,108.34590511000715 52.75,105.70002497674432 52.47354948846623,95.11641482019331 49.156143345171586,90.70653493184363 44.52559726964682,88.22095529589569 20.336177474586293,89.98491585219745 15.014505119528621,99.3659118852811 12.526450512232259,108.58643922308693 23.86092150188051,114.43941314902622 28.491467576939613,114.51959056936903" stroke="#4DD2FF" stroke-linecap="round" stroke-linejoin="round" stroke-width="0.5"><title>2025-10-08 10.1km</title><desc>1759925805000</desc></polyline><polyline fill="none" points="69.16996557661332,89.60492164239986 63.66308089485392,92.19275743077742 58.713855421636254,102.6248842497589 57.31970740132965,108.12393426150084 58.36531841661781,109.82216253766092 69.03055077488534,114.67422315705335 90.43072289181873,113.13774052722147 93.63726333924569,112.08646121178754 97.33175559411757,106.66830711113289 97.05292598973028,94.94232364196796 95.65877796895802,92.27362716227071 89.73364888131618,88.23013042245293 78.78958691912703,88.39187069050968 64.5692771084141,90.65623095660703 59.829173838254064,99.22839300951455 57.31970740132965,107.71959365601651 61.08390705706552,110.87344487436349 68.82142857136205,114.35075337887974 86.31798623059876,113.70381342369365 93.63726333924569,111.84385809395462 96.49526678188704,109.09435086749727 97.54087779694237,106.34483404603088 97.47117039607838,95.58927900280105 93.91609294340014,90.49449115345487 89.38511187606491,88.14926027611364 65.12693631695583,90.09014150028815 59.829173838254064,99.39013101963792 57.25,108.52827465924202 69.03055077488534,114.51248828467214 93.00989672983997,112.24819658242632 97.19234079192393,107.80046179384226 97.54087779694237,95.67014838568866 95.72848537005484,92.03101794311078 89.6639414804522,87.98751995805651 64.5692771084141,90.17101144738263 58.853270223597065,101.49272213003132 57.737951807444915,108.4474065961549 68.96084337355569,114.26988591341069 89.59423407912254,113.13774052722147 93.63726333924569,111.92472580820322 97.68029259913601,107.07264825608581 97.19234079192393,94.3762372653 94.12521514622495,90.49449115345487 89.87306368350983,87.90664978674613 65.26635111914948,89.68579163955292 59.48063683300279,100.19882057234645 57.25,108.04306615696987 60.66566265071742,111.0351804937236 69.86703958711587,114.51248828467214 93.14931153180078,112.57166722399415 97.75,106.66830711113289 96.42555938055739,92.75884537643287 91.82487091235816,88.71535112702986 88.89716006908566,87.74490941897966 66.172547332244,89.7666616284987 63.31454388983548,92.11188769101864 59.13209982798435,101.33098455151776 57.45912220329046,108.85174682788784 64.70869191060774,112.97600533918012 70.6338209984824,114.75509058102034 89.52452667825855,113.3803432470886 94.40404475061223,111.35865163354902 97.75,106.26396575907711 97.47117039607838,96.39797245699447 96.1467297761701,92.59710600483231 91.33691910491325,88.6344810303417 88.54862306360155,87.90664978674613 66.38166953530163,89.4431816234137 63.31454388983548,92.19275743077742 57.877366609405726,105.21267727186205 57.52882960415445,109.33695483213523 69.58820998296142,114.75509058102034 85.20266781398095,113.54207835177658" stroke="#4DD2FF" stroke-linecap="round" stroke-linejoin="round" stroke-width="0.5"><title>2025-10-06 10.0km</title><desc>1759752637000</desc></polyline><polyline fill="none" points="118.72931034490466,89.05828751117224 110.0706896551419,90.03040039882762 102.52931034448557,106.96117448451696 103.36724137910642,109.95845071581425 114.39999999990687,114.7378676457447 133.95172413787805,113.44175744004315 138.28103448287584,111.98363091453211 142.4706896552816,107.04218210000545 141.91206896537915,94.89094687497709 140.5155172413215,91.81260424910579 134.6500000001397,87.6811255372595 109.86120689613745,90.03040039882762 104.48448275821283,100.15650510950945 102.3896551723592,108.25729533284903 103.64655172382481,109.7154287424637 114.46982758608647,114.49484714417486 134.16120689664967,113.36075048154453 139.2586206898559,111.5785952907172 142.4706896552816,106.8801668609376 141.70258620707318,93.99984892847715 138.56034482759424,90.27342843357474 134.3008620692417,87.76213513169205 110.1405172413215,89.94939103716752 106.43965517240576,95.29599106317619 102.25,108.01427283580415 105.04310344788246,110.60650894488208 115.37758620665409,114.8188744627987 134.02155172429048,113.52276439027628 139.11896551703103,111.74060956516769 142.5405172414612,106.8801668609376 142.05172413797118,95.37699987605447 140.65517241391353,92.37966826651245 134.7198275863193,87.92415429558605 110.3499999998603,89.54434410459362 103.85603448259644,101.20961254060967 102.45948275830597,108.50031775486423 114.5396551724989,114.57585398614174 134.9991379310377,113.76578519114992 139.2586206898559,112.06463801453356 142.75,107.20419730589492 142.1215517243836,95.5390174765489 140.79482758627273,92.46067737881094 134.9293103448581,87.92415429558605 113.56206896551885,89.05828751117224 109.51206896523945,90.1924190968275 104.13534482731484,100.88557963451603 102.3896551723592,108.82434753456619 114.8189655172173,114.65686082007596 133.53275862056762,113.76578519114992 138.97931034490466,112.06463801453356 142.6801724138204,107.04218210000545 142.05172413797118,95.29599106317619 139.67758620693348,91.40755827294197 134.51034482754767,87.84314471791731 110.00086206872948,89.78737228905084 104.20517241372727,100.64255486772163 102.31982758594677,108.7433401022572 114.60948275844567,114.7378676457447 134.85948275891133,113.68477826582966 139.11896551703103,111.90262380649801 142.75,106.47512861777795 141.91206896537915,94.4048935744213 140.09655172401108,91.56957668840187 134.7198275863193,87.84314471791731 109.65172413783148,89.78737228905084 103.71637931000441,101.85767795366701 102.52931034448557,109.0673697819584 113.42241379269399,114.57585398614174 124.03620689641684,114.33283343492076" stroke="#4DD2FF" stroke-linecap="round" stroke-linejoin="round" stroke-width="0.5"><title>2025-10-02 10.0km</title><desc>1759407705000</desc></polyline><polyline fill="none" points="170.0398305086419,88.90656076179584 155.35000000009313,90.73819822538644 148.07372881355695,105.55041186895687 147.93644067808054,108.25799024332082 155.0754237291403,113.03604667744366 160.22372881369665,114.86762717546662 179.23813559347764,113.75275260471972 184.5923728812486,110.48775357432896 186.30847457656637,106.5060288446839 186.78898305119947,94.79963978379965 183.7686440681573,90.73819822538644 177.79661016957834,87.55273898784071 155.89915254246444,89.78256182733458 148.00508474581875,103.71880937519018 147.5932203391567,108.01908664905932 159.05677966121584,114.78799333085772 172.37372881383635,113.59348467795644 177.4533898306545,114.38982398429653 183.97457627113909,111.44336446898524 186.72033898322843,105.55041186895687 186.92627118644305,94.40146017906955 181.22881355974823,88.74728773452807 178.2084745762404,87.79164888424566 154.93813559343107,90.41965289018117 149.99576271185651,99.49814368842635 147.38728813594207,108.73579721077112 159.6059322033543,114.9472610122175 179.92457627109252,113.43421671894612 183.7686440681573,111.68226700846571 187.1322033898905,107.62091382883955 186.85762711893767,95.35709088732256 182.46440677996725,90.10110742412508 178.07118644099683,88.03055870707612 155.00677966093644,90.26038017345127 147.93644067808054,104.43552390934201 147.8677966101095,109.53214150271378 159.5372881356161,114.86762717546662 178.75762711884454,113.43421671894612 183.83728813542984,111.36373027262744 187.0635593221523,106.2671247109538 187.47542372881435,95.51636255782796 181.16016949154437,89.38437964749755 177.0415254237596,88.11019529844634 154.52627118653618,90.81783453858225 149.24067796603777,100.77230933419196 147.38728813594207,108.4172592650284 159.5372881356161,114.78799333085772 178.96355932205915,113.43421671894612 183.08220338984393,112.0804377446766 187.0635593221523,107.38201003830181 187.40677966107614,96.07381314632948 182.67033898294903,90.18074380309554 178.96355932205915,88.34910502331331 155.1440677966457,90.41965289018117 149.1720338985324,101.17048566933954 147.38728813594207,108.33762475830736 159.39999999990687,114.86762717546662 179.44406779692508,113.27494872687384 183.63135593221523,111.92116947489558 187.1322033898905,107.93945210141828 187.26949152559973,95.11818332062103 182.53305084747262,90.57892557384912 178.41440677968785,88.58801467466401 155.1440677966457,90.49928923614789 150.20169491530396,98.781424593064 147.38728813594207,108.496893763775 159.19406779692508,114.54909174743807 182.8762711866293,112.0804377446766 187.26949152559973,107.14310617453884 187.47542372881435,95.83490580017678 183.08220338984393,90.57892557384912 178.07118644099683,88.34910502331331 154.66355932224542,90.73819822538644 149.03474576282315,101.80756738065975 147.52457627141848,108.97470058407634 159.67457627109252,114.70835947775049 180.2677966102492,113.11568070214707 183.35677966102958,112.00080361386063 187.3381355931051,107.14310617453884 187.2008474576287,95.19781918439548 185.14152542385273,92.41055908915587 178.96355932205915,88.26946845656494 155.21271186484955,90.34001653577434 149.51525423722342,100.37413279456086 147.25,108.496893763775 159.74322033906356,114.62872561666882 182.73898305092007,112.23970598191954 187.47542372881435,106.34675943019101 186.85762711893767,95.11818332062103 182.46440677996725,90.18074380309554 178.6203389831353,88.34910502331331 155.00677966093644,90.41965289018117 148.8288135593757,101.9668377264752 147.38728813594207,108.1783557200688 153.4279661020264,112.23970598191954 160.63559322059155,114.54909174743807 179.23813559347764,113.43421671894612 182.80762711865827,112.39897418644978 186.30847457656637,109.37287270987872 187.75,103.87807932886062 187.3381355931051,95.99417737242766 186.10254237311892,93.12728407006944 179.1008474577684,88.18983188149286 169.07881355960853,88.66765120864147 156.7915254237596,89.78256182733458 153.90847457619384,91.53456099098548 149.03474576282315,101.72793219523737 147.38728813594207,108.496893763775 148.48559322045185,110.24885066697607 152.4669491527602,111.92116947489558" stroke="#4DD2FF" stroke-linecap="round" stroke-linejoin="round" stroke-width="0.5"><title>2025-09-29 16.1km</title><desc>1759146700000</desc></polyline><polyline fill="none" points="34.20783132547513,139.20406450139126 28.770654045045376,137.74840477859834 21.79991394164972,138.31449499033624 19.429862306453288,139.68928381137084 14.898881239118055,147.93796635745093 12.25,157.4804521461483 24.93674698797986,163.7881335413549 45.15189328743145,162.25165169971297 48.21901893313043,161.03863760334207 52.40146299498156,154.73093419586075 51.91351118753664,143.0049410975189 49.125215146224946,139.2849344072747 43.26979345967993,136.0501317025628 20.057228915626183,138.23362498509232 13.922977624926716,150.04055789945414 12.389414801960811,157.1569799440913 20.405765920877457,162.00904902996263 25.424698795191944,163.626398751745 48.009896729839966,161.20037292409688 52.052925989730284,155.70135339157423 52.052925989730284,144.37972173362505 50.44965576613322,140.74059129104717 43.54862306360155,136.37361257069279 19.987521514762193,138.47623497643508 15.108003442175686,147.6953592801583 12.25,156.83350760943722 16.153614457696676,159.9064894283074 24.797332185786217,163.70726615079911 45.91867469903082,162.089916595025 48.916092943400145,160.71516686212271 52.54087779694237,156.75263950490626 52.122633391059935,143.8945053126663 49.961703958688304,140.33624242630322 43.618330464698374,136.37361257069279 19.91781411343254,138.3953649874893 12.807659208308905,153.67964538489468 12.947074010502547,158.37000001693377 25.00645438930951,163.626398751745 45.22160068852827,162.25165169971297 48.42814113618806,161.1195052677649 52.40146299498156,155.4587487046956 52.33175559411757,144.29885235073743 50.3799483650364,140.4979819971486 44.38511187606491,136.45448276691604 19.77839931147173,138.96145473449724 15.317125645466149,147.1292758085765 12.389414801960811,156.75263950490626 14.27151463017799,159.01694329216843 24.86703958711587,163.38379650498973 48.009896729839966,161.442975842976 52.33175559411757,156.59090327098966 52.54087779694237,144.37972173362505 51.216437177499756,141.46841872436926 44.17598967324011,136.45448276691604 20.266351119149476,138.23362498509232 15.45654044765979,146.5631919305306 12.319707401329651,157.07611187291332 24.588209982961416,163.626398751745 44.94277108460665,162.41338677163003 48.70697074057534,161.03863760334207 51.84380378690548,157.80392421543365 52.61058519827202,154.8118025077274 52.192340791923925,143.49015806656098 51.35585197946057,141.54928839753848 46.40662650601007,137.3440543782781 42.43330464721657,136.21187215327518 23.472891566110775,137.82927483378444 19.360154905356467,139.12319458741695 14.27151463017799,149.5553449646104 12.459122203290462,157.64218819746748 18.59337349398993,161.6047110807849 25.14586919103749,163.9498682974954 46.05808950099163,161.9281814568094 49.055507745593786,160.553431441891 52.192340791923925,157.07611187291332 52.75,154.8118025077274 52.052925989730284,142.92407157382695 46.685456110397354,137.58666464331327 42.642426850274205,136.45448276691604 20.336058519780636,138.55710495670792 14.27151463017799,149.7170826427755 12.598537005018443,154.73093419586075 12.807659208308905,158.12739615165628 25.564113597385585,163.8690009235288 46.61574870930053,161.84731387515785 52.122633391059935,157.56132017582422" stroke="#4DD2FF" stroke-linecap="round" stroke-linejoin="round" stroke-width="0.5"><title>2025-09-26 12.0km</title><desc>1758887292000</desc></polyline><polyline fill="none" points="77.91896551731043,137.32223342044745 69.46982758608647,137.56526190438308 65.28017241344787,138.78040320100263 60.322413792833686,147.6103737593512 57.529310344485566,157.5743503367412 69.33017241372727,163.73089087416884 89.85948275891133,162.3537741342443 93.63017241400667,160.89564790821169 97.12155172438361,154.57706979854265 97.400862069102,143.80296737729805 92.72241379297338,138.3753563098726 88.04396551731043,136.26910912577296 65.3499999998603,138.69939383934252 59.83362068934366,148.33944948203862 57.45948275830597,157.4933429044322 69.26034482754767,163.4878704479197 90.34827586193569,162.19176024221815 94.25862068985589,160.4096052342793 97.400862069102,154.25303878838895 97.4706896552816,143.88397621485638 95.5155172413215,140.88664368266473 89.16120689664967,136.59314752009232 65.00086206872948,138.9424218990025 60.11293103429489,147.8533990753349 57.45948275830597,157.25032055703923 69.46982758608647,163.4878704479197 90.69741379306652,162.11075328371953 93.7000000004191,160.81464081670856 97.4706896552816,155.79218490218045 97.400862069102,143.96498504438205 92.79224137938581,138.3753563098726 88.88189655193128,136.67415709776105 65.1405172413215,138.2133374955738 58.08793103415519,152.71388967271196 57.529310344485566,157.8983799832058 70.16810344834812,163.5688772649737 89.37068965518847,162.27276719245128 93.49051724141464,161.05766206630506 97.61034482787363,155.14412374631502 97.400862069102,143.7219585313578 95.7249999998603,140.96765281975968 89.58017241372727,136.67415709776105 64.72155172401108,138.78040320100263 60.04310344788246,147.77239064505557 57.31982758594677,157.25032055703923 70.23793103452772,163.40686362225097 89.7198275863193,162.11075328371953 93.90948275872506,160.65262660867302 97.4706896552816,154.90110067575006 97.4706896552816,143.6409496771521 93.63017241400667,139.18544988398207 89.02155172429048,136.7551666671643 65.28017241344787,138.6183844693005 63.53448275849223,140.15756107511697 59.97327586193569,147.9344074971741 57.45948275830597,156.60226059868 60.18275862070732,159.4375189881539 69.19051724113524,163.4878704479197 90.20862068980932,162.19176024221815 94.25862068985589,160.57161949202418 97.6801724138204,155.46815439075 97.5405172414612,143.96498504438205 95.5155172413215,140.96765281975968 89.09137931023724,136.7551666671643 64.79137931042351,138.9424218990025 59.83362068934366,148.09642431593966 57.45948275830597,157.8983799832058 69.8189655172173,163.32585678831674 90.90689655183814,162.0297463167226 93.90948275872506,160.81464081670856 97.4706896552816,156.68326812254963 97.12155172438361,143.6409496771521 96.07413793145679,141.53471654624445 90.90689655183814,137.32223342044745 87.83448275877163,136.59314752009232 65.62931034481153,138.3753563098726 63.39482758613303,140.5626070512808 59.76379310339689,148.09642431593966 57.25,156.27823041984811 58.08793103415519,158.2224094971316 67.93362068966962,162.92082249483792 91.04655172419734,161.86773235839792 96.56293103448115,157.8173725841334 97.75,151.98481799138244" stroke="#4DD2FF" stroke-linecap="round" stroke-linejoin="round" stroke-width="0.5"><title>2025-09-14 12.0km</title><desc>1757851744000</desc></polyline><polyline fill="none" points="123.52966101677157,137.1787426037481 109.52627118653618,139.16965289006475 104.30932203377597,149.28339824388968 102.25,157.2468844858813 114.39999999990687,163.1398116821074 130.32542372844182,162.34347278473433 137.05254237283953,161.30823099601548 141.10254237265326,157.2468844858813 142.75,144.10708835307742 141.65169491502456,141.95691870740848 136.84661016939208,137.9751073315274 133.68898305064067,136.86019648372894 109.86949152546003,138.77147124160547 105.13305084756576,147.53142030135496 102.59322033915669,157.48578781046672 114.05677966075018,163.06017782900017 133.20847457577474,162.0249369968078 138.494067796506,160.43225609598449 142.06355932168663,154.93748189078178 142.06355932168663,143.3107299200492 134.10084745753556,136.7805599332787 109.800847457489,139.01038025517482 104.85847457614727,148.08886825770605 102.38728813570924,157.00798108795425 114.39999999990687,163.1398116821074 134.306779660983,161.94530302926432 138.21949152532034,160.59152433322743 142.20084745739587,154.53930833481718 142.06355932168663,144.34599572385196 140.8279661014676,141.55873848946067 133.68898305064067,136.7009233747376 109.86949152546003,138.69183488725685 103.8288135593757,150.39829123875825 102.3186440677382,156.53017407137668 103.27966101677157,158.28213169367518 114.53728813561611,163.29907936352538 134.306779660983,161.94530302926432 138.35677966079675,160.51189021853497 141.58305084705353,156.4505395400338 141.72033898276277,144.8238102440955 140.00423728814349,141.00128584110644 133.96355932205915,136.7805599332787 109.86949152546003,138.77147124160547 105.06440677959472,147.69069118693005 102.38728813570924,157.2468844858813 114.39999999990687,163.2194455267163 135.06186440656893,161.8656690538628 137.94491525413468,160.67115843942156 141.99491525394842,155.09675125603098 141.72033898276277,144.34599572385196 140.3474576268345,141.3198302607052 134.306779660983,136.86019648372894 113.43898305064067,137.895470895397 109.25169491535053,139.01038025517482 103.8288135593757,150.3186560778413 102.52457627095282,157.48578781046672 113.71355932182632,163.06017782900017 132.7279661016073,162.1045709559694 137.80762711842544,160.91006070951698 141.857627118472,155.97273218014743 141.65169491502456,143.94781673199032 139.38644067780115,140.44383279205067 133.1398305085022,136.62128680798924 109.86949152546003,138.77147124160547 103.8288135593757,150.07975054660346 102.38728813570924,157.32651893538423 114.33135593216866,163.37871319206897 136.77796610142104,161.38786502875155 140.8279661014676,157.88395985396346 142.13220338965766,154.7782124931109 141.2398305083625,143.23109403182752 135.67966101691127,137.576925069734 132.52203389815986,136.7805599332787 114.19406779645942,137.895470895397" stroke="#4DD2FF" stroke-linecap="round" stroke-linejoin="round" stroke-width="0.5"><title>2025-09-11 11.0km</title><desc>1757592695000</desc></polyline><polyline fill="none" points="169.34090909082443,136.58153957291506 168.43782161269337,137.46805911656702 154.9609777017031,138.51576274127 149.12564322468825,149.79863625211874 147.66680960543454,157.77714179770555 159.6848198971711,163.3378704462084 183.1650943395216,161.08134762651753 187.75,155.35942140611587 187.47212692978792,144.72136323724408 185.66595197259448,141.01412728091236 179.76114922808483,136.82331772951875 155.86406518006697,138.1933925440535 154.12735849060118,139.56346496753395 149.6119210976176,148.50917320000008 147.25,156.24591974751092 150.16766723850742,159.22777045948897 159.40694682695903,163.3378704462084 180.80317324167117,161.96783950761892 183.85977701540105,160.67839644075138 187.75,155.92355683009373 187.75,145.52728178096004 186.2911663807463,141.73945743218064 179.27487135515548,136.82331772951875 154.68310463125817,138.676947789907 149.47298456262797,148.91213063133182 147.38893653522246,156.72946387529373 148.56989708403125,158.34127548453398 159.82375643216074,163.41846042714315 179.69168096059002,162.1290197422495 183.72084048064426,160.8395769399358 187.6805317325052,155.92355683009373 187.47212692978792,144.4795875128475 185.38807890214957,140.85294271161547 179.20540308766067,136.74272501893574 155.44725557463244,138.1933925440535 149.95926243579015,148.10621556185652 147.52787307021208,157.29359831486363 160.44897084054537,163.41846042714315 180.247427101247,162.04842962912517 183.3734991424717,161.00075740600005 187.61106346501037,156.0847383053042 187.61106346501037,144.56017942924518 185.7354202400893,141.01412728091236 178.5801886790432,136.58153957291506 155.51672384236008,138.35457765916362 149.82032590080053,148.26739864208503 147.4584048029501,156.16532903036568 147.94468267587945,158.1800944727147 161.00471698096953,163.41846042714315 181.84519725572318,161.7260690939729 187.26372212683782,156.72946387529373 187.05531732412055,143.10952366801212 181.35891938232817,137.46805911656702 178.30231560906395,136.66213230020367 155.03044596896507,138.51576274127 148.15308747859672,152.86110251350328 147.80574614088982,157.93832289247075 159.89322469965555,163.25728045706637 180.1084905662574,161.96783950761892 184.13765008561313,160.27544504828984 187.6805317325052,155.03705812472617 187.26372212683782,144.56017942924518 186.15222984552383,141.5782730122446 179.83061749557965,136.90391043189447 169.68825042899698,136.90391043189447 156.4892795884516,138.1933925440535 154.54416809626855,139.24109520076308 148.0836192111019,153.1028756571468 147.94468267587945,158.0995039541158 160.2405660378281,163.3378704462084 181.21998284733854,161.80665924033383 186.43010291620158,157.77714179770555 187.75,153.5058307305444 186.9163807888981,143.10952366801212 181.63679245277308,137.79042961151572 177.46869639796205,136.74272501893574 160.79631217825226,137.87102221453097" stroke="#4DD2FF" stroke-linecap="round" stroke-linejoin="round" stroke-width="0.5"><title>2025-09-09 11.0km</title><desc>1757419935000</desc></polyline><polyline fill="none" points="34.96612349920906,185.00917274679523 32.1873927959241,186.21806340577314 19.960977701703086,187.34635967499344 13.917238421970978,198.95159861800494 12.319468267494813,206.28537644288735 24.1985420237761,212.49082725320477 43.858061749488115,211.20138696575304 48.58190394495614,209.7507641109405 52.19425385934301,204.6735630137846 52.611063465010375,191.85952853644267 49.484991423552856,188.3134694720502 44.69168096059002,185.4121365066385 19.752572898985818,187.58813723589992 14.125643224688247,198.54864180699224 12.25,205.72124211885966 13.569897084031254,207.33305339736398 23.851200686069205,212.41023729735753 47.956689537037164,210.0731249769451 52.47212692978792,204.1094275319483 52.611063465010375,193.31018444657093 51.01329331053421,190.00590875052148 44.96955403103493,185.57332195265917 19.960977701703086,187.58813723589992 14.264579759910703,197.90391047979938 12.388936535222456,205.39887946628733 13.292024013586342,207.1718724182574 24.337478559231386,212.24905736086657 44.41380789014511,211.12079687730875 49.55445969104767,208.5419096846599 51.70797598641366,204.1900183398393 52.75,195.96971332043177 51.43010291620158,190.40886994596804 44.69168096059002,185.4121365066385 20.447255574632436,187.50754472363042 15.098198970779777,196.05030496395193 12.319468267494813,206.20478584989905 24.40694682695903,212.49082725320477 47.956689537037164,209.99253477278398 52.402658662293106,204.35119993094122 52.402658662293106,193.47136827098439 50.45754717011005,189.5223550433293 44.27487135515548,185.4121365066385 20.09991423669271,187.26576713792747 13.292024013586342,200.80519728414947 13.014150943607092,207.01069140643813 24.40694682695903,212.16846737993183 45.525300171459094,210.8790265628486 48.3734991424717,209.7507641109405 51.98584905662574,204.1900183398393 51.98584905662574,192.18189674802125 48.3734991424717,187.8299147223006 43.92753001744859,185.4121365066385 23.295454545645043,186.7016191482544 19.33576329331845,187.8299147223006 13.22255574632436,201.12756182288285 12.458404802950099,206.20478584989905 24.545883361948654,212.3296473332448 43.64965694677085,211.20138696575304 48.3734991424717,209.67017387365922 51.98584905662574,204.2706091394066 52.26372212683782,192.66544881736627 48.85977701540105,188.0716921344865 43.1633790738415,185.3315437711426 19.613636363763362,187.42695220350288 13.430960549041629,200.32165022811387 12.597341337939724,206.44655760360183 24.893224699655548,212.0878773907898 45.73370497417636,210.63725617405726 51.29116638074629,206.60773873142898 52.47212692978792,202.0946546451887 52.124785591848195,192.584856826521 51.22169811325148,190.40886994596804 46.775728987762704,186.7016191482544 43.580188679043204,185.4121365066385 23.573327615624294,186.7016191482544" stroke="#4DD2FF" stroke-linecap="round" stroke-linejoin="round" stroke-width="0.5"><title>2025-09-06 11.0km</title><desc>1757162103000</desc></polyline><polyline fill="none" points="77.98879310349002,185.9507177899941 66.18793103448115,186.84182204765966 64.16293103434145,188.05696259613615 58.36724137910642,200.3702812777483 57.25,206.04082395730074 68.14310344820842,212.03535334661137 76.73189655179158,212.19736702251248 90.48793103452772,210.90125668398105 95.16637931042351,208.39003684587078 97.75,203.93462714657653 97.05172413797118,191.37833721464267 91.53534482768737,186.03172730957158 88.53275862056762,185.05961252603447 78.47758620698005,185.30264133412857 64.79137931042351,187.32787849148735 59.06551724113524,198.26406933402177 57.25,205.71679404447787 69.46982758608647,212.27837384818122 89.9991379310377,211.14427753450582 93.90948275872506,209.84816546656657 97.6801724138204,203.04354218865046 97.1913793105632,191.9453997768578 95.5155172413215,189.3531104515423 88.67241379339248,185.1406221370562 64.58189655165188,187.32787849148735 59.34482758608647,197.94003622827586 57.25,206.1218314145808 68.98103448282927,212.35938066523522 93.35086206928827,210.17219368316 97.61034482787363,204.09664248558693 97.1913793105632,191.37833721464267 91.60517241386697,186.11273682070896 88.67241379339248,185.22163173969602 64.86120689613745,187.48989723960403 60.11293103429489,195.9958348008222 57.25,205.8788090175367 58.71637931000441,207.49895691825077 69.8189655172173,212.44038747396553 90.76724137924612,210.98226364247967 93.56034482759424,209.9291725330404 97.26120689650998,204.50168068695348 97.3310344829224,192.99851488298737 96.42327586235479,190.40622901683673 90.06896551745012,185.46466049802257 65.0706896551419,187.246869105089 60.11293103429489,195.9148263039533 57.3896551723592,206.3648537370027 68.91120689641684,212.03535334661137 88.53275862056762,210.98226364247967 93.49051724141464,209.76715839176904 97.61034482787363,205.47377152281115 97.3310344829224,193.32255001738667 95.5155172413215,189.67714708292624 88.95172413787805,185.30264133412857 64.79137931042351,187.32787849148735 59.27499999990687,198.1020527977962 57.3896551723592,206.04082395730074 68.70172413787805,212.27837384818122 93.21120689669624,210.09118664159905 97.61034482787363,204.66369590960676 97.4706896552816,192.917506078491 95.44568965537474,189.2721012730617 89.6500000001397,185.38365092035383 68.00344827608205,186.59879371360876 64.16293103434145,187.81393463601125 57.808620689669624,202.07144835975487 57.3896551723592,206.28384630469372 68.98103448282927,212.03535334661137 92.86206896556541,210.17219368316 97.3310344829224,205.06873382010963 97.1913793105632,192.51246193161933 95.5155172413215,189.59613793744938 89.02155172429048,185.30264133412857 65.62931034481153,186.76081261137733" stroke="#4DD2FF" stroke-linecap="round" stroke-linejoin="round" stroke-width="0.5"><title>2025-08-31 11.1km</title><desc>1756643837000</desc></polyline><polyline fill="none" points="124.25781249976717,184.35275446635205 120.95312499976717,186.06577037536772 108.92968750023283,187.37092287506675 103.234375,200.667041814595 102.74218750023283,206.21382321917918 114.6953125,212.49469071778003 134.38281249976717,211.02644042373868 139.79687499976717,208.1715015306254 142.328125,204.0929996065679 142.60937499976717,192.26522565813502 138.953125,187.61563873005798 134.38281249976717,185.00533239083597 109.98437499976717,187.1262069447548 104.921875,196.75164339598268 102.81249999976717,202.62473378976574 102.671875,206.54010327276774 114.34375,212.8209681926528 135.3671875,210.94487088330789 139.515625,208.98719940386945 142.6796875,203.0325856776908 142.39843749976717,191.77579673624132 138.17968749976717,186.79991892026737 133.46874999976717,184.67904349550372 109.703125,187.53406678687315 104.921875,196.4253593236208 102.39062499976717,206.29539324517827 114.9765625,212.73939883662388 138.109375,209.8028964396217 140.5703125,207.35580282041337 142.5390625,202.78787457029102 142.25781249976717,191.6942252201261 139.5859375,188.2682139755343 134.1015625,184.84218795987545 109.6328125,187.61563873005798 103.7265625,199.19876966823358 102.25,205.5612627104856 104.921875,208.57935057178838 115.18749999976717,213.14724553364795 138.46093749976717,209.9660357463872 142.39843749976717,203.92985909426352 142.5390625,191.6942252201261 140.49999999976717,189.08393227792112 134.03125,185.00533239083597 114.20312499976717,186.63677485793596 109.35156249976717,188.2682139755343 104.00781249976717,199.11719891405664 102.25,206.1322531849728 104.359375,208.1715015306254 114.62499999976717,212.8209681926528 138.17968749976717,210.2107446435257 142.25781249976717,203.5220076669939 142.25781249976717,191.77579673624132 137.26562499976717,186.39205870131264 133.609375,184.67904349550372 109.4921875,187.61563873005798 104.921875,196.58850137656555 102.39062499976717,205.6428328033653 104.2890625,208.0083618554636 114.5546875,212.73939883662388 136.07031249976717,211.1895794789889 138.953125,209.63975709944498 141.83593750023283,205.4796926091076 142.328125,191.77579673624132 139.515625,188.2682139755343 134.1015625,184.67904349550372 109.7734375,187.45249483530642 104.8515625,196.67007239011582 102.8828125,202.21688169287518 102.671875,206.21382321917918 115.1171875,212.73939883662388 137.125,210.94487088330789 141.48437499976717,206.7032432492124 142.75,202.54316338716308 142.60937499976717,192.26522565813502 136.703125,185.90262616216205 131.07812499976717,184.67904349550372 115.1171875,186.31048663228285" stroke="#4DD2FF" stroke-linecap="round" stroke-linejoin="round" stroke-width="0.5"><title>2025-08-29 11.0km</title><desc>1756472821000</desc></polyline><polyline fill="none" points="167.43088737223297,189.28898319712607 154.99061433481984,190.33132272341754 148.90870307176374,202.35821664106334 147.80290102376603,209.17337433126522 159.9667235496454,214.70563508576015 180.00938566587865,213.5029730371898 184.91638225293718,211.41835443343734 187.54266211623326,206.52749664196745 187.47354948846623,194.34030793810962 180.14761092164554,188.40700251155067 169.36604095599614,188.24664227990434 154.506825938588,190.57186241645832 149.53071672352962,200.67446264030878 147.80290102376603,209.09319635125576 158.93003412964754,214.70563508576015 167.70733788399957,214.54528025293257 182.7047781571746,212.9417301142239 185.12372013693675,211.09764338546665 187.61177474423312,206.52749664196745 187.54266211623326,194.34030793810962 181.59897610964254,189.0484431089135 173.92747440282255,188.08628201537067 155.958191126585,189.68988317949697 153.60836177505553,192.0150990196853 150.1527303752955,199.15106303611537 147.733788395999,208.4517722139135 160.51962457341142,214.94616727315588 181.46075085364282,213.34261795738712 186.43686006846838,209.4139082223992 187.75,205.80589208065066 187.6808873724658,195.06192309164908 180.56228668964468,188.48718261503382 157.4786689421162,189.5295232112403 154.09215017058887,191.453840657603 150.1527303752955,199.15106303611537 147.52645051223226,208.05088186071953 149.04692832753062,210.13550945091993 158.58447098964825,214.54528025293257 165.3575085324701,214.70563508576015 182.15187713340856,213.18226284504635 187.0588737204671,208.6121282976237 187.12798634823412,194.66102586651687 181.46075085364282,188.96826306311414 170.74829351576045,188.16646215191577 157.20221843011677,189.3691632100381 154.43771331035532,190.49168252688833 150.1527303752955,199.47177898918744 147.733788395999,206.44731839041924 148.35580204753205,209.89497578219743 159.69027303764597,214.8659898856422 180.70051194541156,213.5029730371898 183.60324232140556,212.22013147792313 186.2295221844688,208.93284036626574 187.47354948846623,205.72571375477128 187.61177474423312,198.83034695131937 187.40443686023355,194.98174366290914 185.88395904470235,192.41599760286044 180.28583617741242,188.32682239980204 161.69453924917616,189.28898319712607 147.80290102376603,182.55383272690233 147.25,184.47816735884408 148.21757679176517,187.44484062783886 152.50255972682498,193.3781533629517 147.80290102376603,205.56535707850708 147.59556313976645,208.29141609725775 148.70136518776417,209.81479787582066 158.99914675788023,214.54528025293257 180.8387372016441,213.5029730371898 185.95307167293504,209.65444203926018 187.61177474423312,205.08428685250692 186.43686006846838,193.05743490811437 181.1843003416434,188.72772287612315 169.36604095599614,188.24664227990434 159.20648464164697,189.28898319712607 155.12883959058672,190.33132272341754 153.1245733788237,192.8970756311901 147.80290102376603,206.12660530145513 148.56313993176445,209.81479787582066 158.65358361788094,214.38492538710125 161.69453924917616,214.70563508576015 168.81313993176445,214.22457048861543 182.08276450517587,209.5742641086108 174.61860068282112,212.9417301142239 181.73720136540942,213.102085276274 186.16040955646895,209.4139082223992 187.47354948846623,205.56535707850708 187.1970989764668,196.98622690839693 186.36774744093418,193.4583329563029 184.0179180887062,190.97276174032595 179.11092150211334,188.16646215191577 163.28412969294004,189.12862314656377" stroke="#4DD2FF" stroke-linecap="round" stroke-linejoin="round" stroke-width="0.5"><title>2025-08-27 11.4km</title><desc>1756300085000</desc></polyline><polyline fill="none" points="49.16226575826295,255.94452309655026 52.19804088608362,253.14307183370693 51.99105621827766,241.13673814130016 46.74744463386014,235.45367573422845 42.9527257240843,234.09293633594643 19.701448041247204,236.41419623279944 14.319846678059548,246.81975913065253 12.25,254.34369503590278 16.04471891000867,257.3852655419032 24.048126065172255,260.9070692019304 45.574531516293064,259.5463742185966 48.679301533382386,258.1856768610887 52.060051107546315,252.9829886003863 52.129045996814966,240.73652383463923 45.98850085190497,234.89337156369584 43.09071550285444,234.0128927679616 20.32240204466507,235.85389275243506 15.078790460014716,244.73865765915252 12.25,254.42373651691014 17.83858603099361,258.1856768610887 25.290034071775153,261.0671508083469 47.8513628623914,258.6659232584061 51.92206132900901,253.30315503414022 52.75,241.61699503840646 48.74829642265104,237.05454257462407 44.19463373092003,234.17297989560757 19.90843270905316,236.09402286465047 15.216780238319188,244.65861518407473 12.456984668038785,254.26365354651352 13.836882453178987,255.94452309655026 25.014054514700547,261.0671508083469 44.05664395261556,259.86653795768507 48.127342419466004,258.5858822125592 51.92206132900901,253.2231134378817 52.40502555388957,241.61699503840646 49.024275979958475,237.4547587710549 42.814735945547,234.0128927679616 19.770442930283025,236.33415290294215 14.595826235134155,246.33950543805258 12.456984668038785,254.42373651691014 15.768739352934062,257.30522436485626 24.945059625199065,261.0671508083469 42.88373083504848,260.26674244663445 48.54131175484508,258.265717947972 51.99105621827766,251.78236330329673 52.26703577511944,241.53695224266266 47.71337308362126,236.33415290294215 42.40076660993509,234.0128927679616 19.63245315174572,236.25410956516862 14.38884156756103,246.73971686890582 12.318994889268652,254.66386091103777 24.25511073251255,260.9871100092423 47.782367972889915,259.1461693599704 52.543015332426876,253.7033628913341 52.19804088608362,241.37686662690248 50.05919931875542,238.09510425839107 43.09071550285444,233.93284919171128 19.770442930283025,235.93393613159424 13.07793867145665,250.50169428205118 12.456984668038785,254.34369503590278 13.422913117799908,256.02456441364484 25.290034071775153,261.0671508083469 45.29855195921846,259.786497035122 48.40332197630778,258.5058411587379 51.30110732559115,255.22415087610716 52.40502555388957,250.8218617347302 52.129045996814966,241.85712337610312 51.09412265755236,239.3757936549373 46.540459965821356,235.37363230611663 43.36669505946338,234.25302344717784 22.737223168602213,235.45367573422845" stroke="#4DD2FF" stroke-linecap="round" stroke-linejoin="round" stroke-width="0.5"><title>2025-08-21 10.0km</title><desc>1755782353000</desc></polyline><polyline fill="none" points="96.35344827594236,255.76291204919107 97.6801724138204,252.44160356890643 96.91206896537915,240.29035587108228 91.32586206891574,234.7817286149948 88.04396551731043,233.80961393134203 64.58189655165188,236.07787966384785 57.668965517310426,254.3857858387637 58.78620689618401,255.92492673918605 68.84137931023724,260.46132456470514 92.65258620702662,259.0031995358295 97.61034482787363,253.57571047509555 96.77241379325278,240.77640937111573 91.8844827588182,235.67283269012114 87.83448275877163,234.37668097572168 64.51206896523945,236.32090774865355 59.20517241372727,248.95826502441196 58.15775862056762,255.51988995145075 69.67931034462526,261.1903860687162 93.28103448287584,258.6791713857674 97.5405172414612,252.76563427987276 97.1913793105632,240.93842713790946 94.88706896570511,237.77907468512421 88.53275862056762,234.1336522923084 64.79137931042351,236.23989839554997 59.414655172033235,247.01406938396394 57.668965517310426,254.2237708325265 58.646551723824814,255.92492673918605 69.26034482754767,260.7043451408972 90.55775862094015,259.48924151126994 93.56034482759424,258.35514310275903 97.400862069102,253.3326877038926 97.26120689650998,241.10044487169944 91.8844827588182,235.42980440566316 88.67241379339248,234.05264271463966 64.72155172401108,236.15888903388986 58.646551723824814,248.39120845723664 57.25,254.70981575158658 70.16810344834812,260.94736564246705 93.83965517231263,258.5171572608524 97.61034482787363,253.3326877038926 96.98189655179158,240.53338265855564 91.32586206891574,235.18677604658296 88.53275862056762,234.21466186171165 64.44224137929268,236.23989839554997 59.20517241372727,247.74314331042115 57.808620689669624,255.76291204919107 69.60948275844567,260.7853519828641 93.00172413792461,258.59816432732623 97.75,252.76563427987276 97.400862069102,241.2624625718454 95.3758620689623,238.02210224582814 88.46293103462085,234.05264271463966 64.86120689613745,235.99687028577318 58.85603448259644,248.14818408957217 57.668965517310426,255.51988995145075 67.8637931032572,260.5423314316431 71.91379310330376,260.94736564246705 91.8844827588182,259.24622056103544 97.75,254.14276331709698 97.05172413797118,240.53338265855564 91.32586206891574,235.10576657706406 88.04396551731043,234.1336522923084 77.91896551731043,234.29567142290762 66.74655172415078,235.34879496088251 63.95344827580266,237.13100082369056" stroke="#4DD2FF" stroke-linecap="round" stroke-linejoin="round" stroke-width="0.5"><title>2025-07-22 10.0km</title><desc>1753187142000</desc></polyline><polyline fill="none" points="114.1718943445012,260.8676919201389 123.2985854735598,267.22059233812615 132.1971093248576,261.39710088726133 130.8281056554988,235.19122660462745 124.21125458739698,228.04412376135588 117.1380689619109,228.8382472775411 112.57472339645028,234.66181225841865 114.400061622262,258.220645460533 124.66758914291859,266.1617766888812 132.4252766026184,256.89712121128105 129.68726926483214,231.75003141211346 121.01691269036382,228.04412376135588 115.08456345740706,230.6912011981476 112.34655611775815,237.0441759598907 115.08456345740706,260.0735782675911 122.61408363841474,266.1617766888812 129.00276742968708,264.04414408514276 132.4252766026184,258.220645460533 130.8281056554988,234.13239780347794 123.98308730777353,227.77941586868837 112.57472339645028,233.86769053596072 113.9437270667404,256.89712121128105 122.38591636158526,266.42648064135574 130.8281056554988,262.45591849205084 130.8281056554988,235.45593373733573 125.80842553451657,228.04412376135588 113.71555978711694,232.54415378673002 114.85639617871493,257.69123584241606 121.47324724774808,264.83825651556253 131.51260749157518,256.89712121128105 130.599938377738,232.54415378673002 126.03659281227738,228.04412376135588 113.25922523066401,232.54415378673002 113.71555978711694,256.89712121128105 122.15774908289313,266.6911845677532 128.77460015099496,265.897072708467 132.4252766026184,260.0735782675911 131.51260749157518,234.66181225841865 126.4929273687303,228.04412376135588 116.90990168321878,228.5735394663643 112.11838883999735,236.7794689910952 114.400061622262,261.66180532891303 125.80842553451657,267.75 132.4252766026184,261.13239641697146 131.51260749157518,234.66181225841865 121.929581804201,227.51470794784836 112.34655611775815,235.19122660462745 114.400061622262,261.13239641697146 125.35209097806364,267.22059233812615 130.8281056554988,265.63236870081164 132.65344388224185,259.8088736627251 130.14360382128507,232.54415378673002 118.9634071867913,228.04412376135588 113.03105795290321,235.45593373733573 114.6282289000228,259.54416903015226 118.73523990809917,264.83825651556253 125.12392370030284,265.897072708467 132.4252766026184,256.63241628021933 129.91543654259294,233.60298324003816 125.12392370030284,228.5735394663643 118.05073807481676,228.5735394663643 112.57472339645028,236.51476199436001 114.85639617871493,260.33828284568153 119.19157446641475,265.36766466661356 125.80842553451657,266.1617766888812 132.1971093248576,259.2794643698726 129.68726926483214,232.01473889802583 117.59440351743251,228.8382472775411 112.34655611775815,236.7794689910952 114.85639617871493,260.0735782675911 125.35209097806364,266.1617766888812 132.4252766026184,256.3677113216836 130.37177109904587,233.07356856833212 119.64790902193636,228.04412376135588 112.80289067421108,234.66181225841865 115.08456345740706,260.8676919201389 123.2985854735598,266.42648064135574 129.68726926483214,264.30884825624526 132.4252766026184,258.4853502283804 130.37177109904587,232.27944635599852 118.27890535257757,228.30883162748069 112.34655611775815,237.83829670445994 115.99723257124424,262.9853271320462 126.03659281227738,266.42648064135574 132.4252766026184,259.2794643698726 130.14360382128507,232.80886119161732 122.38591636158526,227.77941586868837 112.80289067421108,235.45593373733573 115.31273073516786,261.66180532891303 123.75492003094405,266.42648064135574 132.65344388224185,257.9559406656772 130.599938377738,232.54415378673002 121.47324724774808,227.25 113.25922523066401,233.60298324003816 115.08456345740706,260.8676919201389 123.52675275225192,266.1617766888812 130.14360382128507,264.04414408514276 132.88161115907133,257.9559406656772 131.0562729332596,234.13239780347794 123.98308730777353,227.51470794784836 115.08456345740706,230.42649357696064 112.80289067421108,235.98534791986458 115.99723257124424,262.19121413095854 126.03659281227738,265.63236870081164 132.65344388224185,257.9559406656772 130.8281056554988,232.80886119161732 125.80842553451657,228.04412376135588 118.73523990809917,227.77941586868837 112.57472339645028,235.98534791986458 115.08456345740706,261.13239641697146 123.2985854735598,266.6911845677532 130.14360382128507,264.30884825624526 132.88161115907133,258.220645460533 131.0562729332596,234.13239780347794 126.94926192611456,228.30883162748069 119.87607629969716,227.25 112.80289067421108,234.66181225841865 114.6282289000228,259.54416903015226 125.12392370030284,266.6911845677532 132.4252766026184,260.33828284568153 130.8281056554988,233.33827591803856 119.64790902193636,227.51470794784836 112.80289067421108,234.66181225841865 114.85639617871493,261.66180532891303 126.4929273687303,266.6911845677532 132.88161115907133,259.8088736627251 131.28444021195173,234.66181225841865 123.070418195799,227.25 115.99723257124424,229.10295506194234 112.34655611775815,235.19122660462745 114.6282289000228,260.0735782675911 122.84225091710687,266.6911845677532 129.2309347074479,264.83825651556253 132.65344388224185,259.0147596837487 130.599938377738,233.86769053596072 126.03659281227738,228.30883162748069 119.19157446641475,227.51470794784836 112.80289067421108,235.19122660462745 114.6282289000228,260.0735782675911 118.73523990809917,265.63236870081164 125.58025825675577,266.6911845677532 132.4252766026184,259.54416903015226 129.68726926483214,231.4853238996584 121.24507996998727,227.51470794784836 113.03105795290321,234.9265194456093 114.85639617871493,259.8088736627251 123.070418195799,266.42648064135574 132.1971093248576,260.33828284568153 129.91543654259294,232.27944635599852 120.78874541260302,227.51470794784836 113.25922523066401,233.86769053596072 115.76906529162079,261.66180532891303 124.66758914291859,266.42648064135574 132.4252766026184,259.0147596837487 129.91543654259294,232.54415378673002 120.56057813484222,227.51470794784836 113.25922523066401,235.19122660462745 114.85639617871493,258.4853502283804 118.73523990809917,264.5735523994081 126.03659281227738,265.63236870081164 132.4252766026184,257.4265309923794 130.14360382128507,234.13239780347794 121.01691269036382,228.30883162748069 113.25922523066401,235.45593373733573 117.82257079612464,262.19121413095854 125.12392370030284,265.36766466661356" stroke="#4DD2FF" stroke-linecap="round" stroke-linejoin="round" stroke-width="0.5"><title>2025-05-09 10.0km</title><desc>1746796175000</desc></polyline><polyline fill="none" points="162.28623033501208,261.70133937173523 165.23314362484962,265.9091047986876 172.48708402831107,266.43507499154657 177.47416805569082,257.23058103141375 174.7539404053241,231.98379927757196 165.23314362484962,227.77597812912427 157.75251758191735,234.61368398508057 160.69943087082356,261.9643249132205 172.03371275402606,267.75 178.15422496944666,260.1234255542513 175.20731168054044,233.29874196904711 167.95337127614766,227.25 157.52583194430918,233.8247188567184 159.33931704610586,260.9123825840652 163.6463441606611,266.1720899087377 170.44691328983754,267.2240300779231 177.47416805569082,259.8604398232419 176.3407398685813,235.92862532730214 167.50000000093132,227.77597812912427 161.15280214697123,229.35391186969355 157.52583194430918,235.13966060290113 159.33931704610586,258.80849663028494 169.0867994632572,266.69806004688144 176.56742550618947,261.1753682063427 175.4339973181486,235.13966060290113 165.23314362484962,228.56494512129575 157.299146306701,237.7695420717355 160.24605959560722,261.1753682063427 168.18005691375583,266.96104507590644 174.7539404053241,264.3311935728416 177.0207967814058,258.0195389527362 174.07388349156827,231.7208106580656 165.23314362484962,228.03896715375595 157.75251758191735,234.35069563635625 160.24605959560722,261.43835380254313 168.40674255043268,266.43507499154657 177.0207967814058,257.4935670325067 174.98062604200095,234.08770725969225 164.09971543587744,228.56494512129575 157.299146306701,235.4026488715317 160.92611650936306,262.2273104272317 169.9935420146212,266.69806004688144 177.24748241901398,256.4416228684131 174.98062604200095,233.56173042650335 163.87302979733795,228.56494512129575 157.07246066909283,235.92862532730214 160.69943087082356,261.9643249132205 171.80702711548656,266.1720899087377 177.24748241901398,258.54551076493226 175.4339973181486,235.13966060290113 165.45982926152647,228.3019561516121 156.84577503055334,237.2435659938492 160.92611650936306,263.01626680931076 169.7668563760817,266.69806004688144 176.56742550618947,259.5974540649913 174.7539404053241,233.03575348411687 166.59325744956732,228.03896715375595 156.84577503055334,235.66563711268827 160.01937395799905,260.9123825840652 167.27331436239183,266.69806004688144 176.7941111428663,260.1234255542513 174.98062604200095,234.08770725969225 168.18005691375583,228.3019561516121 162.05954469647259,229.09092298080213 156.84577503055334,236.7175898081623 160.24605959560722,262.2273104272317 168.40674255043268,266.69806004688144 176.1140542300418,261.70133937173523 175.4339973181486,235.4026488715317 169.0867994632572,228.82793406466953 157.9792032185942,233.29874196904711 159.1126314084977,257.75655300565995 162.05954469647259,264.3311935728416 168.40674255043268,267.2240300779231 176.56742550618947,261.43835380254313 175.20731168054044,234.08770725969225 167.50000000093132,228.03896715375595 161.15280214697123,229.61690073180944 157.299146306701,235.13966060290113 159.33931704610586,259.0714824695606 164.77977234870195,266.1720899087377 171.12697020266205,267.48701505269855 177.0207967814058,260.1234255542513 175.66068295575678,235.66563711268827 165.9132005367428,228.03896715375595 157.299146306701,236.45460167434067 160.24605959560722,262.49029591470025 169.0867994632572,266.96104507590644 177.24748241901398,257.4935670325067 175.4339973181486,234.35069563635625 165.00645798631012,228.03896715375595 156.84577503055334,236.7175898081623 159.33931704610586,260.64939693408087 163.87302979733795,265.9091047986876 170.44691328983754,266.69806004688144 177.0207967814058,260.64939693408087 174.7539404053241,233.29874196904711 166.36657181195915,228.03896715375595 158.43257449474186,233.29874196904711 159.1126314084977,260.1234255542513 169.0867994632572,266.96104507590644 177.24748241901398,258.0195389527362 174.52725476771593,232.24678786983714 165.68651489913464,228.03896715375595 156.84577503055334,236.98057791404426 159.33931704610586,260.9123825840652 164.09971543587744,266.1720899087377 170.90028456505388,266.69806004688144 177.24748241901398,258.80849663028494 175.4339973181486,233.8247188567184 167.72668563760817,227.77597812912427 157.52583194430918,235.4026488715317 160.24605959560722,261.9643249132205 168.63342818897218,266.69806004688144 176.1140542300418,260.64939693408087 175.20731168054044,234.8766723072622 168.40674255043268,228.56494512129575 162.28623033501208,229.35391186969355 158.2058888571337,237.50655404571444 159.33931704610586,259.5974540649913 165.68651489913464,266.43507499154657 176.3407398685813,260.9123825840652 174.7539404053241,232.50977643532678 167.04662872571498,228.03896715375595 160.69943087082356,230.40586715680547 157.52583194430918,236.191613514442 159.33931704610586,261.70133937173523 170.6735989274457,266.96104507590644 176.7941111428663,260.1234255542513 175.20731168054044,234.35069563635625 165.45982926152647,228.3019561516121 157.52583194430918,236.7175898081623 160.24605959560722,261.70133937173523 167.95337127614766,266.69806004688144 177.24748241901398,258.80849663028494 174.7539404053241,232.50977643532678 166.8199430881068,228.03896715375595 157.299146306701,235.66563711268827 159.1126314084977,260.64939693408087 168.86011382658035,266.96104507590644 177.24748241901398,258.54551076493226 175.20731168054044,233.29874196904711 168.40674255043268,227.77597812912427 157.9792032185942,234.08770725969225 158.8859457699582,260.1234255542513 168.40674255043268,266.69806004688144 176.7941111428663,258.80849663028494 174.98062604200095,233.8247188567184 164.77977234870195,228.56494512129575 157.52583194430918,237.2435659938492 159.33931704610586,260.38641125755385 167.72668563760817,265.9091047986876 176.56742550618947,258.2825248730369 174.52725476771593,232.50977643532678 165.68651489913464,228.3019561516121 157.9792032185942,234.8766723072622 160.24605959560722,260.1234255542513 169.3134851017967,265.12014930765145 177.24748241901398,258.0195389527362 175.88736859243363,236.191613514442 168.40674255043268,228.03896715375595" stroke="#4DD2FF" stroke-linecap="round" stroke-linejoin="round" stroke-width="0.5"><title>2025-05-03 10.2km</title><desc>1746275352000</desc></polyline></svg>