<?xml version="1.0" encoding="utf-8" ?>
<svg baseProfile="full" height="200mm" version="1.1" viewBox="0,0,200,200" width="200mm" xmlns="http://www.w3.org/2000/svg" xmlns:ev="http://www.w3.org/2001/xml-events" xmlns:xlink="http://www.w3.org/1999/xlink"><defs /><rect fill="#1a1a1a" height="200" width="200" x="0" y="0" /><rect fill="#1a1a1a" height="200" width="180" x="10" y="0" /><text alignment-baseline="middle" fill="#e1ed5e" style="dominant-baseline: central; font-size:9.0px; font-family:Arial;" text-anchor="middle" x="100.0" y="100.0">2025</text><line stroke="#e1ed5e" stroke-width="0.3" x1="100.0" x2="100.0" y1="15.0" y2="10.0" /><path d="M 100.0 14.0 a86.0,86.0 0 0,1 42.46469731375804,11.215312516191453" fill="none" id="id49" stroke="none" /><text fill="#e1ed5e" style="font-size:6.75px; font-family:Arial;" text-anchor="middle"><textPath startOffset="22.20632615414155" xlink:href="#id49">January</textPath></text><line stroke="#e1ed5e" stroke-width="0.3" x1="143.23703022742887" x2="145.7803849466894" y1="26.81831364943548" y2="22.513508569990506" /><path d="M 143.74570117128098 25.957352633546492 a86.0,86.0 0 0,1 28.547481713284135,27.462654790039103" fill="none" id="id50" stroke="none" /><text fill="#e1ed5e" style="font-size:6.75px; font-family:Arial;" text-anchor="middle"><textPath startOffset="19.985693538727396" xlink:href="#id50">February</textPath></text><line stroke="#e1ed5e" stroke-width="0.3" x1="172.23445277983987" x2="176.4835382374775" y1="55.19839476539836" y2="52.563006222186495" /><path d="M 173.08426987136738 54.67131705675599 a86.0,86.0 0 0,1 12.851231095245387,41.99856678651699" fill="none" id="id51" stroke="none" /><text fill="#e1ed5e" style="font-size:6.75px; font-family:Arial;" text-anchor="middle"><textPath startOffset="22.20632615414155" xlink:href="#id51">March</textPath></text><line stroke="#e1ed5e" stroke-width="0.3" x1="184.98032266829074" x2="189.97916517819016" y1="98.17113171792111" y2="98.06355123074" /><path d="M 185.9800911702706 98.14961562048488 a86.0,86.0 0 0,1 -9.607161424134198,41.387399972396054" fill="none" id="id52" stroke="none" /><text fill="#e1ed5e" style="font-size:6.75px; font-family:Arial;" text-anchor="middle"><textPath startOffset="21.466115282336823" xlink:href="#id52">April</textPath></text><path d="M 119.41010516605496 108.01547362559984 l 13.719770906743998 5.665629367356466 a35.84356661526437,35.84356661526437 0 0,0 -0.24040624706324282,0.5682493532001599 l -13.620213678488446 -5.900953246222789" fill="#ffa80f" stroke="none" /><path d="M 118.81262510543309 109.33194174019688 l 15.872934689393107 7.8737178324245605 a38.71850693931008,38.71850693931008 0 0,0 -0.3013061860910298,0.5945056900828829 l -15.735049833515808 -8.145777734210139" fill="#ffce13" stroke="none" /><line stroke="#e1ed5e" stroke-width="0.3" x1="174.80103733775053" x2="179.2010983576182" y1="140.37084112569926" y2="142.7455964860345" /><path d="M 175.68104954172406 140.8457921977663 a86.0,86.0 0 0,1 -30.038265399797805,32.042727171017184" fill="none" id="id53" stroke="none" /><text fill="#e1ed5e" style="font-size:6.75px; font-family:Arial;" text-anchor="middle"><textPath startOffset="22.206326154141568" xlink:href="#id53">May</textPath></text><path d="M 118.48025628344425 109.97397251340804 l 16.085163434687992 8.681317808074986 a39.278341325334296,39.278341325334296 0 0,0 -0.32624139641685523,0.5922228977159366 l -15.933345628819627 -8.956911224188728" fill="#ffd614" stroke="none" /><path d="M 118.12598468904814 110.60418214915192 l 26.03912308184739 15.233578142153682 a51.167827795263946,51.167827795263946 0 0,0 -0.45129810746012844,0.7564015867218162 l -25.773044098689034 -15.679541822761603" fill="#98ff23" stroke="none" /><path d="M 117.35343817320211 111.8261652097733 l 12.227723971368189 8.333050913692345 a35.79719470204272,35.79719470204272 0 0,0 -0.35139053533426046,0.5062042740935293 l -12.082472528871792 -8.542296449972893" fill="#ffa70f" stroke="none" /><path d="M 116.93607887273984 112.41649034213515 l 23.91226414312901 17.530999886263146 a50.65016582521811,50.65016582521811 0 0,0 -0.5215489380823192,0.6987000328706254 l -23.6069539383516 -17.940012798643085" fill="#9dff22" stroke="none" /><path d="M 116.498646956653 112.99209946851258 l 12.12533273916904 9.548269591438924 a36.433507256173556,36.433507256173556 0 0,0 -0.39223635198287365,0.4893751581948292 l -11.959178475131312 -9.755572583212002" fill="#ffb010" stroke="none" /><path d="M 116.0416608686014 113.55231037782055 l 22.56147656204425 19.060378813344485 a50.53503453811868,50.53503453811868 0 0,0 -0.5670933056193842,0.6596576315029269 l -22.230040746854083 -19.445913544008942" fill="#9fff22" stroke="none" /><path d="M 115.07121518719521 114.62390073753431 l 13.53678832004792 13.135015739512891 a39.8619531464543,39.8619531464543 0 0,0 -0.48206270024471715,0.48832697025822486 l -13.308684994747667 -13.36608320375178" fill="#ffdd14" stroke="none" /><path d="M 114.0293411484842 115.62618273729858 l 6.648439936784787 7.405175786275438 a30.95180295316758,30.95180295316758 0 0,0 -0.3995106134183111,0.352521666039134 l -6.519986970459889 -7.518520594086861" fill="#ff6409" stroke="none" /><path d="M 113.20401910651253 116.32954008644616 l 18.560750483868045 22.954262381471253 a50.519478653963965,50.519478653963965 0 0,0 -0.6809123764204867,0.5409579729246887 l -18.162880614730206 -23.270354268401068" fill="#9fff22" stroke="none" /><path d="M 112.34349029814194 116.9893568818739 l 10.874512653022293 14.967482609554896 a39.500825957455795,39.500825957455795 0 0,0 -0.5535244574607933,0.39492500341241216 l -10.615260867712614 -15.152451874811526" fill="#ffd814" stroke="none" /><line stroke="#e1ed5e" stroke-width="0.3" x1="143.8653032363475" x2="146.44561519142675" y1="172.8068346515853" y2="177.08958963109032" /><path d="M 144.38136562736335 173.6633856474863 a86.0,86.0 0 0,1 -40.68145358897372,12.25698825130547" fill="none" id="id54" stroke="none" /><text fill="#e1ed5e" style="font-size:6.75px; font-family:Arial;" text-anchor="middle"><textPath startOffset="21.466115282336833" xlink:href="#id54">June</textPath></text><path d="M 110.5260780823613 118.17145234162733 l 14.78511618635936 25.523944630057542 a50.496972897610846,50.496972897610846 0 0,0 -0.7558945570052743,0.4292166571037135 l -14.343572862432886 -25.774664452955882" fill="#9fff22" stroke="none" /><path d="M 109.89434966115114 118.52300852407294 l 13.918610611513051 26.05674469061701 a50.541185914362366,50.541185914362366 0 0,0 -0.7708953164509524,0.4032959948044189 l -13.468024392535604 -26.292470104366146" fill="#9fff22" stroke="none" /><path d="M 108.2653958097858 119.30500536409082 l 7.3004274214561615 17.051184695173024 a39.54829210587465,39.54829210587465 0 0,0 -0.6281182926400215,0.26255349726543087 l -7.005837669318679 -17.17432323545843" fill="#ffd914" stroke="none" /><path d="M 107.2578585660854 119.70592522655815 l 10.193903753187977 27.677627401797036 a50.49519846215594,50.49519846215594 0 0,0 -0.8182156342281506,0.29338301571632713 l -9.715968558330092 -27.848997958553323" fill="#9fff22" stroke="none" /><path d="M 106.2309692047433 120.05430185196036 l 8.762396694539545 28.201671760012317 a50.531574388981596,50.531574388981596 0 0,0 -0.8328686893790892,0.25093650398388173 l -8.275653030720209 -28.348323633101923" fill="#9fff22" stroke="none" /><path d="M 104.83641907484287 120.43548508189849 l 4.104293311344221 17.342009333307338 a38.821069308603896,38.821069308603896 0 0,0 -0.6516021290621928,0.14830252314015757 l -3.805171032889166 -17.41008859002518" fill="#ffd013" stroke="none" /><path d="M 103.7750983002368 120.6578951692458 l 5.310805215891985 29.061510108835684 a50.54278290627178,50.54278290627178 0 0,0 -0.8571840055587423,0.14903242681240664 l -4.809772238861194 -29.148621114169096" fill="#9fff22" stroke="none" /><path d="M 101.98527174616119 120.90594882070398 l 0.29355019787763476 3.091236967938534 a24.105143750396078,24.105143750396078 0 0,0 -0.4134097377791482,0.03567073171304104 l -0.24029614235694488 -3.0958319519302386" fill="#ff0000" stroke="none" /><line stroke="#e1ed5e" stroke-width="0.3" x1="102.19456741930631" x2="102.32365962044197" y1="184.97166512339345" y2="189.96999836594603" /><path d="M 102.22038585953345 185.97133177190398 a86.0,86.0 0 0,1 -42.740103519485714,-10.115201625700543" fill="none" id="id55" stroke="none" /><text fill="#e1ed5e" style="font-size:6.75px; font-family:Arial;" text-anchor="middle"><textPath startOffset="22.20632615414155" xlink:href="#id55">July</textPath></text><path d="M 93.42475214034765 119.94407469862007 l -5.625460512767963 17.063174967021514 a38.96657301590655,38.96657301590655 0 0,0 -0.6352113022407799,-0.21549816194683732 l 5.9183415479459685 -16.963813818176554" fill="#ffd113" stroke="none" /><path d="M 93.08242187328487 119.8279376855182 l -9.748428574128486 27.94203849365568 a50.593738777751966,50.593738777751966 0 0,0 -0.8198123647942036,-0.29395554648835986 l 10.227960499552417 -27.77009540612736" fill="#9eff22" stroke="none" /><line stroke="#e1ed5e" stroke-width="0.3" x1="58.666819895761336" x2="56.23545636021788" y1="174.27360380694188" y2="178.64263932499728" /><path d="M 58.180547188652646 175.14741091055294 a86.0,86.0 0 0,1 -31.652253787137756,-30.449443065178592" fill="none" id="id56" stroke="none" /><text fill="#e1ed5e" style="font-size:6.75px; font-family:Arial;" text-anchor="middle"><textPath startOffset="22.20632615414155" xlink:href="#id56">August</textPath></text><path d="M 84.43433777217949 114.09645910891817 l -13.629722925272265 12.34324817472845 a39.38817887999324,39.38817887999324 0 0,0 -0.450790486774981,-0.506467890688835 l 13.840172261695583 -12.106806114298749" fill="#ffd714" stroke="none" /><path d="M 84.19399662182784 113.82643327865904 l -22.3680484796532 19.566636959272884 a50.71839286845942,50.71839286845942 0 0,0 -0.5691509134278313,-0.6620510942365356 l 22.70154190265181 -19.17870876587482" fill="#9dff22" stroke="none" /><path d="M 83.72743513129214 113.27417163493432 l -22.913153650092926 18.6911612707006 a50.569783899110675,50.569783899110675 0 0,0 -0.5444248728974008,-0.6792537380905426 l 23.231496435045187 -18.293979699031798" fill="#9eff22" stroke="none" /><path d="M 82.85270091963577 112.12312394758628 l -27.61430301902751 19.523285658977706 a54.818758317666195,54.818758317666195 0 0,0 -0.5381090052429495,-0.7751861561185409 l 27.946272931432592 -19.045058240672155" fill="#6fff27" stroke="none" /><path d="M 82.44556493220864 111.52570212397912 l -27.208020847651508 17.863949620823657 a53.5483808276474,53.5483808276474 0 0,0 -0.4992625019089148,-0.7748664901286897 l 27.51148821293747 -17.39296153077352" fill="#7dff26" stroke="none" /><path d="M 82.05923443525364 110.91462005526583 l -27.9784582186622 17.021249181745535 a53.74930606899174,53.74930606899174 0 0,0 -0.4740666381869696,-0.7945629538634446 l 28.267305732547403 -16.537124133995977" fill="#7bff26" stroke="none" /><line stroke="#e1ed5e" stroke-width="0.3" x1="26.63291911575756" x2="22.317208475507996" y1="142.92168965132927" y2="145.44649492493687" /><path d="M 25.769776987707644 143.4266507060508 a86.0,86.0 0 0,1 -11.730757126820373,-40.83630448921669" fill="none" id="id57" stroke="none" /><text fill="#e1ed5e" style="font-size:6.75px; font-family:Arial;" text-anchor="middle"><textPath startOffset="21.46611528233685" xlink:href="#id57">September</textPath></text><path d="M 81.69416730710424 110.29060199501025 l -5.224374854483755 2.9368760876469815 a26.993274044656626,26.993274044656626 0 0,0 -0.22420303712039014,-0.4069936365478638 l 5.2741543010556615 -2.8465119327012953" fill="#ff2b04" stroke="none" /><path d="M 81.35079622478065 109.6543875284942 l -15.94804552081666 8.256042115032287 a38.95835146496546,38.95835146496546 0 0,0 -0.30317264853994286,-0.5981883975659354 l 16.087796839142868 -7.980299505763666" fill="#ffd113" stroke="none" /><path d="M 81.02952815118164 109.00673069616217 l -29.5033802895986 14.007506139675975 a53.659756226367264,53.659756226367264 0 0,0 -0.388970331040012,-0.8378074886350398 l 29.740125237478438 -13.497578583762108" fill="#7cff26" stroke="none" /><path d="M 80.58989483394504 108.01547362559985 l -30.05043515011069 12.409436647708109 a53.51188660512474,53.51188660512474 0 0,0 -0.34425314221464093,-0.854408066982021 l 30.25959090658272 -11.890329212883284" fill="#7dff26" stroke="none" /><path d="M 80.32549172779594 107.34259656027581 l -30.525834196202656 11.392350043393382 a53.58239084053318,53.58239084053318 0 0,0 -0.31505358600674904,-0.8668921585595428 l 30.717412043214626 -10.865210087827721" fill="#7dff26" stroke="none" /><path d="M 79.97269907076064 106.31721596034903 l -33.756826090235975 10.64792311761925 a56.396349732778475,56.396349732778475 0 0,0 -0.2840582823861434,-0.928318902340145 l 33.93511114512825 -10.065277242727056" fill="#5eff2a" stroke="none" /><path d="M 79.67330655649465 105.27499134158121 l -17.253064152491596 4.477352121882725 a38.824559031665224,38.824559031665224 0 0,0 -0.16230271478399072,-0.6483186666703594 l 17.327578181570644 -4.179705615814974" fill="#ffd013" stroke="none" /><path d="M 79.50377843672027 104.57218783832718 l -13.399460591486537 2.9890802344905785 a34.72880711464121,34.72880711464121 0 0,0 -0.1251327892515623,-0.5845787325327275 l 13.44892741946254 -2.757987682541687" fill="#ff990e" stroke="none" /><path d="M 79.10278846688536 102.07522291339032 l -35.25114161080817 3.5006573330605777 a56.424533682587295,56.424533682587295 0 0,0 -0.0876606281558177,-0.9673277270571303 l 35.30617683524106 -2.8933482174548812" fill="#5eff2a" stroke="none" /><path d="M 79.0235259727143 100.99374915477108 l -47.64596106726202 2.2572017335829666 a68.69939795939922,68.69939795939922 0 0,0 -0.04579262123038823,-1.1817040790178666 l 47.67775582134361 -1.436720407551103" fill="#39ff8d" stroke="none" /><path d="M 79.0095281055655 100.63252640178507 l -23.829315086984717 0.7180720378644602 a44.840131815205226,44.840131815205226 0 0,0 -0.016607796878793768,-0.7716990618727726 l 23.83814494654852 -0.30778316020155866" fill="#e2ff1b" stroke="none" /><line stroke="#e1ed5e" stroke-width="0.3" x1="15.007084014347285" x2="10.007500721073583" y1="101.09737516637583" y2="101.16192664675087" /><path d="M 14.007167355692545 101.11028546245083 a86.0,86.0 0 0,1 10.666146001902534,-42.60595125391555" fill="none" id="id58" stroke="none" /><text fill="#e1ed5e" style="font-size:6.75px; font-family:Arial;" text-anchor="middle"><textPath startOffset="22.20632615414155" xlink:href="#id58">October</textPath></text><path d="M 79.00019446554 99.90962569577889 l -29.661513701462322 -0.12765064221742636 a50.66178837744777,50.66178837744777 0 0,0 0.011258962179111893,-0.8720190285838457 l 29.654921732165494 0.6382059288617441" fill="#9dff22" stroke="none" /><path d="M 79.05617556472873 98.46500227214037 l -29.586866517858773 -2.168456530934019 a50.66622446608505,50.66622446608505 0 0,0 0.0712355442989708,-0.8692540734646287 l 29.545156489740307 2.6774245216064263" fill="#9dff22" stroke="none" /><path d="M 79.12142395522702 97.74499172005258 l -29.63047430206734 -3.2002644599251315 a50.80279684826464,50.80279684826464 0 0,0 0.101387013444817,-0.8686220151894951 l 29.570996935618933 3.7098302134394885" fill="#9cff22" stroke="none" /><path d="M 79.32604984820605 96.31383870115002 l -62.021850455381816 -11.05848389654995 a84.0,84.0 0 0,0 0.2660571043605535,-1.4212876901497093 l 61.8223076271114 12.124449664162231" fill="#4dd2ff" stroke="none" /><path d="M 80.2630227832202 92.82701384747504 l -27.979958973027912 -10.168723207073292 a50.770472549061026,50.770472549061026 0 0,0 0.30557879856216136,-0.8187992559263774 l 27.800775585964125 10.648845600029011" fill="#9cff22" stroke="none" /><path d="M 80.52162464483688 92.15188598940014 l -18.670037247801403 -7.522423109279086 a41.12851560024504,41.12851560024504 0 0,0 0.2702306287331633,-0.6543849019785506 l 18.537784932182042 7.842682581710948" fill="#ffed16" stroke="none" /><path d="M 80.803312248108 91.48605970444005 l -32.5122955623202 -14.41955752298522 a56.56645894505588,56.56645894505588 0 0,0 0.4024237097132876,-0.8866873010690934 l 32.259269535643554 14.977066832896385" fill="#5cff2a" stroke="none" /><path d="M 81.26839172434947 90.50648371742162 l -15.919328018133713 -8.068202021089405 a38.847153509791085,38.847153509791085 0 0,0 0.3074300219956308,-0.5938569494849089 l 15.778088562977969 8.34103169283465" fill="#ffd013" stroke="none" /><line stroke="#e1ed5e" stroke-width="0.3" x1="26.266209847984243" x2="21.928928074336255" y1="57.711370442889674" y2="55.22380399835377" /><path d="M 25.398753493254645 57.213857153982495 a86.0,86.0 0 0,1 29.58750427330803,-30.492523968695096" fill="none" id="id59" stroke="none" /><text fill="#e1ed5e" style="font-size:6.75px; font-family:Arial;" text-anchor="middle"><textPath startOffset="21.46611528233685" xlink:href="#id59">November</textPath></text><line stroke="#e1ed5e" stroke-width="0.3" x1="56.762969772571076" x2="54.21961505331055" y1="26.818313649435495" y2="22.513508569990535" /><path d="M 56.25429882871897 25.957352633546506 a86.0,86.0 0 0,1 42.265352541879196,-11.944610805530505" fill="none" id="id60" stroke="none" /><text fill="#e1ed5e" style="font-size:6.75px; font-family:Arial;" text-anchor="middle"><textPath startOffset="22.20632615414155" xlink:href="#id60">December</textPath></text></svg>