<?xml version="1.0" encoding="utf-8" ?>
<svg baseProfile="full" height="200mm" version="1.1" viewBox="0,0,200,200" width="200mm" xmlns="http://www.w3.org/2000/svg" xmlns:ev="http://www.w3.org/2001/xml-events" xmlns:xlink="http://www.w3.org/1999/xlink"><defs /><rect fill="#1a1a1a" height="200" width="200" x="0" y="0" /><rect fill="#1a1a1a" height="200" width="180" x="10" y="0" /><text alignment-baseline="middle" fill="#e1ed5e" style="dominant-baseline: central; font-size:9.0px; font-family:Arial;" text-anchor="middle" x="100.0" y="100.0">2024</text><line stroke="#e1ed5e" stroke-width="0.3" x1="100.0" x2="100.0" y1="15.0" y2="10.0" /><path d="M 100.0 14.0 a86.0,86.0 0 0,1 42.35913384403234,11.155469271406648" fill="none" id="id37" stroke="none" /><text fill="#e1ed5e" style="font-size:6.75px; font-family:Arial;" text-anchor="middle"><textPath startOffset="22.145653131862478" xlink:href="#id37">January</textPath></text><line stroke="#e1ed5e" stroke-width="0.3" x1="143.13028292997686" x2="145.6673583964461" y1="26.7553504044142" y2="22.446841604673864" /><path d="M 143.63769802327073 25.89364864446614 a86.0,86.0 0 0,1 29.32050498858742,28.57503671076993" fill="none" id="id38" stroke="none" /><text fill="#e1ed5e" style="font-size:6.75px; font-family:Arial;" text-anchor="middle"><textPath startOffset="20.669276256404974" xlink:href="#id38">February</textPath></text><line stroke="#e1ed5e" stroke-width="0.3" x1="172.87174338648825" x2="177.1583165268699" y1="56.24261187166439" y2="53.66864786411523" /><path d="M 173.72905801456457 55.72781907015455 a86.0,86.0 0 0,1 12.242430191666344,42.057860355516425" fill="none" id="id39" stroke="none" /><text fill="#e1ed5e" style="font-size:6.75px; font-family:Arial;" text-anchor="middle"><textPath startOffset="22.145653131862474" xlink:href="#id39">March</textPath></text><line stroke="#e1ed5e" stroke-width="0.3" x1="184.99686870605535" x2="189.99668451229388" y1="99.2704041080226" y2="99.22748670261217" /><path d="M 185.99683186730306 99.26182062694052 a86.0,86.0 0 0,1 -10.086455211305974,41.156179273409016" fill="none" id="id40" stroke="none" /><text fill="#e1ed5e" style="font-size:6.75px; font-family:Arial;" text-anchor="middle"><textPath startOffset="21.40746469413373" xlink:href="#id40">April</textPath></text><path d="M 120.592083275326 104.11899336999214 l 6.374307015797144 1.2750399260391063 a27.500578185410472,27.500578185410472 0 0,0 -0.09656931376408157,0.4621191248462244 l -6.3514799912086986 -1.3842755021707398" fill="red" stroke="none" /><path d="M 118.70294669586154 109.54985784667822 l 11.538640579568494 5.8917120959968585 a33.95579012822377,33.95579012822377 0 0,0 -0.26953124885499885,0.5168617087067505 l -11.435801261738545 -6.088920047808112" fill="red" stroke="none" /><line stroke="#e1ed5e" stroke-width="0.3" x1="174.33088141563837" x2="178.70328620479359" y1="141.23008692659167" y2="143.65538615756765" /><path d="M 175.20536237346943 141.71514677278685 a86.0,86.0 0 0,1 -30.301960400862466,31.631185727798858" fill="none" id="id41" stroke="none" /><text fill="#e1ed5e" style="font-size:6.75px; font-family:Arial;" text-anchor="middle"><textPath startOffset="22.145653131862474" xlink:href="#id41">May</textPath></text><path d="M 117.423217284605 111.72311816256416 l 10.577857074085605 7.117254314206988 a33.74936740598846,33.74936740598846 0 0,0 -0.327546069206236,0.4778995038047704 l -10.45412126806405 -7.297788553081802" fill="red" stroke="none" /><path d="M 117.21940702142032 112.02048342749411 l 10.884034383185867 7.5979012961719485 a34.27366974731342,34.27366974731342 0 0,0 -0.34091676800877296,0.4795421283808668 l -10.752002516647133 -7.78362065126232" fill="red" stroke="none" /><path d="M 116.57777611688842 112.89097897827486 l 10.462212170012672 8.135479463526435 a34.25307170401721,34.25307170401721 0 0,0 -0.3649315235157284,0.46107905858980824 l -10.321014215855381 -8.313878466030927" fill="red" stroke="none" /><path d="M 116.1254893667686 113.45245675266167 l 10.439159402588444 8.708718055209253 a34.59477175967947,34.59477175967947 0 0,0 -0.3843403964649413,0.45275202062552 l -10.288124442616388 -8.88663685828433" fill="red" stroke="none" /><path d="M 112.7482090630111 116.68781488649013 l 7.870855777663092 10.303202870825759 a33.965583676416756,33.965583676416756 0 0,0 -0.466374977761716,0.3499764778785026 l -7.69282781099061 -10.436798375968277" fill="red" stroke="none" /><path d="M 112.45986205192187 116.90419585922612 l 7.608590328637542 10.322514052879425 a33.82360881970945,33.82360881970945 0 0,0 -0.47033981300179534,0.3404897530412079 l -7.430269505261779 -10.45160457729371" fill="red" stroke="none" /><path d="M 111.8722381534696 117.32195027204791 l 7.331666835108784 10.697121021941644 a33.9684901487837,33.9684901487837 0 0,0 -0.48381435672578954,0.32553189115381853 l -7.146956190285992 -10.821402587152583" fill="red" stroke="none" /><line stroke="#e1ed5e" stroke-width="0.3" x1="143.1302829299769" x2="145.66735839644613" y1="173.24464959558577" y2="177.55315839532614" /><path d="M 143.63769802327073 174.10635135553383 a86.0,86.0 0 0,1 -40.68552437913181,11.842963189579606" fill="none" id="id42" stroke="none" /><text fill="#e1ed5e" style="font-size:6.75px; font-family:Arial;" text-anchor="middle"><textPath startOffset="21.407464694133747" xlink:href="#id42">June</textPath></text><path d="M 110.65571695917076 118.09573695890943 l 6.702943280775835 11.383063094127845 a34.20998009196809,34.20998009196809 0 0,0 -0.5086006409075359,0.29364071693798316 l -6.506550172007901 -11.496450708342" fill="red" stroke="none" /><path d="M 110.02825361518725 118.45085714620011 l 6.125030831762781 11.269366853843382 a33.82632573953073,33.82632573953073 0 0,0 -0.5125673891031359,0.2729132642244159 l -5.930674626873091 -11.372850585790367" fill="red" stroke="none" /><path d="M 108.73861861582097 119.09545874513695 l 5.438945113178635 11.885076645607743 a34.070469418354506,34.070469418354506 0 0,0 -0.5339111830475101,0.23881168110106848 l -5.234120527275498 -11.976692077618662" fill="red" stroke="none" /><path d="M 106.72888874123015 119.89276391827305 l 4.181340783562871 12.361391051036573 a34.049429085785064,34.049429085785064 0 0,0 -0.5552931075217753,0.18253587396499854 l -3.9685249383933616 -12.43134784640359" fill="red" stroke="none" /><path d="M 106.38641147887787 120.00534299687104 l 3.919756641808642 12.27858185195159 a33.889067632147714,33.889067632147714 0 0,0 -0.5557151372560527,0.17216197004994865 l -3.708400871680965 -12.344060409808183" fill="red" stroke="none" /><path d="M 105.69591212413111 120.21278271476187 l 3.494872544152003 12.402069731984758 a33.88508702868863,33.88508702868863 0 0,0 -0.5612315952154483,0.1529661669620202 l -3.28145954800186 -12.460236393090922" fill="red" stroke="none" /><path d="M 102.51750503828377 120.84855314841334 l 2.7112505555793875 22.453043964987152 a43.616146065781756,43.616146065781756 0 0,0 -0.7440999640907212,0.0833779530203659 l -2.325414689887867 -22.496277678514492" fill="red" stroke="none" /><path d="M 101.80034050326958 120.92268563240118 l 3.7044923936275045 43.0518169416998 a64.21090378453191,64.21090378453191 0 0,0 -1.0990185568411865,0.08507098697863992 l -2.964904842011082 -43.10906569567349" fill="red" stroke="none" /><line stroke="#e1ed5e" stroke-width="0.3" x1="101.45913802915013" x2="101.54496967792366" y1="184.9874750549273" y2="189.98673829345242" /><path d="M 101.47630435890484 185.9873277026323 a86.0,86.0 0 0,1 -42.54439059252881,-10.42667462771756" fill="none" id="id43" stroke="none" /><text fill="#e1ed5e" style="font-size:6.75px; font-family:Arial;" text-anchor="middle"><textPath startOffset="22.145653131862474" xlink:href="#id43">July</textPath></text><path d="M 91.59046798132341 119.24265499422711 l -5.162084729954787 11.811860076028333 a33.89058405251308,33.89058405251308 0 0,0 -0.5310922371941242,-0.23755080247639107 l 5.364090370004547 -11.721505522642087" fill="red" stroke="none" /><path d="M 91.26138138417905 119.09545874513695 l -5.342846031232275 11.67508280843195 a33.839531233545785,33.839531233545785 0 0,0 -0.5261423269071868,-0.24626117547606355 l 5.542477072010952 -11.58164540138536" fill="red" stroke="none" /><path d="M 90.93487009805054 118.94263497670748 l -5.829218053950891 12.180823770862764 a34.50378653775756,34.50378653775756 0 0,0 -0.5320808396143892,-0.2602674015662934 l 6.037459142827349 -12.07896261919925" fill="red" stroke="none" /><path d="M 90.28995756902619 118.62028667847754 l -6.171291754183704 11.834265653965918 a34.3467106615785,34.3467106615785 0 0,0 -0.520452736831296,-0.2771117677456836 l 6.373533306801562 -11.726583418497661" fill="red" stroke="none" /><path d="M 89.97174638481275 118.45085714620012 l -6.383550647951742 11.745014197937346 a34.36768780996605,34.36768780996605 0 0,0 -0.5159339677013554,-0.2861798747920233 l 6.5842288038092 -11.633701407712174" fill="red" stroke="none" /><line stroke="#e1ed5e" stroke-width="0.3" x1="58.13341422392154" x2="55.67067388415222" y1="173.97424548756322" y2="178.32567169271397" /><path d="M 57.64086615596768 174.84453072859336 a86.0,86.0 0 0,1 -31.369924170532247,-30.572349798747897" fill="none" id="id44" stroke="none" /><text fill="#e1ed5e" style="font-size:6.75px; font-family:Arial;" text-anchor="middle"><textPath startOffset="22.145653131862474" xlink:href="#id44">August</textPath></text><path d="M 89.65649057296885 118.27599006163327 l -6.641709746492299 11.73526472571566 a34.484388993917264,34.484388993917264 0 0,0 -0.5126802850063287,-0.2959961005566202 l 6.842182499359027 -11.61952172788287" fill="red" stroke="none" /><path d="M 89.03521579738668 117.91015095944536 l -7.035030441242446 11.491193522706583 a34.47364768299593,34.47364768299593 0 0,0 -0.5020608606155033,-0.3133231092847735 l 7.2312554306476615 -11.368734616580262" fill="red" stroke="none" /><path d="M 88.72937992617639 117.7192867562869 l -7.20219395222827 11.323045145521714 a34.419498839116024,34.419498839116024 0 0,0 -0.49582823473075116,-0.3213898713256913 l 7.39550781921603 -11.197741432492128" fill="red" stroke="none" /><path d="M 88.4268655584334 117.5232005979908 l -7.419394960914824 11.233909609558937 a34.4628431878927,34.4628431878927 0 0,0 -0.4908554438204538,-0.33026944878484416 l 7.611146692832283 -11.104890486716972" fill="red" stroke="none" /><path d="M 88.1277618465304 117.32195027204791 l -7.650082409207363 11.161698860516196 a34.53171394615303,34.53171394615303 0 0,0 -0.4860830548888657,-0.33932372342490497 l 7.840560555269994 -11.028730321286162" fill="red" stroke="none" /><path d="M 87.54013794807813 116.9041958592261 l -8.050096705883671 10.921502247368684 a34.56772892983046,34.56772892983046 0 0,0 -0.47464291985997364,-0.35618089576716994 l 8.236392614654411 -10.781702324337498" fill="red" stroke="none" /><path d="M 87.2517909369889 116.68781488649013 l -8.423533666876933 11.026675969005261 a34.87600455327279,34.87600455327279 0 0,0 -0.4726363841294254,-0.3675249110146523 l 8.611579995641588 -10.880450006369816" fill="red" stroke="none" /><path d="M 86.96720088162412 116.46651593811092 l -8.4398675719083 10.663496968385127 a34.59932102077556,34.59932102077556 0 0,0 -0.46255870108636826,-0.37260454678275756 l 8.62167704334993 -10.517044127808958" fill="red" stroke="none" /><path d="M 86.40962598614128 116.0094264158162 l -8.824498489768187 10.395237032061093 a34.63571510954432,34.63571510954432 0 0,0 -0.44996827690338875,-0.3886718805640187 l 9.001646246434438 -10.242221019032351" fill="red" stroke="none" /><path d="M 86.13680546590413 115.77377054828092 l -8.939079488932887 10.171031534216848 a34.540938836709,34.540938836709 0 0,0 -0.44201706056088474,-0.39525438116599326 l 9.112361576317143 -10.016081623167473" fill="red" stroke="none" /><path d="M 85.86807049272751 115.53346607816431 l -9.252719216749526 10.170359257042282 a34.74950982112859,34.74950982112859 0 0,0 -0.4377945600049301,-0.40521610884728865 l 9.425943548068423 -10.010025402062617" fill="red" stroke="none" /><path d="M 85.60350026404147 115.28858382429668 l -9.254283172713452 9.827728032142234 a34.49911090829769,34.49911090829769 0 0,0 -0.42766989441018816,-0.40969808456056195 l 9.421625552988955 -9.667417817276089" fill="red" stroke="none" /><path d="M 85.34317274990678 115.03919595460226 l -9.525170076424422 9.773663620095522 a34.647467367375896,34.647467367375896 0 0,0 -0.42238245681341363,-0.41877237203762885 l 9.691544453367799 -9.608711237829235" fill="red" stroke="none" /><path d="M 85.08716467003676 114.78537596483092 l -22.48077564009335 22.288633413121172 a52.657044284088116,52.657044284088116 0 0,0 -0.6309146359172807,-0.6473739969969433 l 22.86007707716144 -21.89943672405649" fill="red" stroke="none" /><path d="M 84.83555147118756 114.52719865689866 l -29.101624383748003 27.878697854254316 a61.30045081412317,61.30045081412317 0 0,0 -0.7214308956213478,-0.766134610734255 l 29.575911113105604 -27.37502178357557" fill="red" stroke="none" /><path d="M 84.1078160697243 113.72728997021213 l -32.28479350014972 27.886835689126464 a63.66126458626897,63.66126458626897 0 0,0 -0.7072628153327954,-0.8331538180749781 l 32.75875087898962 -27.328515088601932" fill="red" stroke="none" /><path d="M 83.8745106332314 113.45245675266167 l -26.014860124433792 21.702521566365213 a54.87878967189357,54.87878967189357 0 0,0 -0.5972724731355001,-0.7285753020796245 l 26.383579416807923 -21.25274398258709" fill="red" stroke="none" /><path d="M 82.98947788004972 112.3143062007846 l -33.33172472726464 24.12959823322579 a62.14901437690869,62.14901437690869 0 0,0 -0.6181900354562205,-0.869561702928296 l 33.74102986125082 -23.553859303587988" fill="red" stroke="none" /><line stroke="#e1ed5e" stroke-width="0.3" x1="26.387840678322732" x2="22.057713659400548" y1="142.50000000000003" y2="145.00000000000006" /><path d="M 25.521815274538298 143.00000000000003 a86.0,86.0 0 0,1 -11.493303480769221,-40.785679425670985" fill="none" id="id45" stroke="none" /><text fill="#e1ed5e" style="font-size:6.75px; font-family:Arial;" text-anchor="middle"><textPath startOffset="21.40746469413373" xlink:href="#id45">September</textPath></text><path d="M 80.5471966667186 107.91128576633889 l -37.577329529368065 15.282372784497198 a61.566077114789614,61.566077114789614 0 0,0 -0.3897464699418045,-0.982415705491295 l 37.834134674275994 -14.635056061792339" fill="red" stroke="none" /><path d="M 80.05021161711548 106.5578916946017 l -37.381475834414594 12.288033597227372 a60.34933932412984,60.34933932412984 0 0,0 -0.3150674747359936,-0.986944377151048 l 37.586908024927844 -11.644520186384932" fill="red" stroke="none" /><path d="M 79.83685265289637 105.86919833188381 l -42.729933320775146 12.438060836956833 a65.50339940927805,65.50339940927805 0 0,0 -0.3050010080228856,-1.0823409786874607 l 42.937152820872605 -11.702711934366375" fill="red" stroke="none" /><path d="M 79.64726062577567 105.17358676015961 l -37.633824301964495 9.566370971634214 a59.8306603749931,59.8306603749931 0 0,0 -0.2444865217591306,-0.9975884400073719 l 37.792498350239924 -8.918926707018743" fill="red" stroke="none" /><path d="M 79.48165901384964 104.47187691870673 l -37.138529524910126 8.094169654810557 a59.01034014151251,59.01034014151251 0 0,0 -0.20721702700323288,-0.991608487618667 l 37.272004262737724 -7.455444715906481" fill="red" stroke="none" /><path d="M 79.17382384314188 102.69636545807758 l -37.73475408873396 4.885519392882334 a59.0497038868301,59.0497038868301 0 0,0 -0.12152404804636023,-1.0063934474713057 l 37.81306022303998 -4.237032268487629" fill="red" stroke="none" /><path d="M 79.06263194458094 101.62068470465958 l -44.97120755592069 3.4810558826226354 a66.10573421523742,66.10573421523742 0 0,0 -0.0778663813695206,-1.1321600957912075 l 45.02433789845528 -2.7085523626770844" fill="red" stroke="none" /><path d="M 79.03789590574601 101.26102812881392 l -62.886312282761985 3.783084386441755 a84.0,84.0 0 0,0 -0.07423364217370931,-1.440112826493077 l 62.94198751439227 -2.7029997665719474" fill="red" stroke="none" /><line stroke="#e1ed5e" stroke-width="0.3" x1="15.003131293944662" x2="10.003315487706104" y1="100.72959589197737" y2="100.7725132973878" /><path d="M 14.003168132696942 100.73817937305945 a86.0,86.0 0 0,1 10.791469493833604,-42.45332614584628" fill="none" id="id46" stroke="none" /><text fill="#e1ed5e" style="font-size:6.75px; font-family:Arial;" text-anchor="middle"><textPath startOffset="22.145653131862435" xlink:href="#id46">October</textPath></text><path d="M 79.22317932658666 96.9465228501225 l -31.49182854074653 -4.6282143148146835 a52.8301057582854,52.8301057582854 0 0,0 0.13956835417367594,-0.8961289533767912 l 31.407738694434585 5.1681314501229245" fill="red" stroke="none" /><path d="M 79.407916724674 95.88100663000787 l -12.77073262849212 -2.5545041909252117 a34.02371312375575,34.02371312375575 0 0,0 0.1194755472381325,-0.5717337441694347 l 12.72499937042962 2.7733543863800554" fill="red" stroke="none" /><path d="M 79.48165901384962 95.52812308129327 l -61.45612351980803 -13.394076083778991 a83.89877894061189,83.89877894061189 0 0,0 0.3187719660969341,-1.4045680999981014 l 61.217140692153436 14.4470785177161" fill="red" stroke="none" /><line stroke="#e1ed5e" stroke-width="0.3" x1="26.387840678322718" x2="22.05771365940052" y1="57.49999999999999" y2="54.99999999999999" /><path d="M 25.521815274538284 56.99999999999999 a86.0,86.0 0 0,1 29.574782752854787,-30.34633250058573" fill="none" id="id47" stroke="none" /><text fill="#e1ed5e" style="font-size:6.75px; font-family:Arial;" text-anchor="middle"><textPath startOffset="21.40746469413373" xlink:href="#id47">November</textPath></text><line stroke="#e1ed5e" stroke-width="0.3" x1="56.869717070023135" x2="54.33264160355391" y1="26.7553504044142" y2="22.446841604673864" /><path d="M 56.362301976729285 25.89364864446614 a86.0,86.0 0 0,1 42.16139366436587,-11.88097634709845" fill="none" id="id48" stroke="none" /><text fill="#e1ed5e" style="font-size:6.75px; font-family:Arial;" text-anchor="middle"><textPath startOffset="22.145653131862474" xlink:href="#id48">December</textPath></text></svg>