<?xml version="1.0" encoding="utf-8" ?>
<svg baseProfile="full" height="200mm" version="1.1" viewBox="0,0,200,200" width="200mm" xmlns="http://www.w3.org/2000/svg" xmlns:ev="http://www.w3.org/2001/xml-events" xmlns:xlink="http://www.w3.org/1999/xlink"><defs /><rect fill="#1a1a1a" height="200" width="200" x="0" y="0" /><rect fill="#1a1a1a" height="200" width="180" x="10" y="0" /><text alignment-baseline="middle" fill="#e1ed5e" style="dominant-baseline: central; font-size:9.0px; font-family:Arial;" text-anchor="middle" x="100.0" y="100.0">2025</text><line stroke="#e1ed5e" stroke-width="0.3" x1="100.0" x2="100.0" y1="15.0" y2="10.0" /><path d="M 100.0 14.0 a86.0,86.0 0 0,1 42.46469731375804,11.215312516191453" fill="none" id="id49" stroke="none" /><text fill="#e1ed5e" style="font-size:6.75px; font-family:Arial;" text-anchor="middle"><textPath startOffset="22.20632615414155" xlink:href="#id49">January</textPath></text><line stroke="#e1ed5e" stroke-width="0.3" x1="143.23703022742887" x2="145.7803849466894" y1="26.81831364943548" y2="22.513508569990506" /><path d="M 143.74570117128098 25.957352633546492 a86.0,86.0 0 0,1 28.547481713284135,27.462654790039103" fill="none" id="id50" stroke="none" /><text fill="#e1ed5e" style="font-size:6.75px; font-family:Arial;" text-anchor="middle"><textPath startOffset="19.985693538727396" xlink:href="#id50">February</textPath></text><line stroke="#e1ed5e" stroke-width="0.3" x1="172.23445277983987" x2="176.4835382374775" y1="55.19839476539836" y2="52.563006222186495" /><path d="M 173.08426987136738 54.67131705675599 a86.0,86.0 0 0,1 12.851231095245387,41.99856678651699" fill="none" id="id51" stroke="none" /><text fill="#e1ed5e" style="font-size:6.75px; font-family:Arial;" text-anchor="middle"><textPath startOffset="22.20632615414155" xlink:href="#id51">March</textPath></text><line stroke="#e1ed5e" stroke-width="0.3" x1="184.98032266829074" x2="189.97916517819016" y1="98.17113171792111" y2="98.06355123074" /><path d="M 185.9800911702706 98.14961562048488 a86.0,86.0 0 0,1 -9.607161424134198,41.387399972396054" fill="none" id="id52" stroke="none" /><text fill="#e1ed5e" style="font-size:6.75px; font-family:Arial;" text-anchor="middle"><textPath startOffset="21.466115282336823" xlink:href="#id52">April</textPath></text><path d="M 119.41010516605496 108.01547362559984 l 13.690179571167771 5.653409517549968 a35.811551433389546,35.811551433389546 0 0,0 -0.2401915181606705,0.5677417975043713 l -13.590837071814791 -5.888225840720503" fill="#ffa90f" stroke="none" /><path d="M 118.81262510543309 109.33194174019688 l 15.907190171359034 7.890710153283391 a38.75674536256324,38.75674536256324 0 0,0 -0.30160375628118724,0.5950928242985547 l -15.769007745291578 -8.163357189284639" fill="#ffd013" stroke="none" /><line stroke="#e1ed5e" stroke-width="0.3" x1="174.80103733775053" x2="179.2010983576182" y1="140.37084112569926" y2="142.7455964860345" /><path d="M 175.68104954172406 140.8457921977663 a86.0,86.0 0 0,1 -30.038265399797805,32.042727171017184" fill="none" id="id53" stroke="none" /><text fill="#e1ed5e" style="font-size:6.75px; font-family:Arial;" text-anchor="middle"><textPath startOffset="22.206326154141568" xlink:href="#id53">May</textPath></text><path d="M 118.48025628344425 109.97397251340804 l 15.896240684508465 8.579354378101554 a39.06365935919055,39.06365935919055 0 0,0 -0.3244582726377738,0.5889860101135826 l -15.746206002419184 -8.851710906612942" fill="#ffd413" stroke="none" /><path d="M 118.12598468904814 110.60418214915192 l 26.06820226359171 15.250590235303656 a51.20151770657672,51.20151770657672 0 0,0 -0.45159525107304066,0.7568996165087258 l -25.801826136820445 -15.697051945698487" fill="#96ff23" stroke="none" /><path d="M 117.35343817320211 111.8261652097733 l 12.23471041525505 8.33781209351217 a35.80564924114671,35.80564924114671 0 0,0 -0.35147352633527285,0.506323828820249 l -12.089375981757641 -8.547177184519438" fill="#ffa90f" stroke="none" /><path d="M 116.93607887273984 112.41649034213515 l 23.852358412394416 17.487080692647325 a50.57588532883642,50.57588532883642 0 0,0 -0.5207840656800888,0.6976753612941764 l -23.547813080019235 -17.895068933450816" fill="#9dff22" stroke="none" /><path d="M 116.498646956653 112.99209946851258 l 12.047072735633641 9.48664261360193 a36.33389544688027,36.33389544688027 0 0,0 -0.39116394980053937,0.4880371715829936 l -11.881990873778248 -9.692607618763173" fill="#ffb010" stroke="none" /><path d="M 116.0416608686014 113.55231037782055 l 22.59944494206422 19.09245524699986 a50.58473861720067,50.58473861720067 0 0,0 -0.5676510741213154,0.6603064422810917 l -22.267451358372128 -19.47863878844248" fill="#9dff22" stroke="none" /><path d="M 115.07121518719521 114.62390073753431 l 12.957517497928642 12.572937705485515 a39.0548060708263,39.0548060708263 0 0,0 -0.4723016256344915,0.47843905321246255 l -12.739175247238615 -12.794117252678642" fill="#ffd413" stroke="none" /><path d="M 114.0293411484842 115.62618273729858 l 6.618394917855742 7.371710996221375 a30.906829679595276,30.906829679595276 0 0,0 -0.3989301205746637,0.3520094485973607 l -6.49052244437449 -7.484543586591024" fill="#ff6509" stroke="none" /><path d="M 113.20401910651253 116.32954008644616 l 18.58879474550907 22.988944995224518 a50.56408094435076,50.56408094435076 0 0,0 -0.6815135356634214,0.5414355701849595 l -18.190323717128297 -23.3055144794146" fill="#9eff22" stroke="none" /><path d="M 112.34349029814194 116.9893568818739 l 10.537760477966874 14.503983004129271 a38.927908937605395,38.927908937605395 0 0,0 -0.5454961802059252,0.38919704075504546 l -10.286536969912063 -14.683224306728537" fill="#ffd213" stroke="none" /><line stroke="#e1ed5e" stroke-width="0.3" x1="143.8653032363475" x2="146.44561519142675" y1="172.8068346515853" y2="177.08958963109032" /><path d="M 144.38136562736335 173.6633856474863 a86.0,86.0 0 0,1 -40.68145358897372,12.25698825130547" fill="none" id="id54" stroke="none" /><text fill="#e1ed5e" style="font-size:6.75px; font-family:Arial;" text-anchor="middle"><textPath startOffset="21.466115282336833" xlink:href="#id54">June</textPath></text><path d="M 110.5260780823613 118.17145234162733 l 14.815795119860972 25.57690649996336 a50.55817875210792,50.55817875210792 0 0,0 -0.7568107539496932,0.429736897640026 l -14.37333559899008 -25.828146563398015" fill="#9eff22" stroke="none" /><path d="M 109.89434966115114 118.52300852407294 l 13.915493452613912 26.05090912154607 a50.53456998313659,50.53456998313659 0 0,0 -0.7707944048814347,0.4032432026406225 l -13.465008145205982 -26.28658174313141" fill="#9eff22" stroke="none" /><path d="M 108.2653958097858 119.30500536409082 l 7.058573684101787 16.48630095525294 a38.93381112984823,38.93381112984823 0 0,0 -0.6183589143971326,0.2584740763683943 l -6.773743310207194 -16.605360074641307" fill="#ffd213" stroke="none" /><path d="M 107.2578585660854 119.70592522655815 l 10.206491100452029 27.711803505082543 a50.53161888701518,50.53161888701518 0 0,0 -0.8188057846173484,0.2935946226493483 l -9.727965755204945 -27.88338566877185" fill="#9eff22" stroke="none" /><path d="M 106.2309692047433 120.05430185196036 l 8.768539294027468 28.221441644959388 a50.55227655986509,50.55227655986509 0 0,0 -0.8332099055422413,0.2510393096148006 l -8.281454414044982 -28.368196323679914" fill="#9eff22" stroke="none" /><path d="M 104.83641907484287 120.43548508189849 l 4.086080870988662 17.26505569313853 a38.74198988195616,38.74198988195616 0 0,0 -0.6502748002769122,0.14800042743003922 l -3.788285921318887 -17.332832854146254" fill="#ffd013" stroke="none" /><path d="M 103.7750983002368 120.6578951692458 l 5.308798298267251 29.050527959337096 a50.53161888701518,50.53161888701518 0 0,0 -0.8569946685615639,0.14899950814851198 l -4.807954658233638 -29.137606046006614" fill="#9eff22" stroke="none" /><path d="M 101.98527174616119 120.90594882070398 l 0.2801029838597294 2.949630777963292 a23.96290050590219,23.96290050590219 0 0,0 -0.4109702276473695,0.035460240513947874 l -0.22928843847081823 -2.954015270755903" fill="#ff0000" stroke="none" /><line stroke="#e1ed5e" stroke-width="0.3" x1="102.19456741930631" x2="102.32365962044197" y1="184.97166512339345" y2="189.96999836594603" /><path d="M 102.22038585953345 185.97133177190398 a86.0,86.0 0 0,1 -42.740103519485714,-10.115201625700543" fill="none" id="id55" stroke="none" /><text fill="#e1ed5e" style="font-size:6.75px; font-family:Arial;" text-anchor="middle"><textPath startOffset="22.20632615414155" xlink:href="#id55">July</textPath></text><path d="M 93.42475214034765 119.94407469862007 l -5.599494383009168 16.984414372349296 a38.883642495784144,38.883642495784144 0 0,0 -0.6338594152359629,-0.2150395284753135 l 5.891023531182356 -16.885511856975857" fill="#ffd213" stroke="none" /><path d="M 93.08242187328487 119.8279376855182 l -9.73963114833598 27.916822325914378 a50.56703204047217,50.56703204047217 0 0,0 -0.8193796133515505,-0.29380037721758334 l 10.218730322317256 -27.74503440765684" fill="#9eff22" stroke="none" /><line stroke="#e1ed5e" stroke-width="0.3" x1="58.666819895761336" x2="56.23545636021788" y1="174.27360380694188" y2="178.64263932499728" /><path d="M 58.180547188652646 175.14741091055294 a86.0,86.0 0 0,1 -31.652253787137756,-30.449443065178592" fill="none" id="id56" stroke="none" /><text fill="#e1ed5e" style="font-size:6.75px; font-family:Arial;" text-anchor="middle"><textPath startOffset="22.20632615414155" xlink:href="#id56">August</textPath></text><path d="M 84.43433777217949 114.09645910891817 l -13.551050801201242 12.272001711600344 a39.28204047217538,39.28204047217538 0 0,0 -0.44957575215443635,-0.5051031234653354 l 13.760285403004017 -12.036924418394143" fill="#ffd714" stroke="none" /><path d="M 84.19399662182784 113.82643327865904 l -22.260787781905766 19.472809769353685 a50.57588532883642,50.57588532883642 0 0,0 -0.56755172442046,-0.6601908761340209 l 22.592682015897005 -19.08674179405813" fill="#9dff22" stroke="none" /><path d="M 83.72743513129214 113.27417163493432 l -22.911021278749853 18.689421811468097 a50.56703204047217,50.56703204047217 0 0,0 -0.5443952468999378,-0.6792167751035021 l 23.22933443770465 -18.292277202786334" fill="#9eff22" stroke="none" /><path d="M 82.85270091963577 112.12312394758628 l -26.542650276870713 18.765628201610863 a53.50632377740303,53.50632377740303 0 0,0 -0.5252259545030064,-0.7566271606643222 l 26.86173713853585 -18.30595977875953" fill="#7dff26" stroke="none" /><path d="M 82.44556493220864 111.52570212397912 l -27.17286428776305 17.84086690495081 a53.50632377740303,53.50632377740303 0 0,0 -0.49887037972326936,-0.7742579077886763 l 27.475939530863368 -17.370487397240684" fill="#7dff26" stroke="none" /><path d="M 82.05923443525364 110.91462005526583 l -27.780957807467708 16.901095895021665 a53.518128161888704,53.518128161888704 0 0,0 -0.47202765868642005,-0.7911455069386418 l 28.06776634185236 -16.420388294196915" fill="#7cff26" stroke="none" /><line stroke="#e1ed5e" stroke-width="0.3" x1="26.63291911575756" x2="22.317208475507996" y1="142.92168965132927" y2="145.44649492493687" /><path d="M 25.769776987707644 143.4266507060508 a86.0,86.0 0 0,1 -11.730757126820373,-40.83630448921669" fill="none" id="id57" stroke="none" /><text fill="#e1ed5e" style="font-size:6.75px; font-family:Arial;" text-anchor="middle"><textPath startOffset="21.46611528233685" xlink:href="#id57">September</textPath></text><path d="M 81.69416730710424 110.29060199501025 l -5.157840717995502 2.8994740022478283 a26.916947723440135,26.916947723440135 0 0,0 -0.22356907945372348,-0.40584281923741716 l 5.206986206900744 -2.8102606646125885" fill="#ff2c04" stroke="none" /><path d="M 81.35079622478065 109.6543875284942 l -15.78997368545483 8.174210913318932 a38.780354131534565,38.780354131534565 0 0,0 -0.3017874789683346,-0.5954553265900788 l 15.928339834209432 -7.901201375026167" fill="#ffd013" stroke="none" /><path d="M 81.02952815118164 109.00673069616217 l -29.415428102847365 13.965748524656174 a53.56239460370995,53.56239460370995 0 0,0 -0.38826457340600695,-0.8362873494785396 l 29.651467293093198 -13.457341107898808" fill="#7cff26" stroke="none" /><path d="M 80.58989483394504 108.01547362559985 l -30.05893183388499 12.412945384220112 a53.52107925801012,53.52107925801012 0 0,0 -0.34431228047049117,-0.8545548432831481 l 30.26814672861287 -11.89369117309416" fill="#7cff26" stroke="none" /><path d="M 80.32549172779595 107.34259656027581 l -30.490511133483178 11.379167350579207 a53.54468802698145,53.54468802698145 0 0,0 -0.31483190111316056,-0.8662821769422443 l 30.68186729560156 -10.852637376630845" fill="#7cff26" stroke="none" /><path d="M 79.97269907076064 106.31721596034903 l -33.83195397279177 10.671620722225361 a56.47512647554806,56.47512647554806 0 0,0 -0.28445506668777165,-0.9296156163956522 l 34.01063581198568 -10.087678133277661" fill="#5dff2a" stroke="none" /><path d="M 79.67330655649465 105.27499134158121 l -17.23884133383288 4.473661150427573 a38.80986509274874,38.80986509274874 0 0,0 -0.16224128804182894,-0.6480732973699972 l 17.31329393616977 -4.176260013660184" fill="#ffd113" stroke="none" /><path d="M 79.50377843672027 104.57218783832718 l -13.252264672941264 2.956244553701987 a34.577993254637434,34.577993254637434 0 0,0 -0.12458938564723547,-0.5820401318016876 l 13.30118809731294 -2.7276906024841354" fill="#ff980e" stroke="none" /><path d="M 79.10278846688536 102.07522291339032 l -35.28974016209088 3.5044904089673143 a56.463322091062395,56.463322091062395 0 0,0 -0.08772088946468769,-0.9679927055790167 l 35.344835647832646 -2.8965163148397313" fill="#5dff2a" stroke="none" /><path d="M 79.0235259727143 100.99374915477108 l -47.353299434277346 2.2433370464084614 a68.40640809443508,68.40640809443508 0 0,0 -0.04559732441106858,-1.176664335893136 l 47.38489889153961 -1.4278954635013286" fill="#39ff8a" stroke="none" /><path d="M 79.0095281055655 100.63252640178507 l -23.81928900331065 0.7177699120874768 a44.83010118043845,44.83010118043845 0 0,0 -0.01660408175267731,-0.7715264345604487 l 23.82811514774834 -0.30765366173689923" fill="#e1ff1b" stroke="none" /><line stroke="#e1ed5e" stroke-width="0.3" x1="15.007084014347285" x2="10.007500721073583" y1="101.09737516637583" y2="101.16192664675087" /><path d="M 14.007167355692545 101.11028546245083 a86.0,86.0 0 0,1 10.666146001902534,-42.60595125391555" fill="none" id="id58" stroke="none" /><text fill="#e1ed5e" style="font-size:6.75px; font-family:Arial;" text-anchor="middle"><textPath startOffset="22.20632615414155" xlink:href="#id58">October</textPath></text><path d="M 79.00019446554 99.90962569577889 l -29.57856251712936 -0.12729365531313774 a50.57883642495784,50.57883642495784 0 0,0 0.011240527123309888,-0.8705912131958362 l 29.57198898288833 0.6364211265694459" fill="#9dff22" stroke="none" /><path d="M 79.05617556472873 98.46500227214037 l -29.484996232791957 -2.1609903369446046 a50.56408094435076,50.56408094435076 0 0,0 0.07109193286069942,-0.8675016501632835 l 29.44342981611176 2.6682059043156663" fill="#9eff22" stroke="none" /><path d="M 79.12142395522702 97.74499172005258 l -29.522236110526396 -3.188574102421442 a50.693929173693085,50.693929173693085 0 0,0 0.10116974650145442,-0.8667606047014509 l 29.462976011021354 3.6962784454477546" fill="#9cff22" stroke="none" /><path d="M 79.32604984820605 96.31383870115002 l -62.021850455381816 -11.05848389654995 a84.0,84.0 0 0,0 0.2660571043605535,-1.4212876901497093 l 61.8223076271114 12.124449664162231" fill="#4dd2ff" stroke="none" /><line stroke="#e1ed5e" stroke-width="0.3" x1="26.266209847984257" x2="21.92892807433627" y1="57.711370442889674" y2="55.22380399835377" /><path d="M 25.39875349325466 57.213857153982495 a86.0,86.0 0 0,1 29.58750427330802,-30.492523968695096" fill="none" id="id59" stroke="none" /><text fill="#e1ed5e" style="font-size:6.75px; font-family:Arial;" text-anchor="middle"><textPath startOffset="21.46611528233685" xlink:href="#id59">November</textPath></text><line stroke="#e1ed5e" stroke-width="0.3" x1="56.762969772571076" x2="54.21961505331055" y1="26.818313649435495" y2="22.513508569990535" /><path d="M 56.25429882871897 25.957352633546506 a86.0,86.0 0 0,1 42.265352541879196,-11.944610805530505" fill="none" id="id60" stroke="none" /><text fill="#e1ed5e" style="font-size:6.75px; font-family:Arial;" text-anchor="middle"><textPath startOffset="22.20632615414155" xlink:href="#id60">December</textPath></text></svg>