<?xml version="1.0" encoding="utf-8" ?>
<svg baseProfile="full" height="200mm" version="1.1" viewBox="0,0,200,200" width="200mm" xmlns="http://www.w3.org/2000/svg" xmlns:ev="http://www.w3.org/2001/xml-events" xmlns:xlink="http://www.w3.org/1999/xlink"><defs /><rect fill="#1a1a1a" height="200" width="200" x="0" y="0" /><rect fill="#1a1a1a" height="200" width="180" x="10" y="0" /><text alignment-baseline="middle" fill="#e1ed5e" style="dominant-baseline: central; font-size:9.0px; font-family:Arial;" text-anchor="middle" x="100.0" y="100.0">2025</text><line stroke="#e1ed5e" stroke-width="0.3" x1="100.0" x2="100.0" y1="15.0" y2="10.0" /><path d="M 100.0 14.0 a86.0,86.0 0 0,1 42.46469731375804,11.215312516191453" fill="none" id="id49" stroke="none" /><text fill="#e1ed5e" style="font-size:6.75px; font-family:Arial;" text-anchor="middle"><textPath startOffset="22.20632615414155" xlink:href="#id49">January</textPath></text><line stroke="#e1ed5e" stroke-width="0.3" x1="143.23703022742887" x2="145.7803849466894" y1="26.81831364943548" y2="22.513508569990506" /><path d="M 143.74570117128098 25.957352633546492 a86.0,86.0 0 0,1 28.547481713284135,27.462654790039103" fill="none" id="id50" stroke="none" /><text fill="#e1ed5e" style="font-size:6.75px; font-family:Arial;" text-anchor="middle"><textPath startOffset="19.985693538727396" xlink:href="#id50">February</textPath></text><line stroke="#e1ed5e" stroke-width="0.3" x1="172.23445277983987" x2="176.4835382374775" y1="55.19839476539836" y2="52.563006222186495" /><path d="M 173.08426987136738 54.67131705675599 a86.0,86.0 0 0,1 12.851231095245387,41.99856678651699" fill="none" id="id51" stroke="none" /><text fill="#e1ed5e" style="font-size:6.75px; font-family:Arial;" text-anchor="middle"><textPath startOffset="22.20632615414155" xlink:href="#id51">March</textPath></text><line stroke="#e1ed5e" stroke-width="0.3" x1="184.98032266829074" x2="189.97916517819016" y1="98.17113171792111" y2="98.06355123074" /><path d="M 185.9800911702706 98.14961562048488 a86.0,86.0 0 0,1 -9.607161424134198,41.387399972396054" fill="none" id="id52" stroke="none" /><text fill="#e1ed5e" style="font-size:6.75px; font-family:Arial;" text-anchor="middle"><textPath startOffset="21.466115282336823" xlink:href="#id52">April</textPath></text><path d="M 119.41010516605496 108.01547362559984 l 13.748084510994406 5.677321573358096 a35.87419940597683,35.87419940597683 0 0,0 -0.2406117041353948,0.5687349930276892 l -13.648321825666702 -5.913131092051949" fill="#ffa80f" stroke="none" /><path d="M 118.81262510543309 109.33194174019688 l 15.904971445466936 7.889609561492161 a38.7542686617587,38.7542686617587 0 0,0 -0.3015844826745197,0.5950547956441121 l -15.766808293006147 -8.162218568838968" fill="#ffcf13" stroke="none" /><line stroke="#e1ed5e" stroke-width="0.3" x1="174.80103733775053" x2="179.2010983576182" y1="140.37084112569926" y2="142.7455964860345" /><path d="M 175.68104954172406 140.8457921977663 a86.0,86.0 0 0,1 -30.038265399797805,32.042727171017184" fill="none" id="id53" stroke="none" /><text fill="#e1ed5e" style="font-size:6.75px; font-family:Arial;" text-anchor="middle"><textPath startOffset="22.206326154141568" xlink:href="#id53">May</textPath></text><path d="M 118.48025628344425 109.97397251340804 l 16.116668938229875 8.69832163213068 a39.314142537407974,39.314142537407974 0 0,0 -0.32653875717665903,0.5927626938692518 l -15.964553771601706 -8.974454844397737" fill="#ffd614" stroke="none" /><path d="M 118.12598468904814 110.60418214915192 l 26.090946669285124 15.263896316324063 a51.22786841401444,51.22786841401444 0 0,0 -0.45182766321381906,0.7572891526249917 l -25.824338130373075 -15.71074756283516" fill="#97ff23" stroke="none" /><path d="M 117.35343817320211 111.8261652097733 l 12.252029088178627 8.349614566610818 a35.826607170507174,35.826607170507174 0 0,0 -0.35167925245651693,0.5066201926416802 l -12.106488928559974 -8.559276021439517" fill="#ffa80f" stroke="none" /><path d="M 116.93607887273984 112.41649034213515 l 23.95930325852996 17.565486069662928 a50.70849227910644,50.70849227910644 0 0,0 -0.5221495303921753,0.6995046244170703 l -23.653392461442696 -17.97530357358931" fill="#9dff22" stroke="none" /><path d="M 116.498646956653 112.99209946851258 l 12.14923379799536 9.567090827779706 a36.46392928027477,36.46392928027477 0 0,0 -0.39256386982707936,0.4897837870636465 l -11.982752016113427 -9.774802448421603" fill="#ffb010" stroke="none" /><path d="M 116.0416608686014 113.55231037782055 l 22.606365261444683 19.09830166882151 a50.59379794766402,50.59379794766402 0 0,0 -0.5677527359823613,0.6604246979928188 l -22.274270015891542 -19.484603465975855" fill="#9eff22" stroke="none" /><path d="M 115.07121518719521 114.62390073753431 l 13.563266290775056 13.160707842693393 a39.898847144606634,39.898847144606634 0 0,0 -0.4825088705642395,0.48877893843630815 l -13.33471679515528 -13.392227275110367" fill="#ffde14" stroke="none" /><path d="M 114.0293411484842 115.62618273729858 l 6.661473453648865 7.419692798448156 a30.971312340760967,30.971312340760967 0 0,0 -0.39976243097532527,0.3527438657548737 l -6.532768669766952 -7.533259805975318" fill="#ff6509" stroke="none" /><path d="M 113.20401910651253 116.32954008644616 l 18.598000588897353 23.000329952139978 a50.57872214636619,50.57872214636619 0 0,0 -0.6817108729266632,0.5415923468416961 l -18.19933222325334 -23.3170562129868" fill="#9eff22" stroke="none" /><path d="M 112.34349029814194 116.9893568818739 l 10.895965380505354 14.997009755807376 a39.53732351740544,39.53732351740544 0 0,0 -0.5540358971985732,0.3952899020857509 l -10.636202155457896 -15.182343919737345" fill="#ffd914" stroke="none" /><line stroke="#e1ed5e" stroke-width="0.3" x1="143.8653032363475" x2="146.44561519142675" y1="172.8068346515853" y2="177.08958963109032" /><path d="M 144.38136562736335 173.6633856474863 a86.0,86.0 0 0,1 -40.68145358897372,12.25698825130547" fill="none" id="id54" stroke="none" /><text fill="#e1ed5e" style="font-size:6.75px; font-family:Arial;" text-anchor="middle"><textPath startOffset="21.466115282336833" xlink:href="#id54">June</textPath></text><path d="M 110.5260780823613 118.17145234162733 l 14.813646127142311 25.57319663590344 a50.55389141481679,50.55389141481679 0 0,0 -0.7567465763418793,0.4297004559193766 l -14.371250783879233 -25.824400257617445" fill="#9fff22" stroke="none" /><path d="M 109.89434966115114 118.52300852407294 l 13.946324080034177 26.108626505109978 a50.600005630551365,50.600005630551365 0 0,0 -0.7717924826512451,0.4037653497577188 l -13.494840694856435 -26.344821273812414" fill="#9eff22" stroke="none" /><path d="M 108.2653958097858 119.30500536409082 l 7.314958479650524 17.085124044581548 a39.585211356822114,39.585211356822114 0 0,0 -0.6287046556821623,0.2627985970646011 l -7.0197823644709 -17.208507684666124" fill="#ffd914" stroke="none" /><path d="M 107.2578585660854 119.70592522655815 l 10.21388226720328 27.731871377446133 a50.55300460297575,50.55300460297575 0 0,0 -0.8191523151327441,0.293718876163204 l -9.7350103914408 -27.903577794649298" fill="#9fff22" stroke="none" /><path d="M 106.2309692047433 120.05430185196036 l 8.779718998814838 28.25742339467676 a50.58995509635281,50.58995509635281 0 0,0 -0.8338309286091397,0.25122641877052715 l -8.292013095765453 -28.40436518255301" fill="#9eff22" stroke="none" /><path d="M 104.83641907484287 120.43548508189849 l 4.1123280108090166 17.37595862068494 a38.85595641953238,38.85595641953238 0 0,0 -0.6521877006644875,0.14843579733038237 l -3.8126201607516665 -17.444171151593007" fill="#ffd013" stroke="none" /><path d="M 103.7750983002368 120.6578951692458 l 5.321251368798489 29.11867299957443 a50.60089244239242,50.60089244239242 0 0,0 -0.8581695184662017,0.14920377086374353 l -4.819232878860237 -29.20595534895918" fill="#9eff22" stroke="none" /><path d="M 101.98527174616119 120.90594882070398 l 0.2940977725060231 3.0970032148912434 a24.11093593840177,24.11093593840177 0 0,0 -0.4135090753707177,0.03567930297843244 l -0.24074437939376372 -3.1016067701483396" fill="#ff0000" stroke="none" /><line stroke="#e1ed5e" stroke-width="0.3" x1="102.19456741930631" x2="102.32365962044197" y1="184.97166512339345" y2="189.96999836594603" /><path d="M 102.22038585953345 185.97133177190398 a86.0,86.0 0 0,1 -42.740103519485714,-10.115201625700543" fill="none" id="id55" stroke="none" /><text fill="#e1ed5e" style="font-size:6.75px; font-family:Arial;" text-anchor="middle"><textPath startOffset="22.20632615414155" xlink:href="#id55">July</textPath></text><path d="M 93.42475214034765 119.94407469862007 l -5.629606506320217 17.07575061540331 a38.9798144733323,38.9798144733323 0 0,0 -0.6354271570815827,-0.2155713916284822 l 5.922703396339025 -16.976316236876706" fill="#ffd213" stroke="none" /><path d="M 93.08242187328487 119.8279376855182 l -9.75185617086283 27.951863055549268 a50.6041440858096,50.6041440858096 0 0,0 -0.81998097064171,-0.29401600254656696 l 10.231556702134267 -27.779859511962744" fill="#9eff22" stroke="none" /><line stroke="#e1ed5e" stroke-width="0.3" x1="58.666819895761336" x2="56.23545636021788" y1="174.27360380694188" y2="178.64263932499728" /><path d="M 58.180547188652646 175.14741091055294 a86.0,86.0 0 0,1 -31.652253787137756,-30.449443065178592" fill="none" id="id56" stroke="none" /><text fill="#e1ed5e" style="font-size:6.75px; font-family:Arial;" text-anchor="middle"><textPath startOffset="22.20632615414155" xlink:href="#id56">August</textPath></text><path d="M 84.43433777217949 114.09645910891817 l -13.6342238677434 12.347324284730536 a39.39425120704945,39.39425120704945 0 0,0 -0.45085998344498107,-0.5065459709343092 l 13.844742700836719 -12.110804144055363" fill="#ffd714" stroke="none" /><path d="M 84.19399662182784 113.82643327865904 l -22.375948533139663 19.573547596947382 a50.72888895145057,50.72888895145057 0 0,0 -0.5692686982172138,-0.6621881045563917 l 22.709559740927656 -19.18548239322946" fill="#9dff22" stroke="none" /><path d="M 83.72743513129214 113.27417163493432 l -22.921225049154557 18.697745428597194 a50.58020016610127,50.58020016610127 0 0,0 -0.5445370124873926,-0.6793936494713075 l 23.239679973696813 -18.300423945547628" fill="#9eff22" stroke="none" /><path d="M 82.85270091963577 112.12312394758628 l -27.623079649146884 19.529490728025642 a54.82950690446363,54.82950690446363 0 0,0 -0.5382145149539833,-0.7753381507265713 l 27.955155071263 -19.05111131511206" fill="#6fff27" stroke="none" /><path d="M 82.44556493220864 111.52570212397912 l -27.21788704898697 17.870427465154652 a53.56018355597472,53.56018355597472 0 0,0 -0.49937254556631344,-0.7750372803287215 l 27.52146445793033 -17.399268584904483" fill="#7dff26" stroke="none" /><path d="M 82.05923443525364 110.91462005526583 l -27.987351841639143 17.026659793425274 a53.75971622021086,53.75971622021086 0 0,0 -0.4741584552866198,-0.794716844603768 l 28.276291172623992 -16.542380854935395" fill="#7bff26" stroke="none" /><line stroke="#e1ed5e" stroke-width="0.3" x1="26.63291911575756" x2="22.317208475507996" y1="142.92168965132927" y2="145.44649492493687" /><path d="M 25.769776987707644 143.4266507060508 a86.0,86.0 0 0,1 -11.730757126820373,-40.83630448921669" fill="none" id="id57" stroke="none" /><text fill="#e1ed5e" style="font-size:6.75px; font-family:Arial;" text-anchor="middle"><textPath startOffset="21.46611528233685" xlink:href="#id57">September</textPath></text><path d="M 81.69416730710424 110.29060199501025 l -5.22703532010234 2.938371665218435 a26.996326065229937,26.996326065229937 0 0,0 -0.22422838685309607,-0.40703965367605266 l 5.2768401164069525 -2.8479614931445596" fill="#ff2b04" stroke="none" /><path d="M 81.35079622478065 109.6543875284942 l -15.954505266574678 8.259386219672631 a38.96562548387551,38.96562548387551 0 0,0 -0.3032292547230991,-0.5983000869355327 l 16.094313191084044 -7.983531921034414" fill="#ffd113" stroke="none" /><path d="M 81.02952815118164 109.00673069616217 l -29.51276796119714 14.011963183793059 a53.670148224264864,53.670148224264864 0 0,0 -0.38904566084295306,-0.837969742328921 l 29.74958823887992 -13.50187337418531" fill="#7cff26" stroke="none" /><path d="M 80.58989483394504 108.01547362559985 l -30.059556455554308 12.413203324013512 a53.521755042862566,53.521755042862566 0 0,0 -0.34431662793558115,-0.8545656333349685 l 30.268775697747277 -11.893938322835737" fill="#7dff26" stroke="none" /><path d="M 80.32549172779594 107.34259656027581 l -30.53521570034773 11.395851254153662 a53.592404386199526,53.592404386199526 0 0,0 -0.31511246362346856,-0.8670541644738248 l 30.726852424976425 -10.86854929267372" fill="#7cff26" stroke="none" /><path d="M 79.97269907076064 106.31721596034903 l -33.76768531700313 10.651348445919497 a56.407736377584776,56.407736377584776 0 0,0 -0.2841156348705,-0.928506333577415 l 33.94602772437976 -10.068515139790033" fill="#5eff2a" stroke="none" /><path d="M 79.67330655649465 105.27499134158121 l -17.25970639347883 4.479075853477032 a38.83142129193001,38.83142129193001 0 0,0 -0.16233140187016268,-0.6484332573195819 l 17.334249109644052 -4.181314756760059" fill="#ffd013" stroke="none" /><path d="M 79.50377843672027 104.57218783832718 l -13.404871078294263 2.9902871770436406 a34.73435058628116,34.73435058628116 0 0,0 -0.12515276316158327,-0.5846720439906885 l 13.454357880180288 -2.7591013136367883" fill="#ff990e" stroke="none" /><path d="M 79.10278846688536 102.07522291339032 l -35.26237144386554 3.5017725252400353 a56.43581875255135,56.43581875255135 0 0,0 -0.08767816053503763,-0.9675211954008727 l 35.31742420067765 -2.8942699412905966" fill="#5eff2a" stroke="none" /><path d="M 79.0235259727143 100.99374915477108 l -47.661752109181315 2.2579498256855683 a68.71520671161724,68.71520671161724 0 0,0 -0.045803158792928046,-1.1819760066844127 l 47.69355740082544 -1.437196571987159" fill="#39ff8d" stroke="none" /><path d="M 79.0095281055655 100.63252640178507 l -23.83643725650983 0.7182866571586465 a44.84725721766304,44.84725721766304 0 0,0 -0.01661043597087286,-0.771821690111575 l 23.84526975516571 -0.30787515125694265" fill="#e2ff1b" stroke="none" /><line stroke="#e1ed5e" stroke-width="0.3" x1="15.007084014347285" x2="10.007500721073583" y1="101.09737516637583" y2="101.16192664675087" /><path d="M 14.007167355692545 101.11028546245083 a86.0,86.0 0 0,1 10.666146001902534,-42.60595125391555" fill="none" id="id58" stroke="none" /><text fill="#e1ed5e" style="font-size:6.75px; font-family:Arial;" text-anchor="middle"><textPath startOffset="22.20632615414155" xlink:href="#id58">October</textPath></text><path d="M 79.00019446554 99.90962569577889 l -29.67156262063444 -0.12769388852639163 a50.67183738967639,50.67183738967639 0 0,0 0.011261195449042605,-0.8721919978011292 l 29.66496841806768 0.6384221443879928" fill="#9dff22" stroke="none" /><path d="M 79.05617556472873 98.46500227214037 l -29.59629699830918 -2.1691477020288086 a50.6756802409876,50.6756802409876 0 0,0 0.07124883890063198,-0.8694163012788861 l 29.554573675589054 2.6782779205154728" fill="#9dff22" stroke="none" /><path d="M 79.12142395522702 97.74499172005258 l -29.63987206356113 -3.201279473110706 a50.812249264509234,50.812249264509234 0 0,0 0.10140587760805861,-0.868783631819999 l 29.580375832949482 3.711006843255567" fill="#9cff22" stroke="none" /><path d="M 79.32604984820605 96.31383870115002 l -62.021850455381816 -11.05848389654995 a84.0,84.0 0 0,0 0.2660571043605535,-1.4212876901497093 l 61.8223076271114 12.124449664162231" fill="#4dd2ff" stroke="none" /><line stroke="#e1ed5e" stroke-width="0.3" x1="26.266209847984243" x2="21.928928074336255" y1="57.711370442889674" y2="55.22380399835377" /><path d="M 25.398753493254645 57.213857153982495 a86.0,86.0 0 0,1 29.58750427330803,-30.492523968695096" fill="none" id="id59" stroke="none" /><text fill="#e1ed5e" style="font-size:6.75px; font-family:Arial;" text-anchor="middle"><textPath startOffset="21.46611528233685" xlink:href="#id59">November</textPath></text><line stroke="#e1ed5e" stroke-width="0.3" x1="56.762969772571076" x2="54.21961505331055" y1="26.818313649435495" y2="22.513508569990535" /><path d="M 56.25429882871897 25.957352633546506 a86.0,86.0 0 0,1 42.265352541879196,-11.944610805530505" fill="none" id="id60" stroke="none" /><text fill="#e1ed5e" style="font-size:6.75px; font-family:Arial;" text-anchor="middle"><textPath startOffset="22.20632615414155" xlink:href="#id60">December</textPath></text></svg>