<?xml version="1.0" encoding="utf-8" ?>
<svg baseProfile="full" height="200mm" version="1.1" viewBox="0,0,200,200" width="200mm" xmlns="http://www.w3.org/2000/svg" xmlns:ev="http://www.w3.org/2001/xml-events" xmlns:xlink="http://www.w3.org/1999/xlink"><defs /><rect fill="#1a1a1a" height="200" width="200" x="0" y="0" /><rect fill="#1a1a1a" height="200" width="180" x="10" y="0" /><text alignment-baseline="middle" fill="#e1ed5e" style="dominant-baseline: central; font-size:9.0px; font-family:Arial;" text-anchor="middle" x="100.0" y="100.0">2024</text><line stroke="#e1ed5e" stroke-width="0.3" x1="100.0" x2="100.0" y1="15.0" y2="10.0" /><path d="M 100.0 14.0 a86.0,86.0 0 0,1 42.35913384403234,11.155469271406648" fill="none" id="id37" stroke="none" /><text fill="#e1ed5e" style="font-size:6.75px; font-family:Arial;" text-anchor="middle"><textPath startOffset="22.145653131862478" xlink:href="#id37">January</textPath></text><line stroke="#e1ed5e" stroke-width="0.3" x1="143.13028292997686" x2="145.6673583964461" y1="26.7553504044142" y2="22.446841604673864" /><path d="M 143.63769802327073 25.89364864446614 a86.0,86.0 0 0,1 29.32050498858742,28.57503671076993" fill="none" id="id38" stroke="none" /><text fill="#e1ed5e" style="font-size:6.75px; font-family:Arial;" text-anchor="middle"><textPath startOffset="20.669276256404974" xlink:href="#id38">February</textPath></text><line stroke="#e1ed5e" stroke-width="0.3" x1="172.87174338648825" x2="177.1583165268699" y1="56.24261187166439" y2="53.66864786411523" /><path d="M 173.72905801456457 55.72781907015455 a86.0,86.0 0 0,1 12.242430191666344,42.057860355516425" fill="none" id="id39" stroke="none" /><text fill="#e1ed5e" style="font-size:6.75px; font-family:Arial;" text-anchor="middle"><textPath startOffset="22.145653131862474" xlink:href="#id39">March</textPath></text><line stroke="#e1ed5e" stroke-width="0.3" x1="184.99686870605535" x2="189.99668451229388" y1="99.2704041080226" y2="99.22748670261217" /><path d="M 185.99683186730306 99.26182062694052 a86.0,86.0 0 0,1 -10.086455211305974,41.156179273409016" fill="none" id="id40" stroke="none" /><text fill="#e1ed5e" style="font-size:6.75px; font-family:Arial;" text-anchor="middle"><textPath startOffset="21.40746469413373" xlink:href="#id40">April</textPath></text><path d="M 120.592083275326 104.11899336999214 l 5.374852717217191 1.07512107497299 a26.48132530120482,26.48132530120482 0 0,0 -0.09299016895788187,0.44499162128355424 l -5.355604837434945 -1.1672291475419534" fill="red" stroke="none" /><path d="M 118.70294669586154 109.54985784667822 l 9.860090486992068 5.034632458584406 a32.0710843373494,32.0710843373494 0 0,0 -0.2545709989647634,0.48817345695933667 l -9.772211419052356 -5.203152158648246" fill="red" stroke="none" /><line stroke="#e1ed5e" stroke-width="0.3" x1="174.33088141563837" x2="178.70328620479359" y1="141.23008692659167" y2="143.65538615756765" /><path d="M 175.20536237346943 141.71514677278685 a86.0,86.0 0 0,1 -30.301960400862466,31.631185727798858" fill="none" id="id41" stroke="none" /><text fill="#e1ed5e" style="font-size:6.75px; font-family:Arial;" text-anchor="middle"><textPath startOffset="22.145653131862474" xlink:href="#id41">May</textPath></text><path d="M 117.423217284605 111.72311816256416 l 9.081964465822075 6.1107510078013005 a31.946385542168677,31.946385542168677 0 0,0 -0.3100476783404116,0.45236882858578586 l -8.975727050666343 -6.26575457145713" fill="red" stroke="none" /><path d="M 117.21940702142032 112.02048342749411 l 8.966835790586435 6.259547781391298 a31.9355421686747,31.9355421686747 0 0,0 -0.31765964663313817,0.44682807459693247 l -8.858061045423336 -6.412553082697735" fill="red" stroke="none" /><path d="M 116.57777611688842 112.89097897827486 l 8.671232636699465 6.742802945779223 a31.98433734939759,31.98433734939759 0 0,0 -0.3407604742259589,0.43053972741806734 l -8.554205731831944 -6.890662617111973" fill="red" stroke="none" /><path d="M 116.1254893667686 113.45245675266167 l 8.393025790896427 7.001760623072101 a31.93012048192771,31.93012048192771 0 0,0 -0.35473669982412226,0.4178789404200716 l -8.27159452756519 -7.1448063459417295" fill="red" stroke="none" /><path d="M 112.7482090630111 116.68781488649013 l 6.661542636024392 8.720173148947337 a31.973493975903615,31.973493975903615 0 0,0 -0.43902197247768693,0.32945027277496114 l -6.510867674635938 -8.833242448986313" fill="red" stroke="none" /><path d="M 112.45986205192187 116.90419585922612 l 6.494783515360654 8.81142119787716 a31.946385542168677,31.946385542168677 0 0,0 -0.44423577277275134,0.32159244100155915 l -6.3425667322139345 -8.921614410251795" fill="red" stroke="none" /><path d="M 111.8722381534696 117.32195027204791 l 6.27430417387752 9.154397299539262 a32.098192771084335,32.098192771084335 0 0,0 -0.4571756477718695,0.3076081789218133 l -6.116232238008648 -9.260755152518197" fill="red" stroke="none" /><line stroke="#e1ed5e" stroke-width="0.3" x1="143.1302829299769" x2="145.66735839644613" y1="173.24464959558577" y2="177.55315839532614" /><path d="M 143.63769802327073 174.10635135553383 a86.0,86.0 0 0,1 -40.68552437913181,11.842963189579606" fill="none" id="id42" stroke="none" /><text fill="#e1ed5e" style="font-size:6.75px; font-family:Arial;" text-anchor="middle"><textPath startOffset="21.407464694133747" xlink:href="#id42">June</textPath></text><path d="M 110.65571695917076 118.09573695890943 l 5.6809093426904385 9.647426029298101 a32.195783132530124,32.195783132530124 0 0,0 -0.47865552367185893,0.2763518954410501 l -5.514461351158181 -9.743524822015324" fill="red" stroke="none" /><path d="M 110.02825361518725 118.45085714620011 l 5.2324700231394425 9.627155497195462 a31.95722891566265,31.95722891566265 0 0,0 -0.48424512654443813,0.25783325466969204 l -5.066436080808451 -9.715559219587723" fill="red" stroke="none" /><path d="M 108.73861861582097 119.09545874513695 l 4.577622333433926 10.00293092785272 a32.00060240963855,32.00060240963855 0 0,0 -0.5014747311218084,0.22430326872971437 l -4.4052341994564905 -10.080037947492285" fill="red" stroke="none" /><path d="M 106.72888874123015 119.89276391827305 l 3.517900094920234 10.400046540749463 a31.9789156626506,31.9789156626506 0 0,0 -0.521526261387551,0.1714360409458924 l -3.3388510958849484 -10.458903503097375" fill="red" stroke="none" /><path d="M 106.38641147887787 120.00534299687104 l 3.327309388393001 10.422749268765681 a31.940963855421685,31.940963855421685 0 0,0 -0.5237700047011111,0.16226528632576312 l -3.1478987508202656 -10.478331142898089" fill="red" stroke="none" /><path d="M 105.69591212413111 120.21278271476187 l 2.966089867738154 10.525606558263691 a31.9355421686747,31.9355421686747 0 0,0 -0.5289416922618764,0.1441654103252036 l -2.7849667745415827 -10.574972462733037" fill="red" stroke="none" /><path d="M 102.51750503828377 120.84855314841334 l 2.2735540337134106 18.82828887602836 a39.96506024096385,39.96506024096385 0 0,0 -0.6818117273666028,0.07639842617459952 l -1.9500064047460086 -18.86454306270993" fill="red" stroke="none" /><path d="M 101.80034050326958 120.92268563240118 l 3.115580652344922 36.20776982633008 a57.341566265060244,57.341566265060244 0 0,0 -0.9814446097053824,0.07597001988071797 l -2.493567047864304 -36.255917613205845" fill="red" stroke="none" /><line stroke="#e1ed5e" stroke-width="0.3" x1="101.45913802915013" x2="101.54496967792366" y1="184.9874750549273" y2="189.98673829345242" /><path d="M 101.47630435890484 185.9873277026323 a86.0,86.0 0 0,1 -42.54439059252881,-10.42667462771756" fill="none" id="id43" stroke="none" /><text fill="#e1ed5e" style="font-size:6.75px; font-family:Arial;" text-anchor="middle"><textPath startOffset="22.145653131862474" xlink:href="#id43">July</textPath></text><path d="M 91.59046798132341 119.24265499422711 l -4.385693978759047 10.035326098538402 a31.951807228915662,31.951807228915662 0 0,0 -0.500710072075075,-0.2239612464641794 l 4.557317453689757 -9.958561101164367" fill="red" stroke="none" /><path d="M 91.26138138417905 119.09545874513695 l -4.5505491604417045 9.943771158934918 a31.9355421686747,31.9355421686747 0 0,0 -0.4965388069859641,-0.23240523338358218 l 4.720576681299158 -9.864189693980808" fill="red" stroke="none" /><path d="M 90.93487009805054 118.94263497670748 l -4.816532875614112 10.064701234612047 a32.1578313253012,32.1578313253012 0 0,0 -0.49590400384085515,-0.24257149834509512 l 4.9885971287170365 -9.980535986169729" fill="red" stroke="none" /><path d="M 90.28995756902619 118.62028667847754 l -5.169218801893631 9.912658639678318 a32.179518072289156,32.179518072289156 0 0,0 -0.48761345491432695,-0.25962669980480746 l 5.3386210725945205 -9.822461472150938" fill="red" stroke="none" /><path d="M 89.97174638481275 118.45085714620012 l -5.336032022607813 9.817697911786173 a32.17409638554217,32.17409638554217 0 0,0 -0.48300337506513996,-0.2679138301672685 l 5.503779585829054 -9.724651166185756" fill="red" stroke="none" /><line stroke="#e1ed5e" stroke-width="0.3" x1="58.13341422392154" x2="55.670673884152215" y1="173.97424548756322" y2="178.32567169271397" /><path d="M 57.64086615596767 174.84453072859336 a86.0,86.0 0 0,1 -31.369924170532244,-30.572349798747897" fill="none" id="id44" stroke="none" /><text fill="#e1ed5e" style="font-size:6.75px; font-family:Arial;" text-anchor="middle"><textPath startOffset="22.145653131862474" xlink:href="#id44">August</textPath></text><path d="M 89.65649057296885 118.27599006163327 l -5.610597239120253 9.913387724481451 a32.39096385542169,32.39096385542169 0 0,0 -0.48155728042496,-0.2780272254835779 l 5.779946987405614 -9.815613601721703" fill="red" stroke="none" /><path d="M 89.03521579738668 117.91015095944536 l -5.936270001604165 9.696450919610216 a32.369277108433735,32.369277108433735 0 0,0 -0.4714136221383355,-0.29419696581506366 l 6.101847752532214 -9.593118156953606" fill="red" stroke="none" /><path d="M 88.72937992617639 117.7192867562869 l -6.104757551174335 9.597692843723728 a32.37469879518072,32.37469879518072 0 0,0 -0.46637197794732244,-0.3022966815590732 l 6.268615161378669 -9.49148232046076" fill="red" stroke="none" /><path d="M 88.4268655584334 117.5232005979908 l -6.280566763211613 9.509578568926845 a32.39638554216867,32.39638554216867 0 0,0 -0.4614228175192012,-0.31046586427298156 l 6.442885868827818 -9.400363030596742" fill="red" stroke="none" /><path d="M 88.1277618465304 117.32195027204791 l -6.498058059902461 9.480860906215552 a32.493975903614455,32.493975903614455 0 0,0 -0.4573989897328483,-0.319300018229241 l 6.6598521408090745 -9.367916072181183" fill="red" stroke="none" /><path d="M 87.54013794807813 116.9041958592261 l -6.816466700866382 9.247846220060275 a32.48855421686747,32.48855421686747 0 0,0 -0.4460941668116311,-0.3347573792491226 l 6.974213856588779 -9.129469813547137" fill="red" stroke="none" /><path d="M 87.2517909369889 116.68781488649013 l -6.974213856588779 9.129469813547137 a32.48855421686747,32.48855421686747 0 0,0 -0.44028187825236664,-0.34236585155017224 l 7.129905679476374 -9.008402910376171" fill="red" stroke="none" /><path d="M 86.96720088162412 116.46651593811092 l -7.119811428868335 8.995649154486065 a32.4722891566265,32.4722891566265 0 0,0 -0.43412238883447973,-0.3496982665335627 l 7.2731845880580765 -8.872102594159092" fill="red" stroke="none" /><path d="M 86.40962598614128 116.0094264158162 l -7.441957818432278 8.766607597576462 a32.49939759036145,32.49939759036145 0 0,0 -0.4222144075236181,-0.36469874921573997 l 7.5913517057187585 -8.637564715896" fill="red" stroke="none" /><path d="M 86.13680546590413 115.77377054828092 l -7.587772567715117 8.633492313861156 a32.493975903614455,32.493975903614455 0 0,0 -0.4158222734695173,-0.3718308410238198 l 7.734859868008005 -8.501965942953955" fill="red" stroke="none" /><path d="M 85.86807049272751 115.53346607816431 l -7.771345056064649 8.54206955589242 a32.54819277108434,32.54819277108434 0 0,0 -0.41006108594108864,-0.37954641929052013 l 7.916835913319705 -8.407405390469519" fill="red" stroke="none" /><path d="M 85.60350026404147 115.28858382429668 l -7.861083547732946 8.348198310254944 a32.46686746987952,32.46686746987952 0 0,0 -0.40247709048447733,-0.3855639482840148 l 8.003233124082737 -8.21202223166535" fill="red" stroke="none" /><path d="M 85.34317274990678 115.03919595460226 l -8.010801193230806 8.219787737321772 a32.477710843373494,32.477710843373494 0 0,0 -0.39593125674220686,-0.39254724924102935 l 8.150724370102976 -8.081060477852082" fill="red" stroke="none" /><path d="M 85.08716467003676 114.78537596483092 l -19.25449814590694 19.08993077455752 a48.11385542168675,48.11385542168675 0 0,0 -0.576480051029432,-0.5915193174768184 l 19.57936499808718 -18.756588765012964" fill="red" stroke="none" /><path d="M 84.83555147118756 114.52719865689866 l -24.892142103147023 23.846109051780125 a55.471084337349396,55.471084337349396 0 0,0 -0.6528264233476292,-0.6932790385941324 l 25.297824360230905 -23.415288553241503" fill="red" stroke="none" /><path d="M 84.1078160697243 113.72728997021213 l -27.62942338721428 23.865637863874817 a57.50963855421687,57.50963855421687 0 0,0 -0.6389195869257036,-0.7526456668580277 l 28.0350375376471 -23.387825414567235" fill="red" stroke="none" /><path d="M 83.8745106332314 113.45245675266167 l -22.148262503754463 18.476868310884715 a49.8433734939759,49.8433734939759 0 0,0 -0.5424695977107218,-0.6617247048842945 l 22.462178920703813 -18.093941324301927" fill="red" stroke="none" /><path d="M 82.98947788004972 112.3143062007846 l -28.54605691385805 20.665143796497404 a56.24096385542169,56.24096385542169 0 0,0 -0.5594232473104669,-0.7868988558347879 l 28.89659525969848 -20.172067713953112" fill="red" stroke="none" /><line stroke="#e1ed5e" stroke-width="0.3" x1="26.387840678322732" x2="22.057713659400548" y1="142.50000000000003" y2="145.00000000000006" /><path d="M 25.521815274538298 143.00000000000003 a86.0,86.0 0 0,1 -11.493303480769221,-40.785679425670985" fill="none" id="id45" stroke="none" /><text fill="#e1ed5e" style="font-size:6.75px; font-family:Arial;" text-anchor="middle"><textPath startOffset="21.40746469413373" xlink:href="#id45">September</textPath></text><path d="M 80.5471966667186 107.91128576633889 l -32.64454948356172 13.276254082926723 a56.24096385542169,56.24096385542169 0 0,0 -0.35603563124390775,-0.8974423704228784 l 32.86764378977175 -12.713910695290279" fill="red" stroke="none" /><path d="M 80.05021161711548 106.5578916946017 l -32.02095551886223 10.525924096042695 a54.706626506024094,54.706626506024094 0 0,0 -0.2856084069455007,-0.8946642668784752 l 32.19692864158499 -9.97469079547283" fill="red" stroke="none" /><path d="M 79.83685265289637 105.86919833188381 l -36.62682566287982 10.661535145387553 a59.146987951807226,59.146987951807226 0 0,0 -0.27540388910355484,-0.9773112449658139 l 36.80444804405795 -10.031215976518745" fill="red" stroke="none" /><path d="M 79.64726062577567 105.17358676015961 l -31.62206167489208 8.038204420647288 a53.62771084337349,53.62771084337349 0 0,0 -0.21913935784470787,-0.8941633614956327 l 31.75538855925308 -7.494185234543557" fill="red" stroke="none" /><path d="M 79.48165901384964 104.47187691870673 l -31.91114098982009 6.954884653603101 a53.66024096385542,53.66024096385542 0 0,0 -0.18842995268527546,-0.9017055360097791 l 32.02582865332973 -6.406062666307913" fill="red" stroke="none" /><path d="M 79.17382384314188 102.69636545807758 l -32.368394267887936 4.190736675807327 a53.63855421686747,53.63855421686747 0 0,0 -0.11038792425243131,-0.9141703673763778 l 32.43556427840003 -3.6344726315075495" fill="red" stroke="none" /><path d="M 79.06263194458094 101.62068470465958 l -37.97916040207599 2.9398272121182893 a59.09277108433735,59.09277108433735 0 0,0 -0.06960576573362041,-1.012052557401143 l 38.02403012897467 -2.2874312305628033" fill="red" stroke="none" /><path d="M 79.03789590574601 101.26102812881392 l -54.22726756224399 3.2621777583602745 a75.32530120481928,75.32530120481928 0 0,0 -0.06656751733649321,-1.2913920526727936 l 54.275276669037055 -2.33081391231075" fill="red" stroke="none" /><line stroke="#e1ed5e" stroke-width="0.3" x1="15.003131293944662" x2="10.003315487706104" y1="100.72959589197737" y2="100.7725132973878" /><path d="M 14.003168132696942 100.73817937305945 a86.0,86.0 0 0,1 10.791469493833615,-42.45332614584628" fill="none" id="id46" stroke="none" /><text fill="#e1ed5e" style="font-size:6.75px; font-family:Arial;" text-anchor="middle"><textPath startOffset="22.145653131862435" xlink:href="#id46">October</textPath></text><path d="M 79.22317932658666 96.9465228501225 l -27.13145240089278 -3.9873891800551657 a48.422891566265065,48.422891566265065 0 0,0 0.12792522716413599,-0.8213717257597875 l 27.059005681590374 4.452549087746403" fill="red" stroke="none" /><path d="M 79.407916724674 95.88100663000787 l -10.802869160618526 -2.160876384119796 a32.016867469879514,32.016867469879514 0 0,0 0.11242843330770375,-0.5380107529283727 l 10.764183016486456 2.346003588333578" fill="red" stroke="none" /><path d="M 79.48165901384962 95.52812308129327 l -53.08988296812367 -11.570692894822404 a75.33614457831325,75.33614457831325 0 0,0 0.28623838426052606,-1.2612191355781845 l 52.883433722305476 12.480346364339596" fill="red" stroke="none" /><path d="M 79.64726062577567 94.8264132398404 l -37.30751709733031 -9.483424956230586 a59.493975903614455,59.493975903614455 0 0,0 0.26010346746199936,-0.9876552320178943 l 37.13922414906359 10.122460692621265" fill="red" stroke="none" /><path d="M 79.83685265289637 94.1308016681162 l -52.62893795504762 -15.319516816354184 a75.8132530120482,75.8132530120482 0 0,0 0.3744585521383593,-1.2464507340248838 l 52.358203082905625 16.220705153969792" fill="red" stroke="none" /><path d="M 80.16572619554312 93.10060997987247 l -38.1493992710509 -13.270341389832197 a61.39156626506024,61.39156626506024 0 0,0 0.35478428774589055,-0.9923947961910583 l 37.915974813261066 13.923271142404177" fill="red" stroke="none" /><path d="M 80.41425534168474 92.42381321644754 l -36.9128922562052 -14.278699703941376 a60.57831325301205,60.57831325301205 0 0,0 0.3834933920081992,-0.9666538642857749 l 36.66234018923087 14.910254585440734" fill="red" stroke="none" /><path d="M 80.68587082218212 91.75594674310238 l -55.19984767601823 -23.561532587054188 a81.01807228915663,81.01807228915663 0 0,0 0.5569649801358785,-1.2744448719404382 l 54.787248813865375 24.50563952877049" fill="red" stroke="none" /><path d="M 81.1358732173502 90.77261029715801 l -33.02033896377772 -16.151902457470392 a57.75903614457831,57.75903614457831 0 0,0 0.4433145932661499,-0.8869261512053271 l 32.73820445729982 16.71636046483949" fill="red" stroke="none" /><line stroke="#e1ed5e" stroke-width="0.3" x1="26.387840678322718" x2="22.05771365940052" y1="57.49999999999999" y2="54.99999999999999" /><path d="M 25.521815274538284 56.99999999999999 a86.0,86.0 0 0,1 29.574782752854787,-30.34633250058573" fill="none" id="id47" stroke="none" /><text fill="#e1ed5e" style="font-size:6.75px; font-family:Arial;" text-anchor="middle"><textPath startOffset="21.40746469413373" xlink:href="#id47">November</textPath></text><path d="M 82.37810715431573 88.57770195909679 l -31.118867572585316 -20.170873993058002 a58.08433734939759,58.08433734939759 0 0,0 0.5495208720385408,-0.8320446394305145 l 30.768022261626047 20.70209851082758" fill="red" stroke="none" /><path d="M 82.98947788004972 87.6856937992154 l -31.330395388225135 -22.68079012987883 a59.67831325301205,59.67831325301205 0 0,0 0.607860508545881,-0.8246795228333559 l 30.936432860095437 23.215275961981046" fill="red" stroke="none" /><path d="M 83.64595745247003 86.82634096563983 l -43.3199164899288 -34.89545826829656 a76.62650602409639,76.62650602409639 0 0,0 0.8339634134494055,-1.0172997638540364 l 42.714506257240764 35.63396031384909" fill="red" stroke="none" /><path d="M 84.83555147118756 85.47280134310135 l -19.790779857094734 -18.95911941754458 a48.4066265060241,48.4066265060241 0 0,0 0.5799879114609084,-0.59511869130515 l 19.46240514448302 19.29606080091746" fill="red" stroke="none" /><path d="M 88.12776184653039 82.6780497279521 l -31.51558159052698 -45.98217539514542 a76.74578313253012,76.74578313253012 0 0,0 1.0930927908496773,-0.735481612864956 l 30.72159251158031 46.51640668206748" fill="red" stroke="none" /><path d="M 89.03521579738668 82.08984904055464 l -32.89435260783996 -53.73045287833607 a84.0,84.0 0 0,0 1.236268973770263,-0.7423439978563064 l 31.967150877512267 54.287210876728295" fill="red" stroke="none" /><line stroke="#e1ed5e" stroke-width="0.3" x1="56.869717070023135" x2="54.33264160355391" y1="26.7553504044142" y2="22.446841604673864" /><path d="M 56.362301976729285 25.89364864446614 a86.0,86.0 0 0,1 42.16139366436587,-11.88097634709845" fill="none" id="id48" stroke="none" /><text fill="#e1ed5e" style="font-size:6.75px; font-family:Arial;" text-anchor="middle"><textPath startOffset="22.145653131862474" xlink:href="#id48">December</textPath></text><path d="M 92.93061703081487 80.22567764915836 l -18.623747973553794 -52.09393767676114 a76.32289156626507,76.32289156626507 0 0,0 1.237500192340394,-0.4304668051431571 l 17.726742009168394 52.40596291447289" fill="red" stroke="none" /><path d="M 93.95794788825049 79.88797359093562 l -17.283804836020103 -57.532165046239264 a81.07228915662651,81.07228915662651 0 0,0 1.3363029126127655,-0.3889783023742621 l 16.293641911025713 57.820387042916046" fill="red" stroke="none" /><path d="M 98.1996594967304 79.07731436759882 l -3.2629234938775915 -37.920116989532616 a59.06024096385542,59.06024096385542 0 0,0 1.0108610370693547,-0.07824703740117442 l 2.6114934620330197 37.970541793928845" fill="red" stroke="none" /></svg>