<?xml version="1.0" encoding="utf-8" ?>
<svg baseProfile="full" height="200mm" version="1.1" viewBox="0,0,200,200" width="200mm" xmlns="http://www.w3.org/2000/svg" xmlns:ev="http://www.w3.org/2001/xml-events" xmlns:xlink="http://www.w3.org/1999/xlink"><defs /><rect fill="#1a1a1a" height="200" width="200" x="0" y="0" /><rect fill="#1a1a1a" height="200" width="180" x="10" y="0" /><text alignment-baseline="middle" fill="#e1ed5e" style="dominant-baseline: central; font-size:9.0px; font-family:Arial;" text-anchor="middle" x="100.0" y="100.0">2024</text><line stroke="#e1ed5e" stroke-width="0.3" x1="100.0" x2="100.0" y1="15.0" y2="10.0" /><path d="M 100.0 14.0 a86.0,86.0 0 0,1 42.35913384403234,11.155469271406648" fill="none" id="id37" stroke="none" /><text fill="#e1ed5e" style="font-size:6.75px; font-family:Arial;" text-anchor="middle"><textPath startOffset="22.145653131862478" xlink:href="#id37">January</textPath></text><line stroke="#e1ed5e" stroke-width="0.3" x1="143.13028292997686" x2="145.6673583964461" y1="26.7553504044142" y2="22.446841604673864" /><path d="M 143.63769802327073 25.89364864446614 a86.0,86.0 0 0,1 29.32050498858742,28.57503671076993" fill="none" id="id38" stroke="none" /><text fill="#e1ed5e" style="font-size:6.75px; font-family:Arial;" text-anchor="middle"><textPath startOffset="20.669276256404974" xlink:href="#id38">February</textPath></text><line stroke="#e1ed5e" stroke-width="0.3" x1="172.87174338648825" x2="177.1583165268699" y1="56.24261187166439" y2="53.66864786411523" /><path d="M 173.72905801456457 55.72781907015455 a86.0,86.0 0 0,1 12.242430191666344,42.057860355516425" fill="none" id="id39" stroke="none" /><text fill="#e1ed5e" style="font-size:6.75px; font-family:Arial;" text-anchor="middle"><textPath startOffset="22.145653131862474" xlink:href="#id39">March</textPath></text><line stroke="#e1ed5e" stroke-width="0.3" x1="184.99686870605535" x2="189.99668451229388" y1="99.2704041080226" y2="99.22748670261217" /><path d="M 185.99683186730306 99.26182062694052 a86.0,86.0 0 0,1 -10.086455211305974,41.156179273409016" fill="none" id="id40" stroke="none" /><text fill="#e1ed5e" style="font-size:6.75px; font-family:Arial;" text-anchor="middle"><textPath startOffset="21.40746469413373" xlink:href="#id40">April</textPath></text><path d="M 120.592083275326 104.11899336999214 l 6.374490614391024 1.2750766508998608 a27.500765420981537,27.500765420981537 0 0,0 -0.09656997124882565,0.46212227114873694 l -6.351662932317834 -1.3843153733340068" fill="red" stroke="none" /><path d="M 118.70294669586154 109.54985784667822 l 11.539518815351466 5.892160529445322 a33.95677622692481,33.95677622692481 0 0,0 -0.26953907622150636,0.5168767187141057 l -11.436671670155011 -6.089383491263931" fill="red" stroke="none" /><line stroke="#e1ed5e" stroke-width="0.3" x1="174.33088141563837" x2="178.70328620479359" y1="141.23008692659167" y2="143.65538615756765" /><path d="M 175.20536237346943 141.71514677278685 a86.0,86.0 0 0,1 -30.301960400862466,31.631185727798858" fill="none" id="id41" stroke="none" /><text fill="#e1ed5e" style="font-size:6.75px; font-family:Arial;" text-anchor="middle"><textPath startOffset="22.145653131862474" xlink:href="#id41">May</textPath></text><path d="M 117.423217284605 111.72311816256416 l 10.578400600801602 7.117620023238337 a33.75002251238181,33.75002251238181 0 0,0 -0.32755242717797145,0.4779087802755426 l -10.45465843680831 -7.298163538583924" fill="red" stroke="none" /><path d="M 117.21940702142032 112.02048342749411 l 10.88469135416751 7.598359912940074 a34.27447095902747,34.27447095902747 0 0,0 -0.3409247375816275,0.47955333858314364 l -10.752651518055922 -7.784090478232722" fill="red" stroke="none" /><path d="M 116.57777611688842 112.89097897827486 l 10.46218648829593 8.135459493268163 a34.25303917154435,34.25303917154435 0 0,0 -0.3649311769154297,0.4610786206716534 l -10.32098888073894 -8.313858057854498" fill="red" stroke="none" /><path d="M 116.1254893667686 113.45245675266167 l 10.43909437710036 8.708663808634382 a34.59468707789284,34.59468707789284 0 0,0 -0.38433945566869404,0.4527509123699064 l -10.288060357924552 -8.886581503453845" fill="red" stroke="none" /><path d="M 112.7482090630111 116.68781488649013 l 7.8708663430009125 10.303216701192119 a33.965601080594325,33.965601080594325 0 0,0 -0.46637521673517235,0.3499766572086394 l -7.692838137354974 -10.436812385664773" fill="red" stroke="none" /><path d="M 112.45986205192187 116.90419585922612 l 7.608313784248737 10.322138867304124 a33.82314272850068,33.82314272850068 0 0,0 -0.47033333169304015,0.3404850610734934 l -7.429999442181729 -10.451224699750695" fill="red" stroke="none" /><path d="M 111.8722381534696 117.32195027204791 l 7.331815331516839 10.697337682638864 a33.968752814047726,33.968752814047726 0 0,0 -0.48381809787604946,0.3255344083666756 l -7.147100945543786 -10.82162176506266" fill="red" stroke="none" /><line stroke="#e1ed5e" stroke-width="0.3" x1="143.1302829299769" x2="145.66735839644613" y1="173.24464959558577" y2="177.55315839532614" /><path d="M 143.63769802327073 174.10635135553383 a86.0,86.0 0 0,1 -40.68552437913181,11.842963189579606" fill="none" id="id42" stroke="none" /><text fill="#e1ed5e" style="font-size:6.75px; font-family:Arial;" text-anchor="middle"><textPath startOffset="21.407464694133747" xlink:href="#id42">June</textPath></text><path d="M 110.65571695917076 118.09573695890943 l 6.703042482765771 11.383231560794384 a34.21017559657812,34.21017559657812 0 0,0 -0.5086035474795272,0.2936423950481048 l -6.5066464674258455 -11.49662085311866" fill="red" stroke="none" /><path d="M 110.02825361518725 118.45085714620011 l 6.125015895597488 11.26933937298154 a33.82629446195408,33.82629446195408 0 0,0 -0.5125669151567213,0.2729130118746453 l -5.930660164654213 -11.372822852578752" fill="red" stroke="none" /><path d="M 108.73861861582097 119.09545874513695 l 5.438849076963763 11.88486678914647 a34.070238631247186,34.070238631247186 0 0,0 -0.533907566431138,0.2388100634345668 l -5.234028107676997 -11.976480603490888" fill="red" stroke="none" /><path d="M 106.72888874123015 119.89276391827305 l 4.181343380487663 12.361398728383275 a34.04943719045475,34.04943719045475 0 0,0 -0.5552932396963033,0.1825359174133912 l -3.968527403143625 -12.431355567198686" fill="red" stroke="none" /><path d="M 106.38641147887787 120.00534299687104 l 3.919836167494967 12.27883096503133 a33.88932913102206,33.88932913102206 0 0,0 -0.5557194253316182,0.17216329850672007 l -3.7084761092917247 -12.344310851344694" fill="red" stroke="none" /><path d="M 105.69591212413111 120.21278271476187 l 3.494997317769417 12.402512509535107 a33.88554705087798,33.88554705087798 0 0,0 -0.5612392144665644,0.1529682436227932 l -3.2815767023681577 -12.460681247302043" fill="red" stroke="none" /><path d="M 102.51750503828377 120.84855314841334 l 2.7073286209392906 22.420564720042165 a43.58343088698784,43.58343088698784 0 0,0 -0.7435418367557417,0.08331541368833921 l -2.32205088258275 -22.463735894237473" fill="red" stroke="none" /><path d="M 101.80034050326958 120.92268563240118 l 3.6996821712394414 42.99591486613987 a64.15479513732552,64.15479513732552 0 0,0 -1.098058214580844,0.08499665041406046 l -2.9610549618833617 -43.053089283548985" fill="red" stroke="none" /><line stroke="#e1ed5e" stroke-width="0.3" x1="101.45913802915013" x2="101.54496967792366" y1="184.9874750549273" y2="189.98673829345242" /><path d="M 101.47630435890484 185.9873277026323 a86.0,86.0 0 0,1 -42.54439059252881,-10.42667462771756" fill="none" id="id43" stroke="none" /><text fill="#e1ed5e" style="font-size:6.75px; font-family:Arial;" text-anchor="middle"><textPath startOffset="22.145653131862474" xlink:href="#id43">July</textPath></text><path d="M 91.59046798132341 119.24265499422711 l -5.156028846270089 11.798003029028449 a33.875461503827104,33.875461503827104 0 0,0 -0.5308552549042568,-0.2374448033124264 l 5.35779750402998 -11.707754474806167" fill="red" stroke="none" /><path d="M 91.26138138417905 119.09545874513695 l -5.336550975202682 11.661326974930557 a33.82440342188204,33.82440342188204 0 0,0 -0.5259071173242039,-0.2461510855147995 l 5.5359468063983766 -11.567999657845231" fill="red" stroke="none" /><path d="M 90.93487009805054 118.94263497670748 l -5.822743952328278 12.167295388460555 a34.48878883385862,34.48878883385862 0 0,0 -0.5318495609147571,-0.2601542715647799 l 6.030753762505104 -12.065547366798555" fill="red" stroke="none" /><path d="M 90.28995756902619 118.62028667847754 l -6.1644123492449685 11.821073487912352 a34.331832507879334,34.331832507879334 0 0,0 -0.5202272894547474,-0.2769917297160454 l 6.366428454486278 -11.713511290473733" fill="red" stroke="none" /><path d="M 89.97174638481275 118.45085714620012 l -6.376361888954272 11.731787691068801 a34.35263394867177,34.35263394867177 0 0,0 -0.5157079764030833,-0.2860545212284041 l 6.576814053513458 -11.620600254407249" fill="red" stroke="none" /><line stroke="#e1ed5e" stroke-width="0.3" x1="58.13341422392154" x2="55.67067388415222" y1="173.97424548756322" y2="178.32567169271397" /><path d="M 57.64086615596768 174.84453072859336 a86.0,86.0 0 0,1 -31.369924170532247,-30.572349798747897" fill="none" id="id44" stroke="none" /><text fill="#e1ed5e" style="font-size:6.75px; font-family:Arial;" text-anchor="middle"><textPath startOffset="22.145653131862474" xlink:href="#id44">August</textPath></text><path d="M 89.65649057296885 118.27599006163327 l -6.634252121771023 11.722087817408966 a34.46924808644755,34.46924808644755 0 0,0 -0.5124551847513061,-0.29586613886378826 l 6.834499774382729 -11.606474781269005" fill="red" stroke="none" /><path d="M 89.03521579738668 117.91015095944536 l -7.027467275827693 11.478839660395531 a34.459162539396665,34.459162539396665 0 0,0 -0.5018499045911086,-0.3131914571233112 l 7.2234813092085135 -11.35651240643067" fill="red" stroke="none" /><path d="M 88.72937992617639 117.7192867562869 l -7.19438710760717 11.31077148909492 a34.4049527239982,34.4049527239982 0 0,0 -0.49561869145370424,-0.32125404790513956 l 7.387491431317884 -11.185603599485885" fill="red" stroke="none" /><path d="M 88.4268655584334 117.5232005979908 l -7.411113617781235 11.221370600556376 a34.44781629896443,34.44781629896443 0 0,0 -0.4906414153320348,-0.33012544086604795 l 7.602651321210276 -11.092495485633208" fill="red" stroke="none" /><path d="M 88.1277618465304 117.32195027204791 l -7.641138540798288 11.14864948921661 a34.51589374155785,34.51589374155785 0 0,0 -0.48586036297758145,-0.3391682671757031 l 7.831393994949634 -11.015836406235778" fill="red" stroke="none" /><path d="M 87.54013794807813 116.9041958592261 l -8.041033591965192 10.90920639271684 a34.552453849617294,34.552453849617294 0 0,0 -0.47443318063503964,-0.35602350354263923 l 8.227119761510998 -10.769563861910186" fill="red" stroke="none" /><path d="M 87.2517909369889 116.68781488649013 l -8.41385624726064 11.014007916078189 a34.86006303466907,34.86006303466907 0 0,0 -0.47242034614551903,-0.3673569185716727 l 8.601686538041388 -10.867949945885723" fill="red" stroke="none" /><path d="M 86.96720088162412 116.46651593811092 l -8.43034131775477 10.651460857460311 a34.58397118415128,34.58397118415128 0 0,0 -0.4623534889526807,-0.37243924241406356 l 8.611945577062713 -10.505173321252837" fill="red" stroke="none" /><path d="M 86.40962598614128 116.0094264158162 l -8.814672120410004 10.383661593665208 a34.620531292210714,34.620531292210714 0 0,0 -0.4497710170489059,-0.3885014921999116 l 8.991622617221772 -10.230815969000574" fill="red" stroke="none" /><path d="M 86.13680546590413 115.77377054828092 l -8.929203911530214 10.159794939967345 a34.52597928860874,34.52597928860874 0 0,0 -0.4418256246676724,-0.3950831980098305 l 9.102294563021257 -10.005016212074132" fill="red" stroke="none" /><path d="M 85.86807049272751 115.53346607816431 l -9.24270184703468 10.15934841294078 a34.734624043223775,34.734624043223775 0 0,0 -0.43760702030662313,-0.40504252490234083 l 9.41573863865527 -9.999188141906062" fill="red" stroke="none" /><path d="M 85.60350026404147 115.28858382429668 l -9.243749837967545 9.816541995663524 a34.48374606033318,34.48374606033318 0 0,0 -0.42747942333039496,-0.40951561757475025 l 9.410901747163255 -9.656414247783191" fill="red" stroke="none" /><path d="M 85.34317274990678 115.03919595460226 l -9.51428924239879 9.762498925836066 a34.63187753264295,34.63187753264295 0 0,0 -0.4221924033060102,-0.41858394290941686 l 9.680473565834765 -9.59773497269799" fill="red" stroke="none" /><path d="M 85.08716467003676 114.78537596483092 l -22.455869643191843 22.263940286708934 a52.62197208464656,52.62197208464656 0 0,0 -0.6304944155224156,-0.6469428138524155 l 22.834750859865068 -21.875174780788782" fill="red" stroke="none" /><path d="M 84.83555147118756 114.52719865689866 l -29.06985864757849 27.848266997573944 a61.256461053579464,61.256461053579464 0 0,0 -0.7209131902549804,-0.7655848255756983 l 29.543627671569723 -27.345140712053755" fill="red" stroke="none" /><path d="M 84.1078160697243 113.72728997021213 l -32.24994707459763 27.856736176682006 a63.61521837010356,63.61521837010356 0 0,0 -0.7067512518774947,-0.8325511976109419 l 32.723392889982236 -27.29901819662151" fill="red" stroke="none" /><path d="M 83.8745106332314 113.45245675266167 l -25.986650851660592 21.678988387720253 a54.84205312922107,54.84205312922107 0 0,0 -0.5968726515317869,-0.7280875847331779 l 26.354970322431008 -21.22969852128858" fill="red" stroke="none" /><path d="M 82.98947788004972 112.3143062007846 l -33.29191244979734 24.100777214574748 a62.099864925709134,62.099864925709134 0 0,0 -0.6177011507766431,-0.8688740254017647 l 33.70072869910394 -23.52572596246348" fill="red" stroke="none" /><line stroke="#e1ed5e" stroke-width="0.3" x1="26.387840678322732" x2="22.057713659400548" y1="142.50000000000003" y2="145.00000000000006" /><path d="M 25.521815274538298 143.00000000000003 a86.0,86.0 0 0,1 -11.493303480769221,-40.785679425670985" fill="none" id="id45" stroke="none" /><text fill="#e1ed5e" style="font-size:6.75px; font-family:Arial;" text-anchor="middle"><textPath startOffset="21.40746469413373" xlink:href="#id45">September</textPath></text><path d="M 80.5471966667186 107.91128576633889 l -37.579557848616446 15.283279022536547 a61.568482665466,61.568482665466 0 0,0 -0.389761698374869,-0.9824540910905664 l 37.83637822195744 -14.635923914232414" fill="red" stroke="none" /><path d="M 80.05021161711548 106.5578916946017 l -37.38332250237775 12.288640633666349 a60.351283205763174,60.351283205763174 0 0,0 -0.3150776232129158,-0.9869761671104634 l 37.588764841367926 -11.645095432864494" fill="red" stroke="none" /><path d="M 79.83685265289637 105.86919833188381 l -42.728441829751446 12.437626685657056 a65.50184601530842,65.50184601530842 0 0,0 -0.30499377501313546,-1.0823153112875312 l 42.93565409683916 -11.702303450466529" fill="red" stroke="none" /><path d="M 79.64726062577567 105.17358676015961 l -37.63500394446091 9.566670832143846 a59.83187753264295,59.83187753264295 0 0,0 -0.24449149544049026,-0.9976087343245923 l 37.7936829664177 -8.919206273211154" fill="red" stroke="none" /><path d="M 79.48165901384964 104.47187691870673 l -37.13933657952392 8.09434554860733 a59.01116614137776,59.01116614137776 0 0,0 -0.2072199275328006,-0.9916223677026521 l 37.272814217881084 -7.45560672961927" fill="red" stroke="none" /><path d="M 79.17382384314188 102.69636545807758 l -37.73404307910161 4.885427338450518 a59.048986942818544,59.048986942818544 0 0,0 -0.12152257257852936,-1.0063812284810663 l 37.8123477379398 -4.236952433046052" fill="red" stroke="none" /><path d="M 79.06263194458094 101.62068470465958 l -44.96867766679875 3.48086005320446 a66.10319675821702,66.10319675821702 0 0,0 -0.07786339248212067,-1.1321166380243832 l 45.02180502044593 -2.7083999910257335" fill="red" stroke="none" /><path d="M 79.03789590574601 101.26102812881392 l -62.886312282761985 3.783084386441755 a84.0,84.0 0 0,0 -0.07423364217370931,-1.440112826493077 l 62.94198751439227 -2.7029997665719474" fill="red" stroke="none" /><line stroke="#e1ed5e" stroke-width="0.3" x1="15.003131293944662" x2="10.003315487706104" y1="100.72959589197737" y2="100.7725132973878" /><path d="M 14.003168132696942 100.73817937305945 a86.0,86.0 0 0,1 10.791469493833604,-42.45332614584628" fill="none" id="id46" stroke="none" /><text fill="#e1ed5e" style="font-size:6.75px; font-family:Arial;" text-anchor="middle"><textPath startOffset="22.145653131862435" xlink:href="#id46">October</textPath></text><path d="M 79.22317932658666 96.9465228501225 l -31.492334190165195 -4.628288627866233 a52.830616839261594,52.830616839261594 0 0,0 0.1395697043646262,-0.8961376225712536 l 31.408242993662302 5.168214432368937" fill="red" stroke="none" /><path d="M 79.407916724674 95.88100663000787 l -12.770614814693397 -2.5544806248658993 a34.023592976136875,34.023592976136875 0 0,0 0.1194751253352537,-0.571731725211429 l 12.724881978533777 2.7733288013627373" fill="red" stroke="none" /><path d="M 79.48165901384962 95.52812308129327 l -61.458328390393895 -13.394556625060975 a83.90103556956325,83.90103556956325 0 0,0 0.3187805401197823,-1.4046058787247842 l 61.21933698871646 14.447596837724767" fill="red" stroke="none" /><line stroke="#e1ed5e" stroke-width="0.3" x1="26.387840678322718" x2="22.05771365940052" y1="57.49999999999999" y2="54.99999999999999" /><path d="M 25.521815274538284 56.99999999999999 a86.0,86.0 0 0,1 29.574782752854787,-30.34633250058573" fill="none" id="id47" stroke="none" /><text fill="#e1ed5e" style="font-size:6.75px; font-family:Arial;" text-anchor="middle"><textPath startOffset="21.40746469413373" xlink:href="#id47">November</textPath></text><line stroke="#e1ed5e" stroke-width="0.3" x1="56.869717070023135" x2="54.33264160355391" y1="26.7553504044142" y2="22.446841604673864" /><path d="M 56.362301976729285 25.89364864446614 a86.0,86.0 0 0,1 42.16139366436587,-11.88097634709845" fill="none" id="id48" stroke="none" /><text fill="#e1ed5e" style="font-size:6.75px; font-family:Arial;" text-anchor="middle"><textPath startOffset="22.145653131862474" xlink:href="#id48">December</textPath></text></svg>