<?xml version="1.0" encoding="utf-8" ?>
<svg baseProfile="full" height="200mm" version="1.1" viewBox="0,0,200,200" width="200mm" xmlns="http://www.w3.org/2000/svg" xmlns:ev="http://www.w3.org/2001/xml-events" xmlns:xlink="http://www.w3.org/1999/xlink"><defs /><rect fill="#1a1a1a" height="200" width="200" x="0" y="0" /><rect fill="#1a1a1a" height="200" width="180" x="10" y="0" /><text alignment-baseline="middle" fill="#e1ed5e" style="dominant-baseline: central; font-size:9.0px; font-family:Arial;" text-anchor="middle" x="100.0" y="100.0">2025</text><line stroke="#e1ed5e" stroke-width="0.3" x1="100.0" x2="100.0" y1="15.0" y2="10.0" /><path d="M 100.0 14.0 a86.0,86.0 0 0,1 42.46469731375804,11.215312516191453" fill="none" id="id49" stroke="none" /><text fill="#e1ed5e" style="font-size:6.75px; font-family:Arial;" text-anchor="middle"><textPath startOffset="22.20632615414155" xlink:href="#id49">January</textPath></text><line stroke="#e1ed5e" stroke-width="0.3" x1="143.23703022742887" x2="145.7803849466894" y1="26.81831364943548" y2="22.513508569990506" /><path d="M 143.74570117128098 25.957352633546492 a86.0,86.0 0 0,1 28.547481713284135,27.462654790039103" fill="none" id="id50" stroke="none" /><text fill="#e1ed5e" style="font-size:6.75px; font-family:Arial;" text-anchor="middle"><textPath startOffset="19.985693538727396" xlink:href="#id50">February</textPath></text><line stroke="#e1ed5e" stroke-width="0.3" x1="172.23445277983987" x2="176.4835382374775" y1="55.19839476539836" y2="52.563006222186495" /><path d="M 173.08426987136738 54.67131705675599 a86.0,86.0 0 0,1 12.851231095245387,41.99856678651699" fill="none" id="id51" stroke="none" /><text fill="#e1ed5e" style="font-size:6.75px; font-family:Arial;" text-anchor="middle"><textPath startOffset="22.20632615414155" xlink:href="#id51">March</textPath></text><line stroke="#e1ed5e" stroke-width="0.3" x1="184.98032266829074" x2="189.97916517819016" y1="98.17113171792111" y2="98.06355123074" /><path d="M 185.9800911702706 98.14961562048488 a86.0,86.0 0 0,1 -9.607161424134198,41.387399972396054" fill="none" id="id52" stroke="none" /><text fill="#e1ed5e" style="font-size:6.75px; font-family:Arial;" text-anchor="middle"><textPath startOffset="21.466115282336823" xlink:href="#id52">April</textPath></text><path d="M 119.41010516605496 108.01547362559984 l 13.704607576505214 5.659367614905079 a35.82716124639644,35.82716124639644 0 0,0 -0.24029621467713683,0.5679892691424467 l -13.60516038063577 -5.89443140971369" fill="#ffa80f" stroke="none" /><path d="M 118.81262510543309 109.33194174019688 l 15.855391644965476 7.865015662066791 a38.69892413622356,38.69892413622356 0 0,0 -0.3011537933419959,0.594205004731535 l -15.717659181837211 -8.13677487850102" fill="#ffce13" stroke="none" /><line stroke="#e1ed5e" stroke-width="0.3" x1="174.80103733775053" x2="179.2010983576182" y1="140.37084112569926" y2="142.7455964860345" /><path d="M 175.68104954172406 140.8457921977663 a86.0,86.0 0 0,1 -30.038265399797805,32.042727171017184" fill="none" id="id53" stroke="none" /><text fill="#e1ed5e" style="font-size:6.75px; font-family:Arial;" text-anchor="middle"><textPath startOffset="22.206326154141568" xlink:href="#id53">May</textPath></text><path d="M 118.48025628344425 109.97397251340804 l 16.067385831347316 8.671723064130173 a39.2581397835143,39.2581397835143 0 0,0 -0.3260736047283382,0.5919183070628876 l -15.915735817167468 -8.947011889590867" fill="#ffd513" stroke="none" /><path d="M 118.12598468904814 110.60418214915192 l 26.010344188591652 15.21674172573989 a51.13448578550623,51.13448578550623 0 0,0 -0.4510040323244244,0.755908699879206 l -25.744559280569 -15.6622125195052" fill="#98ff23" stroke="none" /><path d="M 117.35343817320211 111.8261652097733 l 12.21420967744106 8.323841080397035 a35.78084058422254,35.78084058422254 0 0,0 -0.35123000090513595,0.5059730122751519 l -12.069118769373787 -8.532855354859205" fill="#ffa70f" stroke="none" /><path d="M 116.93607887273984 112.41649034213515 l 23.885835891489545 17.51162431924396 a50.61739594450374,50.61739594450374 0 0,0 -0.521211503915832,0.6982479846619126 l -23.58086312087862 -17.92018518341519" fill="#9eff22" stroke="none" /><path d="M 116.498646956653 112.99209946851258 l 12.111931609818637 9.537716677253398 a36.41644987461385,36.41644987461385 0 0,0 -0.392052715390593,0.4891460433105421 l -11.94596098237319 -9.74479055414219" fill="#ffb010" stroke="none" /><path d="M 116.0416608686014 113.55231037782055 l 22.53654122441287 19.039312950044906 a50.502391902512045,50.502391902512045 0 0,0 -0.566726996972334,0.6592315317903791 l -22.205471717869756 -19.424421580996814" fill="#9fff22" stroke="none" /><path d="M 115.07121518719521 114.62390073753431 l 13.521827225357299 13.120498690889873 a39.841106586664615,39.841106586664615 0 0,0 -0.4818105964688157,0.48807159046423937 l -13.293976003832949 -13.351310775334776" fill="#ffdd14" stroke="none" /><path d="M 114.0293411484842 115.62618273729858 l 6.6410919649404 7.396991456763904 a30.940804046868347,30.940804046868347 0 0,0 -0.39936864495821256,0.3523963953794868 l -6.512780967075599 -7.510210993915679" fill="#ff6409" stroke="none" /><path d="M 113.20401910651253 116.32954008644616 l 18.540236818517535 22.928892930097476 a50.48685321099197,50.48685321099197 0 0,0 -0.6804726436976295,0.5406086226549286 l -18.142806682102556 -23.244635466757533" fill="#9fff22" stroke="none" /><path d="M 112.34349029814194 116.9893568818739 l 10.862493951859976 14.950940286567537 a39.48037852173766,39.48037852173766 0 0,0 -0.5532379278632974,0.3947205721524315 l -10.603528696147794 -15.135705120564188" fill="#ffd814" stroke="none" /><line stroke="#e1ed5e" stroke-width="0.3" x1="143.8653032363475" x2="146.44561519142675" y1="172.8068346515853" y2="177.08958963109032" /><path d="M 144.38136562736335 173.6633856474863 a86.0,86.0 0 0,1 -40.68145358897372,12.25698825130547" fill="none" id="id54" stroke="none" /><text fill="#e1ed5e" style="font-size:6.75px; font-family:Arial;" text-anchor="middle"><textPath startOffset="21.466115282336833" xlink:href="#id54">June</textPath></text><path d="M 110.5260780823613 118.17145234162733 l 14.76877541792551 25.495735121017436 a50.46437232839354,50.46437232839354 0 0,0 -0.7554065556180108,0.42893955717997145 l -14.327720095386303 -25.746177843992033" fill="#a0ff22" stroke="none" /><path d="M 109.89434966115114 118.52300852407294 l 13.903227520162474 26.027946321651726 a50.50853648014735,50.50853648014735 0 0,0 -0.7703973206982652,0.40303546696334575 l -13.453139296937714 -26.26341120755979" fill="#9fff22" stroke="none" /><path d="M 108.2653958097858 119.30500536409082 l 7.292358861665459 17.0323394282766 a39.52779220974092,39.52779220974092 0 0,0 -0.6277927069048818,0.26241740240173667 l -6.9980946952631164 -17.155341873698312" fill="#ffd914" stroke="none" /><path d="M 107.2578585660854 119.70592522655815 l 10.182637272859505 27.647037604972283 a50.46259985407566,50.46259985407566 0 0,0 -0.8176874119100356,0.293193613986301 l -9.705230300319736 -27.818218759998544" fill="#a0ff22" stroke="none" /><path d="M 106.2309692047433 120.05430185196036 l 8.752712340794455 28.170502780217433 a50.49893557759218,50.49893557759218 0 0,0 -0.8323307317873558,0.2507744217744259 l -8.266506634566852 -28.316992571097582" fill="#9fff22" stroke="none" /><path d="M 104.83641907484287 120.43548508189849 l 4.099757174749831 17.322842641945478 a38.80137315179695,38.80137315179695 0 0,0 -0.6512715338998668,0.1482272807575376 l -3.800965491457102 -17.3908466562807" fill="#ffcf13" stroke="none" /><path d="M 103.7750983002368 120.6578951692458 l 5.304935621285064 29.029390820692072 a50.51013170703344,50.51013170703344 0 0,0 -0.8566302551686753,0.1489361502090813 l -4.804456394644338 -29.116405549422158" fill="#9fff22" stroke="none" /><path d="M 101.98527174616119 120.90594882070398 l 0.2932257610760049 3.087820478894381 a24.101711891333256,24.101711891333256 0 0,0 -0.41335088046761553,0.035665653256543355 l -0.24003056286684765 -3.0924103844295874" fill="#ff0000" stroke="none" /><line stroke="#e1ed5e" stroke-width="0.3" x1="102.19456741930631" x2="102.32365962044197" y1="184.97166512339345" y2="189.96999836594603" /><path d="M 102.22038585953345 185.97133177190398 a86.0,86.0 0 0,1 -42.740103519485714,-10.115201625700543" fill="none" id="id55" stroke="none" /><text fill="#e1ed5e" style="font-size:6.75px; font-family:Arial;" text-anchor="middle"><textPath startOffset="22.20632615414155" xlink:href="#id55">July</textPath></text><path d="M 93.42475214034765 119.94407469862007 l -5.61924315563568 17.044316448267395 a38.94671604586301,38.94671604586301 0 0,0 -0.6348876050094437,-0.21538834627111783 l 5.91180049358235 -16.945065115098156" fill="#ffd113" stroke="none" /><path d="M 93.08242187328487 119.8279376855182 l -9.737654440742187 27.911156465077788 a50.5610312611952,50.5610312611952 0 0,0 -0.8192823777416013,-0.29376551198733286 l 10.216656379113516 -27.7394034120505" fill="#9eff22" stroke="none" /><line stroke="#e1ed5e" stroke-width="0.3" x1="58.666819895761336" x2="56.23545636021788" y1="174.27360380694188" y2="178.64263932499728" /><path d="M 58.180547188652646 175.14741091055294 a86.0,86.0 0 0,1 -31.652253787137756,-30.449443065178592" fill="none" id="id56" stroke="none" /><text fill="#e1ed5e" style="font-size:6.75px; font-family:Arial;" text-anchor="middle"><textPath startOffset="22.20632615414155" xlink:href="#id56">August</textPath></text><path d="M 84.43433777217949 114.09645910891817 l -13.614659117634087 12.329606201435679 a39.36785594379099,39.36785594379099 0 0,0 -0.4505578944956776,-0.5062065707973438 l 13.824875861778102 -12.093425460897471" fill="#ffd714" stroke="none" /><path d="M 84.19399662182784 113.82643327865904 l -22.343326922114112 19.545011570635378 a50.685547582026174,50.685547582026174 0 0,0 -0.5687823306767225,-0.6616223492272046 l 22.676451762361612 -19.15751212224664" fill="#9dff22" stroke="none" /><path d="M 83.72743513129214 113.27417163493432 l -22.887829632806486 18.670503473072603 a50.53710285790383,50.53710285790383 0 0,0 -0.5440730348958644,-0.6788147660860601 l 23.205820579757212 -18.273760873408282" fill="#9fff22" stroke="none" /><path d="M 82.85270091963577 112.12312394758628 l -27.58378320941571 19.50170818295384 a54.78138123578035,54.78138123578035 0 0,0 -0.5377421063023363,-0.7746576108299718 l 27.91538622288018 -19.024009309936858" fill="#6fff27" stroke="none" /><path d="M 82.44556493220864 111.52570212397912 l -27.1779500681858 17.844206071947312 a53.512407789133704,53.512407789133704 0 0,0 -0.49892710448079425,-0.7743459458720466 l 27.48108203604364 -17.373738526153815" fill="#7dff26" stroke="none" /><path d="M 82.05923443525364 110.91462005526583 l -27.94753593836865 17.00243700010097 a53.713110964394836,53.713110964394836 0 0,0 -0.47374739887375766,-0.7940278904118905 l 28.236064212940637 -16.51884701580297" fill="#7bff26" stroke="none" /><line stroke="#e1ed5e" stroke-width="0.3" x1="26.63291911575756" x2="22.317208475507996" y1="142.92168965132927" y2="145.44649492493687" /><path d="M 25.769776987707644 143.4266507060508 a86.0,86.0 0 0,1 -11.730757126820373,-40.83630448921669" fill="none" id="id57" stroke="none" /><text fill="#e1ed5e" style="font-size:6.75px; font-family:Arial;" text-anchor="middle"><textPath startOffset="21.46611528233685" xlink:href="#id57">September</textPath></text><path d="M 81.69416730710424 110.29060199501025 l -5.218600784220614 2.9336302009415784 a26.986650173589947,26.986650173589947 0 0,0 -0.22414802000730535,-0.40689376450681414 l 5.268325213679436 -2.843365918036942" fill="#ff2b04" stroke="none" /><path d="M 81.35079622478065 109.6543875284942 l -15.930419462587336 8.246917393205191 a38.938503581523506,38.938503581523506 0 0,0 -0.3030181929440376,-0.5978836420220082 l 16.07001632531764 -7.971479539480497" fill="#ffd113" stroke="none" /><path d="M 81.02952815118164 109.00673069616217 l -29.47077263881985 13.992024799436301 a53.623660093819225,53.623660093819225 0 0,0 -0.38870867639202505,-0.8372439078011662 l 29.707255932051698 -13.482660824356307" fill="#7cff26" stroke="none" /><path d="M 80.58989483394504 108.01547362559985 l -30.017222884753085 12.395721521759906 a53.47595390066266,53.47595390066266 0 0,0 -0.3440219796224748,-0.8538343403857709 l 30.22614747863295 -11.87718781353133" fill="#7eff26" stroke="none" /><path d="M 80.32549172779594 107.34259656027581 l -30.492096511522814 11.379759019310109 a53.546380213559715,53.546380213559715 0 0,0 -0.3148418508268817,-0.8663095542811892 l 30.68346262335492 -10.853201668022802" fill="#7dff26" stroke="none" /><path d="M 79.97269907076064 106.31721596034903 l -33.719517456928706 10.636154847165821 a56.35722906932907,56.35722906932907 0 0,0 -0.28386123863210794,-0.9276749519510818 l 33.89760546806695 -10.054152922662691" fill="#5eff29" stroke="none" /><path d="M 79.67330655649465 105.27499134158121 l -17.233995764895813 4.472403674180436 a38.80485901795545,38.80485901795545 0 0,0 -0.16222036057865977,-0.6479897025574305 l 17.30842743976953 -4.175086132225613" fill="#ffcf13" stroke="none" /><path d="M 79.50377843672027 104.57218783832718 l -13.384651273798116 2.9857766508510344 a34.713633797427754,34.713633797427754 0 0,0 -0.12507811765000537,-0.584323325011367 l 13.434063430172563 -2.7549395064235034" fill="#ff990e" stroke="none" /><path d="M 79.10278846688536 102.07522291339032 l -35.21218143390929 3.4967883454838296 a56.385381869744705,56.385381869744705 0 0,0 -0.08759980226531894,-0.9666565184240162 l 35.26715583245168 -2.890150438511247" fill="#5eff2a" stroke="none" /><path d="M 79.0235259727143 100.99374915477108 l -47.59330191958983 2.254707034835115 a68.64667975234127,68.64667975234127 0 0,0 -0.04575748111330632,-1.180797268737583 l 47.62506153355433 -1.4351325190835351" fill="#39ff8c" stroke="none" /><path d="M 79.0095281055655 100.63252640178507 l -23.802978512089698 0.7172784121166699 a44.813783285473406,44.813783285473406 0 0,0 -0.016598037963908227,-0.7712456034449614 l 23.811798612738613 -0.30744299288157967" fill="#e3ff1b" stroke="none" /><line stroke="#e1ed5e" stroke-width="0.3" x1="15.007084014347285" x2="10.007500721073583" y1="101.09737516637583" y2="101.16192664675087" /><path d="M 14.007167355692545 101.11028546245083 a86.0,86.0 0 0,1 10.666146001902534,-42.60595125391555" fill="none" id="id58" stroke="none" /><text fill="#e1ed5e" style="font-size:6.75px; font-family:Arial;" text-anchor="middle"><textPath startOffset="22.20632615414155" xlink:href="#id58">October</textPath></text><path d="M 79.00019446554 99.90962569577889 l -29.628731278877083 -0.1275095604999332 a50.62900565128584,50.62900565128584 0 0,0 0.011251676619604292,-0.8714547539710138 l 29.62214659513976 0.6375005725314189" fill="#9eff22" stroke="none" /><path d="M 79.05617556472873 98.46500227214037 l -29.554166596643572 -2.1660599149328843 a50.63343683708054,50.63343683708054 0 0,0 0.07118944564798543,-0.8686915531590058 l 29.51250266717609 2.6744653852996687" fill="#9eff22" stroke="none" /><path d="M 79.12142395522702 97.74499172005258 l -29.597726184768003 -3.1967274717941243 a50.76985827707993,50.76985827707993 0 0,0 0.10132127802143998,-0.8680588342259474 l 29.538314553742975 3.7057300443449335" fill="#9cff22" stroke="none" /><path d="M 79.32604984820605 96.31383870115002 l -61.95330282387485 -11.046261867158682 a83.930371300546,83.930371300546 0 0,0 0.2658365661443973,-1.420109566180482 l 61.753980533820595 12.111049510801738" fill="#4dd3ff" stroke="none" /><path d="M 80.2630227832202 92.82701384747504 l -27.949035034074452 -10.15748455672383 a50.737569703255915,50.737569703255915 0 0,0 0.3053807619557326,-0.8182686162787544 l 27.770049683617092 10.637076310031926" fill="#9cff22" stroke="none" /><path d="M 80.52162464483688 92.15188598940014 l -18.649402796812165 -7.51410919598001 a41.106269213527824,41.106269213527824 0 0,0 0.27008446116591955,-0.6540309456205624 l 18.517296648760045 7.834014712053884" fill="#ffed16" stroke="none" /><path d="M 80.803312248108 91.48605970444005 l -32.47636240587149 -14.403620776365734 a56.52715027393638,56.52715027393638 0 0,0 0.40214406093288274,-0.8860711320503217 l 32.223616027975254 14.960513917258126" fill="#5dff2a" stroke="none" /><path d="M 81.26839172434947 90.50648371742162 l -15.901733698989515 -8.059284903412252 a38.82742852426977,38.82742852426977 0 0,0 0.307273921684931,-0.5935554133703678 l 15.760650344144471 8.331813039042956" fill="#ffd013" stroke="none" /><line stroke="#e1ed5e" stroke-width="0.3" x1="26.266209847984243" x2="21.928928074336255" y1="57.711370442889674" y2="55.22380399835377" /><path d="M 25.398753493254645 57.213857153982495 a86.0,86.0 0 0,1 29.58750427330803,-30.492523968695096" fill="none" id="id59" stroke="none" /><text fill="#e1ed5e" style="font-size:6.75px; font-family:Arial;" text-anchor="middle"><textPath startOffset="21.46611528233685" xlink:href="#id59">November</textPath></text><path d="M 81.96595687620814 89.24020034530311 l -53.87238815094394 -32.14232656788415 a83.73247454295483,83.73247454295483 0 0,0 0.7491432922391776,-1.2313945984753663 l 53.31112906041855 33.064888939566586" fill="#4dd5ff" stroke="none" /><path d="M 82.95767976084542 87.72973835380427 l -24.125527696065873 -17.370084180389455 a50.7281165068939,50.7281165068939 0 0,0 0.5163092902041682,-0.7042452915984407 l 23.822955793348072 17.782791915659395" fill="#9dff22" stroke="none" /><path d="M 83.84228863543731 86.58626213691792 l -27.423283780222285 -22.76614129768298 a56.64174073858724,56.64174073858724 0 0,0 0.6292341403774467,-0.7448147515423227 l 27.027339026357716 23.23481499885442" fill="#5bff2a" stroke="none" /><path d="M 84.31358615837235 86.03803664274999 l -13.381820019965108 -11.91071985339646 a38.91475242566393,38.91475242566393 0 0,0 0.44966248333045433,-0.4965285450739016 l 13.174813896018609 12.139301185739917" fill="#ffd113" stroke="none" /><path d="M 85.05521093208273 85.24692304244772 l -44.83436720375183 -44.259230872656865 a84.0,84.0 0 0,0 1.0246567993307472,-1.0202565973995625 l 44.06587460425377 45.02442332070654" fill="#4dd2ff" stroke="none" /><path d="M 86.10567301691215 84.25364557470407 l -11.788617939313838 -13.35996745166451 a38.817414044373756,38.817414044373756 0 0,0 0.5048226902863953,-0.4377772624109639 l 11.55690145038067 13.560909707495155" fill="#ffd013" stroke="none" /><line stroke="#e1ed5e" stroke-width="0.3" x1="56.762969772571076" x2="54.21961505331055" y1="26.818313649435495" y2="22.513508569990535" /><path d="M 56.25429882871897 25.957352633546506 a86.0,86.0 0 0,1 42.265352541879196,-11.944610805530505" fill="none" id="id60" stroke="none" /><text fill="#e1ed5e" style="font-size:6.75px; font-family:Arial;" text-anchor="middle"><textPath startOffset="22.20632615414155" xlink:href="#id60">December</textPath></text></svg>